<?xml version="1.0" encoding="UTF-8" standalone="no"?>
<!-- Created with Inkscape (http://www.inkscape.org/) -->

<svg
   xmlns:dc="http://purl.org/dc/elements/1.1/"
   xmlns:cc="http://creativecommons.org/ns#"
   xmlns:rdf="http://www.w3.org/1999/02/22-rdf-syntax-ns#"
   xmlns:svg="http://www.w3.org/2000/svg"
   xmlns="http://www.w3.org/2000/svg"
   xmlns:sodipodi="http://sodipodi.sourceforge.net/DTD/sodipodi-0.dtd"
   xmlns:inkscape="http://www.inkscape.org/namespaces/inkscape"
   width="64"
   height="64"
   viewBox="0 0 16.933333 16.933334"
   version="1.1"
   id="svg8"
   inkscape:version="0.92.4 (5da689c313, 2019-01-14)"
   sodipodi:docname="Analyse.svg">
  <defs
     id="defs2" />
  <sodipodi:namedview
     id="base"
     pagecolor="#ffffff"
     bordercolor="#666666"
     borderopacity="1.0"
     inkscape:pageopacity="0.0"
     inkscape:pageshadow="2"
     inkscape:zoom="1.4"
     inkscape:cx="22.475056"
     inkscape:cy="54.501082"
     inkscape:document-units="mm"
     inkscape:current-layer="layer1"
     showgrid="false"
     units="px"
     inkscape:window-width="1920"
     inkscape:window-height="1017"
     inkscape:window-x="-8"
     inkscape:window-y="-8"
     inkscape:window-maximized="1" />
  <metadata
     id="metadata5">
    <rdf:RDF>
      <cc:Work
         rdf:about="">
        <dc:format>image/svg+xml</dc:format>
        <dc:type
           rdf:resource="http://purl.org/dc/dcmitype/StillImage" />
        <dc:title></dc:title>
      </cc:Work>
    </rdf:RDF>
  </metadata>
  <g
     inkscape:label="Layer 1"
     inkscape:groupmode="layer"
     id="layer1"
     transform="translate(0,-280.06665)">
    <path
       style="fill:none;stroke:#000000;stroke-width:1.165;stroke-linecap:butt;stroke-linejoin:miter;stroke-opacity:1;stroke-miterlimit:4;stroke-dasharray:none"
       d="m 9.4494047,283.58183 c -0.5165854,0.15954 -1.5378096,-0.13527 -2.078869,0 -0.2733151,0.0683 -0.4985073,0.26355 -0.7559525,0.37797 -0.3100051,0.13778 -0.6187492,0.28478 -0.9449405,0.37798 -0.1211443,0.0346 -0.2652853,-0.0563 -0.3779761,0 -0.1593689,0.0797 -0.2251885,0.2863 -0.3779761,0.37798 -0.1708221,0.10249 -0.3887848,0.0999 -0.5669645,0.18899 -0.079684,0.0398 -0.1259919,0.12599 -0.1889879,0.18898 -0.3221363,0.32214 -0.358055,0.31822 -0.5669642,0.94494 -0.039842,0.11953 0,0.25199 0,0.37798 0,0.44097 0,0.88194 0,1.32292 0,0.31498 0,0.62996 0,0.94494 0,0.18899 -0.049726,0.38463 0,0.56696 0.3117109,1.14294 0.7902135,2.22697 1.7008927,3.02381 0.1499214,0.13118 0.3980339,0.0834 0.5669642,0.18899 0.3420584,0.21379 0.5990524,0.54842 0.9449406,0.75595 0.2908993,0.17454 0.633126,0.24434 0.9449403,0.37798 0.1294739,0.0555 0.2485025,0.1335 0.3779764,0.18899 1.0552131,0.45223 2.2268969,0.90281 3.4017859,0.75595 1.008968,-0.12612 0.46053,-0.12545 1.133928,-0.37798 0.583633,-0.21886 1.173897,-0.1926 1.511905,-0.75595 0.102493,-0.17082 0.125992,-0.37798 0.188988,-0.56696 0.26214,-0.78642 0.188988,-0.61999 0.188988,-1.51191 0,-0.063 0.02817,-0.13264 0,-0.18899 -0.101578,-0.20315 -0.257594,-0.37435 -0.377976,-0.56696 -0.194683,-0.31149 -0.363208,-0.63931 -0.566964,-0.94494 -0.04942,-0.0741 -0.119421,-0.13334 -0.188988,-0.18899 -0.245959,-0.19677 -0.513978,-0.36532 -0.755953,-0.56696 -0.136881,-0.11407 -0.27914,-0.22973 -0.377976,-0.37798 -0.03494,-0.0524 0.05635,-0.16082 0,-0.18899 -0.112691,-0.0563 -0.255746,0.0306 -0.377976,0 -0.136658,-0.0342 -0.247188,-0.13667 -0.377976,-0.18899 -0.184963,-0.074 -0.377977,-0.12599 -0.566965,-0.18899 -0.188988,-0.063 -0.373701,-0.14067 -0.566964,-0.18898 -0.159999,-0.04 -0.5597324,0 -0.7559524,0 -0.062996,0 -0.1259919,0 -0.1889879,0 -0.062996,0 -0.1365723,-0.035 -0.1889881,0 -0.8072356,0.53815 -0.2419591,0.15891 -0.3779761,0.56696 -0.044545,0.13364 -0.1444432,0.24434 -0.1889882,0.37798 -0.019921,0.0598 0.01992,0.12922 0,0.18899 -0.044545,0.13363 -0.1889882,0.23711 -0.1889882,0.37797 0,0.45631 0.2341076,0.27923 0.3779764,0.56697 0.028173,0.0563 -0.044545,0.14444 0,0.18898 0.099605,0.0996 0.2783705,0.0894 0.3779761,0.18899 0.099606,0.0996 0.1044699,0.26529 0.1889881,0.37798 0.2415299,0.32204 0.5363292,0.56696 0.9449403,0.56696"
       id="path825"
       inkscape:connector-curvature="0" />
    <path
       style="fill:none;stroke:#e6a6a6;stroke-width:1.16499996;stroke-linecap:butt;stroke-linejoin:miter;stroke-miterlimit:4;stroke-dasharray:none;stroke-opacity:1"
       d="m 12.095238,283.35501 c -0.104183,0.49748 0.06251,1.01183 0,1.51191 -0.07405,0.59241 -0.393259,1.78148 -0.566965,2.26785 -0.161362,0.45182 -0.388784,0.87747 -0.566964,1.32292 -0.91378,2.28445 0.697248,-1.54435 -0.377976,1.32292 -0.09892,0.26379 -0.266999,0.497 -0.377976,0.75595 -0.669178,1.56141 0.330972,-0.31217 -0.566965,0.94494 -0.213504,0.29891 -0.331807,0.66275 -0.566964,0.94494 -0.09018,0.10822 -0.2697619,0.0988 -0.3779762,0.18899 -0.2737628,0.22814 -0.5039683,0.50397 -0.7559524,0.75595 -0.062996,0.063 -0.1093036,0.14915 -0.1889879,0.18899 -0.056345,0.0282 -0.1444432,-0.0446 -0.1889882,0 -0.099606,0.0996 -0.089383,0.27837 -0.1889882,0.37798 -0.044545,0.0445 -0.1278728,-0.0153 -0.1889881,0 -0.1932628,0.0483 -0.3716219,0.14992 -0.5669643,0.18898 -0.1235453,0.0247 -0.255746,-0.0306 -0.377976,0 -0.1366576,0.0342 -0.2443414,0.14445 -0.3779764,0.18899 -0.059763,0.0199 -0.1259919,0 -0.1889879,0 -0.1259922,0 -0.2519841,0 -0.3779763,0 -0.062996,0 -0.1326428,0.0282 -0.1889879,0 -0.079685,-0.0398 -0.1093039,-0.14914 -0.1889882,-0.18899 -0.1126908,-0.0563 -0.2731444,0.0699 -0.3779763,0 -0.5786374,-0.38575 -0.2184001,-0.2912 -0.5669643,-0.75595 -0.1069078,-0.14254 -0.2710682,-0.23543 -0.377976,-0.37797 -0.09205,-0.12274 -0.5161296,-0.98143 -0.5669643,-1.13393 -0.019921,-0.0598 0,-0.126 0,-0.18899 0,-0.31498 0,-0.62996 0,-0.94494 0,-0.063 0.012353,-0.12722 0,-0.18899 -0.050939,-0.25469 -0.1567714,-0.49822 -0.1889881,-0.75595 -0.022632,-0.18105 -0.01311,-1.9871 0,-2.07887 0.01992,-0.13945 0.1366726,-0.24719 0.1889881,-0.37798 0.073985,-0.18496 0.125992,-0.37797 0.1889879,-0.56696 0.062996,-0.18899 0.1259922,-0.37798 0.1889882,-0.56697 0.062996,-0.18898 0.061456,-0.41392 0.1889882,-0.56696 0.2016453,-0.24197 0.5332277,-0.34424 0.7559524,-0.56696 0.044545,-0.0446 0,-0.126 0,-0.18899 0.1259919,-0.12599 0.2186074,-0.29829 0.377976,-0.37798 0.1126908,-0.0563 0.255746,0.0306 0.3779764,0 0.1366575,-0.0342 0.2385285,-0.16907 0.377976,-0.18899 0.3118144,-0.0445 0.6299603,0 0.9449406,0 0.1889879,0 0.3810244,-0.0338 0.5669643,0 0.9559517,0.17381 1.4970027,0.29344 2.2678569,0.75596 0.07639,0.0458 0.133334,0.11942 0.188988,0.18898 0.196767,0.24596 0.365319,0.51398 0.566964,0.75596 0.114068,0.13688 0.251985,0.25198 0.377977,0.37797 0.377976,0.50397 0.740395,1.01999 1.133928,1.51191 0.708742,0.88592 0.254799,-0.24636 1.133929,1.5119 0.178179,0.35636 0.216161,0.76985 0.377976,1.13393 0.09225,0.20756 0.276398,0.36381 0.377976,0.56696 0.151715,0.30343 0.226262,0.64152 0.377976,0.94495 0.03984,0.0797 0.149146,0.1093 0.188988,0.18898 0.02817,0.0564 -0.02817,0.13265 0,0.18899 0.116767,0.23353 0.182465,0.18899 0.377977,0.18899"
       id="path827"
       inkscape:connector-curvature="0" />
  </g>
</svg>
