<?xml version="1.0" encoding="UTF-8" standalone="no"?>
<!-- Created with Inkscape (http://www.inkscape.org/) -->

<svg
   xmlns:dc="http://purl.org/dc/elements/1.1/"
   xmlns:cc="http://creativecommons.org/ns#"
   xmlns:rdf="http://www.w3.org/1999/02/22-rdf-syntax-ns#"
   xmlns:svg="http://www.w3.org/2000/svg"
   xmlns="http://www.w3.org/2000/svg"
   xmlns:sodipodi="http://sodipodi.sourceforge.net/DTD/sodipodi-0.dtd"
   xmlns:inkscape="http://www.inkscape.org/namespaces/inkscape"
   width="64"
   height="64"
   viewBox="0 0 16.933333 16.933334"
   version="1.1"
   id="svg8"
   inkscape:version="0.92.4 (5da689c313, 2019-01-14)"
   sodipodi:docname="FEA.svg">
  <defs
     id="defs2" />
  <sodipodi:namedview
     id="base"
     pagecolor="#ffffff"
     bordercolor="#666666"
     borderopacity="1.0"
     inkscape:pageopacity="0.0"
     inkscape:pageshadow="2"
     inkscape:zoom="5.6"
     inkscape:cx="50.487597"
     inkscape:cy="44.091807"
     inkscape:document-units="mm"
     inkscape:current-layer="layer1"
     showgrid="false"
     inkscape:window-width="1920"
     inkscape:window-height="1017"
     inkscape:window-x="-8"
     inkscape:window-y="-8"
     inkscape:window-maximized="1"
     units="px" />
  <metadata
     id="metadata5">
    <rdf:RDF>
      <cc:Work
         rdf:about="">
        <dc:format>image/svg+xml</dc:format>
        <dc:type
           rdf:resource="http://purl.org/dc/dcmitype/StillImage" />
        <dc:title></dc:title>
      </cc:Work>
    </rdf:RDF>
  </metadata>
  <g
     inkscape:label="Layer 1"
     inkscape:groupmode="layer"
     id="layer1"
     transform="translate(0,-280.06665)">
    <flowRoot
       xml:space="preserve"
       id="flowRoot4522"
       style="font-style:normal;font-weight:normal;font-size:40px;line-height:1.25;font-family:sans-serif;letter-spacing:0px;word-spacing:0px;fill:#000000;fill-opacity:1;stroke:none"
       transform="scale(0.26458333)"><flowRegion
         id="flowRegion4524"><rect
           id="rect4526"
           width="148.57143"
           height="134.28572"
           x="231.42857"
           y="433.94824" /></flowRegion><flowPara
         id="flowPara4528" /></flowRoot>    <path
       style="fill:none;stroke:#000000;stroke-width:0.26458332px;stroke-linecap:butt;stroke-linejoin:miter;stroke-opacity:1"
       d="m 1.3701637,285.70794 c 0.8189484,0 1.6378969,0 2.4568453,0 0.2047369,0 0.4096252,-0.008 0.6142111,0 0.2679978,0.0103 0.5352801,0.0351 0.8031993,0.0473 0.078664,0.004 0.1574903,0 0.2362354,0 0.1889879,0.0157 0.3777411,0.0346 0.5669642,0.0472 0.1687394,0.0113 0.2887319,-0.0263 0.4724702,0 1.1627477,0.16611 -0.647568,0.0415 0.7559524,0.14174 0.078545,0.006 0.1576435,-0.005 0.2362351,0 0.1736148,0.0109 0.346004,0.0381 0.5197173,0.0472 0.1258178,0.007 0.2523043,-0.009 0.3779761,0 0.095554,0.007 0.1880155,0.0393 0.2834822,0.0472 0.094168,0.008 0.1889879,0 0.283482,0 0.031498,0 0.063239,-0.004 0.094494,0 0.095058,0.0119 0.1884243,0.0354 0.2834822,0.0472 0.031255,0.004 0.062996,0 0.094494,0 0.062996,0 0.1259922,0 0.1889881,0 0.1259922,0 0.2519842,0 0.3779764,0 0.440972,0 0.881944,0 1.322917,0 0.063,0 0.125992,0 0.188988,0 0.04725,0 0.09541,-0.009 0.141741,0 0.03453,0.007 0.06033,0.0387 0.09449,0.0473 0.03056,0.008 0.063,0 0.09449,0 0.07874,0 0.15749,0 0.236235,0 0.01575,0 0.0315,0 0.04725,0 0.01575,0 0.03316,-0.007 0.04725,0 0.01992,0.01 0.02733,0.0373 0.04725,0.0472 0.01409,0.007 0.0402,-0.0141 0.04725,0 0.01409,0.0282 0,0.063 0,0.0945 0,0.0945 0,0.18899 0,0.28348 0,0.44097 0,0.88195 0,1.32292 0,1.29142 0,2.58283 0,3.87425 0,0.26593 -0.0076,-0.15561 0.04725,0.28349 0.01563,0.12501 -0.02733,0.25498 0,0.37797 0.0184,0.0828 0.07392,0.15396 0.09449,0.23624 0.01146,0.0458 0,0.0945 0,0.14174 0,0.0787 0,0.15749 0,0.23623 0,0.31498 0,0.62996 0,0.94494 0,0.063 0,0.126 0,0.18899 0,0.0157 0.01575,0.0472 0,0.0472 -0.01575,0 0,-0.063 0,-0.0472 0,0.0315 -0.01409,0.0663 0,0.0945 0.007,0.0141 0.04725,-0.0157 0.04725,0 0,0.0223 -0.02583,0.0411 -0.04725,0.0472 -0.127428,0.1311 -0.287635,0.01 -0.425223,0.0473 -0.129818,0.0354 -0.249092,0.10308 -0.377976,0.14174 -0.03017,0.009 -0.063,0 -0.09449,0 -0.141741,0 -0.283482,0 -0.425224,0 -0.0315,0 -0.06319,-0.003 -0.09449,0 -0.110681,0.0123 -0.219613,0.0398 -0.330729,0.0473 -0.125713,0.008 -0.251984,0 -0.377976,0 -0.141741,0 -0.283482,0 -0.4252233,0 -0.5984621,0 -1.1969244,0 -1.7953868,0 -0.4094742,0 -0.8189484,0 -1.2284226,0 -0.094494,0 -0.1890855,-0.004 -0.2834822,0 -0.2522154,0.0115 -0.5037368,0.0358 -0.7559522,0.0472 -0.094397,0.004 -0.1889881,0 -0.2834822,0 -0.1732391,0 -0.3464782,0 -0.5197174,0 -0.062996,0 -0.1262096,-0.005 -0.1889879,0 -0.126534,0.0106 -0.251525,0.0358 -0.3779763,0.0473 -0.047053,0.004 -0.094494,0 -0.141741,0 -0.141741,0 -0.2834822,0 -0.4252232,0 -0.3149801,0 -0.6299602,0 -0.9449403,0 -0.4567214,0 -0.9134426,0 -1.3701638,0 -0.094494,0 -0.1889881,0 -0.2834822,0 -0.015749,0 -0.036111,0.0111 -0.047247,0 -0.09092,-0.0909 -0.047247,-0.29936 -0.047247,-0.42522 0,-0.26773 0,-0.53547 0,-0.8032 0,-0.48822 0,-0.97644 0,-1.46466 0,-0.25198 0.013978,-0.50435 0,-0.75595 -0.00531,-0.0957 -0.038574,-0.18808 -0.047247,-0.28348 -0.00713,-0.0784 0,-0.15749 0,-0.23624 0,-0.29923 0,-0.59846 0,-0.89769 0,-0.78745 0,-1.5749 0,-2.36235 0,-0.33073 0,-0.66146 0,-0.99219 0,-0.0304 -0.00799,-0.29875 0,-0.33073 0.00854,-0.0342 0.036111,-0.0611 0.047247,-0.0945 0.00996,-0.0299 -0.019677,-0.0699 0,-0.0945 0.055654,-0.0696 0.125992,-0.12599 0.1889881,-0.18899 z"
       id="path993"
       inkscape:connector-curvature="0" />
    <path
       style="fill:none;stroke:#000000;stroke-width:0.26458332px;stroke-linecap:butt;stroke-linejoin:miter;stroke-opacity:1"
       d="m 1.3701747,285.70787 c 0.031494,-0.063 0.041491,-0.14255 0.094483,-0.18891 0.079515,-0.0696 0.1911296,-0.0904 0.2834821,-0.14174 0.049638,-0.0276 0.094494,-0.063 0.1417411,-0.0945 0.7766719,-0.51778 0.1094127,-0.0983 0.7087054,-0.42522 0.080619,-0.044 0.1505245,-0.10878 0.2362352,-0.14174 0.1212133,-0.0466 0.2559253,-0.0501 0.377976,-0.0945 0.053365,-0.0194 0.089325,-0.0727 0.141741,-0.0945 0.1379154,-0.0575 0.2848105,-0.0907 0.4252233,-0.14174 0.033096,-0.012 0.061797,-0.0342 0.094494,-0.0472 0.1249354,-0.05 0.2523855,-0.0934 0.377976,-0.14174 0.079158,-0.0304 0.1546874,-0.0712 0.2362354,-0.0945 0.030286,-0.009 0.064208,0.009 0.094494,0 0.1915462,-0.0547 0.3768214,-0.12957 0.5669645,-0.18899 0.061979,-0.0194 0.1262457,-0.0305 0.1889879,-0.0472 0.1735034,-0.0463 0.34706,-0.0924 0.5197173,-0.14174 0.2530597,-0.0723 0.087989,-0.0593 0.4724702,-0.14174 0.1198467,-0.0257 0.4309253,-0.0491 0.5669642,-0.0945 0.113786,-0.0379 0.2193671,-0.0972 0.3307292,-0.14174 0.046241,-0.0185 0.092616,-0.0391 0.1417413,-0.0472 0.046604,-0.008 0.095137,0.008 0.141741,0 0.049125,-0.008 0.094494,-0.0315 0.1417409,-0.0473 0.094494,-0.0315 0.1868506,-0.0703 0.2834823,-0.0945 0.149787,-0.0374 0.279718,-0.046 0.4252232,-0.0945 0.188988,-0.063 -0.00955,-0.0453 0.2362351,-0.0945 0.030886,-0.006 0.062996,0 0.094494,0 0.094494,-0.0315 0.1868506,-0.0703 0.283482,-0.0945 0.030558,-0.008 0.064208,0.009 0.094494,0 0.078745,-0.0315 0.15749,-0.063 0.2362351,-0.0945 0.015748,-0.0158 0.027326,-0.0373 0.047247,-0.0473 0.044545,-0.0223 0.095965,-0.0276 0.141741,-0.0472 0.064737,-0.0278 0.1235938,-0.0683 0.1889882,-0.0945 0.014623,-0.006 0.03316,0.007 0.047247,0 0.050789,-0.0254 0.090952,-0.0691 0.141741,-0.0945 0.014086,-0.007 0.033161,0.007 0.047247,0 0.01992,-0.01 0.028715,-0.0349 0.047247,-0.0473 0.029301,-0.0195 0.069593,-0.0224 0.094494,-0.0473 0.01114,-0.0111 -0.01114,-0.0361 0,-0.0472 0.02227,-0.0223 0.06829,0.0175 0.09449,0 0.03706,-0.0247 0.05743,-0.0698 0.09449,-0.0945 0.0131,-0.009 0.0315,0 0.04725,0 0.0315,-0.0158 0.06959,-0.0223 0.09449,-0.0473 0.01114,-0.0111 -0.01409,-0.0402 0,-0.0472 0.02817,-0.0141 0.06394,0.008 0.09449,0 0.03416,-0.009 0.06109,-0.0361 0.09449,-0.0473 0.01494,-0.005 0.03316,0.007 0.04725,0 0.05079,-0.0254 0.08902,-0.0734 0.141741,-0.0945 0.02924,-0.0117 0.063,0 0.09449,0 0.04725,-0.0157 0.0972,-0.025 0.141741,-0.0472 0.01992,-0.01 0.02612,-0.0402 0.04725,-0.0473 0.02988,-0.01 0.06394,0.008 0.09449,0 0.03416,-0.009 0.06109,-0.0361 0.0945,-0.0472 0.01494,-0.005 0.03611,0.0111 0.04725,0 0,-0.0695 -0.01114,-0.0361 0.04725,-0.0945"
       id="path995"
       inkscape:connector-curvature="0" />
    <path
       style="fill:none;stroke:#000000;stroke-width:0.26458332px;stroke-linecap:butt;stroke-linejoin:miter;stroke-opacity:1"
       d="m 12.284226,286.27491 c 0.15106,-0.0589 0.336144,-0.0444 0.47247,-0.14174 0.437358,-0.3124 0.0257,-0.074 0.519717,-0.37798 0.438805,-0.27003 0.264705,-0.1092 0.708706,-0.47247 0.05171,-0.0423 0.08615,-0.10468 0.141741,-0.14174 0.0879,-0.0586 0.19289,-0.0874 0.283482,-0.14174 0.06752,-0.0405 0.122213,-0.10001 0.188988,-0.14174 0.05973,-0.0373 0.128593,-0.0583 0.188988,-0.0945 0.118118,-0.0709 -0.04725,-0.0472 0.141741,-0.14174 0.02817,-0.0141 0.063,0 0.09449,0 0.04725,-0.0157 0.100303,-0.0196 0.141741,-0.0472 0.0131,-0.009 -0.01114,-0.0361 0,-0.0473 0.01114,-0.0111 0.03316,0.007 0.04725,0 0.174106,0.0806 0.191001,-0.1335 0.283482,-0.18899 0.0073,-0.004 0.355884,-0.16689 0.377977,-0.18899 0.0249,-0.0249 0.01907,-0.0734 0.04725,-0.0945 0.03345,-0.14406 0.130908,-0.0182 0.188988,-0.0473 0.01992,-0.01 0.02612,-0.0402 0.04725,-0.0473 0.02988,-0.01 0.06461,0.01 0.09449,0 0.0059,-0.002 0.137688,-0.13363 0.141741,-0.14174 0.007,-0.0141 -0.01114,-0.0361 0,-0.0472 0.01114,-0.0111 0.03316,0.007 0.04725,0 0.196631,-0.0983 -0.05051,0.003 0.04725,-0.0945 0.02227,-0.0223 0.07222,0.0223 0.09449,0 0.01114,-0.0111 -0.01114,-0.0361 0,-0.0472 0.02227,-0.0223 0.06632,0.0141 0.09449,0 0.01992,-0.01 0.02733,-0.0373 0.04725,-0.0472 0.01873,-0.009 0.132082,0.01 0.141741,0 0.063,-0.063 -0.07875,-0.0473 0.04725,-0.0473"
       id="path997"
       inkscape:connector-curvature="0" />
    <path
       style="fill:none;stroke:#000000;stroke-width:0.26458332px;stroke-linecap:butt;stroke-linejoin:miter;stroke-opacity:1"
       d="m 11.292028,281.88087 c 1.511908,1.1e-4 3.023816,7e-5 4.535725,7e-5 0.251984,0 0.503968,0 0.755952,0 0.063,0 0.125992,0 0.188988,0 0.01575,0 0.0315,0 0.04725,0 0.01575,0 0.04725,-0.0158 0.04725,0 0,0.0157 -0.0315,0 -0.04725,0"
       id="path999"
       inkscape:connector-curvature="0" />
    <path
       style="fill:none;stroke:#000000;stroke-width:0.26458332px;stroke-linecap:butt;stroke-linejoin:miter;stroke-opacity:1"
       d="m 12.42597,294.30673 c 0.299407,-0.28386 0.566158,-0.60162 0.897691,-0.85027 0.02817,-0.0211 0.06584,-0.0268 0.09449,-0.0473 0.08206,-0.0586 0.150721,-0.13554 0.236236,-0.18899 0.04223,-0.0264 0.09652,-0.0264 0.141741,-0.0472 0.191847,-0.0885 0.372753,-0.20024 0.566964,-0.28348 0.07795,-0.0334 0.16178,-0.0539 0.236235,-0.0945 0.0997,-0.0544 0.187177,-0.1288 0.283482,-0.18899 0.02986,-0.0187 0.063,-0.0315 0.09449,-0.0473 0.04725,-0.0315 0.09449,-0.063 0.141741,-0.0945 0.04725,-0.0315 0.09095,-0.0691 0.141741,-0.0945 0.04454,-0.0223 0.0972,-0.025 0.141741,-0.0472 0.01992,-0.01 0.02872,-0.0349 0.04725,-0.0472 0.07641,-0.0509 0.159826,-0.0908 0.236235,-0.14174 0.01853,-0.0123 0.02733,-0.0373 0.04725,-0.0472 0.07586,-0.0379 0.160378,-0.0566 0.236235,-0.0945 0.01992,-0.01 0.02733,-0.0373 0.04725,-0.0473 0.04454,-0.0223 0.09449,-0.0315 0.141741,-0.0473 0.04725,-0.0157 0.09342,-0.0352 0.141741,-0.0472 0.161068,-0.0403 -0.170138,0.13231 0.188988,-0.0472 0.01992,-0.01 0.02871,-0.0349 0.04725,-0.0473 0.0293,-0.0195 0.06109,-0.0361 0.09449,-0.0472 0.01494,-0.005 0.03611,0.0111 0.04725,0 0.0249,-0.0249 0.02235,-0.0696 0.04725,-0.0945 0.01114,-0.0111 0.03231,0.005 0.04725,0 0.03341,-0.0111 0.06959,-0.0223 0.09449,-0.0472 0.01114,-0.0111 -0.01114,-0.0361 0,-0.0472 0.0249,-0.0249 0.06959,-0.0224 0.09449,-0.0473 0.01114,-0.0111 -0.01114,-0.0361 0,-0.0473 0.0249,-0.0249 0.07496,-0.0179 0.09449,-0.0472 0.01747,-0.0262 -0.01409,-0.0663 0,-0.0945 0.007,-0.0141 0.04725,-0.0157 0.04725,0 0,0.0157 -0.0315,0 -0.04725,0"
       id="path1003"
       inkscape:connector-curvature="0" />
    <path
       style="fill:none;stroke:#000000;stroke-width:0.26458332px;stroke-linecap:butt;stroke-linejoin:miter;stroke-opacity:1"
       d="m 1.3701637,285.70794 c 0.015749,0.14174 -0.026127,0.30294 0.047247,0.42523 0.081028,0.13504 0.2511879,0.19006 0.3779762,0.28348 0.1724507,0.12707 0.3565024,0.23924 0.5197172,0.37798 0.1527324,0.12982 0.2712316,0.29689 0.4252233,0.42522 2.073267,1.72772 0.052964,0.007 0.9449403,0.66146 0.3252809,0.23854 0.6144858,0.52463 0.9449406,0.75595 0.150463,0.10532 0.3196529,0.1816 0.4724701,0.28348 0.2565276,0.17102 0.5804162,0.53317 0.7559524,0.70871 0.094494,0.0945 0.1889882,0.18899 0.2834823,0.28348 0.062996,0.063 0.1219412,0.13032 0.1889879,0.18899 0.059262,0.0519 0.1284946,0.0913 0.1889882,0.14174 0.03422,0.0285 0.058001,0.069 0.094494,0.0945 0.1217182,0.0852 0.2505734,0.1598 0.3779761,0.23624 0.030197,0.0181 0.066696,0.0256 0.094494,0.0472 0.114613,0.0892 0.2133018,0.19809 0.3307292,0.28349 0.056961,0.0414 0.1271563,0.0608 0.1889881,0.0945 0.1114687,0.0608 0.2250816,0.11856 0.3307292,0.18899 0.2254491,0.1503 0.4291153,0.33306 0.6614583,0.47247 0.1876126,0.11257 0.3829209,0.21242 0.5669643,0.33073 0.03747,0.0241 0.058246,0.0686 0.094494,0.0945 0.074727,0.0534 0.1598265,0.0908 0.236235,0.14174 0.06552,0.0437 0.1222124,0.10001 0.1889882,0.14174 0.059726,0.0373 0.1295675,0.0567 0.1889879,0.0945 0.7115105,0.45278 0.1216501,0.0777 0.4252235,0.33073 0.06049,0.0504 0.125992,0.0945 0.188988,0.14174 0.063,0.0473 0.123468,0.0981 0.188988,0.14174 0.0293,0.0195 0.06959,0.0223 0.09449,0.0472 0.01114,0.0111 -0.01409,0.0402 0,0.0472 0.05808,0.029 0.137041,0.008 0.188988,0.0472 0.0252,0.0189 -0.0162,0.0675 0,0.0945 0.0777,0.12949 0.174694,0.1492 0.283483,0.23623 0.03478,0.0278 0.06027,0.066 0.09449,0.0945 0.06049,0.0504 0.127498,0.0926 0.188988,0.14175 0.01739,0.0139 0.02872,0.0349 0.04725,0.0472 0.0293,0.0195 0.06109,0.0361 0.09449,0.0473 0.01494,0.005 0.03611,-0.0111 0.04725,0 0.0249,0.0249 0.01975,0.0725 0.04725,0.0945 -0.04249,0.2419 0.173465,0.0631 0.236235,0.0945 0.01992,0.01 0.02733,0.0373 0.04725,0.0472 0.01409,0.007 0.03611,-0.0111 0.04725,0 0.01114,0.0111 0.01575,0.0473 0,0.0473 -0.01711,0 -0.117913,-0.12979 -0.04725,-0.0945 0.132888,0.0664 0.251986,0.15737 0.377979,0.23606"
       id="path1005"
       inkscape:connector-curvature="0" />
    <path
       style="fill:none;stroke:#000000;stroke-width:0.26458332px;stroke-linecap:butt;stroke-linejoin:miter;stroke-opacity:1"
       d="m 1.2756696,294.54314 c 0.062996,-0.0788 0.1130961,-0.16983 0.1889881,-0.23624 0.053005,-0.0464 0.1316755,-0.0535 0.1889881,-0.0945 0.054372,-0.0388 0.089565,-0.1 0.1417411,-0.14174 0.1844686,-0.14758 0.379309,-0.28172 0.5669643,-0.42523 0.080105,-0.0613 0.15749,-0.12599 0.2362351,-0.18898 0.2204861,-0.15749 0.4433235,-0.31174 0.6614582,-0.47247 0.081184,-0.0598 0.1507206,-0.13555 0.2362353,-0.18899 0.1673392,-0.10459 0.3498265,-0.18309 0.5197171,-0.28348 0.841617,-0.49732 0.1992844,-0.19779 1.1811756,-0.66146 0.3464782,-0.15749 0.6929565,-0.31498 1.0394344,-0.47247 0.094494,-0.0473 0.1880045,-0.0965 0.2834823,-0.14174 0.2037852,-0.0965 0.4159385,-0.17609 0.6142114,-0.28349 0.4302175,-0.23303 0.5871228,-0.40106 0.9921875,-0.66145 0.059246,-0.0381 0.1344768,-0.0499 0.1889879,-0.0945 0.1206656,-0.0987 0.2117119,-0.23002 0.3307291,-0.33073 0.4878965,-0.41283 0.082593,0.009 0.5197174,-0.33073 0.508023,-0.39513 -0.038184,-0.009 0.283482,-0.33073 0.055681,-0.0557 0.1292005,-0.0905 0.1889881,-0.14174 0.050732,-0.0435 0.094494,-0.0945 0.141741,-0.14174 0.078745,-0.0787 0.1574903,-0.15749 0.2362354,-0.23623 0.0315,-0.0315 0.06598,-0.0603 0.09449,-0.0945 0.05041,-0.0605 0.08943,-0.13013 0.141741,-0.18899 0.07399,-0.0832 0.171507,-0.14561 0.236235,-0.23623 0.01831,-0.0256 -0.01747,-0.0683 0,-0.0945 0.04942,-0.0741 0.131954,-0.12055 0.188988,-0.18899 0.02254,-0.0271 0.02771,-0.0652 0.04725,-0.0945 0.01235,-0.0185 0.03729,-0.0273 0.04725,-0.0472 0.02227,-0.0446 0.01736,-0.1019 0.04725,-0.14174 0.02113,-0.0282 0.07336,-0.0191 0.09449,-0.0472 0.02988,-0.0398 0.01962,-0.1003 0.04725,-0.14174 0.0087,-0.0131 0.03611,0.0111 0.04725,0 0.04015,-0.0401 0.05902,-0.0974 0.09449,-0.14174 0.02783,-0.0348 0.06777,-0.0589 0.09449,-0.0945 0.03453,-0.046 0.03669,-0.11284 0.09449,-0.14174 0.01409,-0.007 0.03414,0.009 0.04725,0 0.03706,-0.0247 0.05465,-0.0746 0.09449,-0.0945 0.02817,-0.0141 0.06632,0.0141 0.0945,0 0.01409,-0.007 -0.01114,-0.0361 0,-0.0473 0.0249,-0.0249 0.06959,-0.0224 0.09449,-0.0473 0.01114,-0.0111 -0.01114,-0.0361 0,-0.0472 0.0249,-0.0249 0.06959,-0.0223 0.09449,-0.0472 0.01114,-0.0111 -0.0087,-0.0341 0,-0.0473 0.02471,-0.0371 0.06978,-0.0574 0.09449,-0.0945 0.01747,-0.0262 -0.02227,-0.0722 0,-0.0945 0.01114,-0.0111 0.03611,0.0111 0.04725,0 0.01114,-0.0111 -0.007,-0.0332 0,-0.0472 0.01,-0.0199 0.03489,-0.0287 0.04725,-0.0473 0.01953,-0.0293 0.02235,-0.0696 0.04725,-0.0945 0.01114,-0.0111 0.03611,0.0111 0.04725,0 0.01114,-0.0111 -0.01114,-0.0361 0,-0.0473 0.01114,-0.0111 0.0315,0 0.04725,0 0.07874,0 0.15749,0 0.236235,0"
       id="path1007"
       inkscape:connector-curvature="0" />
    <path
       style="fill:none;stroke:#000000;stroke-width:0.26458332px;stroke-linecap:butt;stroke-linejoin:miter;stroke-opacity:1"
       d="m 4.346726,288.21204 c 0.062996,-0.0158 0.1326089,-0.015 0.1889882,-0.0473 0.058014,-0.0331 0.094494,-0.0945 0.141741,-0.14174 0.047247,-0.0473 0.1000006,-0.0896 0.1417412,-0.14174 0.022,-0.0275 0.022347,-0.0696 0.047247,-0.0945 0.102671,-0.10267 0.2214559,-0.18786 0.3307291,-0.28348 0.016761,-0.0147 0.031498,-0.0315 0.047247,-0.0473 0.094494,-0.0787 0.1909125,-0.15523 0.2834823,-0.23623 0.033524,-0.0293 0.058858,-0.0678 0.094494,-0.0945 0.028173,-0.0211 0.066321,-0.0261 0.094494,-0.0473 0.053454,-0.0401 0.094494,-0.0945 0.141741,-0.14174 0.047247,-0.0473 0.094494,-0.0945 0.141741,-0.14174 0.015748,-0.0157 0.027326,-0.0373 0.047247,-0.0472 0.1537086,-0.0769 0.1480786,-0.006 0.283482,-0.14174 0.011136,-0.0111 -0.011136,-0.0361 0,-0.0473 0.2287069,-0.22871 -0.035567,0.10246 0.1889882,-0.0472 0.057884,-0.0386 0.021918,-0.11754 0.094494,-0.14174 0.029882,-0.01 0.066321,0.0141 0.094494,0 0.014087,-0.007 -0.00874,-0.0341 0,-0.0472 -0.040429,-0.2192 0.1015887,-0.0543 0.141741,-0.0945 0.011136,-0.0111 -0.00704,-0.0332 0,-0.0473 0.00996,-0.0199 0.031498,-0.0315 0.047247,-0.0472 0.07796,0.0905 0.2396558,0.0638 0.3307296,0.14182 0.1279658,0.0913 0.213397,0.22806 0.3307292,0.33073 0.09257,0.081 0.1920542,0.15395 0.2834821,0.23623 0.06622,0.0596 0.1205474,0.13196 0.1889881,0.18899 0.027054,0.0225 0.067756,0.0243 0.094494,0.0472 0.084553,0.0725 0.1516826,0.16376 0.2362352,0.23623 0.026738,0.0229 0.06744,0.0247 0.094494,0.0472 0.6773641,0.56447 -0.1461178,-0.0989 0.2834822,0.33073 0.040152,0.0401 0.096314,0.0604 0.141741,0.0945 0.080674,0.0605 0.1649285,0.11769 0.2362351,0.18899 0.011136,0.0111 -0.00704,0.0332 0,0.0473 0.025395,0.0508 0.060424,0.0963 0.094494,0.14174 0.039687,0.0529 0.1020536,0.0888 0.1417411,0.14174 0.02113,0.0282 0.036111,0.0611 0.047247,0.0945 0.00498,0.0149 -0.011136,0.0361 0,0.0472 0.011136,0.0111 0.034143,-0.009 0.047247,0 0.037064,0.0247 0.062996,0.063 0.094494,0.0945 0.015749,0.0157 0.037286,0.0273 0.047247,0.0472 0.00704,0.0141 -0.00704,0.0332 0,0.0473 0.012617,0.0252 0.1168672,0.11687 0.141741,0.14174"
       id="path1009"
       inkscape:connector-curvature="0" />
    <path
       style="fill:none;stroke:#000000;stroke-width:0.26458332px;stroke-linecap:butt;stroke-linejoin:miter;stroke-opacity:1"
       d="m 4.346726,288.21204 c 0.220486,0.0473 0.4393981,0.10255 0.6614583,0.14174 0.046528,0.008 0.094494,0 0.1417413,0 0.141741,0 0.283482,0 0.425223,0 1.273208,0 -0.1721792,-0.0306 0.5669645,0.0472 0.2354585,0.0248 0.4723103,0.0341 0.7087052,0.0472 0.047174,0.003 0.094494,0 0.141741,0 0.1889882,0 0.3779764,0 0.5669643,0 0.3779763,0 0.7559524,0 1.1339287,0 0.047247,0 0.094494,0 0.141741,0 0.031498,0 0.063425,-0.005 0.094494,0 0.064051,0.0107 0.1247058,0.0381 0.1889882,0.0473 0.046772,0.007 0.095411,-0.009 0.1417409,0 0.034532,0.007 0.060329,0.0387 0.094494,0.0473 0.030558,0.008 0.062996,0 0.094494,0 0.015748,0 0.033161,-0.007 0.047247,0 0.01992,0.01 0.026117,0.0402 0.047247,0.0472 0.029882,0.01 0.062996,0 0.094494,0 0.047247,0.0315 0.090952,0.0691 0.141741,0.0945 0.014086,0.007 0.036111,-0.0111 0.047247,0 0.011136,0.0111 -0.011136,0.0361 0,0.0472 0.011136,0.0111 0.061338,-0.007 0.047247,0 -0.044552,0.0223 -0.094494,0.0315 -0.1417413,0.0472"
       id="path1011"
       inkscape:connector-curvature="0" />
    <path
       style="fill:none;stroke:#000000;stroke-width:0.26458332px;stroke-linecap:butt;stroke-linejoin:miter;stroke-opacity:1"
       d="m 7.6540177,290.99969 c 0.0809,0 0.175394,0 0.094494,0 -0.031498,0 -0.062996,0 -0.094494,0 -0.015749,0 -0.031967,0.004 -0.047247,0 -0.048316,-0.0121 -0.092905,-0.0373 -0.141741,-0.0473 -0.030886,-0.006 -0.062996,0 -0.094494,0 -0.062996,0 -0.1264782,0.008 -0.1889882,0 -0.064433,-0.008 -0.1251002,-0.0356 -0.1889882,-0.0472 -0.1095661,-0.02 -0.2208821,-0.029 -0.3307291,-0.0473 -0.079212,-0.0132 -0.1560691,-0.0423 -0.2362351,-0.0473 -0.188662,-0.0111 -0.3781901,0.009 -0.5669643,0 -0.1424519,-0.007 -0.2828295,-0.0392 -0.4252232,-0.0472 -0.269308,-0.015 -0.6317102,0.0166 -0.8976934,0 -0.095611,-0.006 -0.1889883,-0.0315 -0.2834823,-0.0472 -0.299231,-0.0158 -0.5984621,-0.0315 -0.8976934,-0.0473 -0.314707,-0.0131 -0.6307793,0.0393 -0.9449403,0 -0.080204,-0.004 -0.1570231,-0.0341 -0.2362351,-0.0473 -0.1537087,-0.0256 -0.5653773,-0.0786 -0.7087054,-0.0945 -0.015653,-0.002 -0.031804,0.003 -0.047247,0 -0.063674,-0.0127 -0.1259921,-0.0315 -0.1889881,-0.0472 0.2086197,-0.009 0.23601,-0.242 0.3779762,-0.33073 0.089589,-0.056 0.1904625,-0.0917 0.2834821,-0.14174 0.1117957,-0.0602 0.2171615,-0.1322 0.3307292,-0.18898 0.1072784,-0.0536 0.2234508,-0.0881 0.3307292,-0.14175 0.050789,-0.0254 0.095222,-0.0619 0.141741,-0.0945 0.110988,-0.0777 0.215844,-0.16443 0.3307292,-0.23623 0.013355,-0.008 0.033742,0.008 0.047247,0 0.067523,-0.0405 0.1274986,-0.0926 0.1889881,-0.14175 0.017392,-0.0139 0.037287,-0.0273 0.047247,-0.0472 0.00704,-0.0141 -0.011136,-0.0361 0,-0.0472 -0.075178,-0.19994 0.1487541,-0.0677 0.1889881,-0.0945 0.031498,-0.0315 0.062996,-0.063 0.094494,-0.0945 0.015749,0 0.033161,0.007 0.047247,0 0.056696,-0.0284 0.085045,-0.11339 0.1417411,-0.14174 0.014086,-0.007 0.033161,0.007 0.047247,0 0.019921,-0.01 0.028715,-0.0349 0.047247,-0.0473 0.029301,-0.0195 0.062996,-0.0315 0.094494,-0.0472 0.031498,-0.0157 0.061085,-0.0361 0.094494,-0.0472 0.014941,-0.005 0.033161,0.007 0.047247,0 0.039842,-0.0199 0.054652,-0.0746 0.094494,-0.0945 0.014086,-0.007 0.036111,0.0111 0.047247,0 0.011136,-0.0111 -0.011136,-0.0361 0,-0.0473 0.011136,-0.0111 0.032306,0.005 0.047247,0 0.033409,-0.0111 0.065193,-0.0277 0.094494,-0.0473 0.018532,-0.0123 0.037287,-0.0273 0.047247,-0.0472 0.00704,-0.0141 -0.015749,-0.0473 0,-0.0473 0.015749,0 0.00874,0.0604 0,0.0473 -0.039069,-0.0586 -0.062996,-0.12599 -0.094494,-0.18899"
       id="path1013"
       inkscape:connector-curvature="0" />
    <path
       style="fill:none;stroke:#000000;stroke-width:0.26458332px;stroke-linecap:butt;stroke-linejoin:miter;stroke-opacity:1"
       d="m 1.2284226,290.47989 c 0.078745,0.063 0.1536211,0.13116 0.2362351,0.18899 0.081331,0.11323 0.2250816,0.11856 0.3307292,0.18899 0.1127245,0.0752 0.2211631,0.15655 0.3307291,0.23624 0.063684,0.0463 0.1234683,0.0981 0.1889881,0.14174 0.076409,0.0509 0.1587603,0.0924 0.2362351,0.14174 0.095813,0.061 0.1848779,0.13264 0.2834823,0.18899 0.013674,0.008 0.033742,-0.008 0.047247,0 0.1521568,0.0441 0.2099167,0.20294 0.3307291,0.28348 0.041439,0.0276 0.097196,0.025 0.141741,0.0472 0.019921,0.01 0.029429,0.0339 0.047247,0.0473 0.045427,0.0341 0.1015889,0.0543 0.141741,0.0945 0.011136,0.0111 -0.00704,0.0332 0,0.0472 0.098315,0.19663 -0.00326,-0.0505 0.094494,0.0472 0.011136,0.0111 -0.014086,0.0402 0,0.0473 0.028173,0.0141 0.066321,-0.0141 0.094494,0 0.014086,0.007 0,0.0315 0,0.0472 0,0.0158 0,0.0315 0,0.0473"
       id="path1015"
       inkscape:connector-curvature="0" />
    <path
       style="fill:none;stroke:#000000;stroke-width:0.26458332px;stroke-linecap:butt;stroke-linejoin:miter;stroke-opacity:1"
       d="m 7.6540176,290.99969 c 0.094494,-0.0315 0.1852261,-0.0782 0.2834823,-0.0946 0.093206,-0.0156 0.1889882,0 0.283482,0 0.1102431,0 0.2204863,0 0.3307292,0 0.5512154,0 1.1024306,0 1.6536459,0 0.15749,0 0.31498,0 0.47247,0 0.063,0 0.127216,-0.0124 0.188988,0 0.02184,0.004 0.0315,0.0315 0.04725,0.0472 0.063,0.0158 0.124937,0.0366 0.188988,0.0473 0.07875,0.0131 0.157491,-0.0197 0.236236,0 0.02161,0.005 0.02733,0.0373 0.04725,0.0472 0.264092,0.13204 0.01839,-0.019 0.283482,0.0473 0.02161,0.005 0.02733,0.0373 0.04725,0.0472 0.01409,0.007 0.0315,0 0.04725,0 0.01575,0 0.0315,0 0.04725,0 0.07874,0 0.15749,0 0.236235,0 0.09449,0 0.188988,0 0.283482,0 0.01575,0 0.0315,0 0.04725,0 0.01575,0 0.04725,-0.0157 0.04725,0 0,0.0158 -0.0315,0 -0.04725,0"
       id="path1017"
       inkscape:connector-curvature="0" />
    <path
       style="fill:none;stroke:#000000;stroke-width:0.26458332px;stroke-linecap:butt;stroke-linejoin:miter;stroke-opacity:1"
       d="m 9.7328864,288.77893 c 0.3644346,0.27748 0.8108986,0.43724 1.1811756,0.70878 0.117089,0.0859 0.215642,0.19495 0.33073,0.28348 0.09002,0.0692 0.187176,0.1288 0.283482,0.18899 0.02986,0.0187 0.06959,0.0223 0.09449,0.0472 0.07131,0.0713 0.122582,0.16035 0.188988,0.23624 0.044,0.0503 0.1,0.0896 0.141741,0.14174 0.022,0.0275 0.02235,0.0696 0.04725,0.0945 0.05568,0.0557 0.133307,0.0861 0.188988,0.14174 0.01114,0.0111 -0.0087,0.0342 0,0.0473 0.02471,0.0371 0.06979,0.0574 0.09449,0.0945 0.0087,0.0131 -0.007,0.0332 0,0.0472 0.01,0.0199 0.03729,0.0273 0.04725,0.0473 0.007,0.0141 -0.01114,0.0361 0,0.0473 0.01114,0.0111 0.0402,-0.0141 0.04725,0 0.01409,0.0282 0.01409,0.0663 0,0.0945 -0.007,0.0141 -0.04725,0.0157 -0.04725,0 0,-0.0158 0.04226,-0.0149 0.04725,0 0.01495,0.0448 1.2e-5,0.0944 1.8e-5,0.14168"
       id="path1019"
       inkscape:connector-curvature="0" />
    <path
       style="fill:none;stroke:#000000;stroke-width:0.26458332px;stroke-linecap:butt;stroke-linejoin:miter;stroke-opacity:1"
       d="m 12.378739,291.14138 c -0.110249,0.11023 -0.214217,0.22713 -0.330748,0.3307 -0.02632,0.0234 -0.06392,0.0298 -0.09449,0.0473 -0.0747,0.0427 -0.289819,0.17012 -0.377976,0.23623 -0.08067,0.0605 -0.158766,0.12443 -0.236235,0.18899 -0.08472,0.0706 -0.148115,0.17015 -0.236236,0.23624 -0.02817,0.0211 -0.06744,0.0247 -0.09449,0.0472 -0.06844,0.057 -0.11942,0.13334 -0.188988,0.18899 -0.0123,0.01 -0.03316,-0.007 -0.04725,0 -0.01992,0.01 -0.02733,0.0373 -0.04725,0.0473 -0.02817,0.0141 -0.06632,-0.0141 -0.09449,0 -0.01992,0.01 -0.02733,0.0373 -0.04725,0.0473 -0.01409,0.007 -0.04725,0.0157 -0.04725,0 0,-0.0158 0.05838,-0.0111 0.04725,0 -0.05429,0.0543 -0.08356,0.0472 -0.141741,0.0472"
       id="path1021"
       inkscape:connector-curvature="0" />
    <path
       style="fill:none;stroke:#000000;stroke-width:0.26458332px;stroke-linecap:butt;stroke-linejoin:miter;stroke-opacity:1"
       d="m 7.6540176,290.99969 c 0,0.53566 0,0.25166 0,0.85037 0,0.0472 -0.00522,0.0948 0,0.14174 0.010578,0.0952 0.03011,0.18923 0.047247,0.28348 0.014364,0.079 0.039976,0.15626 0.047247,0.23624 0.00855,0.0941 0,0.18898 0,0.28348 0,0.25198 0,0.50397 0,0.75595 0,0.33482 -0.011459,-0.0802 0.047247,0.33073 0.00668,0.0468 0,0.0945 0,0.14174 0,0.0315 0.00618,0.0636 0,0.0945 -0.00977,0.0488 -0.035168,0.0934 -0.047247,0.14175 -0.00931,0.0372 0,0.15816 0,0.18898 0,0.0157 0.00498,0.0323 0,0.0472 -0.011136,0.0334 -0.036111,0.0611 -0.047247,0.0945 -0.010832,0.0325 0.013938,0.11387 0,0.14175 -0.032791,0.0656 -0.084068,0.0472 -0.1417412,0.0472"
       id="path1023"
       inkscape:connector-curvature="0" />
    <path
       style="fill:none;stroke:#000000;stroke-width:0.26458332px;stroke-linecap:butt;stroke-linejoin:miter;stroke-opacity:1"
       d="m 3.7325146,292.27526 c 0.3149801,0.0788 0.6306566,0.15477 0.9449406,0.23626 0.7486271,0.1941 -0.053459,0.0338 0.6142114,0.0945 0.2736564,0.0249 0.1671304,0.0418 0.3779761,0.0945 0.077907,0.0195 0.1570233,0.0341 0.2362351,0.0473 0.015534,0.003 0.032104,-0.004 0.047247,0 0.095773,0.0274 0.1868506,0.0703 0.283482,0.0945 0.030558,0.008 0.064208,-0.009 0.094494,0 0.081548,0.0233 0.1550008,0.0701 0.2362351,0.0945 0.076918,0.0231 0.1570233,0.034 0.2362353,0.0473 0.015534,0.003 0.032306,-0.005 0.047247,0 0.033409,0.0111 0.061085,0.0361 0.094494,0.0472 0.029882,0.01 0.072222,-0.0223 0.094494,0 0.011136,0.0111 -0.011136,0.0361 0,0.0473 0.061333,0.0613 0.1141362,0.0472 0.1889879,0.0472 0.015748,0 0.033161,-0.007 0.047247,0 0.1167664,0.0584 -0.016309,0.0472 0.094494,0.0472"
       id="path1025"
       inkscape:connector-curvature="0" />
    <path
       style="fill:none;stroke:#000000;stroke-width:0.26458332px;stroke-linecap:butt;stroke-linejoin:miter;stroke-opacity:1"
       d="m 7.3705351,293.17302 c 0.2369191,-0.76208 0.6713334,0.0802 0.992188,-5e-5 0.034164,-0.009 0.059757,-0.0414 0.094494,-0.0472 0.062139,-0.0104 0.1268492,0.0104 0.1889879,0 0.034737,-0.006 0.060519,-0.038 0.094494,-0.0472 0.1400823,-0.0382 0.2828444,-0.066 0.4252233,-0.0945 0.015444,-0.003 0.031712,0.003 0.047247,0 0.079212,-0.0132 0.1570233,-0.034 0.2362351,-0.0473 0.015534,-0.003 0.032306,0.005 0.047247,0 0.033409,-0.0111 0.06033,-0.0387 0.094494,-0.0472 0.061115,-0.0153 0.1326428,0.0282 0.1889879,0 0.014086,-0.007 -0.011136,-0.0361 0,-0.0472 0.011136,-0.0111 0.031498,0 0.047247,0 0.031498,0 0.065894,0.0132 0.094494,0 0.1791697,-0.0827 0.3464797,-0.18895 0.5197197,-0.28342"
       id="path1027"
       inkscape:connector-curvature="0" />
    <path
       style="fill:none;stroke:#000000;stroke-width:0.26458332px;stroke-linecap:butt;stroke-linejoin:miter;stroke-opacity:1"
       d="m 12.378738,291.14129 c -0.08854,-0.2193 0.458295,-0.65514 0.566946,-0.94488 0.0315,-0.0945 0.063,-0.18899 0.09449,-0.28348 0,-0.0315 -0.0091,-0.0643 0,-0.0945 0.03867,-0.12889 0.09919,-0.25033 0.141741,-0.37798 0.02053,-0.0616 0.02671,-0.12739 0.04725,-0.18899 0.01114,-0.0334 0.03611,-0.0611 0.04725,-0.0945 0.03626,-0.10877 0.05424,-0.22338 0.09449,-0.33073 0.0078,-0.0209 0.04113,-0.0258 0.04725,-0.0473 0.02632,-0.0921 0.02401,-0.19054 0.04725,-0.28348 0.0085,-0.0342 0.03611,-0.0611 0.04725,-0.0945 0.234661,-0.70397 -0.24502,0.54022 0.188989,-0.47247 0.0062,-0.0145 -0.005,-0.0323 0,-0.0472 0.0315,-0.0787 0.063,-0.15749 0.09449,-0.23624 0.01575,-0.0157 0.03729,-0.0273 0.04725,-0.0472 0.02227,-0.0446 0.02497,-0.0972 0.04725,-0.14175 0.24338,-0.48676 -0.07724,0.23898 0.236235,-0.28348 0.01621,-0.027 -0.01563,-0.0671 0,-0.0945 0.05003,-0.0876 0.135541,-0.15072 0.188988,-0.23624 0.02639,-0.0422 0.01736,-0.1019 0.04725,-0.14174 0.02113,-0.0282 0.07195,-0.0202 0.09449,-0.0473 0.126251,-0.1515 0.140345,-0.2654 0.236235,-0.42522 0.01146,-0.0191 0.0315,-0.0315 0.04725,-0.0473 0.0315,-0.0472 0.06632,-0.0924 0.09449,-0.14174 0.0315,-0.063 0.063,-0.12599 0.09449,-0.18898 0,-0.0315 -0.01,-0.0646 0,-0.0945 0.007,-0.0211 0.03729,-0.0273 0.04725,-0.0473 0.007,-0.0141 -0.01114,-0.0361 0,-0.0472 0.01114,-0.0111 0.03611,0.0111 0.04725,0 0.01114,-0.0111 -0.005,-0.0323 0,-0.0473 0.01114,-0.0334 0.03611,-0.0611 0.04725,-0.0945 0.005,-0.0149 -0.007,-0.0332 0,-0.0473 0.01,-0.0199 0.0402,-0.0261 0.04725,-0.0472 0.0072,-0.0216 -0.01051,-0.16796 0,-0.18899 0.01,-0.0199 0.03489,-0.0287 0.04725,-0.0472 0.01953,-0.0293 0.0315,-0.063 0.04725,-0.0945 0.01575,-0.0315 0.03611,-0.0611 0.04725,-0.0945 0.005,-0.0149 -0.005,-0.0323 0,-0.0472 0.01114,-0.0334 0.03611,-0.0611 0.04725,-0.0945 0.005,-0.0149 0.0043,-0.0321 0,-0.0473 -0.02736,-0.0958 -0.063,-0.18899 -0.0945,-0.28349"
       id="path1029"
       inkscape:connector-curvature="0" />
    <path
       style="fill:none;stroke:#000000;stroke-width:0.26458332px;stroke-linecap:butt;stroke-linejoin:miter;stroke-opacity:1"
       d="m 14.9773,292.55865 c 0.267735,-0.0314 0.535706,-0.061 0.803207,-0.0944 0.01562,-0.002 -0.03611,0.0111 -0.04725,0 -0.01114,-0.0112 0.01114,-0.0362 0,-0.0473 -0.01114,-0.0111 -0.03316,0.007 -0.04725,0 -0.240431,-0.1202 0.216728,0.0245 -0.141741,-0.0472 -0.04883,-0.01 -0.09449,-0.0314 -0.141742,-0.0472 0,-0.0157 0.01311,-0.0382 0,-0.0472 -0.171215,-0.1142 -0.0922,-0.0113 -0.236235,-0.0473 -0.03416,-0.008 -0.06179,-0.0341 -0.09449,-0.0472 -0.04624,-0.0185 -0.0955,-0.0288 -0.141741,-0.0473 -0.03269,-0.013 -0.06108,-0.0361 -0.09449,-0.0472 -0.01494,-0.005 -0.03263,0.006 -0.04725,0 -0.06539,-0.0262 -0.124628,-0.0659 -0.188988,-0.0945 -0.155002,-0.0689 -0.313648,-0.12939 -0.47247,-0.18899 -0.04663,-0.0175 -0.0955,-0.0288 -0.141741,-0.0473 -0.144016,-0.0576 -0.258838,-0.18098 -0.425223,-0.18898 -0.534381,-0.19399 0.264286,0.17939 -0.472471,-0.18899 -0.07721,-0.0351 -0.155775,-0.0677 -0.236235,-0.0945 -0.155978,-0.052 -0.418091,0.4982 -0.472451,-0.14171 0.15511,-0.0334 0.31655,0.0222 0.472451,-3e-5 0.0493,-0.007 0.09511,-0.0298 0.141741,-0.0472 0.330266,-0.12385 0.182793,-0.0826 0.566965,-0.23624 0.124935,-0.05 0.253961,-0.0895 0.377976,-0.14174 0.175383,-0.0738 0.347274,-0.15576 0.519717,-0.23624 0.06382,-0.0298 0.127836,-0.0596 0.188988,-0.0945 0.0493,-0.0282 0.09244,-0.0663 0.141741,-0.0945 0.06115,-0.0349 0.127837,-0.0596 0.188988,-0.0945 0.0493,-0.0282 0.09095,-0.0691 0.141742,-0.0945 0.01409,-0.007 0.03316,0.007 0.04725,0 0.05079,-0.0254 0.09095,-0.0691 0.141741,-0.0945 0.01409,-0.007 0.0318,0.003 0.04725,0 0.0896,-0.0179 0.240667,-0.0585 0.330729,-0.0945 0.0327,-0.0131 0.063,-0.0315 0.09449,-0.0473 0.0315,-0.0158 0.06519,-0.0277 0.09449,-0.0472 0.108115,-0.0721 -0.02954,-0.0374 0.141741,-0.0945 0.02988,-0.01 0.06632,0.0141 0.09449,0 0.01992,-0.01 0.02612,-0.0402 0.04725,-0.0473 0.02988,-0.01 0.06461,0.01 0.09449,0 0.04226,-0.0141 0.05223,-0.0804 0.09449,-0.0945 0.02988,-0.01 0.06461,0.01 0.09449,0 0.02113,-0.007 0.02612,-0.0402 0.04725,-0.0473 0.02988,-0.01 0.06829,0.0175 0.09449,0 0.0293,-0.0195 0.02235,-0.0696 0.04725,-0.0945 0.01114,-0.0111 0.03611,0.0111 0.04725,0 0.01114,-0.0111 -0.01114,-0.0361 0,-0.0472 0.01114,-0.0111 0.03231,0.005 0.04725,0 0.03341,-0.0111 0.06109,-0.0361 0.09449,-0.0472 0.01494,-0.005 0.03611,0.0111 0.04725,0 0.063,-0.063 -0.07875,-0.0473 0.04725,-0.0473"
       id="path1031"
       inkscape:connector-curvature="0" />
    <path
       style="fill:none;stroke:#000000;stroke-width:0.26458332px;stroke-linecap:butt;stroke-linejoin:miter;stroke-opacity:1"
       d="m 15.21354,284.52676 c 0.0945,0.25199 0.205126,0.4985 0.283483,0.75596 0.0829,0.27239 0.04725,0.6138 0.04725,0.89769 0,0.22049 0,0.44098 0,0.66146 0,0.15749 0,0.31498 0,0.47247 0,0.0472 0.0047,0.0947 0,0.14174 -0.01108,0.11081 -0.03931,0.21965 -0.04725,0.33073 -0.0079,0.10997 0,0.22049 0,0.33073 0,0.0315 0.0039,0.0632 0,0.0945 -0.01188,0.0951 -0.03536,0.18842 -0.04725,0.28348 -0.0039,0.0312 0,0.063 0,0.0945 0,0.11025 0,0.22049 0,0.33073 0,0.20474 0,0.40948 0,0.61421 0,0.0187 -0.01009,0.21606 0,0.23624 0.01,0.0199 0.0402,0.0261 0.04725,0.0473 7.2e-5,2.1e-4 -4.5e-5,0.14169 0,0.14174 0.01114,0.0111 0.0315,0 0.04725,0 0.01575,0.17322 0.02264,0.34747 0.04725,0.51965 0.007,0.0493 0.04229,0.0922 0.04725,0.14175 0.01097,0.10969 0,0.22048 0,0.33072 0,0.11025 0,0.22049 0,0.33073 0,0.11025 0,0.22049 0,0.33073 0,0.0315 0,0.063 0,0.0945 0,0.0157 -0.007,0.0332 0,0.0472 0.01,0.0199 0.0402,0.0261 0.04725,0.0473 0.01,0.0299 -0.0062,0.0636 0,0.0945 0.0098,0.0488 0.03517,0.0934 0.04725,0.14175 0.0038,0.0153 0.01196,0.037 0,0.0472 -0.102865,0.0882 -0.22049,0.15751 -0.330735,0.23626"
       id="path1033"
       inkscape:connector-curvature="0" />
    <path
       style="fill:none;stroke:#000000;stroke-width:0.26458332px;stroke-linecap:butt;stroke-linejoin:miter;stroke-opacity:1"
       d="m 6.898065,286.13309 c 0.4614206,-0.46131 0.1620689,-0.22001 0.6614586,-0.51964 0.048692,-0.0292 0.089325,-0.0727 0.1417412,-0.0945 0.1379151,-0.0575 0.2889745,-0.0804 0.4252233,-0.14174 0.8262934,-0.37184 0.2816508,-0.15643 0.6614583,-0.37798 0.141741,-0.0788 0.283482,-0.15749 0.425223,-0.23624 0.047247,-0.0157 0.097196,-0.025 0.1417412,-0.0472 0.082137,-0.0411 0.1559597,-0.0971 0.2362351,-0.14174 0.061568,-0.0342 0.1278361,-0.0596 0.1889879,-0.0945 0.049302,-0.0282 0.092439,-0.0663 0.1417413,-0.0945 0.061152,-0.0349 0.1259921,-0.063 0.1889881,-0.0945 0.0315,-0.0157 0.06076,-0.0371 0.09449,-0.0472 0.124392,-0.0373 0.253584,-0.0572 0.377976,-0.0945 0.03373,-0.0101 0.06392,-0.0298 0.09449,-0.0472 0.07973,-0.0456 0.156503,-0.0962 0.236235,-0.14175 0.03058,-0.0175 0.063,-0.0315 0.09449,-0.0472 0.09449,-0.063 0.187177,-0.1288 0.283482,-0.18899 0.02986,-0.0187 0.06519,-0.0277 0.0945,-0.0473 0.06552,-0.0437 0.127498,-0.0925 0.188988,-0.14174 0.01739,-0.0139 0.02733,-0.0373 0.04725,-0.0473 0.07586,-0.0379 0.162097,-0.0533 0.236235,-0.0945 0.06883,-0.0382 0.121465,-0.10123 0.188988,-0.14174 0.0135,-0.008 0.0315,0 0.04725,0 0.063,-0.0473 0.133307,-0.0861 0.188988,-0.14174 0.01114,-0.0111 -0.0131,-0.0385 0,-0.0472 0.03345,-0.14406 0.130909,-0.0182 0.188988,-0.0473 0.01992,-0.01 0.02612,-0.0402 0.04725,-0.0472 0.02988,-0.01 0.06632,0.0141 0.09449,0 0.01409,-0.007 -0.01114,-0.0361 0,-0.0473 0.0249,-0.0249 0.06519,-0.0277 0.09449,-0.0473 0.01853,-0.0123 0.02733,-0.0373 0.04725,-0.0472 0.02817,-0.0141 0.06632,0.0141 0.09449,0 0.01992,-0.01 0.0315,-0.0315 0.04725,-0.0472 0.0315,-0.0315 0.05743,-0.0698 0.09449,-0.0945 0.0131,-0.009 0.03316,0.007 0.04725,0 0.01992,-0.01 0.02733,-0.0373 0.04725,-0.0473 0.01409,-0.007 0.03611,0.0111 0.04725,0 0.01114,-0.0111 -0.01114,-0.0361 0,-0.0473 0.003,-0.003 0.180188,-0.0886 0.188989,-0.0945 0.0556,-0.0371 0.08615,-0.10468 0.141741,-0.14174 0.0131,-0.009 0.03611,0.0111 0.04725,0 0.01114,-0.0111 -0.01114,-0.0361 0,-0.0473 0.01114,-0.0111 0.03611,0.0111 0.04725,0 0.01114,-0.0111 -0.01114,-0.0361 0,-0.0472 0.02227,-0.0223 0.06632,0.0141 0.09449,0 0.03984,-0.0199 0.05465,-0.0746 0.09449,-0.0945 0.01409,-0.007 0.0315,0 0.04725,0 0.0315,-0.0158 0.06519,-0.0277 0.09449,-0.0473 0.0936,0.005 0.02235,-0.0696 0.04725,-0.0945 0.02227,-0.0223 0.06632,0.0141 0.09449,0 0.01992,-0.01 0.0315,-0.063 0.04725,-0.0472 0.01575,0.0157 -0.0315,0.0315 -0.04725,0.0472"
       id="path1035"
       inkscape:connector-curvature="0" />
    <path
       style="fill:none;stroke:#000000;stroke-width:0.26458332px;stroke-linecap:butt;stroke-linejoin:miter;stroke-opacity:1"
       d="m 15.024549,284.62126 c -0.173238,-0.0473 -0.340148,-0.14174 -0.519713,-0.14174 -0.134559,0 -0.24796,0.10707 -0.377976,0.14174 -0.491861,0.13117 -0.16622,-0.0233 -0.519717,0.0945 -0.222112,0.074 -0.4382,0.16573 -0.661459,0.23623 -0.07658,0.0242 -0.15886,0.0258 -0.236235,0.0472 -0.206395,0.0573 -0.409944,0.12448 -0.614211,0.18899 -0.142473,0.045 -0.28086,0.10324 -0.425223,0.14174 -0.188227,0.0502 -0.377977,0.0945 -0.566965,0.14174 -0.063,0.0158 -0.124937,0.0366 -0.188988,0.0473 -0.219694,0.0366 -0.440259,0.0685 -0.661458,0.0945 -0.04692,0.006 -0.09449,0 -0.141741,0 -0.1417412,0 -0.2838423,-0.0101 -0.4252232,0 -0.080101,0.006 -0.157226,0.0329 -0.2362353,0.0473 -0.094252,0.0171 -0.1879667,0.0399 -0.283482,0.0472 -0.1099183,0.008 -0.2204861,0 -0.3307292,0 -0.1102431,0 -0.220486,0 -0.3307292,0 -0.042226,0 -0.2211787,-0.008 -0.236235,0 -0.01992,0.01 -0.026117,0.0402 -0.047247,0.0473 -0.02622,0.009 -0.3213357,0 -0.3779761,0 -0.015748,0 -0.031498,0 -0.047247,0 -0.015748,0 -0.035638,-0.0106 -0.047247,0 -0.1806006,0.16555 -0.3464782,0.34648 -0.5197173,0.51972"
       id="path1037"
       inkscape:connector-curvature="0" />
    <path
       style="fill:none;stroke:#000000;stroke-width:0.26458332px;stroke-linecap:butt;stroke-linejoin:miter;stroke-opacity:1"
       d="m 7.2287944,286.27491 c 0.078745,-0.26773 0.171596,-0.53172 0.2362353,-0.8032 0.1181182,-0.4961 -0.059059,0.0118 0,-0.28348 0.00977,-0.0488 0.03748,-0.0929 0.047247,-0.14174 0.00618,-0.0309 0,-0.063 0,-0.0945 0,-0.0787 0,-0.15749 0,-0.23623 0,-0.11656 0.013555,-0.33034 0,-0.42523 -0.00498,-0.0349 -0.038706,-0.0603 -0.047247,-0.0945 -0.00764,-0.0306 0,-0.063 0,-0.0945 0,-0.063 0.00891,-0.12663 0,-0.18899 -0.00704,-0.0493 -0.035168,-0.0934 -0.047247,-0.14174 -0.00382,-0.0153 0.00704,-0.0332 0,-0.0473 -0.00996,-0.0199 -0.040204,-0.0261 -0.047247,-0.0473 -0.00996,-0.0299 0,-0.063 0,-0.0945 0,-0.0158 0.00704,-0.0332 0,-0.0473 -0.00996,-0.0199 -0.040204,-0.0261 -0.047247,-0.0473 -0.00871,-0.0261 0,-0.2359 0,-0.28348 0.8334643,-1.01764 0.3954209,0.22902 0.6142113,0.28371 0.1080373,0.027 0.2240634,0.0153 0.3307291,0.0473 0.054389,0.0163 0.089019,0.0734 0.1417411,0.0945 0.029245,0.0117 0.063105,-0.003 0.094494,0 0.1577289,0.0131 0.3160352,0.0232 0.4724703,0.0472 0.049224,0.008 0.093044,0.0368 0.141741,0.0473 0.1721708,0.0369 0.3466539,0.062 0.5197173,0.0945 0.078929,0.0148 0.1574901,0.0315 0.2362351,0.0473 0.078745,0.0157 0.1600511,0.0218 0.2362351,0.0472 0.06682,0.0223 0.123041,0.0698 0.188988,0.0945 0.0608,0.0228 0.126792,0.0286 0.188988,0.0473 0.0954,0.0286 0.188988,0.063 0.283482,0.0945 0.157587,0.0525 0.311105,0.1014 0.472471,0.14174 0.063,0.0158 0.124936,0.0366 0.188988,0.0473 0.03107,0.005 0.063,0 0.09449,0 0.110243,0.0157 0.221163,0.0273 0.330729,0.0472 0.06389,0.0116 0.124555,0.0392 0.188988,0.0473 0.06251,0.008 0.126479,-0.008 0.188988,0 0.06443,0.008 0.124937,0.0366 0.188988,0.0472 0.03107,0.005 0.06319,-0.003 0.09449,0 0.110681,0.0123 0.220048,0.035 0.330729,0.0473 0.03131,0.003 0.06342,-0.005 0.09449,0 0.06405,0.0107 0.125315,0.0345 0.188989,0.0473 0.03089,0.006 0.06525,-0.0117 0.09449,0 0.06539,0.0261 0.12217,0.0722 0.188988,0.0945 0.02988,0.01 0.063,0 0.09449,0 0.09449,0 0.188988,0 0.283482,0 0.188988,0 0.377976,0 0.566964,0 0.063,0 0.125992,0 0.188988,0 0.01575,0 0.03231,0.005 0.04725,0 0.03341,-0.0111 0.06109,-0.0361 0.09449,-0.0473 0.02988,-0.01 0.063,0 0.09449,0 0.110242,0 0.0315,0 0.236231,0"
       id="path1039"
       inkscape:connector-curvature="0" />
    <path
       style="opacity:1;fill:#ff0000;fill-opacity:1;stroke:#e91818;stroke-width:0.4049494;stroke-miterlimit:4;stroke-dasharray:none;stroke-dashoffset:0;stroke-opacity:1"
       d="M 36.177214,31.220693 C 35.771007,30.803282 35.251741,30.16672 35.023289,29.80611 34.794837,29.445501 34.363884,29.0063 34.065616,28.830109 c -0.298267,-0.176191 -0.542305,-0.416805 -0.542305,-0.534698 0,-0.117893 -0.341518,-0.479135 -0.758928,-0.802759 -0.417411,-0.323625 -1.628589,-1.346878 -2.691507,-2.273896 -1.898128,-1.655443 -1.926534,-1.69153 -1.593564,-2.024501 0.329326,-0.329325 0.447844,-0.331112 4.147134,-0.06254 2.094466,0.152062 5.603981,0.276476 7.798921,0.276476 2.593326,0 3.990801,0.06377 3.990801,0.18212 0,0.429322 -0.931006,1.602723 -1.554793,1.959596 -0.379916,0.217353 -1.108622,0.971688 -1.659492,1.717856 -0.540179,0.731687 -1.243304,1.656819 -1.5625,2.05585 -0.319197,0.399031 -0.580358,0.796854 -0.580358,0.884052 0,0.291029 -1.541629,1.771954 -1.844588,1.771954 -0.164266,0 -0.631017,-0.341517 -1.037223,-0.758928 z"
       id="path1041"
       inkscape:connector-curvature="0"
       transform="matrix(0.26458333,0,0,0.26458333,0,280.06665)" />
    <path
       style="opacity:1;fill:#ff0000;fill-opacity:1;stroke:#e91818;stroke-width:0.4049494;stroke-miterlimit:4;stroke-dasharray:none;stroke-dashoffset:0;stroke-opacity:1"
       d="M 45.137967,38.113615 C 44.798349,37.663028 44.19567,37.090573 43.798681,36.841492 43.401692,36.592411 42.71583,36.072393 42.274545,35.685896 41.833259,35.299399 40.734861,34.571908 39.833662,34.06925 l -1.638546,-0.913925 0.694312,-0.829279 c 0.381872,-0.456104 0.817323,-0.93137 0.967669,-1.056146 0.150346,-0.124776 0.273357,-0.296688 0.273357,-0.382027 0,-0.126491 0.609138,-1.016171 1.392108,-2.033252 0.07561,-0.09821 0.437948,-0.574151 0.805201,-1.057637 0.367253,-0.483486 0.967295,-1.080453 1.333426,-1.326592 0.810832,-0.545099 1.389748,-1.189119 1.663931,-1.851055 0.113193,-0.273272 0.276414,-0.496858 0.362713,-0.496858 0.08764,0 0.156907,3.271423 0.156907,7.410714 0,4.075893 -0.02009,7.408229 -0.04464,7.405192 -0.02455,-0.003 -0.322512,-0.374183 -0.66213,-0.82477 z"
       id="path1043"
       inkscape:connector-curvature="0"
       transform="matrix(0.26458333,0,0,0.26458333,0,280.06665)" />
    <path
       style="opacity:1;fill:#ff0000;fill-opacity:1;stroke:#e91818;stroke-width:0.4049494;stroke-miterlimit:4;stroke-dasharray:none;stroke-dashoffset:0;stroke-opacity:1"
       d="m 46.421883,22.490089 c -0.172909,-0.176539 -1.576302,-0.248138 -5.9375,-0.302922 -3.14109,-0.03946 -5.711072,-0.131554 -5.711072,-0.204657 0,-0.169401 1.377335,-0.360031 2.601288,-0.360031 2.601295,0 6.308841,-0.875476 12.859377,-3.036528 1.190033,-0.392598 1.950139,-0.533041 2.857144,-0.527911 1.211734,0.0069 1.22467,0.01181 0.665264,0.255091 -0.313773,0.136456 -0.916451,0.566431 -1.339285,0.9555 -0.422833,0.38907 -1.291109,1.009176 -1.929502,1.378015 -0.638393,0.368839 -1.501734,0.945154 -1.918535,1.2807 -0.840249,0.676444 -1.791606,0.92578 -2.147179,0.562743 z"
       id="path1045"
       inkscape:connector-curvature="0"
       transform="matrix(0.26458333,0,0,0.26458333,0,280.06665)" />
    <path
       style="opacity:1;fill:#ff0000;fill-opacity:1;stroke:#e91818;stroke-width:0.4049494;stroke-miterlimit:4;stroke-dasharray:none;stroke-dashoffset:0;stroke-opacity:1"
       d="m 47.145451,31.829058 0.03857,-7.918421 0.688876,-0.236792 c 0.378882,-0.130235 0.986404,-0.475891 1.350049,-0.768124 0.363646,-0.292234 1.21883,-0.869508 1.90041,-1.282832 0.68158,-0.413324 1.600844,-1.046382 2.042808,-1.406796 1.072724,-0.874786 3.919187,-2.591094 4.061408,-2.448873 0.0622,0.0622 -0.06278,0.475088 -0.277728,0.917525 -0.214952,0.442437 -0.390823,0.926168 -0.390823,1.074957 0,0.636711 -1.378614,3.166903 -3.080357,5.653428 -0.368303,0.538152 -0.669643,1.070587 -0.669643,1.183189 0,0.112602 -0.07349,0.204731 -0.163304,0.204731 -0.213288,0 -0.964164,1.351388 -1.412185,2.541581 -0.631502,1.677619 -0.731699,1.97294 -1.652012,4.869133 -1.29107,4.06295 -1.358108,4.232415 -1.945547,4.918113 l -0.529101,0.617602 z"
       id="path1047"
       inkscape:connector-curvature="0"
       transform="matrix(0.26458333,0,0,0.26458333,0,280.06665)" />
    <path
       style="opacity:1;fill:#ff6600;fill-opacity:1;stroke:#e91818;stroke-width:0.4049494;stroke-miterlimit:4;stroke-dasharray:none;stroke-dashoffset:0;stroke-opacity:1"
       d="M 29.148311,31.061066 C 23.016765,30.906631 19.101503,30.7475 18.565567,30.630946 l -0.404174,-0.0879 0.404174,-0.551791 c 0.572438,-0.781512 4.249379,-3.872065 5.506799,-4.62859 0.580317,-0.349147 1.281168,-0.851379 1.557448,-1.116072 0.276279,-0.264692 0.644519,-0.481258 0.818311,-0.481258 0.173792,0 0.772073,0.42716 1.329514,0.949244 0.557441,0.522084 1.693733,1.541305 2.525092,2.264936 0.831359,0.723631 1.795645,1.608126 2.142857,1.965545 0.347212,0.357418 0.792009,0.764884 0.988437,0.905479 0.495665,0.354776 1.228955,1.424657 0.942846,1.375629 -0.125708,-0.02154 -2.47856,-0.09584 -5.22856,-0.165103 z"
       id="path1049"
       inkscape:connector-curvature="0"
       transform="matrix(0.26458333,0,0,0.26458333,0,280.06665)" />
    <path
       style="opacity:1;fill:#ff6600;fill-opacity:1;stroke:#e91818;stroke-width:0.4049494;stroke-miterlimit:4;stroke-dasharray:none;stroke-dashoffset:0;stroke-opacity:1"
       d="m 43.96974,41.135554 c -0.294643,-0.04195 -0.612054,-0.150445 -0.705357,-0.241102 -0.0933,-0.09066 -0.499108,-0.164831 -0.901786,-0.164831 -0.402679,0 -0.815626,-0.08348 -0.91766,-0.185517 -0.123034,-0.123034 -2.204327,-0.168142 -6.179525,-0.133929 -3.296705,0.02837 -5.963746,0.0027 -5.92676,-0.05698 0.03699,-0.05971 0.560011,-0.421321 1.162277,-0.803572 0.602265,-0.382251 1.607013,-1.157055 2.232772,-1.721787 0.625759,-0.564732 1.232354,-1.026786 1.347988,-1.026786 0.307318,0 1.751053,-1.124672 1.757529,-1.369119 0.003,-0.114622 0.339201,-0.485577 0.747031,-0.824343 l 0.74151,-0.615939 1.672133,0.946965 c 0.919672,0.520831 2.09269,1.301198 2.606704,1.734148 0.514015,0.43295 1.175644,0.931026 1.470287,1.106836 0.673356,0.401783 2.767857,2.826446 2.767857,3.204162 0,0.286854 -0.59055,0.334663 -1.875,0.151794 z"
       id="path1051"
       inkscape:connector-curvature="0"
       transform="matrix(0.26458333,0,0,0.26458333,0,280.06665)" />
    <path
       style="opacity:1;fill:#ffff00;fill-opacity:1;stroke:none;stroke-width:0.4049494;stroke-miterlimit:4;stroke-dasharray:none;stroke-dashoffset:0;stroke-opacity:1"
       d="m 14.773311,29.458979 c -0.736607,-0.577625 -1.448045,-1.050353 -1.580974,-1.050507 -0.273853,-3.16e-4 -2.65153,-1.949506 -3.5975971,-2.949265 -0.34375,-0.363259 -1.328125,-1.13613 -2.1875,-1.717491 -1.1332557,-0.76664 -1.5625,-1.160109 -1.5625,-1.432275 v -0.375254 l 8.3482141,0.117141 c 4.591518,0.06443 8.891184,0.139496 9.554814,0.166818 1.223661,0.05038 1.913436,0.351827 1.323261,0.578298 -0.163745,0.06283 -0.297718,0.191745 -0.297718,0.286466 0,0.270388 -0.480866,0.682426 -0.796421,0.682426 -0.157418,0 -0.333661,0.123637 -0.391647,0.274749 -0.05799,0.151113 -0.362605,0.412273 -0.676929,0.580357 -0.780154,0.417187 -4.709713,3.878109 -5.466464,4.814537 -0.33732,0.41741 -0.747611,0.758928 -0.911757,0.758928 -0.164147,0 -0.325234,0.07094 -0.357972,0.15765 -0.03274,0.08671 -0.662203,-0.314953 -1.39881,-0.892578 z"
       id="path1053"
       inkscape:connector-curvature="0"
       transform="matrix(0.26458333,0,0,0.26458333,0,280.06665)" />
    <path
       style="opacity:1;fill:#ffff00;fill-opacity:1;stroke:none;stroke-width:0.4049494;stroke-miterlimit:4;stroke-dasharray:none;stroke-dashoffset:0;stroke-opacity:1"
       d="m 26.201883,38.896849 c -0.736607,-0.499056 -2.464286,-2.003527 -3.839286,-3.34327 -1.410302,-1.374141 -2.986472,-2.728479 -3.616071,-3.107142 -1.066469,-0.641413 -1.468172,-1.007796 -0.803572,-0.73292 0.442922,0.183192 5.293696,0.432535 11.651786,0.598935 6.596823,0.172648 7.281898,0.348125 6.050609,1.549819 -0.332299,0.324312 -0.831942,0.838715 -1.110318,1.143117 -0.278375,0.304403 -0.766054,0.662059 -1.083731,0.794793 -0.317676,0.132733 -1.014021,0.646284 -1.547434,1.141223 -1.090651,1.011985 -3.81545,2.903982 -4.146382,2.879089 -0.118974,-0.0089 -0.818994,-0.424589 -1.555601,-0.923644 z"
       id="path1055"
       inkscape:connector-curvature="0"
       transform="matrix(0.26458333,0,0,0.26458333,0,280.06665)" />
    <path
       style="opacity:1;fill:#ffff00;fill-opacity:1;stroke:none;stroke-width:0.4049494;stroke-miterlimit:4;stroke-dasharray:none;stroke-dashoffset:0;stroke-opacity:1"
       d="m 37.362597,46.21065 c -0.6875,-0.418632 -1.732143,-1.089352 -2.321429,-1.490488 -0.589285,-0.401136 -1.895089,-1.271106 -2.901785,-1.933267 -1.006697,-0.66216 -1.83038,-1.215127 -1.830407,-1.228815 -1.48e-4,-0.07459 10.583314,0.07271 10.706778,0.149014 0.08112,0.05014 0.46563,0.119815 0.854457,0.154838 0.388826,0.03502 0.797422,0.11959 0.90799,0.187925 0.110568,0.06833 0.423897,0.159576 0.696286,0.20276 0.272389,0.04318 0.767952,0.141595 1.101251,0.218694 l 0.605999,0.140179 -1.052427,0.652892 c -0.578835,0.35909 -1.3519,0.929172 -1.717922,1.26685 -1.029105,0.94941 -1.937488,1.607678 -2.816523,2.041019 -0.442033,0.217911 -0.843875,0.396955 -0.892982,0.397875 -0.04911,9.29e-4 -0.651786,-0.340843 -1.339286,-0.759476 z"
       id="path1057"
       inkscape:connector-curvature="0"
       transform="matrix(0.26458333,0,0,0.26458333,0,280.06665)" />
    <path
       style="opacity:1;fill:#00ff00;fill-opacity:1;stroke:none;stroke-width:0.4049494;stroke-miterlimit:4;stroke-dasharray:none;stroke-dashoffset:0;stroke-opacity:1"
       d="M 4.9494445,31.212576 C 4.9481034,27.263915 4.8964622,23.8323 4.8346864,23.586764 l -0.1123197,-0.446428 0.5165437,0.452838 c 0.2840991,0.249061 0.9960556,0.771382 1.5821258,1.160714 0.58607,0.389332 1.71107,1.310555 2.5,2.047162 2.2522968,2.102921 4.3238798,3.759822 4.5868058,3.668634 0.132258,-0.04587 0.548205,0.1887 0.924327,0.521266 l 0.683858,0.604668 -0.416001,0.24936 c -0.2288,0.137149 -0.823327,0.492437 -1.321171,0.78953 -0.497845,0.297092 -1.120612,0.59424 -1.383929,0.660329 -0.309607,0.07771 -0.478758,0.240295 -0.478758,0.460187 0,0.426195 -1.723212,1.584746 -4.2810879,2.878264 -1.0287057,0.520216 -2.0532594,1.128733 -2.2767857,1.352259 l -0.4064116,0.406412 z"
       id="path1059"
       inkscape:connector-curvature="0"
       transform="matrix(0.26458333,0,0,0.26458333,0,280.06665)" />
    <path
       style="opacity:1;fill:#00ff00;fill-opacity:1;stroke:none;stroke-width:0.4049494;stroke-miterlimit:4;stroke-dasharray:none;stroke-dashoffset:0;stroke-opacity:1"
       d="m 46.023311,52.511863 c -0.147321,-0.0933 -0.429331,-0.17086 -0.626688,-0.172364 -0.197357,-0.0015 -0.459199,-0.163449 -0.58187,-0.359878 -0.122672,-0.196428 -0.314671,-0.357143 -0.426665,-0.357143 -0.31151,0 -2.174145,-1.585274 -2.43298,-2.07069 -0.125905,-0.23612 -0.312319,-0.42931 -0.414254,-0.42931 -0.246936,0 -1.767543,-1.051886 -1.767543,-1.222705 0,-0.07377 0.288114,-0.238303 0.640253,-0.365639 0.352139,-0.127335 1.203786,-0.726067 1.892548,-1.330515 0.688762,-0.604449 1.746631,-1.441771 2.350818,-1.860717 l 1.098524,-0.761719 0.120692,0.761719 c 0.06638,0.418946 0.126649,1.131425 0.133929,1.583287 0.0073,0.451862 0.09596,1.058879 0.197075,1.348926 0.102188,0.293137 0.161671,1.610849 0.133928,2.966869 -0.04332,2.117323 -0.08529,2.417106 -0.317767,2.269879 z"
       id="path1061"
       inkscape:connector-curvature="0"
       transform="matrix(0.26458333,0,0,0.26458333,0,280.06665)" />
    <path
       style="opacity:1;fill:#00ff00;fill-opacity:1;stroke:none;stroke-width:0.4049494;stroke-miterlimit:4;stroke-dasharray:none;stroke-dashoffset:0;stroke-opacity:1"
       d="M 30.657513,48.562688 C 30.056538,48.219233 30.024221,48.146561 29.769646,46.566155 29.621852,45.648649 29.544792,44.396086 29.59474,43.723176 l 0.08929,-1.202875 1.462918,1.024303 c 1.499625,1.050003 3.422472,2.314826 5.249566,3.453092 l 1.032235,0.643075 -1.461645,0.315652 c -0.803905,0.173608 -1.943789,0.420353 -2.533075,0.548321 -1.969977,0.427796 -2.123733,0.431005 -2.776512,0.05794 z"
       id="path1063"
       inkscape:connector-curvature="0"
       transform="matrix(0.26458333,0,0,0.26458333,0,280.06665)" />
    <path
       style="opacity:1;fill:#00ff00;fill-opacity:1;stroke:none;stroke-width:0.4049494;stroke-miterlimit:4;stroke-dasharray:none;stroke-dashoffset:0;stroke-opacity:1"
       d="m 21.826883,39.996672 c -1.669643,-0.07878 -4.361607,-0.22829 -5.982143,-0.332248 -1.620536,-0.103958 -3.709822,-0.187008 -4.642857,-0.184555 -1.7840395,0.0047 -5.0000002,-0.350646 -5.0000002,-0.552456 0,-0.212903 0.4199436,-0.469629 2.3214285,-1.419168 1.03125,-0.514973 2.1562497,-1.14838 2.4999997,-1.407573 0.34375,-0.259192 0.856832,-0.588632 1.140181,-0.732089 0.283349,-0.143457 0.634109,-0.442339 0.779466,-0.664182 0.145357,-0.221843 0.344724,-0.403351 0.443038,-0.403351 0.09831,0 0.551125,-0.270341 1.006248,-0.600757 0.455123,-0.330416 1.121655,-0.73795 1.481182,-0.905632 l 0.653687,-0.304875 1.310599,0.771703 c 0.881194,0.518863 2.160357,1.59585 3.904167,3.287103 1.426462,1.38347 2.933157,2.74013 3.348214,3.014801 0.415056,0.274671 0.754647,0.528902 0.754647,0.564958 0,0.03606 -0.220982,0.05341 -0.491072,0.03855 -0.270089,-0.01485 -1.857142,-0.09146 -3.526785,-0.170234 z"
       id="path1065"
       inkscape:connector-curvature="0"
       transform="matrix(0.26458333,0,0,0.26458333,0,280.06665)" />
    <path
       style="opacity:1;fill:#0000ff;fill-opacity:1;stroke:none;stroke-width:0.4049494;stroke-miterlimit:4;stroke-dasharray:none;stroke-dashoffset:0;stroke-opacity:1"
       d="m 29.881524,53.745834 c 0.08153,-0.23481 0.12544,-1.284793 0.09758,-2.333297 l -0.05066,-1.90637 0.668617,0.340881 c 0.669431,0.341295 1.710914,0.329786 2.408215,-0.02661 0.15704,-0.08026 1.223939,-0.308889 2.370886,-0.508052 1.146947,-0.199163 2.300778,-0.474984 2.56407,-0.612937 0.460149,-0.241096 0.530935,-0.21029 1.825542,0.794498 0.740757,0.574926 1.436889,1.148419 1.546961,1.274428 0.110072,0.126009 0.728219,0.630893 1.37366,1.121965 0.645442,0.491071 1.178151,0.988747 1.183799,1.105945 0.0056,0.117199 0.174259,0.327952 0.374691,0.468341 0.362973,0.254236 0.362795,0.255746 -0.04464,0.379342 -0.224986,0.06825 -3.572089,0.170149 -7.438007,0.226443 l -7.028942,0.102354 z"
       id="path1067"
       inkscape:connector-curvature="0"
       transform="matrix(0.26458333,0,0,0.26458333,0,280.06665)" />
    <path
       style="opacity:1;fill:#0000ff;fill-opacity:1;stroke:none;stroke-width:0.4049494;stroke-miterlimit:4;stroke-dasharray:none;stroke-dashoffset:0;stroke-opacity:1"
       d="m 6.0955132,54.262664 c 0.1870324,-0.126209 0.5888181,-0.4406 0.8928571,-0.698646 0.3040391,-0.258045 1.597441,-1.246512 2.8742268,-2.196592 1.2767859,-0.95008 2.5997879,-1.944308 2.9400039,-2.209397 0.340217,-0.265088 1.217591,-0.814401 1.949721,-1.220695 l 1.331145,-0.738717 1.518486,0.417778 c 0.835167,0.229777 1.579631,0.379987 1.654364,0.3338 0.231246,-0.142918 6.666439,1.420893 7.034851,1.709533 0.09821,0.07695 0.476256,0.22113 0.840091,0.320405 0.579749,0.158188 0.714643,0.131265 1.091293,-0.217801 l 0.429772,-0.3983 0.111069,1.70958 c 0.06109,0.940269 0.06367,1.998968 0.0057,2.352663 l -0.105345,0.643081 -3.50773,0.11536 c -1.929261,0.06345 -7.083633,0.158574 -11.454168,0.21139 -6.5066793,0.07863 -7.8848162,0.05445 -7.6063698,-0.133442 z"
       id="path1069"
       inkscape:connector-curvature="0"
       transform="matrix(0.26458333,0,0,0.26458333,0,280.06665)" />
    <path
       style="opacity:1;fill:#00ffff;fill-opacity:1;stroke:none;stroke-width:0.4049494;stroke-miterlimit:4;stroke-dasharray:none;stroke-dashoffset:0;stroke-opacity:1"
       d="M 5.1198094,47.837961 C 5.1139548,44.763196 5.042275,41.845693 4.960521,41.354621 4.8787671,40.86355 4.8370618,40.434599 4.8678426,40.401397 c 0.030781,-0.0332 0.2832642,0.09482 0.5610741,0.284495 1.614642,1.102394 4.6898893,3.080458 5.1479663,3.311281 0.294643,0.148469 0.730525,0.478471 0.968627,0.733339 0.238103,0.254867 0.526159,0.463395 0.640126,0.463395 0.113966,0 0.414658,0.220982 0.668204,0.491071 0.253545,0.27009 0.676106,0.6411 0.939025,0.824468 l 0.478033,0.333396 -0.702391,0.398965 C 13.182192,47.461238 11.269476,48.837995 9.3180265,50.301268 7.3665769,51.764541 5.6260529,53.066767 5.4501953,53.195104 5.14482,53.41796 5.129976,53.177267 5.1198094,47.837961 Z"
       id="path1071"
       inkscape:connector-curvature="0"
       transform="matrix(0.26458333,0,0,0.26458333,0,280.06665)" />
    <path
       style="opacity:1;fill:#00ffff;fill-opacity:1;stroke:none;stroke-width:0.4049494;stroke-miterlimit:4;stroke-dasharray:none;stroke-dashoffset:0;stroke-opacity:1"
       d="m 26.996526,48.605579 c -0.0933,-0.08787 -0.53125,-0.240012 -0.973215,-0.338103 -0.441964,-0.09809 -1.922391,-0.468165 -3.289837,-0.822386 -1.367446,-0.354222 -2.813874,-0.650216 -3.214285,-0.657764 -0.400411,-0.0075 -1.049449,-0.116911 -1.442306,-0.243031 l -0.714286,-0.229307 2.053571,-0.985498 c 5.762038,-2.765172 7.536429,-3.52844 8.202667,-3.52844 h 0.683675 l 0.108351,2.276786 c 0.05959,1.252232 0.157892,2.618303 0.218443,3.035714 0.08857,0.610592 0.0566,0.758928 -0.163561,0.758928 -0.150509,0 -0.431676,0.200893 -0.624814,0.446429 -0.374279,0.475819 -0.5722,0.543013 -0.844403,0.286672 z"
       id="path1073"
       inkscape:connector-curvature="0"
       transform="matrix(0.26458333,0,0,0.26458333,0,280.06665)" />
    <path
       style="opacity:1;fill:#ffff00;fill-opacity:1;stroke:none;stroke-width:0.4049494;stroke-miterlimit:4;stroke-dasharray:none;stroke-dashoffset:0;stroke-opacity:1"
       d="m 15.080297,45.784037 c -0.174907,-0.0455 -0.612311,-0.352339 -0.972008,-0.681865 -0.359697,-0.329525 -0.859448,-0.702653 -1.110558,-0.829172 -0.251109,-0.126519 -0.758133,-0.493395 -1.12672,-0.815278 -0.368586,-0.321884 -0.7446,-0.585243 -0.835587,-0.585243 -0.172072,0 -1.899291,-1.111564 -3.1371126,-2.018911 l -0.7142858,-0.523585 0.625,0.120102 c 0.34375,0.06606 2.5133924,0.200474 4.8214284,0.298705 7.448301,0.317003 8.09102,0.346616 10.357143,0.477203 l 2.232143,0.128628 -3.860999,1.757311 c -2.12355,0.966521 -4.212836,1.99073 -4.642858,2.276021 -0.765923,0.508139 -0.993226,0.563184 -1.635586,0.396084 z"
       id="path1075"
       inkscape:connector-curvature="0"
       transform="matrix(0.26458333,0,0,0.26458333,0,280.06665)" />
    <path
       style="opacity:1;fill:#ffff00;fill-opacity:1;stroke:none;stroke-width:0.4049494;stroke-miterlimit:4;stroke-dasharray:none;stroke-dashoffset:0;stroke-opacity:1"
       d="m 31.507582,20.343818 c 0.648326,-0.273524 1.346999,-0.650995 1.552608,-0.838827 0.20561,-0.187831 0.896157,-0.60593 1.53455,-0.929109 0.638393,-0.323179 1.78425,-0.942559 2.546349,-1.376399 0.762099,-0.433841 1.794789,-0.896735 2.294865,-1.028652 0.815458,-0.215114 1.024265,-0.20432 2.02464,0.104665 1.180434,0.364599 1.947991,0.49642 5.812717,0.998282 l 2.410714,0.313049 -0.892857,0.255708 c -0.491071,0.14064 -1.901264,0.563878 -3.133762,0.940529 -3.469638,1.060323 -5.106926,1.411083 -7.044809,1.50923 -0.982143,0.04974 -2.308036,0.167432 -2.946429,0.261532 -0.638393,0.0941 -2.100459,0.19724 -3.249037,0.229199 l -2.088322,0.05811 z"
       id="path1077"
       inkscape:connector-curvature="0"
       transform="matrix(0.26458333,0,0,0.26458333,0,280.06665)" />
    <path
       style="opacity:1;fill:#ffff00;fill-opacity:1;stroke:none;stroke-width:0.4049494;stroke-miterlimit:4;stroke-dasharray:none;stroke-dashoffset:0;stroke-opacity:1"
       d="m 47.630454,41.16097 c 0,-0.0574 0.365455,-0.569534 0.812123,-1.138072 0.673084,-0.856727 1.681962,-2.864705 1.439328,-2.864705 -0.03769,0 0.250387,-0.904018 0.640165,-2.008929 0.389777,-1.10491 0.773073,-2.290178 0.851769,-2.633928 0.344122,-1.50316 1.525398,-4.173023 2.104829,-4.757236 0.220982,-0.222806 0.401786,-0.504882 0.401786,-0.626835 0,-0.207075 0.842825,-1.560944 1.094898,-1.758786 0.06257,-0.04911 0.565427,-0.851041 1.117464,-1.782076 0.970931,-1.637515 1.375293,-2.541851 1.63847,-3.664353 l 0.125601,-0.535714 0.173934,0.625 c 0.167261,0.601018 0.115012,5.180417 -0.153235,13.430426 l -0.114442,3.519712 -1.539559,0.874576 c -3.177539,1.805061 -8.593131,3.897982 -8.593131,3.32092 z"
       id="path1079"
       inkscape:connector-curvature="0"
       transform="matrix(0.26458333,0,0,0.26458333,0,280.06665)" />
    <path
       style="opacity:1;fill:#00ffff;fill-opacity:1;stroke:none;stroke-width:0.4049494;stroke-miterlimit:4;stroke-dasharray:none;stroke-dashoffset:0;stroke-opacity:1"
       d="m 28.960113,17.46328 c -0.0048,-1.867517 -0.08607,-2.790504 -0.307868,-3.496767 -0.165739,-0.527745 -0.263804,-1.020278 -0.217922,-1.094516 0.16339,-0.264371 0.803274,-0.32986 0.803274,-0.08221 0,0.323593 0.700913,0.796979 1.180035,0.796979 0.212456,0 0.616451,0.120041 0.897767,0.266757 0.281316,0.146717 0.812195,0.267252 1.179732,0.267858 0.714534,0.0012 5.254372,0.851566 5.625269,1.05371 0.13051,0.07113 -0.826738,0.662988 -2.321428,1.435319 -1.398935,0.722852 -2.80775,1.509856 -3.130701,1.748897 -0.6329,0.468458 -2.52499,1.360776 -3.253654,1.534438 l -0.447979,0.106766 z"
       id="path1081"
       inkscape:connector-curvature="0"
       transform="matrix(0.26458333,0,0,0.26458333,0,280.06665)" />
    <path
       style="opacity:1;fill:#0000ff;fill-opacity:1;stroke:none;stroke-width:0.4049494;stroke-miterlimit:4;stroke-dasharray:none;stroke-dashoffset:0;stroke-opacity:1"
       d="m 39.326883,14.36097 c -0.392858,-0.154851 -2.120536,-0.558901 -3.839286,-0.897888 -2.930133,-0.577907 -3.720856,-0.751818 -4.821429,-1.060425 -0.495376,-0.138906 -0.716124,-0.05864 2.767857,-1.00644 1.521828,-0.414007 3.848634,-1.4450287 5.625,-2.4924708 C 39.50099,8.64314 40.434819,8.224136 41.134202,7.9726263 42.371544,7.5276572 42.527145,7.5153359 46.909165,7.5153359 h 4.50336 L 50.505308,8.23245 c -1.296025,1.0244484 -3.480738,2.3186 -3.914128,2.3186 -0.202975,0 -0.480428,0.15902 -0.616561,0.353378 -0.289599,0.41346 -1.357423,1.165894 -1.898142,1.337512 -0.207087,0.06573 -0.59707,0.302297 -0.866629,0.525711 -0.529642,0.438973 -2.903327,1.895549 -3.06812,1.882704 -0.05531,-0.0043 -0.421988,-0.134534 -0.814845,-0.289385 z"
       id="path1083"
       inkscape:connector-curvature="0"
       transform="matrix(0.26458333,0,0,0.26458333,0,280.06665)" />
    <path
       style="opacity:1;fill:#0000ff;fill-opacity:1;stroke:none;stroke-width:0.4049494;stroke-miterlimit:4;stroke-dasharray:none;stroke-dashoffset:0;stroke-opacity:1"
       d="m 26.154654,21.337156 c -0.2172,-0.217201 -9.136631,-0.593809 -14.223447,-0.600561 l -5.2528181,-0.007 0.9878496,-0.69199 c 1.2181478,-0.853316 3.2638905,-1.927827 3.9820725,-2.091555 0.294643,-0.06717 0.736607,-0.229436 0.982143,-0.360587 1.683953,-0.899472 9.570042,-3.366795 12.5,-3.910878 0.736607,-0.136785 1.501234,-0.297307 1.699172,-0.356715 0.622167,-0.186734 0.888896,1.147197 0.887382,4.437851 l -0.0012,2.829697 -0.499011,0.429232 c -0.491345,0.422637 -0.852286,0.532233 -1.062039,0.32248 z"
       id="path1085"
       inkscape:connector-curvature="0"
       transform="matrix(0.26458333,0,0,0.26458333,0,280.06665)" />
    <path
       style="opacity:1;fill:#0000ff;fill-opacity:1;stroke:none;stroke-width:0.4049494;stroke-miterlimit:4;stroke-dasharray:none;stroke-dashoffset:0;stroke-opacity:1"
       d="m 47.630454,49.952775 c 0,-1.25724 -0.08891,-2.455614 -0.203168,-2.738314 -0.111742,-0.276483 -0.233396,-1.205822 -0.270341,-2.065197 -0.05454,-1.268562 -0.01904,-1.5625 0.188696,-1.5625 0.140729,0 0.484758,-0.131363 0.764509,-0.291918 0.485184,-0.278458 0.549669,-0.271238 1.3984,0.156569 0.489369,0.246668 1.169833,0.509106 1.512142,0.583194 0.342309,0.07409 0.788572,0.243599 0.991695,0.37669 0.203122,0.133091 0.80698,0.397561 1.341905,0.58771 0.534925,0.19015 1.525119,0.584099 2.200432,0.875442 l 1.227842,0.529715 -0.959984,0.608973 c -0.527992,0.334935 -1.241235,0.719224 -1.584985,0.853975 -2.149534,0.842626 -3.581892,1.71946 -5.491072,3.36142 l -1.116071,0.959859 z"
       id="path1087"
       inkscape:connector-curvature="0"
       transform="matrix(0.26458333,0,0,0.26458333,0,280.06665)" />
    <path
       style="opacity:1;fill:#0000ff;fill-opacity:1;stroke:none;stroke-width:0.4049494;stroke-miterlimit:4;stroke-dasharray:none;stroke-dashoffset:0;stroke-opacity:1"
       d="m 57.817034,45.409374 c -0.380896,-0.06198 -3.885907,-1.429276 -5.722294,-2.232258 -0.34375,-0.150309 -1.006697,-0.407524 -1.473215,-0.571589 -0.466517,-0.164066 -0.848214,-0.363911 -0.848214,-0.444101 0,-0.08019 0.966223,-0.527672 2.147163,-0.994406 1.180939,-0.466733 2.924212,-1.27794 3.87394,-1.802682 2.128149,-1.175841 2.293584,-1.23145 2.461903,-0.827538 0.07284,0.174802 0.183649,1.643714 0.246232,3.26425 0.06258,1.620536 0.175465,3.042843 0.250848,3.160683 0.179124,0.280011 -0.365738,0.54049 -0.936363,0.447641 z"
       id="path1089"
       inkscape:connector-curvature="0"
       transform="matrix(0.26458333,0,0,0.26458333,0,280.06665)" />
    <path
       style="fill:none;stroke:#000000;stroke-width:0.26458332px;stroke-linecap:butt;stroke-linejoin:miter;stroke-opacity:1"
       d="m 16.819943,281.88094 c -0.04725,0.0472 -0.111862,0.082 -0.141744,0.14174 -0.02113,0.0423 0,0.0945 0,0.14174 0,0.0177 0.0045,0.31718 0,0.33073 -0.005,0.0149 -0.0402,-0.0141 -0.04725,0 -0.01409,0.0282 0,0.063 0,0.0945 0,0.0572 0.01065,0.25152 0,0.28348 -0.005,0.0149 -0.03611,-0.0111 -0.04725,0 -0.01114,0.0111 0,0.0315 0,0.0473 0,0.0158 0,0.0315 0,0.0473 0,0.0787 0,0.15749 0,0.23623 0,0.0788 0,0.15749 0,0.23624 0,0.0315 0,0.063 0,0.0945 0,0.0157 0.01575,0.0473 0,0.0473 -0.01575,0 -0.01559,-0.045 0,-0.0473 0.109135,-0.0156 0.220489,-3e-5 0.330734,-4e-5"
       id="path1091"
       inkscape:connector-curvature="0" />
    <path
       style="fill:none;stroke:#000000;stroke-width:0.26458332px;stroke-linecap:butt;stroke-linejoin:miter;stroke-opacity:1"
       d="m 16.914429,289.29863 c -0.104446,0.31345 -0.09449,0.18394 -0.09449,0.37806 0,0.11025 0.01367,0.22134 0,0.33073 -0.0028,0.0221 -0.03729,0.0273 -0.04725,0.0472 -0.02227,0.0446 -0.03748,0.0929 -0.04725,0.14174 -0.0062,0.0309 0,0.063 0,0.0945 0,0.14174 0,0.28348 0,0.42522 0,0.049 -0.01088,0.26173 0,0.28348 0.01,0.0199 0.0402,0.0261 0.04725,0.0472 0.0072,0.0216 0,0.20986 0,0.23623 0,0.0315 0,0.063 0,0.0945 0,0.0158 0.01575,0.0472 0,0.0472 -0.01575,0 0,-0.063 0,-0.0472 0,0.0315 0,0.063 0,0.0945 0,0.0157 0,0.0315 0,0.0473 0,0.0157 0.01114,0.0361 0,0.0472 -0.01114,0.0111 -0.05838,0.0111 -0.04725,0 0.102672,-0.10265 0.220484,-0.18895 0.330726,-0.28342"
       id="path1093"
       inkscape:connector-curvature="0" />
    <path
       style="fill:none;stroke:#000000;stroke-width:0.26458332px;stroke-linecap:butt;stroke-linejoin:miter;stroke-opacity:1"
       d="m 16.914433,283.53466 c -0.110243,0.0945 -0.247463,0.16447 -0.330728,0.2834 -0.03613,0.0516 0,0.126 0,0.18899 0,0.0315 -0.0039,0.0632 0,0.0945 0.01188,0.0951 0.03772,0.18816 0.04725,0.28348 0.01837,0.18374 -0.01378,0.16536 0,0.33073 0.01184,0.14212 0.0354,0.2831 0.04725,0.42522 0.0039,0.0471 -0.0052,0.0948 0,0.14174 0.01058,0.0952 0.04087,0.1879 0.04725,0.28348 0.01152,0.17286 0,0.34648 0,0.51972 0,0.11024 -0.01217,0.22116 0,0.33073 0.0039,0.035 0.04146,0.0598 0.04725,0.0945 0.01036,0.0621 -0.0078,0.12648 0,0.18899 0.0081,0.0644 0.03919,0.12456 0.04725,0.18899 0.0078,0.0625 0,0.12599 0,0.18899 0,0.15749 0,0.31498 0,0.47247 0,0.47247 0,0.94494 0,1.41741 0,0.10674 0.007,-0.0211 -0.04725,0.14174 -0.01,0.0299 0.02227,0.0722 0,0.0945 -0.01114,0.0111 -0.03611,-0.0111 -0.04725,0 -0.01114,0.0111 0.01575,0.0472 0,0.0472 -0.01575,0 -0.01528,-0.0511 0,-0.0472 0.06832,0.017 0.125989,0.0629 0.188983,0.0944"
       id="path1095"
       inkscape:connector-curvature="0" />
    <path
       style="opacity:1;fill:#00ffff;fill-opacity:1;stroke:none;stroke-width:0.4049494;stroke-miterlimit:4;stroke-dasharray:none;stroke-dashoffset:0;stroke-opacity:1"
       d="m 50.472906,16.624938 c -0.155401,-0.09089 -1.521472,-0.328735 -3.035714,-0.528547 -3.904924,-0.515274 -4.095635,-0.544542 -4.945836,-0.759029 l -0.764099,-0.192764 0.585527,-0.39174 c 0.32204,-0.215457 1.63017,-1.011811 2.906956,-1.769676 1.276785,-0.757865 2.441964,-1.455929 2.589285,-1.551254 0.147322,-0.09532 0.46875,-0.272539 0.714286,-0.39381 0.502509,-0.248191 1.471333,-0.869939 1.607143,-1.031391 0.04911,-0.058379 0.907238,-0.6428249 1.906957,-1.2987678 l 1.817671,-1.1926233 h 4.323383 4.323384 l -0.119831,1.0267857 c -0.06591,0.5647321 -0.169453,1.8303574 -0.230102,2.8125004 -0.130335,2.1106 -0.435603,2.679657 -1.542496,2.875391 -0.413545,0.07313 -0.783909,0.27647 -0.941429,0.516875 -0.142823,0.217977 -0.574607,0.538334 -0.959519,0.711905 -0.384911,0.173571 -0.742229,0.426049 -0.794038,0.561063 -0.05181,0.135014 -0.241365,0.24548 -0.421233,0.24548 -0.179868,0 -0.408947,0.08191 -0.509063,0.18203 -0.12366,0.12366 -0.42862,0.09503 -0.951023,-0.08929 -1.011029,-0.356713 -1.421167,-0.342456 -2.356375,0.0819 -0.829664,0.37647 -2.692508,0.484009 -3.203834,0.184953 z"
       id="path1097"
       inkscape:connector-curvature="0"
       transform="matrix(0.26458333,0,0,0.26458333,0,280.06665)" />
    <path
       style="opacity:1;fill:#0000ff;fill-opacity:1;stroke:none;stroke-width:0.4049494;stroke-miterlimit:4;stroke-dasharray:none;stroke-dashoffset:0;stroke-opacity:1"
       d="m 59.040545,36.48855 c -0.05559,-0.402864 0.05651,-4.864447 0.16264,-6.473214 0.06803,-1.03125 0.120375,-3.723215 0.116315,-5.982143 -0.0072,-4.011367 -0.0185,-4.136229 -0.48413,-5.354438 -0.432531,-1.131609 -0.452307,-1.284597 -0.213221,-1.649488 0.144941,-0.221207 0.603871,-0.574737 1.019845,-0.785623 0.415974,-0.210885 0.796496,-0.442159 0.845603,-0.513943 0.04911,-0.07178 0.290178,-0.191029 0.535714,-0.26499 0.245536,-0.07396 0.580461,-0.251994 0.744278,-0.395629 0.344326,-0.301903 0.357655,-0.219254 0.682505,4.231968 0.50762,6.9556 0.66001,13.477109 0.345552,14.787912 -0.221756,0.924386 -0.265906,0.975418 -1.202064,1.389431 -0.53452,0.236391 -1.049626,0.4298 -1.144682,0.4298 -0.09506,0 -0.377144,0.160714 -0.626862,0.357143 -0.473317,0.37231 -0.750014,0.451343 -0.781493,0.223214 z"
       id="path1099"
       inkscape:connector-curvature="0"
       transform="matrix(0.26458333,0,0,0.26458333,0,280.06665)" />
    <path
       style="opacity:1;fill:#0000ff;fill-opacity:1;stroke:none;stroke-width:0.4049494;stroke-miterlimit:4;stroke-dasharray:none;stroke-dashoffset:0;stroke-opacity:1"
       d="m 59.705963,42.024264 c -0.05189,-1.350446 -0.146074,-2.877232 -0.209303,-3.392857 -0.06323,-0.515625 -0.08712,-0.937506 -0.05308,-0.937514 0.03403,-8e-6 0.825271,-0.313874 1.758306,-0.69748 1.643953,-0.675891 1.698336,-0.685854 1.758085,-0.322075 0.03391,0.206465 -0.03879,0.679757 -0.161566,1.051761 -0.160551,0.486475 -0.190258,1.366919 -0.105809,3.135971 0.110205,2.308619 0.09619,2.472857 -0.228362,2.675541 -0.303702,0.189666 -2.366241,0.94201 -2.582503,0.94201 -0.04478,0 -0.123876,-1.10491 -0.175764,-2.455357 z"
       id="path1101"
       inkscape:connector-curvature="0"
       transform="matrix(0.26458333,0,0,0.26458333,0,280.06665)" />
  </g>
</svg>
