<?xml version="1.0" encoding="UTF-8" standalone="no"?>
<!-- Created with Inkscape (http://www.inkscape.org/) -->

<svg
   xmlns:dc="http://purl.org/dc/elements/1.1/"
   xmlns:cc="http://creativecommons.org/ns#"
   xmlns:rdf="http://www.w3.org/1999/02/22-rdf-syntax-ns#"
   xmlns:svg="http://www.w3.org/2000/svg"
   xmlns="http://www.w3.org/2000/svg"
   xmlns:sodipodi="http://sodipodi.sourceforge.net/DTD/sodipodi-0.dtd"
   xmlns:inkscape="http://www.inkscape.org/namespaces/inkscape"
   width="64"
   height="64"
   viewBox="0 0 16.933333 16.933334"
   version="1.1"
   id="svg8"
   inkscape:version="0.92.4 (5da689c313, 2019-01-14)"
   sodipodi:docname="Generate.svg">
  <defs
     id="defs2" />
  <sodipodi:namedview
     id="base"
     pagecolor="#ffffff"
     bordercolor="#666666"
     borderopacity="1.0"
     inkscape:pageopacity="0.0"
     inkscape:pageshadow="2"
     inkscape:zoom="7.9195959"
     inkscape:cx="25.956575"
     inkscape:cy="29.659948"
     inkscape:document-units="mm"
     inkscape:current-layer="layer1"
     showgrid="false"
     units="px"
     inkscape:window-width="1920"
     inkscape:window-height="1017"
     inkscape:window-x="-8"
     inkscape:window-y="-8"
     inkscape:window-maximized="1" />
  <metadata
     id="metadata5">
    <rdf:RDF>
      <cc:Work
         rdf:about="">
        <dc:format>image/svg+xml</dc:format>
        <dc:type
           rdf:resource="http://purl.org/dc/dcmitype/StillImage" />
        <dc:title></dc:title>
      </cc:Work>
    </rdf:RDF>
  </metadata>
  <g
     inkscape:label="Layer 1"
     inkscape:groupmode="layer"
     id="layer1"
     transform="translate(0,-280.06665)">
    <path
       style="fill:none;stroke:#000000;stroke-width:0.60000002;stroke-linecap:butt;stroke-linejoin:miter;stroke-miterlimit:4;stroke-dasharray:none;stroke-opacity:1"
       d="m 3.9088167,286.67669 c 0,-0.36749 0,-0.73499 0,-1.10248 0,-0.0557 0,-0.11137 0,-0.16705 0,-0.0111 -0.00787,-0.0255 0,-0.0334 0.00787,-0.008 0.028428,0.01 0.033409,0 0.031871,-0.0637 -0.038285,-0.0644 0.033409,-0.10022 0.00996,-0.005 0.022273,0 0.033409,0 0.077954,0 0.1559073,0 0.233861,0 0.2115884,0 0.4231767,0 0.634765,0 0.1224987,0 0.2449971,0 0.3674957,0 0.011136,0 0.022273,0 0.033409,0 0.033409,0 0.076602,-0.0236 0.100226,0 0.023625,0.0236 0,0.0668 0,0.10022 0,0.32419 0.018907,0.13208 -0.033409,0.3675 -0.024635,0.11086 -0.035618,0.22489 -0.066817,0.33409 -0.00684,0.0239 -0.027369,0.0427 -0.033409,0.0668 -0.0054,0.0216 0,0.0446 0,0.0668 0,0.0557 0,0.11136 0,0.16704 0,0.0223 0.00996,0.0469 0,0.0668 -0.00498,0.01 -0.029887,-0.0106 -0.033409,0 -0.010565,0.0317 0.010565,0.0685 0,0.10023 -0.00352,0.0106 -0.028428,-0.01 -0.033409,0 -0.00393,0.008 0,0.11169 0,0.13363 0,0.0111 -0.00787,0.0255 0,0.0334 0.017608,0.0176 0.046896,0.0185 0.066817,0.0334 0.2184747,0.16386 -0.1374878,-0.0349 0.200452,0.10023 0.022148,0.009 0.1041236,0.11396 0.133635,0.13363 0.016825,0.0736 0.068728,0.0177 0.100226,0.0334 0.028173,0.0141 0.038645,0.0527 0.066817,0.0668 0.00996,0.005 0.023447,-0.005 0.033409,0 0.014086,0.007 0.026366,0.0193 0.033409,0.0334 0.00498,0.01 -0.00996,0.0284 0,0.0334 0.064464,0.0322 0.1249138,-0.0457 0.1670434,-0.0668 0.00996,-0.005 0.02249,0.002 0.033409,0 0.045024,-0.009 0.08909,-0.0223 0.133635,-0.0334 0.044545,-0.0111 0.091003,-0.0164 0.1336347,-0.0334 0.014623,-0.006 0.022273,-0.0223 0.033409,-0.0334 0.033409,-0.0111 0.065694,-0.0265 0.100226,-0.0334 0.021839,-0.004 0.044545,0 0.066817,0 0.011136,0 0.023447,0.005 0.033409,0 0.035913,-0.018 0.062945,-0.0519 0.100226,-0.0668 0.02068,-0.008 0.044977,0.004 0.066817,0 0.034532,-0.007 0.066062,-0.0249 0.100226,-0.0334 0.010803,-0.003 0.025535,0.008 0.033409,0 0.00787,-0.008 -0.00787,-0.0255 0,-0.0334 0.062338,-0.0623 0.097871,-0.0155 0.1336347,-0.0334 0.014086,-0.007 0.019323,-0.0264 0.033409,-0.0334 0.00175,-8.7e-4 0.098478,-8.7e-4 0.1002263,0 0.014086,0.007 0.023572,0.0211 0.033409,0.0334 0.067204,0.084 0.1270709,0.16734 0.1670434,0.26727 0.013078,0.0327 0.013875,0.0709 0.033409,0.10022 0.00618,0.009 0.030708,-0.0108 0.033409,0 0.010803,0.0432 -0.00874,0.09 0,0.13364 0.00309,0.0154 0.026366,0.0193 0.033409,0.0334 0.015748,0.0315 0.024868,0.0661 0.033409,0.10022 0.0054,0.0216 -0.00704,0.0457 0,0.0668 0.094642,0.18928 -0.012451,-0.0498 0.033409,0.13364 0.00854,0.0342 0.05831,0.0753 0.033409,0.10022 -0.029191,0.0292 -0.1409496,0.0538 -0.1670433,0.0668 -0.014087,0.007 -0.018934,0.0272 -0.033409,0.0334 -0.4172008,0.1788 -0.06816,0.0336 -0.2672694,0.0668 -0.045291,0.008 -0.088344,0.0259 -0.1336349,0.0334 -0.021968,0.004 -0.044717,-0.003 -0.066817,0 -0.067216,0.008 -0.1332362,0.025 -0.200452,0.0334 -0.022101,0.003 -0.045688,-0.007 -0.066817,0 -0.014941,0.005 -0.019323,0.0264 -0.033409,0.0334 -0.00996,0.005 -0.023447,-0.005 -0.033409,0 -0.014086,0.007 -0.019322,0.0264 -0.033409,0.0334 -0.00996,0.005 -0.025535,-0.008 -0.033409,0 -0.069124,0.0691 0.1056304,-0.003 -0.033409,0.0668 -0.031498,0.0157 -0.066062,0.0249 -0.100226,0.0334 -0.020243,0.005 -0.063393,-0.007 -0.066817,0 -0.00996,0.0199 0,0.0445 0,0.0668 0,0.0223 -0.00437,0.045 0,0.0668 0.00691,0.0345 0.024868,0.0661 0.033409,0.10023 0.0027,0.0108 0,0.0223 0,0.0334 0,0.0668 0,0.13363 0,0.20045 0,0.0668 0,0.13363 0,0.20045 0,0.0668 0,0.13364 0,0.20045 0,0.0111 0,0.0223 0,0.0334 0,0.0111 -0.010565,0.0299 0,0.0334 0.031694,0.0106 0.066817,0 0.100226,0 0.2379401,0 -0.044272,0.004 0.4009044,-0.0334 0.033293,-0.003 0.066817,0 0.100226,0 0.100226,0 0.2004523,0 0.3006783,0 0.055681,0 0.1113623,0 0.1670434,0 0.011136,0 0.033409,-0.0111 0.033409,0 0,0.0111 -0.044545,0 -0.033409,0 0.062626,0 0.089384,-0.0199 0.100226,0.0668 0.00829,0.0663 0,0.13363 0,0.20045 0,0.27841 0,0.55681 0,0.83522 0,0.0111 0,0.0223 0,0.0334 0,0.0445 0,0.0891 0,0.13363 0,0.0111 0.00996,0.0284 0,0.0334 -0.019921,0.01 -0.044545,0 -0.066817,0 -0.044545,0 -0.08909,0 -0.1336347,0 -0.066817,0 -0.1336346,0 -0.200452,0 -0.011136,0 -0.022606,0.003 -0.033409,0 -0.034164,-0.009 -0.068728,-0.0177 -0.100226,-0.0334 -0.014086,-0.007 -0.018129,-0.0296 -0.033409,-0.0334 -0.032411,-0.008 -0.067153,0.005 -0.100226,0 -0.045454,-0.006 -0.088611,-0.0244 -0.1336347,-0.0334 -0.042589,-0.009 -0.091613,0.0105 -0.133635,0 -0.027287,-0.007 -0.1245042,-0.0547 -0.1670433,-0.0334 -0.00996,0.005 0,0.0223 0,0.0334 0,0.078 0,0.15591 0,0.23386 0,0.0111 0.00787,0.0255 0,0.0334 -0.00787,0.008 -0.023447,-0.005 -0.033409,0 -0.1390391,0.0695 0.035715,-0.002 -0.033409,0.0668 -0.028392,0.0284 -0.071834,0.0384 -0.100226,0.0668 -0.00787,0.008 0.00787,0.0255 0,0.0334 -0.028392,0.0284 -0.068873,0.0417 -0.100226,0.0668 -0.024596,0.0197 -0.044545,0.0446 -0.066818,0.0668 -0.022273,0.0223 -0.046653,0.0426 -0.066817,0.0668 -0.035646,0.0428 -0.06458,0.0909 -0.100226,0.13363 -0.040329,0.0484 -0.08909,0.0891 -0.1336347,0.13364 -0.022273,0.0223 -0.049346,0.0406 -0.066817,0.0668 -0.00618,0.009 0,0.0223 0,0.0334 0,0.0111 -0.00787,0.0255 0,0.0334 0.00787,0.008 0.023447,-0.005 0.033409,0 0.035913,0.018 0.068104,0.0427 0.1002261,0.0668 0.012599,0.009 0.022273,0.0223 0.033409,0.0334 0.033409,0.0334 0.066817,0.0668 0.1002261,0.10023 0.033409,0.0334 0.074018,0.0609 0.100226,0.10022 0.00618,0.009 -0.00618,0.0242 0,0.0334 0.034944,0.0524 0.095837,0.0832 0.1336349,0.13364 0.014941,0.0199 0.019595,0.0461 0.033409,0.0668 0.00874,0.0131 0.026366,0.0193 0.033409,0.0334 0.015748,0.0315 0.017661,0.0687 0.033409,0.10023 0.014087,0.0282 0.052731,0.0386 0.066817,0.0668 0.00498,0.01 -0.00498,0.0235 0,0.0334 0.00704,0.0141 0.026366,0.0193 0.033409,0.0334 0.00498,0.01 0,0.0223 0,0.0334 0,0.0111 0.00618,0.0241 0,0.0334 -0.017473,0.0262 -0.047918,0.0416 -0.066817,0.0668 -0.014941,0.0199 -0.018468,0.0469 -0.033409,0.0668 -0.018899,0.0252 -0.044545,0.0445 -0.066817,0.0668 -0.022273,0.0223 -0.044545,0.0446 -0.066817,0.0668 -0.011136,0.0111 -0.020304,0.0247 -0.033409,0.0334 -0.016825,0.0736 -0.068728,0.0177 -0.1002263,0.0334 -0.014086,0.007 -0.019323,0.0264 -0.033409,0.0334 -0.00996,0.005 -0.024143,-0.006 -0.033409,0 -0.022273,0.0223 -0.044545,0.0445 -0.066817,0.0668 -0.011136,0 -0.023447,-0.005 -0.033409,0 -0.014086,0.007 -0.018129,0.0296 -0.033409,0.0334 -0.2369588,0 -0.019571,-0.0236 -0.1336347,0.0334 -0.01992,0.01 -0.051069,-0.0157 -0.066817,0 -0.00787,0.008 0.00787,0.0255 0,0.0334 -0.00787,0.008 -0.022273,0 -0.033409,0 -0.060064,0 -0.072806,0.006 -0.1336347,-0.0668 -0.031883,-0.0383 -0.040422,-0.0914 -0.066817,-0.13363 -0.029511,-0.0472 -0.06458,-0.0909 -0.1002261,-0.13364 -0.00564,-0.007 -0.1324678,-0.1313 -0.1336347,-0.13363 -0.021733,-0.0435 0.031116,-0.0787 -0.033409,-0.10023 -0.02113,-0.007 -0.048286,0.0124 -0.066818,0 -0.052416,-0.0349 -0.08524,-0.0933 -0.1336347,-0.13363 -0.1590752,-0.13257 0.045656,0.13224 -0.1670434,-0.13364 -0.013203,-0.0165 -0.092782,-0.17812 -0.100226,-0.20045 -0.00352,-0.0106 0.010565,-0.0299 0,-0.0334 -0.031694,-0.0106 -0.066818,0 -0.1002263,0 -0.055681,0 -0.1113623,0 -0.1670433,0 -0.044545,0 -0.089696,0.007 -0.1336347,0 -0.024564,-0.004 -0.043697,-0.0242 -0.066817,-0.0334 -0.032697,-0.0131 -0.066062,-0.0249 -0.1002263,-0.0334 -0.010803,-0.003 -0.022273,0 -0.033409,0 -0.044545,0 -0.08909,0 -0.1336347,0 -0.022273,0 -0.044545,0 -0.066817,0 -0.011136,0 -0.025535,-0.008 -0.033409,0 -0.00787,0.008 -0.00183,0.0224 0,0.0334 0.00933,0.056 0.025379,0.11083 0.033409,0.16705 0.00315,0.022 0,0.0445 0,0.0668 0,0.0334 0,0.0668 0,0.10023 0,0.10022 0,0.20045 0,0.30068 0,0.10022 0,0.20045 0,0.30068 0,0.0111 0,0.0223 0,0.0334 0,0.0111 0.00787,0.0255 0,0.0334 -0.00787,0.008 -0.028428,-0.01 -0.033409,0 -0.00996,0.0199 0.00996,0.0469 0,0.0668 -0.00498,0.01 -0.022844,-0.004 -0.033409,0 -0.023625,0.008 -0.042109,0.0303 -0.066817,0.0334 -0.066301,0.008 -0.1336349,0 -0.2004523,0 -0.1670433,0 -0.3340867,0 -0.5011303,0 -0.1113623,0 -0.2227247,0 -0.3340867,0 -0.022273,0 -0.044545,0 -0.066817,0 -0.022272,0 -0.046896,0.01 -0.066817,0 -0.00996,-0.005 -0.00157,-0.0224 0,-0.0334 0.00958,-0.0671 0.025006,-0.13324 0.033409,-0.20045 0.00276,-0.0221 0,-0.0446 0,-0.0668 0,-0.13363 0,-0.26727 0,-0.4009 0,-0.0223 -0.00612,-0.0454 0,-0.0668 0.016475,-0.0577 0.047853,-0.11015 0.066817,-0.16704 0.00352,-0.0106 0,-0.0223 0,-0.0334 0,-0.0334 -0.0081,-0.0678 0,-0.10023 0.00382,-0.0153 0.026366,-0.0193 0.033409,-0.0334 0.00498,-0.01 0,-0.0223 0,-0.0334 0,-0.0111 0.00498,-0.0234 0,-0.0334 -0.016481,-0.033 -0.1340788,-0.0892 -0.1670436,-0.10022 -0.1193701,-0.0398 0.1376274,0.12935 -0.1336348,-0.0334 -0.027009,-0.0162 -0.040609,-0.0494 -0.066817,-0.0668 -0.00927,-0.006 -0.024143,0.006 -0.033409,0 -0.026208,-0.0175 -0.042221,-0.0471 -0.066817,-0.0668 -0.031354,-0.0251 -0.065796,-0.0462 -0.1002261,-0.0668 -0.021353,-0.0128 -0.049209,-0.0158 -0.066817,-0.0334 -0.017608,-0.0176 -0.015801,-0.0492 -0.033409,-0.0668 -0.00787,-0.008 -0.025534,0.008 -0.033409,0 -0.00787,-0.008 0.00352,-0.0228 0,-0.0334 -0.080664,-0.24199 0.00963,0.0527 -0.066817,-0.10022 -0.010499,-0.021 0.010499,-0.11264 0,-0.13364 -0.00498,-0.01 -0.022272,0 -0.033409,0 -0.055681,0 -0.1113623,0 -0.1670435,0 -0.066817,0 -0.1336347,0 -0.2004521,0 -0.033409,0 -0.068532,-0.0106 -0.1002261,0 -0.014941,0.005 -0.019322,0.0264 -0.033409,0.0334 -0.00996,0.005 -0.022605,-0.003 -0.033409,0 -0.034164,0.009 -0.066062,0.0249 -0.1002261,0.0334 -0.022736,0.006 -0.081955,-0.009 -0.100226,0 -0.014086,0.007 -0.018468,0.0284 -0.033409,0.0334 -0.015293,0.005 -0.14839616,0 -0.16704344,0 -0.0111363,0 -0.0222724,0 -0.0334087,0 -0.0111363,0 -0.0334087,0.0111 -0.0334087,0 0,-0.0111 0.0412832,0.008 0.0334087,0 -0.017608,-0.0176 -0.0518766,-0.0135 -0.0668174,-0.0334 -0.0793283,-0.10577 -0.0200012,-0.0666 -0.0334087,-0.13364 -0.10846244,-0.43385 0.0153053,0.10714 -0.0334087,-0.23386 -0.006493,-0.0455 -0.0258601,-0.0883 -0.0334087,-0.13363 -0.003662,-0.022 0,-0.0446 0,-0.0668 0,-0.0891 0,-0.17818 0,-0.26727 0,-0.078 0,-0.15591 0,-0.23386 0,-0.0223 -0.0185317,-0.0545 0,-0.0668 0.0119317,-0.008 0.14052862,0.005 0.16704344,0 0.034532,-0.007 0.0654894,-0.0276 0.10022603,-0.0334 0.038377,-0.006 0.24001897,0 0.26726947,0 0.1224986,0 0.2449971,0 0.3674956,0 0.044545,0 0.08909,0 0.1336348,0 0.011136,0 0.022272,0 0.033409,0 0.011136,0 0.025534,0.008 0.033409,0 0.00787,-0.008 0,-0.0223 0,-0.0334 0,-0.0446 0,-0.0891 0,-0.13364 0,-0.0287 -0.00652,-0.1809 0,-0.20045 0.00498,-0.0149 0.029589,-0.0181 0.033409,-0.0334 0.037077,-0.14831 -0.042577,-0.0531 0.033409,-0.16704 0.00874,-0.0131 0.024673,-0.0203 0.033409,-0.0334 0.073605,-0.0168 0.01766,-0.0687 0.033409,-0.10023 0.00704,-0.0141 0.024673,-0.0203 0.033409,-0.0334 0.013813,-0.0207 0.019596,-0.0461 0.033409,-0.0668 0.014633,-0.022 0.094199,-0.0822 0.1002261,-0.10023 0.00704,-0.0211 -0.00704,-0.0457 0,-0.0668 0.00508,-0.0152 0.08518,-0.0852 0.100226,-0.10022 0.011136,-0.0111 0.022272,-0.0223 0.033409,-0.0334 0.011136,-0.0111 0.019322,-0.0264 0.033409,-0.0334 0.00996,-0.005 0.033409,0.0111 0.033409,0 0,-0.0158 -0.020305,-0.0247 -0.033409,-0.0334 -0.054029,-0.036 -0.1106642,-0.068 -0.1670434,-0.10023 -0.021621,-0.0123 -0.047373,-0.0179 -0.066817,-0.0334 -0.036894,-0.0295 -0.066817,-0.0668 -0.1002261,-0.10023 -0.011136,-0.0111 -0.019322,-0.0264 -0.033409,-0.0334 -0.00996,-0.005 -0.025534,0.008 -0.033409,0 -0.039373,-0.0394 -0.06934,-0.0873 -0.1002261,-0.13363 -0.013813,-0.0207 -0.015801,-0.0492 -0.033409,-0.0668 -0.039373,-0.0394 -0.090155,-0.0654 -0.1336348,-0.10023 -0.024596,-0.0197 -0.044545,-0.0445 -0.066817,-0.0668 -0.011136,-0.0111 -0.028428,-0.0185 -0.033409,-0.0334 -0.00704,-0.0211 0.00996,-0.0469 0,-0.0668 -0.00498,-0.01 -0.025534,0.008 -0.033409,0 -0.017608,-0.0176 -0.019596,-0.0461 -0.033409,-0.0668 -0.00874,-0.0131 -0.026366,-0.0193 -0.033409,-0.0334 -0.00498,-0.01 0.00787,-0.0255 0,-0.0334 -0.028636,-0.0286 -0.087499,0.0684 -0.033409,-0.0668 0.082093,-0.20523 0.029997,-0.03 0.1336348,-0.13364 0.017608,-0.0176 0.018468,-0.0469 0.033409,-0.0668 0.013653,-0.0182 0.1486469,-0.15478 0.1670434,-0.16705 0.00927,-0.006 0.025534,0.008 0.033409,0 0.1707311,-0.17073 -0.1400819,0.0466 0.1002261,-0.13363 0.019921,-0.0149 0.049209,-0.0158 0.066817,-0.0334 0.00787,-0.008 -0.00787,-0.0255 0,-0.0334 0.028392,-0.0284 0.071834,-0.0384 0.1002261,-0.0668 0.00787,-0.008 -0.00498,-0.0234 0,-0.0334 0.00704,-0.0141 0.026366,-0.0193 0.033409,-0.0334 0.00498,-0.01 -0.00498,-0.0234 0,-0.0334 0.00704,-0.0141 0.026365,-0.0193 0.033409,-0.0334 0.00498,-0.01 -0.00787,-0.0255 0,-0.0334 0.00787,-0.008 0.023448,0.005 0.033409,0 0.046029,-0.023 0.065585,-0.10023 0.1336347,-0.10023 0.015749,0 0.020809,0.024 0.033409,0.0334 0.032122,0.0241 0.066817,0.0446 0.1002261,0.0668 0.033409,0.0334 0.063332,0.0707 0.1002261,0.10023 0.00988,0.008 0.1292153,0.0615 0.1336346,0.0668 0.033409,0.0557 0.066818,0.11136 0.1002263,0.16705 0.022273,0.0111 0.049209,0.0158 0.066817,0.0334 0.028392,0.0284 0.041734,0.0689 0.066817,0.10023 0.019677,0.0246 0.049345,0.0406 0.066817,0.0668 0.00618,0.009 0,0.0223 0,0.0334 0.011136,0.0223 0.015801,0.0492 0.033409,0.0668 0.00787,0.008 0.028428,0.01 0.033409,0 0.019921,-0.0398 -0.014086,-0.0914 0,-0.13363 0.00498,-0.0149 0.02756,-0.0188 0.033409,-0.0334 0.048888,-0.12222 0.00775,-0.11186 0.066817,-0.20045 0.00874,-0.0131 0.023961,-0.0208 0.033409,-0.0334 0.015661,-0.0209 0.061917,-0.1081 0.1002263,-0.13363 0.020719,-0.0138 0.049209,-0.0158 0.066817,-0.0334 0.028392,-0.0284 0.038425,-0.0718 0.066817,-0.10023 0.069124,-0.0691 -0.0027,0.10563 0.066817,-0.0334 0.00498,-0.01 -0.00787,-0.0255 0,-0.0334 0.1303853,-0.13038 0.017941,0.008 0.100226,-0.0334 0.028173,-0.0141 0.036936,-0.0568 0.066817,-0.0668 0.02113,-0.007 0.046896,0.01 0.066818,0 0.00996,-0.005 -0.00787,-0.0255 0,-0.0334 0.00787,-0.008 0.022606,0.003 0.033409,0 0.2780779,-0.0695 -0.040328,0.002 0.1670434,-0.0668 0.019352,-0.006 0.1046832,0 0.1336347,0"
       id="path1470"
       inkscape:connector-curvature="0" />
    <path
       style="fill:none;stroke:#000000;stroke-width:0.60000002;stroke-linecap:butt;stroke-linejoin:miter;stroke-miterlimit:4;stroke-dasharray:none;stroke-opacity:1"
       d="m 4.209495,288.41394 c -0.055681,-0.0334 -0.1113623,-0.0668 -0.1670436,-0.10022 0,-0.0111 0.010565,-0.0299 0,-0.0334 -0.013179,-0.004 -0.1712897,0 -0.200452,0 -0.029858,0 -0.1563971,-0.005 -0.1670434,0 -0.014086,0.007 -0.022273,0.0223 -0.033409,0.0334 -0.022273,0.0223 -0.049345,0.0406 -0.066817,0.0668 -0.00618,0.009 0.00618,0.0241 0,0.0334 -0.026207,0.0393 -0.074018,0.0609 -0.1002263,0.10023 -0.013814,0.0207 -0.022273,0.0446 -0.033409,0.0668 -0.011136,0.0223 -0.027369,0.0427 -0.033409,0.0668 -0.0054,0.0216 0.00704,0.0457 0,0.0668 -0.015748,0.0473 -0.041194,0.0909 -0.066817,0.13364 -0.0081,0.0135 -0.029589,0.0181 -0.033409,0.0334 -0.0081,0.0324 0.00655,0.0675 0,0.10022 -0.00488,0.0244 -0.029315,0.0423 -0.033409,0.0668 -0.00915,0.0549 0,0.11136 0,0.16704 0,0.0557 0,0.11137 0,0.16705 0,0.0223 -0.0054,0.0452 0,0.0668 0.019021,0.0761 0.051818,0.0731 0.100226,0.13364 0.022273,0.0334 0.044545,0.0668 0.066817,0.10023 0.011136,0 0.024143,-0.006 0.033409,0 0.026207,0.0175 0.04061,0.0493 0.066817,0.0668 0.00927,0.006 0.023447,-0.005 0.033409,0 0.014086,0.007 0.018129,0.0296 0.033409,0.0334 0.01995,0.005 0.2113936,0 0.2338607,0 0.1113623,0 0.2227246,0 0.334087,0 0.011136,0 0.022423,0.002 0.033409,0 0.056011,-0.009 0.1110322,-0.0241 0.1670434,-0.0334 0.010986,-0.002 0.022844,0.004 0.033409,0 0.056893,-0.019 0.1113623,-0.0445 0.1670436,-0.0668 0.055681,-0.0223 0.1134041,-0.04 0.1670434,-0.0668 0.014086,-0.007 0.020304,-0.0247 0.033409,-0.0334 0.02072,-0.0138 0.046098,-0.0196 0.066817,-0.0334 0.013105,-0.009 0.023958,-0.0208 0.033409,-0.0334 0.087997,-0.11733 0.066817,-0.0984 0.066817,-0.23386 0,-0.0445 0,-0.0891 0,-0.13363 0,-0.0223 0.00437,-0.045 0,-0.0668 -0.00691,-0.0345 -0.024868,-0.0661 -0.033409,-0.10023 -0.0027,-0.0108 0.00498,-0.0234 0,-0.0334 -0.017957,-0.0359 -0.048861,-0.0643 -0.066817,-0.10022 -0.015748,-0.0315 -0.017661,-0.0687 -0.033409,-0.10023 -0.00704,-0.0141 -0.021111,-0.0236 -0.033409,-0.0334 -0.04348,-0.0348 -0.094262,-0.0608 -0.1336347,-0.10022 -0.017608,-0.0176 -0.015801,-0.0492 -0.033409,-0.0668 -0.017608,-0.0176 -0.046896,-0.0185 -0.066818,-0.0334 -0.025199,-0.0189 -0.038645,-0.0527 -0.066817,-0.0668 -0.01992,-0.01 -0.046896,0.01 -0.066817,0 -0.00996,-0.005 0.00996,-0.0284 0,-0.0334 -0.01992,-0.01 -0.044545,0 -0.066817,0 -0.044545,0 -0.089955,0.009 -0.1336347,0 -0.069064,-0.0138 -0.1327303,-0.0475 -0.2004523,-0.0668 -0.024299,-0.007 -0.1826749,0 -0.200452,0"
       id="path1472"
       inkscape:connector-curvature="0" />
    <path
       style="fill:none;stroke:#000000;stroke-width:0.32176784;stroke-linecap:butt;stroke-linejoin:miter;stroke-miterlimit:4;stroke-dasharray:none;stroke-opacity:1"
       d="m 11.452107,281.39167 c 0,-0.19707 0,-0.39416 0,-0.59123 0,-0.0299 0,-0.0597 0,-0.0896 0,-0.006 -0.0042,-0.0137 0,-0.0179 0.0042,-0.004 0.01525,0.005 0.01792,0 0.01709,-0.0342 -0.02053,-0.0345 0.01792,-0.0537 0.0053,-0.003 0.01195,0 0.01792,0 0.04181,0 0.08361,0 0.125415,0 0.113471,0 0.226941,0 0.340412,0 0.06569,0 0.131387,0 0.19708,0 0.006,0 0.01195,0 0.01792,0 0.01792,0 0.04108,-0.0127 0.05375,0 0.01267,0.0127 0,0.0358 0,0.0537 0,0.17386 0.01014,0.0708 -0.01792,0.19708 -0.01321,0.0594 -0.0191,0.12061 -0.03583,0.17917 -0.0037,0.0128 -0.01468,0.0229 -0.01792,0.0358 -0.0029,0.0116 0,0.0239 0,0.0358 0,0.0299 0,0.0597 0,0.0896 0,0.012 0.0053,0.0252 0,0.0358 -0.0027,0.005 -0.01603,-0.006 -0.01792,0 -0.0057,0.017 0.0057,0.0367 0,0.0537 -0.0019,0.006 -0.01525,-0.005 -0.01792,0 -0.0021,0.004 0,0.0599 0,0.0717 0,0.006 -0.0042,0.0137 0,0.0179 0.0094,0.009 0.02515,0.01 0.03583,0.0179 0.117164,0.0879 -0.07373,-0.0187 0.107499,0.0537 0.01188,0.005 0.05584,0.0611 0.07167,0.0717 0.009,0.0395 0.03686,0.009 0.05375,0.0179 0.01511,0.008 0.02073,0.0283 0.03583,0.0358 0.0054,0.003 0.01258,-0.003 0.01792,0 0.0076,0.004 0.01414,0.0104 0.01792,0.0179 0.0027,0.005 -0.0054,0.0152 0,0.0179 0.03457,0.0173 0.06699,-0.0245 0.08958,-0.0358 0.0054,-0.003 0.01206,10e-4 0.01792,0 0.02414,-0.005 0.04778,-0.012 0.07167,-0.0179 0.02389,-0.006 0.0488,-0.009 0.07166,-0.0179 0.0078,-0.003 0.01194,-0.012 0.01792,-0.0179 0.01792,-0.006 0.03523,-0.0142 0.05375,-0.0179 0.01171,-0.002 0.02389,0 0.03583,0 0.006,0 0.01258,0.003 0.01792,0 0.01926,-0.01 0.03375,-0.0278 0.05375,-0.0358 0.01109,-0.004 0.02412,0.002 0.03583,0 0.01852,-0.004 0.03543,-0.0134 0.05375,-0.0179 0.0058,-0.002 0.0137,0.004 0.01792,0 0.0042,-0.004 -0.0042,-0.0137 0,-0.0179 0.03343,-0.0334 0.05249,-0.008 0.07167,-0.0179 0.0076,-0.004 0.01036,-0.0142 0.01792,-0.0179 9.11e-4,-4.7e-4 0.05281,-4.7e-4 0.05375,0 0.0076,0.004 0.01264,0.0113 0.01792,0.0179 0.03604,0.045 0.06814,0.0897 0.08958,0.14333 0.007,0.0175 0.0074,0.038 0.01792,0.0537 0.0033,0.005 0.01647,-0.006 0.01792,0 0.0058,0.0232 -0.0047,0.0483 0,0.0717 0.0017,0.008 0.01414,0.0104 0.01792,0.0179 0.0084,0.0169 0.01334,0.0354 0.01792,0.0537 0.0029,0.0116 -0.0038,0.0245 0,0.0358 0.05075,0.1015 -0.0067,-0.0267 0.01792,0.0717 0.0046,0.0183 0.03127,0.0404 0.01792,0.0537 -0.01565,0.0157 -0.07559,0.0289 -0.08958,0.0358 -0.0076,0.004 -0.01015,0.0146 -0.01792,0.0179 -0.223736,0.0959 -0.03655,0.018 -0.143331,0.0358 -0.02429,0.004 -0.04737,0.0139 -0.07167,0.0179 -0.01178,0.002 -0.02398,-0.002 -0.03583,0 -0.03605,0.004 -0.07145,0.0134 -0.107499,0.0179 -0.01185,0.002 -0.0245,-0.004 -0.03583,0 -0.008,0.003 -0.01036,0.0142 -0.01792,0.0179 -0.0054,0.003 -0.01258,-0.003 -0.01792,0 -0.0076,0.004 -0.01036,0.0142 -0.01792,0.0179 -0.0054,0.003 -0.01369,-0.004 -0.01792,0 -0.03707,0.037 0.05665,-0.002 -0.01792,0.0358 -0.01689,0.008 -0.03543,0.0134 -0.05375,0.0179 -0.01085,0.003 -0.034,-0.004 -0.03583,0 -0.0054,0.0107 0,0.0239 0,0.0358 0,0.0119 -0.0024,0.0241 0,0.0358 0.0037,0.0185 0.01334,0.0354 0.01792,0.0537 0.0015,0.006 0,0.012 0,0.0179 0,0.0358 0,0.0717 0,0.1075 0,0.0358 0,0.0717 0,0.1075 0,0.0358 0,0.0717 0,0.10749 0,0.006 0,0.012 0,0.0179 0,0.006 -0.0057,0.016 0,0.0179 0.017,0.006 0.03583,0 0.05375,0 0.127603,0 -0.02374,0.002 0.214997,-0.0179 0.01785,-0.002 0.03583,0 0.05375,0 0.05375,0 0.107499,0 0.161248,0 0.02986,0 0.05972,0 0.08958,0 0.006,0 0.01792,-0.006 0.01792,0 0,0.006 -0.02389,0 -0.01792,0 0.03359,0 0.04793,-0.0107 0.05375,0.0358 0.0045,0.0356 0,0.0717 0,0.1075 0,0.1493 0,0.2986 0,0.44791 0,0.006 0,0.012 0,0.0179 0,0.0239 0,0.0478 0,0.0717 0,0.006 0.0054,0.0152 0,0.0179 -0.01068,0.005 -0.02389,0 -0.03583,0 -0.02389,0 -0.04778,0 -0.07167,0 -0.03583,0 -0.07166,0 -0.107498,0 -0.006,0 -0.01213,0.002 -0.01792,0 -0.01832,-0.005 -0.03686,-0.009 -0.05375,-0.0179 -0.0076,-0.004 -0.0097,-0.0159 -0.01792,-0.0179 -0.01738,-0.004 -0.03601,0.003 -0.05375,0 -0.02437,-0.003 -0.04752,-0.0131 -0.07166,-0.0179 -0.02284,-0.005 -0.04913,0.006 -0.07167,0 -0.01464,-0.004 -0.06677,-0.0293 -0.08958,-0.0179 -0.0054,0.003 0,0.012 0,0.0179 0,0.0418 0,0.0836 0,0.12541 0,0.006 0.0042,0.0137 0,0.0179 -0.0042,0.004 -0.01258,-0.003 -0.01792,0 -0.07456,0.0373 0.01915,-10e-4 -0.01792,0.0358 -0.01522,0.0152 -0.03852,0.0206 -0.05375,0.0358 -0.0042,0.004 0.0042,0.0137 0,0.0179 -0.01522,0.0152 -0.03693,0.0224 -0.05375,0.0358 -0.01319,0.0106 -0.02389,0.0239 -0.03583,0.0358 -0.01194,0.012 -0.02502,0.0229 -0.03583,0.0358 -0.01912,0.023 -0.03463,0.0488 -0.05375,0.0717 -0.02163,0.0259 -0.04778,0.0478 -0.07167,0.0717 -0.01194,0.012 -0.02646,0.0218 -0.03583,0.0358 -0.0033,0.005 0,0.012 0,0.0179 0,0.006 -0.0042,0.0137 0,0.0179 0.0042,0.004 0.01258,-0.003 0.01792,0 0.01926,0.01 0.03652,0.0229 0.05375,0.0358 0.0068,0.005 0.01194,0.012 0.01792,0.0179 0.01792,0.0179 0.03583,0.0358 0.05375,0.0537 0.01792,0.0179 0.0397,0.0327 0.05375,0.0538 0.0033,0.005 -0.0033,0.013 0,0.0179 0.01874,0.0281 0.0514,0.0446 0.07167,0.0717 0.008,0.0107 0.01051,0.0247 0.01792,0.0358 0.0047,0.007 0.01414,0.0104 0.01792,0.0179 0.0084,0.0169 0.0095,0.0368 0.01792,0.0537 0.0076,0.0151 0.02828,0.0207 0.03583,0.0358 0.0027,0.005 -0.0027,0.0126 0,0.0179 0.0038,0.008 0.01414,0.0104 0.01792,0.0179 0.0027,0.005 0,0.012 0,0.0179 0,0.006 0.0033,0.0129 0,0.0179 -0.0094,0.014 -0.0257,0.0223 -0.03583,0.0358 -0.008,0.0107 -0.0099,0.0251 -0.01792,0.0358 -0.01014,0.0135 -0.02389,0.0239 -0.03583,0.0358 -0.01194,0.012 -0.02389,0.0239 -0.03583,0.0358 -0.006,0.006 -0.01089,0.0132 -0.01792,0.0179 -0.009,0.0395 -0.03686,0.009 -0.05375,0.0179 -0.0076,0.004 -0.01036,0.0142 -0.01792,0.0179 -0.0054,0.003 -0.01295,-0.003 -0.01792,0 -0.01194,0.012 -0.02389,0.0239 -0.03583,0.0358 -0.006,0 -0.01258,-0.003 -0.01792,0 -0.0076,0.004 -0.0097,0.0159 -0.01792,0.0179 -0.127076,0 -0.01049,-0.0127 -0.07166,0.0179 -0.01068,0.005 -0.02739,-0.008 -0.03583,0 -0.0042,0.004 0.0042,0.0137 0,0.0179 -0.0042,0.004 -0.01194,0 -0.01792,0 -0.03221,0 -0.03904,0.003 -0.07167,-0.0358 -0.0171,-0.0205 -0.02168,-0.049 -0.03583,-0.0717 -0.01583,-0.0253 -0.03463,-0.0487 -0.05375,-0.0717 -0.003,-0.004 -0.07104,-0.0704 -0.07167,-0.0717 -0.01165,-0.0233 0.01669,-0.0422 -0.01792,-0.0537 -0.01133,-0.004 -0.0259,0.007 -0.03583,0 -0.02811,-0.0187 -0.04571,-0.05 -0.07167,-0.0717 -0.08531,-0.0711 0.02448,0.0709 -0.08958,-0.0717 -0.0071,-0.009 -0.04976,-0.0955 -0.05375,-0.1075 -0.0019,-0.006 0.0057,-0.016 0,-0.0179 -0.017,-0.006 -0.03583,0 -0.05375,0 -0.02986,0 -0.05972,0 -0.08958,0 -0.02389,0 -0.0481,0.004 -0.07166,0 -0.01317,-0.002 -0.02343,-0.013 -0.03583,-0.0179 -0.01754,-0.007 -0.03543,-0.0134 -0.05375,-0.0179 -0.0058,-0.002 -0.01195,0 -0.01792,0 -0.02389,0 -0.04778,0 -0.07167,0 -0.01194,0 -0.02389,0 -0.03583,0 -0.006,0 -0.01369,-0.004 -0.01792,0 -0.0042,0.004 -9.82e-4,0.012 0,0.0179 0.005,0.03 0.01361,0.0594 0.01792,0.0896 0.0017,0.0118 0,0.0239 0,0.0358 0,0.0179 0,0.0358 0,0.0538 0,0.0537 0,0.1075 0,0.16125 0,0.0537 0,0.10749 0,0.16125 0,0.006 0,0.012 0,0.0179 0,0.006 0.0042,0.0137 0,0.0179 -0.0042,0.004 -0.01525,-0.005 -0.01792,0 -0.0053,0.0107 0.0053,0.0251 0,0.0358 -0.0027,0.005 -0.01225,-0.002 -0.01792,0 -0.01267,0.004 -0.02258,0.0163 -0.03583,0.0179 -0.03556,0.004 -0.07167,0 -0.107499,0 -0.08958,0 -0.179164,0 -0.268746,0 -0.05972,0 -0.119443,0 -0.179164,0 -0.01195,0 -0.02389,0 -0.03583,0 -0.01194,0 -0.02515,0.005 -0.03583,0 -0.0053,-0.003 -8.42e-4,-0.012 0,-0.0179 0.0051,-0.036 0.01341,-0.0715 0.01792,-0.10749 0.0015,-0.0119 0,-0.0239 0,-0.0358 0,-0.0717 0,-0.14333 0,-0.21499 0,-0.012 -0.0033,-0.0243 0,-0.0358 0.0088,-0.0309 0.02566,-0.0591 0.03583,-0.0896 0.0019,-0.006 0,-0.012 0,-0.0179 0,-0.0179 -0.0043,-0.0364 0,-0.0538 0.0021,-0.008 0.01414,-0.0104 0.01792,-0.0179 0.0027,-0.005 0,-0.012 0,-0.0179 0,-0.006 0.0027,-0.0125 0,-0.0179 -0.0088,-0.0177 -0.0719,-0.0478 -0.08958,-0.0538 -0.06402,-0.0213 0.07381,0.0694 -0.07167,-0.0179 -0.01448,-0.009 -0.02178,-0.0265 -0.03583,-0.0358 -0.005,-0.003 -0.01295,0.003 -0.01792,0 -0.01406,-0.009 -0.02264,-0.0252 -0.03583,-0.0358 -0.01681,-0.0135 -0.03529,-0.0248 -0.05375,-0.0358 -0.01145,-0.007 -0.02639,-0.008 -0.03583,-0.0179 -0.0094,-0.009 -0.0085,-0.0264 -0.01792,-0.0358 -0.0042,-0.004 -0.01369,0.004 -0.01792,0 -0.0042,-0.004 0.0019,-0.0122 0,-0.0179 -0.04326,-0.12977 0.0052,0.0283 -0.03583,-0.0537 -0.0056,-0.0113 0.0056,-0.0604 0,-0.0717 -0.0027,-0.005 -0.01194,0 -0.01792,0 -0.02986,0 -0.05972,0 -0.08958,0 -0.03583,0 -0.07167,0 -0.107498,0 -0.01792,0 -0.03675,-0.006 -0.05375,0 -0.008,0.003 -0.01036,0.0141 -0.01792,0.0179 -0.0053,0.003 -0.01212,-0.002 -0.01792,0 -0.01832,0.005 -0.03543,0.0134 -0.05375,0.0179 -0.01219,0.003 -0.04395,-0.005 -0.05375,0 -0.0076,0.004 -0.0099,0.0152 -0.01792,0.0179 -0.0082,0.003 -0.07958,0 -0.08958,0 -0.006,0 -0.01194,0 -0.01792,0 -0.006,0 -0.01792,0.006 -0.01792,0 0,-0.006 0.02214,0.004 0.01792,0 -0.0094,-0.009 -0.02782,-0.007 -0.03583,-0.0179 -0.04254,-0.0567 -0.01073,-0.0357 -0.01792,-0.0717 -0.05817,-0.23266 0.0082,0.0575 -0.01792,-0.12541 -0.0035,-0.0244 -0.01387,-0.0474 -0.01792,-0.0717 -0.002,-0.0118 0,-0.0239 0,-0.0358 0,-0.0478 0,-0.0956 0,-0.14333 0,-0.0418 0,-0.0836 0,-0.12542 0,-0.012 -0.0099,-0.0292 0,-0.0358 0.0064,-0.004 0.07536,0.003 0.08958,0 0.01852,-0.004 0.03512,-0.0148 0.05375,-0.0179 0.02058,-0.003 0.128717,0 0.1433307,0 0.06569,0 0.131387,0 0.197081,0 0.02389,0 0.04778,0 0.07167,0 0.006,0 0.01194,0 0.01792,0 0.006,0 0.01369,0.004 0.01792,0 0.0042,-0.004 0,-0.012 0,-0.0179 0,-0.0239 0,-0.0478 0,-0.0717 0,-0.0154 -0.0035,-0.097 0,-0.1075 0.0027,-0.008 0.01587,-0.01 0.01792,-0.0179 0.01988,-0.0795 -0.02283,-0.0285 0.01792,-0.0896 0.0047,-0.007 0.01323,-0.0109 0.01792,-0.0179 0.03947,-0.009 0.0095,-0.0368 0.01792,-0.0537 0.0038,-0.008 0.01323,-0.0109 0.01792,-0.0179 0.0074,-0.0111 0.01051,-0.0247 0.01792,-0.0358 0.0079,-0.0118 0.05052,-0.0441 0.05375,-0.0537 0.0038,-0.0113 -0.0038,-0.0245 0,-0.0358 0.0027,-0.008 0.04568,-0.0457 0.05375,-0.0538 0.006,-0.006 0.01194,-0.012 0.01792,-0.0179 0.006,-0.006 0.01036,-0.0142 0.01792,-0.0179 0.0053,-0.003 0.01792,0.006 0.01792,0 0,-0.008 -0.01089,-0.0133 -0.01792,-0.0179 -0.02898,-0.0193 -0.05935,-0.0365 -0.08958,-0.0538 -0.01159,-0.007 -0.0254,-0.01 -0.03583,-0.0179 -0.01979,-0.0158 -0.03583,-0.0358 -0.05375,-0.0538 -0.006,-0.006 -0.01036,-0.0142 -0.01792,-0.0179 -0.0053,-0.003 -0.01369,0.004 -0.01792,0 -0.02111,-0.0211 -0.03719,-0.0468 -0.05375,-0.0717 -0.0074,-0.0111 -0.0085,-0.0264 -0.01792,-0.0358 -0.02111,-0.0211 -0.04835,-0.0351 -0.07167,-0.0538 -0.01319,-0.0106 -0.02389,-0.0239 -0.03583,-0.0358 -0.006,-0.006 -0.01525,-0.01 -0.01792,-0.0179 -0.0038,-0.0113 0.0053,-0.0251 0,-0.0358 -0.0027,-0.005 -0.01369,0.004 -0.01792,0 -0.0094,-0.009 -0.01051,-0.0247 -0.01792,-0.0358 -0.0047,-0.007 -0.01414,-0.0103 -0.01792,-0.0179 -0.0027,-0.005 0.0042,-0.0137 0,-0.0179 -0.01536,-0.0153 -0.04692,0.0367 -0.01792,-0.0358 0.04402,-0.11006 0.01609,-0.0161 0.07166,-0.0717 0.0094,-0.009 0.0099,-0.0251 0.01792,-0.0358 0.0073,-0.01 0.07972,-0.083 0.08958,-0.0896 0.005,-0.003 0.01369,0.004 0.01792,0 0.09156,-0.0916 -0.07512,0.025 0.05375,-0.0717 0.01068,-0.008 0.02639,-0.008 0.03583,-0.0179 0.0042,-0.004 -0.0042,-0.0137 0,-0.0179 0.01523,-0.0152 0.03852,-0.0206 0.05375,-0.0358 0.0042,-0.004 -0.0027,-0.0126 0,-0.0179 0.0038,-0.008 0.01414,-0.0104 0.01792,-0.0179 0.0027,-0.005 -0.0027,-0.0125 0,-0.0179 0.0038,-0.008 0.01414,-0.0104 0.01792,-0.0179 0.0027,-0.005 -0.0042,-0.0137 0,-0.0179 0.0042,-0.004 0.01258,0.003 0.01792,0 0.02468,-0.0123 0.03517,-0.0538 0.07167,-0.0538 0.0085,0 0.01116,0.0129 0.01792,0.0179 0.01723,0.0129 0.03583,0.0239 0.05375,0.0358 0.01792,0.0179 0.03396,0.0379 0.05375,0.0537 0.0053,0.004 0.0693,0.033 0.07167,0.0358 0.01792,0.0299 0.03583,0.0597 0.05375,0.0896 0.01194,0.006 0.02639,0.008 0.03583,0.0179 0.01523,0.0152 0.02238,0.0369 0.03583,0.0537 0.01055,0.0132 0.02646,0.0218 0.03583,0.0358 0.0033,0.005 0,0.012 0,0.0179 0.006,0.012 0.0085,0.0264 0.01792,0.0358 0.0042,0.004 0.01525,0.005 0.01792,0 0.01068,-0.0213 -0.0076,-0.049 0,-0.0717 0.0027,-0.008 0.01478,-0.0101 0.01792,-0.0179 0.02622,-0.0656 0.0042,-0.06 0.03583,-0.1075 0.0047,-0.007 0.01285,-0.0111 0.01792,-0.0179 0.0084,-0.0112 0.0332,-0.058 0.05375,-0.0717 0.01111,-0.007 0.02639,-0.008 0.03583,-0.0179 0.01523,-0.0152 0.02061,-0.0385 0.03583,-0.0538 0.03707,-0.037 -0.0015,0.0567 0.03583,-0.0179 0.0027,-0.005 -0.0042,-0.0137 0,-0.0179 0.06992,-0.0699 0.0096,0.004 0.05375,-0.0179 0.01511,-0.008 0.01981,-0.0305 0.03583,-0.0358 0.01133,-0.004 0.02515,0.005 0.03583,0 0.0053,-0.003 -0.0042,-0.0137 0,-0.0179 0.0042,-0.004 0.01212,0.002 0.01792,0 0.149127,-0.0373 -0.02163,0.001 0.08958,-0.0358 0.01038,-0.003 0.05614,0 0.07167,0"
       id="path1470-9"
       inkscape:connector-curvature="0" />
    <path
       style="fill:none;stroke:#000000;stroke-width:0.32176784;stroke-linecap:butt;stroke-linejoin:miter;stroke-miterlimit:4;stroke-dasharray:none;stroke-opacity:1"
       d="m 11.613355,282.32333 c -0.02986,-0.0179 -0.05972,-0.0358 -0.08958,-0.0538 0,-0.006 0.0057,-0.016 0,-0.0179 -0.0071,-0.002 -0.09186,0 -0.107498,0 -0.01601,0 -0.08387,-0.003 -0.08958,0 -0.0076,0.004 -0.01194,0.012 -0.01792,0.0179 -0.01195,0.012 -0.02646,0.0218 -0.03583,0.0358 -0.0033,0.005 0.0033,0.0129 0,0.0179 -0.01405,0.0211 -0.03969,0.0327 -0.05375,0.0538 -0.0074,0.0111 -0.01195,0.0239 -0.01792,0.0358 -0.006,0.012 -0.01468,0.0229 -0.01792,0.0358 -0.0029,0.0116 0.0038,0.0245 0,0.0358 -0.0084,0.0254 -0.02209,0.0487 -0.03583,0.0717 -0.0043,0.007 -0.01587,0.01 -0.01792,0.0179 -0.0043,0.0174 0.0035,0.0362 0,0.0537 -0.0026,0.0131 -0.01572,0.0227 -0.01792,0.0358 -0.0049,0.0294 0,0.0597 0,0.0896 0,0.0299 0,0.0597 0,0.0896 0,0.012 -0.0029,0.0242 0,0.0358 0.0102,0.0408 0.02779,0.0392 0.05375,0.0717 0.01195,0.0179 0.02389,0.0358 0.03583,0.0538 0.006,0 0.01295,-0.003 0.01792,0 0.01405,0.009 0.02178,0.0264 0.03583,0.0358 0.005,0.003 0.01257,-0.003 0.01792,0 0.0076,0.004 0.0097,0.0159 0.01792,0.0179 0.0107,0.003 0.113366,0 0.125415,0 0.05972,0 0.119442,0 0.179164,0 0.006,0 0.01202,0.001 0.01792,0 0.03004,-0.005 0.05954,-0.0129 0.08958,-0.0179 0.0059,-10e-4 0.01225,0.002 0.01792,0 0.03051,-0.0102 0.05972,-0.0239 0.08958,-0.0358 0.02986,-0.012 0.06082,-0.0215 0.08958,-0.0358 0.0076,-0.004 0.01089,-0.0132 0.01792,-0.0179 0.01111,-0.007 0.02472,-0.0105 0.03583,-0.0179 0.007,-0.005 0.01285,-0.0112 0.01792,-0.0179 0.04719,-0.0629 0.03583,-0.0528 0.03583,-0.12542 0,-0.0239 0,-0.0478 0,-0.0717 0,-0.012 0.0023,-0.0241 0,-0.0358 -0.0037,-0.0185 -0.01334,-0.0354 -0.01792,-0.0538 -0.0015,-0.006 0.0027,-0.0125 0,-0.0179 -0.0096,-0.0192 -0.0262,-0.0345 -0.03583,-0.0537 -0.0084,-0.0169 -0.0095,-0.0368 -0.01792,-0.0537 -0.0038,-0.008 -0.01132,-0.0127 -0.01792,-0.0179 -0.02332,-0.0187 -0.05055,-0.0326 -0.07167,-0.0537 -0.0094,-0.009 -0.0085,-0.0264 -0.01792,-0.0358 -0.0094,-0.009 -0.02515,-0.01 -0.03583,-0.0179 -0.01351,-0.0101 -0.02073,-0.0283 -0.03583,-0.0358 -0.01068,-0.005 -0.02515,0.005 -0.03583,0 -0.0053,-0.003 0.0053,-0.0152 0,-0.0179 -0.01068,-0.005 -0.02389,0 -0.03583,0 -0.02389,0 -0.04824,0.005 -0.07167,0 -0.03704,-0.007 -0.07118,-0.0255 -0.107499,-0.0358 -0.01303,-0.004 -0.09797,0 -0.107498,0"
       id="path1472-1"
       inkscape:connector-curvature="0" />
    <path
       style="fill:none;stroke:#000000;stroke-width:0.32176784;stroke-linecap:butt;stroke-linejoin:miter;stroke-miterlimit:4;stroke-dasharray:none;stroke-opacity:1"
       d="m 13.141249,287.48926 c 0,-0.19707 0,-0.39416 0,-0.59123 0,-0.0299 0,-0.0597 0,-0.0896 0,-0.006 -0.0042,-0.0137 0,-0.0179 0.0042,-0.004 0.01525,0.005 0.01792,0 0.01709,-0.0342 -0.02053,-0.0345 0.01792,-0.0537 0.0053,-0.003 0.01195,0 0.01792,0 0.04181,0 0.08361,0 0.125415,0 0.113471,0 0.226941,0 0.340412,0 0.06569,0 0.131387,0 0.19708,0 0.006,0 0.01195,0 0.01792,0 0.01792,0 0.04108,-0.0127 0.05375,0 0.01267,0.0127 0,0.0358 0,0.0537 0,0.17386 0.01014,0.0708 -0.01792,0.19708 -0.01321,0.0594 -0.0191,0.12061 -0.03583,0.17917 -0.0037,0.0128 -0.01468,0.0229 -0.01792,0.0358 -0.0029,0.0116 0,0.0239 0,0.0358 0,0.0299 0,0.0597 0,0.0896 0,0.012 0.0053,0.0252 0,0.0358 -0.0027,0.005 -0.01603,-0.006 -0.01792,0 -0.0057,0.017 0.0057,0.0367 0,0.0537 -0.0019,0.006 -0.01525,-0.005 -0.01792,0 -0.0021,0.004 0,0.0599 0,0.0717 0,0.006 -0.0042,0.0137 0,0.0179 0.0094,0.009 0.02515,0.01 0.03583,0.0179 0.117164,0.0879 -0.07373,-0.0187 0.107498,0.0537 0.01188,0.005 0.05584,0.0611 0.07167,0.0717 0.009,0.0395 0.03686,0.009 0.05375,0.0179 0.01511,0.008 0.02073,0.0283 0.03583,0.0358 0.0054,0.003 0.01258,-0.003 0.01792,0 0.0076,0.004 0.01414,0.0104 0.01792,0.0179 0.0027,0.005 -0.0054,0.0152 0,0.0179 0.03457,0.0173 0.06699,-0.0245 0.08958,-0.0358 0.0054,-0.003 0.01206,0.001 0.01792,0 0.02414,-0.005 0.04778,-0.012 0.07167,-0.0179 0.02389,-0.006 0.0488,-0.009 0.07166,-0.0179 0.0078,-0.003 0.01194,-0.012 0.01792,-0.0179 0.01792,-0.006 0.03523,-0.0142 0.05375,-0.0179 0.01171,-0.002 0.02389,0 0.03583,0 0.006,0 0.01258,0.003 0.01792,0 0.01926,-0.01 0.03375,-0.0278 0.05375,-0.0358 0.01109,-0.004 0.02412,0.002 0.03583,0 0.01852,-0.004 0.03543,-0.0134 0.05375,-0.0179 0.0058,-0.002 0.0137,0.004 0.01792,0 0.0042,-0.004 -0.0042,-0.0137 0,-0.0179 0.03343,-0.0334 0.05249,-0.008 0.07167,-0.0179 0.0076,-0.004 0.01036,-0.0142 0.01792,-0.0179 9e-4,-4.7e-4 0.05281,-4.7e-4 0.05375,0 0.0076,0.004 0.01264,0.0113 0.01792,0.0179 0.03604,0.045 0.06814,0.0897 0.08958,0.14333 0.007,0.0175 0.0074,0.038 0.01792,0.0537 0.0033,0.005 0.01647,-0.006 0.01792,0 0.0058,0.0232 -0.0047,0.0483 0,0.0717 0.0017,0.008 0.01414,0.0104 0.01792,0.0179 0.0084,0.0169 0.01334,0.0354 0.01792,0.0537 0.0029,0.0116 -0.0038,0.0245 0,0.0358 0.05075,0.1015 -0.0067,-0.0267 0.01792,0.0717 0.0046,0.0183 0.03127,0.0404 0.01792,0.0537 -0.01565,0.0157 -0.07559,0.0289 -0.08958,0.0358 -0.0076,0.004 -0.01015,0.0146 -0.01792,0.0179 -0.223735,0.0959 -0.03655,0.018 -0.143331,0.0358 -0.02429,0.004 -0.04737,0.0139 -0.07167,0.0179 -0.01178,0.002 -0.02398,-0.002 -0.03583,0 -0.03605,0.004 -0.07145,0.0134 -0.107498,0.0179 -0.01185,0.002 -0.0245,-0.004 -0.03583,0 -0.008,0.003 -0.01036,0.0142 -0.01792,0.0179 -0.0054,0.003 -0.01258,-0.003 -0.01792,0 -0.0076,0.004 -0.01036,0.0142 -0.01792,0.0179 -0.0054,0.003 -0.01369,-0.004 -0.01792,0 -0.03707,0.037 0.05665,-0.002 -0.01792,0.0358 -0.01689,0.008 -0.03543,0.0134 -0.05375,0.0179 -0.01085,0.003 -0.034,-0.004 -0.03583,0 -0.0054,0.0107 0,0.0239 0,0.0358 0,0.0119 -0.0024,0.0241 0,0.0358 0.0037,0.0185 0.01334,0.0354 0.01792,0.0537 0.0015,0.006 0,0.012 0,0.0179 0,0.0358 0,0.0717 0,0.1075 0,0.0358 0,0.0717 0,0.1075 0,0.0358 0,0.0717 0,0.10749 0,0.006 0,0.012 0,0.0179 0,0.006 -0.0057,0.016 0,0.0179 0.017,0.006 0.03583,0 0.05375,0 0.127603,0 -0.02374,0.002 0.214996,-0.0179 0.01785,-0.002 0.03583,0 0.05375,0 0.05375,0 0.107499,0 0.161248,0 0.02986,0 0.05972,0 0.08958,0 0.006,0 0.01792,-0.006 0.01792,0 0,0.006 -0.02389,0 -0.01792,0 0.03359,0 0.04793,-0.0107 0.05375,0.0358 0.0045,0.0356 0,0.0717 0,0.1075 0,0.1493 0,0.2986 0,0.44791 0,0.006 0,0.012 0,0.0179 0,0.0239 0,0.0478 0,0.0717 0,0.006 0.0054,0.0152 0,0.0179 -0.01068,0.005 -0.02389,0 -0.03583,0 -0.02389,0 -0.04778,0 -0.07167,0 -0.03583,0 -0.07166,0 -0.107498,0 -0.006,0 -0.01213,0.002 -0.01792,0 -0.01832,-0.005 -0.03686,-0.009 -0.05375,-0.0179 -0.0076,-0.004 -0.0097,-0.0159 -0.01792,-0.0179 -0.01738,-0.004 -0.03601,0.003 -0.05375,0 -0.02437,-0.003 -0.04752,-0.0131 -0.07166,-0.0179 -0.02284,-0.005 -0.04913,0.006 -0.07167,0 -0.01464,-0.004 -0.06677,-0.0293 -0.08958,-0.0179 -0.0054,0.003 0,0.012 0,0.0179 0,0.0418 0,0.0836 0,0.12541 0,0.006 0.0042,0.0137 0,0.0179 -0.0042,0.004 -0.01258,-0.003 -0.01792,0 -0.07456,0.0373 0.01915,-0.001 -0.01792,0.0358 -0.01522,0.0152 -0.03852,0.0206 -0.05375,0.0358 -0.0042,0.004 0.0042,0.0137 0,0.0179 -0.01522,0.0152 -0.03693,0.0224 -0.05375,0.0358 -0.01319,0.0106 -0.02389,0.0239 -0.03583,0.0358 -0.01194,0.012 -0.02502,0.0229 -0.03583,0.0358 -0.01912,0.023 -0.03463,0.0488 -0.05375,0.0717 -0.02163,0.0259 -0.04778,0.0478 -0.07167,0.0717 -0.01194,0.012 -0.02646,0.0218 -0.03583,0.0358 -0.0033,0.005 0,0.012 0,0.0179 0,0.006 -0.0042,0.0137 0,0.0179 0.0042,0.004 0.01258,-0.003 0.01792,0 0.01926,0.01 0.03652,0.0229 0.05375,0.0358 0.0068,0.005 0.01194,0.012 0.01792,0.0179 0.01792,0.0179 0.03583,0.0358 0.05375,0.0537 0.01792,0.0179 0.0397,0.0327 0.05375,0.0538 0.0033,0.005 -0.0033,0.013 0,0.0179 0.01874,0.0281 0.0514,0.0446 0.07167,0.0717 0.008,0.0107 0.01051,0.0247 0.01792,0.0358 0.0047,0.007 0.01414,0.0104 0.01792,0.0179 0.0084,0.0169 0.0095,0.0368 0.01792,0.0537 0.0076,0.0151 0.02828,0.0207 0.03583,0.0358 0.0027,0.005 -0.0027,0.0126 0,0.0179 0.0038,0.008 0.01414,0.0104 0.01792,0.0179 0.0027,0.005 0,0.012 0,0.0179 0,0.006 0.0033,0.0129 0,0.0179 -0.0094,0.014 -0.0257,0.0223 -0.03583,0.0358 -0.008,0.0107 -0.0099,0.0251 -0.01792,0.0358 -0.01014,0.0135 -0.02389,0.0239 -0.03583,0.0358 -0.01194,0.012 -0.02389,0.0239 -0.03583,0.0358 -0.006,0.006 -0.01089,0.0132 -0.01792,0.0179 -0.009,0.0395 -0.03686,0.009 -0.05375,0.0179 -0.0076,0.004 -0.01036,0.0142 -0.01792,0.0179 -0.0054,0.003 -0.01295,-0.003 -0.01792,0 -0.01194,0.012 -0.02389,0.0239 -0.03583,0.0358 -0.006,0 -0.01258,-0.003 -0.01792,0 -0.0076,0.004 -0.0097,0.0159 -0.01792,0.0179 -0.127076,0 -0.01049,-0.0127 -0.07166,0.0179 -0.01068,0.005 -0.02739,-0.008 -0.03583,0 -0.0042,0.004 0.0042,0.0137 0,0.0179 -0.0042,0.004 -0.01194,0 -0.01792,0 -0.03221,0 -0.03904,0.003 -0.07167,-0.0358 -0.0171,-0.0205 -0.02168,-0.049 -0.03583,-0.0717 -0.01583,-0.0253 -0.03463,-0.0487 -0.05375,-0.0717 -0.003,-0.004 -0.07104,-0.0704 -0.07167,-0.0717 -0.01165,-0.0233 0.01669,-0.0422 -0.01792,-0.0537 -0.01133,-0.004 -0.0259,0.007 -0.03583,0 -0.02811,-0.0187 -0.04571,-0.05 -0.07167,-0.0717 -0.08531,-0.0711 0.02448,0.0709 -0.08958,-0.0717 -0.0071,-0.009 -0.04976,-0.0955 -0.05375,-0.1075 -0.0019,-0.006 0.0057,-0.016 0,-0.0179 -0.017,-0.006 -0.03583,0 -0.05375,0 -0.02986,0 -0.05972,0 -0.08958,0 -0.02389,0 -0.0481,0.004 -0.07166,0 -0.01317,-0.002 -0.02343,-0.013 -0.03583,-0.0179 -0.01754,-0.007 -0.03543,-0.0134 -0.05375,-0.0179 -0.0058,-0.002 -0.01195,0 -0.01792,0 -0.02389,0 -0.04778,0 -0.07167,0 -0.01194,0 -0.02389,0 -0.03583,0 -0.006,0 -0.01369,-0.004 -0.01792,0 -0.0042,0.004 -9.81e-4,0.012 0,0.0179 0.005,0.03 0.01361,0.0594 0.01792,0.0896 0.0017,0.0118 0,0.0239 0,0.0358 0,0.0179 0,0.0358 0,0.0538 0,0.0537 0,0.1075 0,0.16125 0,0.0537 0,0.10749 0,0.16125 0,0.006 0,0.012 0,0.0179 0,0.006 0.0042,0.0137 0,0.0179 -0.0042,0.004 -0.01525,-0.005 -0.01792,0 -0.0053,0.0107 0.0053,0.0251 0,0.0358 -0.0027,0.005 -0.01225,-0.002 -0.01792,0 -0.01267,0.004 -0.02258,0.0163 -0.03583,0.0179 -0.03556,0.004 -0.07167,0 -0.107499,0 -0.08958,0 -0.179164,0 -0.268746,0 -0.05972,0 -0.119443,0 -0.179164,0 -0.01195,0 -0.02389,0 -0.03583,0 -0.01194,0 -0.02515,0.005 -0.03583,0 -0.0053,-0.003 -8.41e-4,-0.012 0,-0.0179 0.0051,-0.036 0.01341,-0.0715 0.01792,-0.10749 0.0015,-0.0119 0,-0.0239 0,-0.0358 0,-0.0717 0,-0.14333 0,-0.21499 0,-0.012 -0.0033,-0.0243 0,-0.0358 0.0088,-0.0309 0.02566,-0.0591 0.03583,-0.0896 0.0019,-0.006 0,-0.012 0,-0.0179 0,-0.0179 -0.0043,-0.0364 0,-0.0538 0.0021,-0.008 0.01414,-0.0104 0.01792,-0.0179 0.0027,-0.005 0,-0.012 0,-0.0179 0,-0.006 0.0027,-0.0125 0,-0.0179 -0.0088,-0.0177 -0.0719,-0.0478 -0.08958,-0.0538 -0.06402,-0.0213 0.07381,0.0694 -0.07167,-0.0179 -0.01448,-0.009 -0.02178,-0.0265 -0.03583,-0.0358 -0.005,-0.003 -0.01295,0.003 -0.01792,0 -0.01406,-0.009 -0.02264,-0.0252 -0.03583,-0.0358 -0.01681,-0.0135 -0.03529,-0.0248 -0.05375,-0.0358 -0.01145,-0.007 -0.02639,-0.008 -0.03583,-0.0179 -0.0094,-0.009 -0.0085,-0.0264 -0.01792,-0.0358 -0.0042,-0.004 -0.01369,0.004 -0.01792,0 -0.0042,-0.004 0.0019,-0.0122 0,-0.0179 -0.04326,-0.12977 0.0052,0.0283 -0.03583,-0.0537 -0.0056,-0.0113 0.0056,-0.0604 0,-0.0717 -0.0027,-0.005 -0.01194,0 -0.01792,0 -0.02986,0 -0.05972,0 -0.08958,0 -0.03583,0 -0.07167,0 -0.107498,0 -0.01792,0 -0.03675,-0.006 -0.05375,0 -0.008,0.003 -0.01036,0.0141 -0.01792,0.0179 -0.0053,0.003 -0.01212,-0.002 -0.01792,0 -0.01832,0.005 -0.03543,0.0134 -0.05375,0.0179 -0.01219,0.003 -0.04395,-0.005 -0.05375,0 -0.0076,0.004 -0.0099,0.0152 -0.01792,0.0179 -0.0082,0.003 -0.07958,0 -0.08958,0 -0.006,0 -0.01194,0 -0.01792,0 -0.006,0 -0.01792,0.006 -0.01792,0 0,-0.006 0.02214,0.004 0.01792,0 -0.0094,-0.009 -0.02782,-0.007 -0.03583,-0.0179 -0.04254,-0.0567 -0.01073,-0.0357 -0.01792,-0.0717 -0.05817,-0.23266 0.0082,0.0575 -0.01792,-0.12541 -0.0035,-0.0244 -0.01387,-0.0474 -0.01792,-0.0717 -0.002,-0.0118 0,-0.0239 0,-0.0358 0,-0.0478 0,-0.0956 0,-0.14333 0,-0.0418 0,-0.0836 0,-0.12542 0,-0.012 -0.0099,-0.0292 0,-0.0358 0.0064,-0.004 0.07536,0.003 0.08958,0 0.01852,-0.004 0.03512,-0.0148 0.05375,-0.0179 0.02058,-0.003 0.128717,0 0.143331,0 0.06569,0 0.131387,0 0.197081,0 0.02389,0 0.04778,0 0.07167,0 0.006,0 0.01194,0 0.01792,0 0.006,0 0.01369,0.004 0.01792,0 0.0042,-0.004 0,-0.012 0,-0.0179 0,-0.0239 0,-0.0478 0,-0.0717 0,-0.0154 -0.0035,-0.097 0,-0.1075 0.0027,-0.008 0.01587,-0.01 0.01792,-0.0179 0.01988,-0.0795 -0.02283,-0.0285 0.01792,-0.0896 0.0047,-0.007 0.01323,-0.0109 0.01792,-0.0179 0.03947,-0.009 0.0095,-0.0368 0.01792,-0.0537 0.0038,-0.008 0.01323,-0.0109 0.01792,-0.0179 0.0074,-0.0111 0.01051,-0.0247 0.01792,-0.0358 0.0079,-0.0118 0.05052,-0.0441 0.05375,-0.0537 0.0038,-0.0113 -0.0038,-0.0245 0,-0.0358 0.0027,-0.008 0.04568,-0.0457 0.05375,-0.0538 0.006,-0.006 0.01194,-0.012 0.01792,-0.0179 0.006,-0.006 0.01036,-0.0142 0.01792,-0.0179 0.0053,-0.003 0.01792,0.006 0.01792,0 0,-0.008 -0.01089,-0.0133 -0.01792,-0.0179 -0.02898,-0.0193 -0.05935,-0.0365 -0.08958,-0.0538 -0.01159,-0.007 -0.0254,-0.01 -0.03583,-0.0179 -0.01979,-0.0158 -0.03583,-0.0358 -0.05375,-0.0538 -0.006,-0.006 -0.01036,-0.0142 -0.01792,-0.0179 -0.0053,-0.003 -0.01369,0.004 -0.01792,0 -0.02111,-0.0211 -0.03719,-0.0468 -0.05375,-0.0717 -0.0074,-0.0111 -0.0085,-0.0264 -0.01792,-0.0358 -0.02111,-0.0211 -0.04835,-0.0351 -0.07167,-0.0538 -0.01319,-0.0106 -0.02389,-0.0239 -0.03583,-0.0358 -0.006,-0.006 -0.01525,-0.01 -0.01792,-0.0179 -0.0038,-0.0113 0.0053,-0.0251 0,-0.0358 -0.0027,-0.005 -0.01369,0.004 -0.01792,0 -0.0094,-0.009 -0.01051,-0.0247 -0.01792,-0.0358 -0.0047,-0.007 -0.01414,-0.0103 -0.01792,-0.0179 -0.0027,-0.005 0.0042,-0.0137 0,-0.0179 -0.01536,-0.0153 -0.04692,0.0367 -0.01792,-0.0358 0.04402,-0.11006 0.01609,-0.0161 0.07166,-0.0717 0.0094,-0.009 0.0099,-0.0251 0.01792,-0.0358 0.0073,-0.01 0.07972,-0.083 0.08958,-0.0896 0.005,-0.003 0.01369,0.004 0.01792,0 0.09156,-0.0916 -0.07512,0.025 0.05375,-0.0717 0.01068,-0.008 0.02639,-0.008 0.03583,-0.0179 0.0042,-0.004 -0.0042,-0.0137 0,-0.0179 0.01523,-0.0152 0.03852,-0.0206 0.05375,-0.0358 0.0042,-0.004 -0.0027,-0.0126 0,-0.0179 0.0038,-0.008 0.01414,-0.0104 0.01792,-0.0179 0.0027,-0.005 -0.0027,-0.0125 0,-0.0179 0.0038,-0.008 0.01414,-0.0104 0.01792,-0.0179 0.0027,-0.005 -0.0042,-0.0137 0,-0.0179 0.0042,-0.004 0.01258,0.003 0.01792,0 0.02468,-0.0123 0.03517,-0.0538 0.07167,-0.0538 0.0085,0 0.01116,0.0129 0.01792,0.0179 0.01723,0.0129 0.03583,0.0239 0.05375,0.0358 0.01792,0.0179 0.03396,0.0379 0.05375,0.0537 0.0053,0.004 0.0693,0.033 0.07167,0.0358 0.01792,0.0299 0.03583,0.0597 0.05375,0.0896 0.01194,0.006 0.02639,0.008 0.03583,0.0179 0.01523,0.0152 0.02238,0.0369 0.03583,0.0537 0.01055,0.0132 0.02646,0.0218 0.03583,0.0358 0.0033,0.005 0,0.012 0,0.0179 0.006,0.012 0.0085,0.0264 0.01792,0.0358 0.0042,0.004 0.01525,0.005 0.01792,0 0.01068,-0.0213 -0.0076,-0.049 0,-0.0717 0.0027,-0.008 0.01478,-0.0101 0.01792,-0.0179 0.02622,-0.0656 0.0042,-0.06 0.03583,-0.1075 0.0047,-0.007 0.01285,-0.0111 0.01792,-0.0179 0.0084,-0.0112 0.0332,-0.058 0.05375,-0.0717 0.01111,-0.007 0.02639,-0.008 0.03583,-0.0179 0.01523,-0.0152 0.02061,-0.0385 0.03583,-0.0538 0.03707,-0.037 -0.0015,0.0567 0.03583,-0.0179 0.0027,-0.005 -0.0042,-0.0137 0,-0.0179 0.06992,-0.0699 0.0096,0.004 0.05375,-0.0179 0.01511,-0.008 0.01981,-0.0305 0.03583,-0.0358 0.01133,-0.004 0.02515,0.005 0.03583,0 0.0053,-0.003 -0.0042,-0.0137 0,-0.0179 0.0042,-0.004 0.01212,0.002 0.01792,0 0.149127,-0.0373 -0.02163,10e-4 0.08958,-0.0358 0.01038,-0.003 0.05614,0 0.07167,0"
       id="path1470-9-2"
       inkscape:connector-curvature="0" />
    <path
       style="fill:none;stroke:#000000;stroke-width:0.32176784;stroke-linecap:butt;stroke-linejoin:miter;stroke-miterlimit:4;stroke-dasharray:none;stroke-opacity:1"
       d="m 13.302497,288.42092 c -0.02986,-0.0179 -0.05972,-0.0358 -0.08958,-0.0538 0,-0.006 0.0057,-0.016 0,-0.0179 -0.0071,-0.002 -0.09186,0 -0.107498,0 -0.01601,0 -0.08387,-0.003 -0.08958,0 -0.0076,0.004 -0.01194,0.012 -0.01792,0.0179 -0.01195,0.012 -0.02646,0.0218 -0.03583,0.0358 -0.0033,0.005 0.0033,0.0129 0,0.0179 -0.01405,0.0211 -0.03969,0.0327 -0.05375,0.0538 -0.0074,0.0111 -0.01195,0.0239 -0.01792,0.0358 -0.006,0.012 -0.01468,0.0229 -0.01792,0.0358 -0.0029,0.0116 0.0038,0.0245 0,0.0358 -0.0084,0.0254 -0.02209,0.0487 -0.03583,0.0717 -0.0043,0.007 -0.01587,0.01 -0.01792,0.0179 -0.0043,0.0174 0.0035,0.0362 0,0.0537 -0.0026,0.0131 -0.01572,0.0227 -0.01792,0.0358 -0.0049,0.0294 0,0.0597 0,0.0896 0,0.0299 0,0.0597 0,0.0896 0,0.012 -0.0029,0.0242 0,0.0358 0.0102,0.0408 0.02779,0.0392 0.05375,0.0717 0.01195,0.0179 0.02389,0.0358 0.03583,0.0538 0.006,0 0.01295,-0.003 0.01792,0 0.01405,0.009 0.02178,0.0264 0.03583,0.0358 0.005,0.003 0.01257,-0.003 0.01792,0 0.0076,0.004 0.0097,0.0159 0.01792,0.0179 0.0107,0.003 0.113366,0 0.125414,0 0.05972,0 0.119442,0 0.179165,0 0.006,0 0.01202,10e-4 0.01792,0 0.03004,-0.005 0.05954,-0.0129 0.08958,-0.0179 0.0059,-0.001 0.01225,0.002 0.01792,0 0.03051,-0.0102 0.05972,-0.0239 0.08958,-0.0358 0.02986,-0.012 0.06082,-0.0215 0.08958,-0.0358 0.0076,-0.004 0.01089,-0.0132 0.01792,-0.0179 0.01111,-0.007 0.02472,-0.0105 0.03583,-0.0179 0.007,-0.005 0.01285,-0.0112 0.01792,-0.0179 0.04719,-0.0629 0.03583,-0.0528 0.03583,-0.12542 0,-0.0239 0,-0.0478 0,-0.0717 0,-0.012 0.0023,-0.0241 0,-0.0358 -0.0037,-0.0185 -0.01334,-0.0354 -0.01792,-0.0538 -0.0015,-0.006 0.0027,-0.0125 0,-0.0179 -0.0096,-0.0192 -0.0262,-0.0345 -0.03583,-0.0537 -0.0084,-0.0169 -0.0095,-0.0368 -0.01792,-0.0537 -0.0038,-0.008 -0.01132,-0.0127 -0.01792,-0.0179 -0.02332,-0.0187 -0.05055,-0.0326 -0.07167,-0.0537 -0.0094,-0.009 -0.0085,-0.0264 -0.01792,-0.0358 -0.0094,-0.009 -0.02515,-0.01 -0.03583,-0.0179 -0.01351,-0.0101 -0.02073,-0.0283 -0.03583,-0.0358 -0.01068,-0.005 -0.02515,0.005 -0.03583,0 -0.0053,-0.003 0.0053,-0.0152 0,-0.0179 -0.01068,-0.005 -0.02389,0 -0.03583,0 -0.02389,0 -0.04824,0.005 -0.07167,0 -0.03704,-0.007 -0.07118,-0.0255 -0.107499,-0.0358 -0.01303,-0.004 -0.09797,0 -0.107498,0"
       id="path1472-1-0"
       inkscape:connector-curvature="0" />
    <path
       style="fill:none;stroke:#000000;stroke-width:0.32176784;stroke-linecap:butt;stroke-linejoin:miter;stroke-miterlimit:4;stroke-dasharray:none;stroke-opacity:1"
       d="m 11.170136,293.20214 c 0,-0.19707 0,-0.39416 0,-0.59123 0,-0.0299 0,-0.0597 0,-0.0896 0,-0.006 -0.0042,-0.0137 0,-0.0179 0.0042,-0.004 0.01525,0.005 0.01792,0 0.01709,-0.0342 -0.02053,-0.0345 0.01792,-0.0537 0.0053,-0.003 0.01195,0 0.01792,0 0.04181,0 0.08361,0 0.125415,0 0.113471,0 0.226941,0 0.340412,0 0.06569,0 0.131387,0 0.19708,0 0.006,0 0.01195,0 0.01792,0 0.01792,0 0.04108,-0.0127 0.05375,0 0.01267,0.0127 0,0.0358 0,0.0537 0,0.17386 0.01014,0.0708 -0.01792,0.19708 -0.01321,0.0594 -0.0191,0.12061 -0.03583,0.17917 -0.0037,0.0128 -0.01468,0.0229 -0.01792,0.0358 -0.0029,0.0116 0,0.0239 0,0.0358 0,0.0299 0,0.0597 0,0.0896 0,0.012 0.0053,0.0252 0,0.0358 -0.0027,0.005 -0.01603,-0.006 -0.01792,0 -0.0057,0.017 0.0057,0.0367 0,0.0537 -0.0019,0.006 -0.01525,-0.005 -0.01792,0 -0.0021,0.004 0,0.0599 0,0.0717 0,0.006 -0.0042,0.0137 0,0.0179 0.0094,0.009 0.02515,0.01 0.03583,0.0179 0.117164,0.0879 -0.07373,-0.0187 0.107499,0.0537 0.01188,0.005 0.05584,0.0611 0.07167,0.0717 0.009,0.0395 0.03686,0.009 0.05375,0.0179 0.01511,0.008 0.02073,0.0283 0.03583,0.0358 0.0054,0.003 0.01258,-0.003 0.01792,0 0.0076,0.004 0.01414,0.0104 0.01792,0.0179 0.0027,0.005 -0.0054,0.0152 0,0.0179 0.03457,0.0173 0.06699,-0.0245 0.08958,-0.0358 0.0054,-0.003 0.01206,10e-4 0.01792,0 0.02414,-0.005 0.04778,-0.012 0.07167,-0.0179 0.02389,-0.006 0.0488,-0.009 0.07166,-0.0179 0.0078,-0.003 0.01194,-0.012 0.01792,-0.0179 0.01792,-0.006 0.03523,-0.0142 0.05375,-0.0179 0.01171,-0.002 0.02389,0 0.03583,0 0.006,0 0.01258,0.003 0.01792,0 0.01926,-0.01 0.03375,-0.0278 0.05375,-0.0358 0.01109,-0.004 0.02412,0.002 0.03583,0 0.01852,-0.004 0.03543,-0.0134 0.05375,-0.0179 0.0058,-0.002 0.0137,0.004 0.01792,0 0.0042,-0.004 -0.0042,-0.0137 0,-0.0179 0.03343,-0.0334 0.05249,-0.008 0.07167,-0.0179 0.0076,-0.004 0.01036,-0.0142 0.01792,-0.0179 9e-4,-4.7e-4 0.05281,-4.7e-4 0.05375,0 0.0076,0.004 0.01264,0.0113 0.01792,0.0179 0.03604,0.045 0.06814,0.0897 0.08958,0.14333 0.007,0.0175 0.0074,0.038 0.01792,0.0537 0.0033,0.005 0.01647,-0.006 0.01792,0 0.0058,0.0232 -0.0047,0.0483 0,0.0717 0.0017,0.008 0.01414,0.0104 0.01792,0.0179 0.0084,0.0169 0.01334,0.0354 0.01792,0.0537 0.0029,0.0116 -0.0038,0.0245 0,0.0358 0.05075,0.1015 -0.0067,-0.0267 0.01792,0.0717 0.0046,0.0183 0.03127,0.0404 0.01792,0.0537 -0.01565,0.0157 -0.07559,0.0289 -0.08958,0.0358 -0.0076,0.004 -0.01015,0.0146 -0.01792,0.0179 -0.223736,0.0959 -0.03655,0.018 -0.143331,0.0358 -0.02429,0.004 -0.04737,0.0139 -0.07167,0.0179 -0.01178,0.002 -0.02398,-0.002 -0.03583,0 -0.03605,0.004 -0.07145,0.0134 -0.107499,0.0179 -0.01185,0.002 -0.0245,-0.004 -0.03583,0 -0.008,0.003 -0.01036,0.0142 -0.01792,0.0179 -0.0054,0.003 -0.01258,-0.003 -0.01792,0 -0.0076,0.004 -0.01036,0.0142 -0.01792,0.0179 -0.0054,0.003 -0.01369,-0.004 -0.01792,0 -0.03707,0.037 0.05665,-0.002 -0.01792,0.0358 -0.01689,0.008 -0.03543,0.0134 -0.05375,0.0179 -0.01085,0.003 -0.034,-0.004 -0.03583,0 -0.0054,0.0107 0,0.0239 0,0.0358 0,0.0119 -0.0024,0.0241 0,0.0358 0.0037,0.0185 0.01334,0.0354 0.01792,0.0537 0.0015,0.006 0,0.012 0,0.0179 0,0.0358 0,0.0717 0,0.1075 0,0.0358 0,0.0717 0,0.1075 0,0.0358 0,0.0717 0,0.10749 0,0.006 0,0.012 0,0.0179 0,0.006 -0.0057,0.016 0,0.0179 0.017,0.006 0.03583,0 0.05375,0 0.127603,0 -0.02374,0.002 0.214997,-0.0179 0.01785,-0.002 0.03583,0 0.05375,0 0.05375,0 0.107499,0 0.161248,0 0.02986,0 0.05972,0 0.08958,0 0.006,0 0.01792,-0.006 0.01792,0 0,0.006 -0.02389,0 -0.01792,0 0.03359,0 0.04793,-0.0107 0.05375,0.0358 0.0045,0.0356 0,0.0717 0,0.1075 0,0.1493 0,0.2986 0,0.44791 0,0.006 0,0.012 0,0.0179 0,0.0239 0,0.0478 0,0.0717 0,0.006 0.0054,0.0152 0,0.0179 -0.01068,0.005 -0.02389,0 -0.03583,0 -0.02389,0 -0.04778,0 -0.07167,0 -0.03583,0 -0.07166,0 -0.107498,0 -0.006,0 -0.01213,0.002 -0.01792,0 -0.01832,-0.005 -0.03686,-0.009 -0.05375,-0.0179 -0.0076,-0.004 -0.0097,-0.0159 -0.01792,-0.0179 -0.01738,-0.004 -0.03601,0.003 -0.05375,0 -0.02437,-0.003 -0.04752,-0.0131 -0.07166,-0.0179 -0.02284,-0.005 -0.04913,0.006 -0.07167,0 -0.01464,-0.004 -0.06677,-0.0293 -0.08958,-0.0179 -0.0054,0.003 0,0.012 0,0.0179 0,0.0418 0,0.0836 0,0.12541 0,0.006 0.0042,0.0137 0,0.0179 -0.0042,0.004 -0.01258,-0.003 -0.01792,0 -0.07456,0.0373 0.01915,-10e-4 -0.01792,0.0358 -0.01522,0.0152 -0.03852,0.0206 -0.05375,0.0358 -0.0042,0.004 0.0042,0.0137 0,0.0179 -0.01522,0.0152 -0.03693,0.0224 -0.05375,0.0358 -0.01319,0.0106 -0.02389,0.0239 -0.03583,0.0358 -0.01194,0.012 -0.02502,0.0229 -0.03583,0.0358 -0.01912,0.023 -0.03463,0.0488 -0.05375,0.0717 -0.02163,0.0259 -0.04778,0.0478 -0.07167,0.0717 -0.01194,0.012 -0.02646,0.0218 -0.03583,0.0358 -0.0033,0.005 0,0.012 0,0.0179 0,0.006 -0.0042,0.0137 0,0.0179 0.0042,0.004 0.01258,-0.003 0.01792,0 0.01926,0.01 0.03652,0.0229 0.05375,0.0358 0.0068,0.005 0.01194,0.012 0.01792,0.0179 0.01792,0.0179 0.03583,0.0358 0.05375,0.0537 0.01792,0.0179 0.0397,0.0327 0.05375,0.0538 0.0033,0.005 -0.0033,0.013 0,0.0179 0.01874,0.0281 0.0514,0.0446 0.07167,0.0717 0.008,0.0107 0.01051,0.0247 0.01792,0.0358 0.0047,0.007 0.01414,0.0104 0.01792,0.0179 0.0084,0.0169 0.0095,0.0368 0.01792,0.0537 0.0076,0.0151 0.02828,0.0207 0.03583,0.0358 0.0027,0.005 -0.0027,0.0126 0,0.0179 0.0038,0.008 0.01414,0.0104 0.01792,0.0179 0.0027,0.005 0,0.012 0,0.0179 0,0.006 0.0033,0.0129 0,0.0179 -0.0094,0.014 -0.0257,0.0223 -0.03583,0.0358 -0.008,0.0107 -0.0099,0.0251 -0.01792,0.0358 -0.01014,0.0135 -0.02389,0.0239 -0.03583,0.0358 -0.01194,0.012 -0.02389,0.0239 -0.03583,0.0358 -0.006,0.006 -0.01089,0.0132 -0.01792,0.0179 -0.009,0.0395 -0.03686,0.009 -0.05375,0.0179 -0.0076,0.004 -0.01036,0.0142 -0.01792,0.0179 -0.0054,0.003 -0.01295,-0.003 -0.01792,0 -0.01194,0.012 -0.02389,0.0239 -0.03583,0.0358 -0.006,0 -0.01258,-0.003 -0.01792,0 -0.0076,0.004 -0.0097,0.0159 -0.01792,0.0179 -0.127076,0 -0.01049,-0.0127 -0.07166,0.0179 -0.01068,0.005 -0.02739,-0.008 -0.03583,0 -0.0042,0.004 0.0042,0.0137 0,0.0179 -0.0042,0.004 -0.01194,0 -0.01792,0 -0.03221,0 -0.03904,0.003 -0.07167,-0.0358 -0.0171,-0.0205 -0.02168,-0.049 -0.03583,-0.0717 -0.01583,-0.0253 -0.03463,-0.0487 -0.05375,-0.0717 -0.003,-0.004 -0.07104,-0.0704 -0.07167,-0.0717 -0.01165,-0.0233 0.01669,-0.0422 -0.01792,-0.0537 -0.01133,-0.004 -0.0259,0.007 -0.03583,0 -0.02811,-0.0187 -0.04571,-0.05 -0.07167,-0.0717 -0.08531,-0.0711 0.02448,0.0709 -0.08958,-0.0717 -0.0071,-0.009 -0.04976,-0.0955 -0.05375,-0.1075 -0.0019,-0.006 0.0057,-0.016 0,-0.0179 -0.017,-0.006 -0.03583,0 -0.05375,0 -0.02986,0 -0.05972,0 -0.08958,0 -0.02389,0 -0.0481,0.004 -0.07166,0 -0.01317,-0.002 -0.02343,-0.013 -0.03583,-0.0179 -0.01754,-0.007 -0.03543,-0.0134 -0.05375,-0.0179 -0.0058,-0.002 -0.01195,0 -0.01792,0 -0.02389,0 -0.04778,0 -0.07167,0 -0.01194,0 -0.02389,0 -0.03583,0 -0.006,0 -0.01369,-0.004 -0.01792,0 -0.0042,0.004 -9.82e-4,0.012 0,0.0179 0.005,0.03 0.01361,0.0594 0.01792,0.0896 0.0017,0.0118 0,0.0239 0,0.0358 0,0.0179 0,0.0358 0,0.0538 0,0.0537 0,0.1075 0,0.16125 0,0.0537 0,0.10749 0,0.16125 0,0.006 0,0.012 0,0.0179 0,0.006 0.0042,0.0137 0,0.0179 -0.0042,0.004 -0.01525,-0.005 -0.01792,0 -0.0053,0.0107 0.0053,0.0251 0,0.0358 -0.0027,0.005 -0.01225,-0.002 -0.01792,0 -0.01267,0.004 -0.02258,0.0163 -0.03583,0.0179 -0.03556,0.004 -0.07167,0 -0.107499,0 -0.08958,0 -0.179164,0 -0.268746,0 -0.05972,0 -0.119443,0 -0.179164,0 -0.01195,0 -0.02389,0 -0.03583,0 -0.01194,0 -0.02515,0.005 -0.03583,0 -0.0053,-0.003 -8.41e-4,-0.012 0,-0.0179 0.0051,-0.036 0.01341,-0.0715 0.01792,-0.10749 0.0015,-0.0119 0,-0.0239 0,-0.0358 0,-0.0717 0,-0.14333 0,-0.21499 0,-0.012 -0.0033,-0.0243 0,-0.0358 0.0088,-0.0309 0.02566,-0.0591 0.03583,-0.0896 0.0019,-0.006 0,-0.012 0,-0.0179 0,-0.0179 -0.0043,-0.0364 0,-0.0538 0.0021,-0.008 0.01414,-0.0104 0.01792,-0.0179 0.0027,-0.005 0,-0.012 0,-0.0179 0,-0.006 0.0027,-0.0125 0,-0.0179 -0.0088,-0.0177 -0.0719,-0.0478 -0.08958,-0.0538 -0.06402,-0.0213 0.07381,0.0694 -0.07167,-0.0179 -0.01448,-0.009 -0.02178,-0.0265 -0.03583,-0.0358 -0.005,-0.003 -0.01295,0.003 -0.01792,0 -0.01406,-0.009 -0.02264,-0.0252 -0.03583,-0.0358 -0.01681,-0.0135 -0.03529,-0.0248 -0.05375,-0.0358 -0.01145,-0.007 -0.02639,-0.008 -0.03583,-0.0179 -0.0094,-0.009 -0.0085,-0.0264 -0.01792,-0.0358 -0.0042,-0.004 -0.01369,0.004 -0.01792,0 -0.0042,-0.004 0.0019,-0.0122 0,-0.0179 -0.04326,-0.12977 0.0052,0.0283 -0.03583,-0.0537 -0.0056,-0.0113 0.0056,-0.0604 0,-0.0717 -0.0027,-0.005 -0.01194,0 -0.01792,0 -0.02986,0 -0.05972,0 -0.08958,0 -0.03583,0 -0.07167,0 -0.107498,0 -0.01792,0 -0.03675,-0.006 -0.05375,0 -0.008,0.003 -0.01036,0.0141 -0.01792,0.0179 -0.0053,0.003 -0.01212,-0.002 -0.01792,0 -0.01832,0.005 -0.03543,0.0134 -0.05375,0.0179 -0.01219,0.003 -0.04395,-0.005 -0.05375,0 -0.0076,0.004 -0.0099,0.0152 -0.01792,0.0179 -0.0082,0.003 -0.07958,0 -0.08958,0 -0.006,0 -0.01194,0 -0.01792,0 -0.006,0 -0.01792,0.006 -0.01792,0 0,-0.006 0.02214,0.004 0.01792,0 -0.0094,-0.009 -0.02782,-0.007 -0.03583,-0.0179 -0.04254,-0.0567 -0.01073,-0.0357 -0.01792,-0.0717 -0.05817,-0.23266 0.0082,0.0575 -0.01792,-0.12541 -0.0035,-0.0244 -0.01387,-0.0474 -0.01792,-0.0717 -0.002,-0.0118 0,-0.0239 0,-0.0358 0,-0.0478 0,-0.0956 0,-0.14333 0,-0.0418 0,-0.0836 0,-0.12542 0,-0.012 -0.0099,-0.0292 0,-0.0358 0.0064,-0.004 0.07536,0.003 0.08958,0 0.01852,-0.004 0.03512,-0.0148 0.05375,-0.0179 0.02058,-0.003 0.128717,0 0.143331,0 0.06569,0 0.131387,0 0.197081,0 0.02389,0 0.04778,0 0.07167,0 0.006,0 0.01194,0 0.01792,0 0.006,0 0.01369,0.004 0.01792,0 0.0042,-0.004 0,-0.012 0,-0.0179 0,-0.0239 0,-0.0478 0,-0.0717 0,-0.0154 -0.0035,-0.097 0,-0.1075 0.0027,-0.008 0.01587,-0.01 0.01792,-0.0179 0.01988,-0.0795 -0.02283,-0.0285 0.01792,-0.0896 0.0047,-0.007 0.01323,-0.0109 0.01792,-0.0179 0.03947,-0.009 0.0095,-0.0368 0.01792,-0.0537 0.0038,-0.008 0.01323,-0.0109 0.01792,-0.0179 0.0074,-0.0111 0.01051,-0.0247 0.01792,-0.0358 0.0079,-0.0118 0.05052,-0.0441 0.05375,-0.0537 0.0038,-0.0113 -0.0038,-0.0245 0,-0.0358 0.0027,-0.008 0.04568,-0.0457 0.05375,-0.0538 0.006,-0.006 0.01194,-0.012 0.01792,-0.0179 0.006,-0.006 0.01036,-0.0142 0.01792,-0.0179 0.0053,-0.003 0.01792,0.006 0.01792,0 0,-0.008 -0.01089,-0.0133 -0.01792,-0.0179 -0.02898,-0.0193 -0.05935,-0.0365 -0.08958,-0.0538 -0.01159,-0.007 -0.0254,-0.01 -0.03583,-0.0179 -0.01979,-0.0158 -0.03583,-0.0358 -0.05375,-0.0538 -0.006,-0.006 -0.01036,-0.0142 -0.01792,-0.0179 -0.0053,-0.003 -0.01369,0.004 -0.01792,0 -0.02111,-0.0211 -0.03719,-0.0468 -0.05375,-0.0717 -0.0074,-0.0111 -0.0085,-0.0264 -0.01792,-0.0358 -0.02111,-0.0211 -0.04835,-0.0351 -0.07167,-0.0538 -0.01319,-0.0106 -0.02389,-0.0239 -0.03583,-0.0358 -0.006,-0.006 -0.01525,-0.01 -0.01792,-0.0179 -0.0038,-0.0113 0.0053,-0.0251 0,-0.0358 -0.0027,-0.005 -0.01369,0.004 -0.01792,0 -0.0094,-0.009 -0.01051,-0.0247 -0.01792,-0.0358 -0.0047,-0.007 -0.01414,-0.0103 -0.01792,-0.0179 -0.0027,-0.005 0.0042,-0.0137 0,-0.0179 -0.01536,-0.0153 -0.04692,0.0367 -0.01792,-0.0358 0.04402,-0.11006 0.01609,-0.0161 0.07166,-0.0717 0.0094,-0.009 0.0099,-0.0251 0.01792,-0.0358 0.0073,-0.01 0.07972,-0.083 0.08958,-0.0896 0.005,-0.003 0.01369,0.004 0.01792,0 0.09156,-0.0916 -0.07512,0.025 0.05375,-0.0717 0.01068,-0.008 0.02639,-0.008 0.03583,-0.0179 0.0042,-0.004 -0.0042,-0.0137 0,-0.0179 0.01523,-0.0152 0.03852,-0.0206 0.05375,-0.0358 0.0042,-0.004 -0.0027,-0.0126 0,-0.0179 0.0038,-0.008 0.01414,-0.0104 0.01792,-0.0179 0.0027,-0.005 -0.0027,-0.0125 0,-0.0179 0.0038,-0.008 0.01414,-0.0104 0.01792,-0.0179 0.0027,-0.005 -0.0042,-0.0137 0,-0.0179 0.0042,-0.004 0.01258,0.003 0.01792,0 0.02468,-0.0123 0.03517,-0.0538 0.07167,-0.0538 0.0085,0 0.01116,0.0129 0.01792,0.0179 0.01723,0.0129 0.03583,0.0239 0.05375,0.0358 0.01792,0.0179 0.03396,0.0379 0.05375,0.0537 0.0053,0.004 0.0693,0.033 0.07167,0.0358 0.01792,0.0299 0.03583,0.0597 0.05375,0.0896 0.01194,0.006 0.02639,0.008 0.03583,0.0179 0.01523,0.0152 0.02238,0.0369 0.03583,0.0537 0.01055,0.0132 0.02646,0.0218 0.03583,0.0358 0.0033,0.005 0,0.012 0,0.0179 0.006,0.012 0.0085,0.0264 0.01792,0.0358 0.0042,0.004 0.01525,0.005 0.01792,0 0.01068,-0.0213 -0.0076,-0.049 0,-0.0717 0.0027,-0.008 0.01478,-0.0101 0.01792,-0.0179 0.02622,-0.0656 0.0042,-0.06 0.03583,-0.1075 0.0047,-0.007 0.01285,-0.0111 0.01792,-0.0179 0.0084,-0.0112 0.0332,-0.058 0.05375,-0.0717 0.01111,-0.007 0.02639,-0.008 0.03583,-0.0179 0.01523,-0.0152 0.02061,-0.0385 0.03583,-0.0538 0.03707,-0.037 -0.0015,0.0567 0.03583,-0.0179 0.0027,-0.005 -0.0042,-0.0137 0,-0.0179 0.06992,-0.0699 0.0096,0.004 0.05375,-0.0179 0.01511,-0.008 0.01981,-0.0305 0.03583,-0.0358 0.01133,-0.004 0.02515,0.005 0.03583,0 0.0053,-0.003 -0.0042,-0.0137 0,-0.0179 0.0042,-0.004 0.01212,0.002 0.01792,0 0.149127,-0.0373 -0.02163,0.001 0.08958,-0.0358 0.01038,-0.003 0.05614,0 0.07167,0"
       id="path1470-9-6"
       inkscape:connector-curvature="0" />
    <path
       style="fill:none;stroke:#000000;stroke-width:0.32176784;stroke-linecap:butt;stroke-linejoin:miter;stroke-miterlimit:4;stroke-dasharray:none;stroke-opacity:1"
       d="m 11.331384,294.1338 c -0.02986,-0.0179 -0.05972,-0.0358 -0.08958,-0.0538 0,-0.006 0.0057,-0.016 0,-0.0179 -0.0071,-0.002 -0.09186,0 -0.107498,0 -0.01601,0 -0.08387,-0.003 -0.08958,0 -0.0076,0.004 -0.01194,0.012 -0.01792,0.0179 -0.01195,0.012 -0.02646,0.0218 -0.03583,0.0358 -0.0033,0.005 0.0033,0.0129 0,0.0179 -0.01405,0.0211 -0.03969,0.0327 -0.05375,0.0538 -0.0074,0.0111 -0.01195,0.0239 -0.01792,0.0358 -0.006,0.012 -0.01468,0.0229 -0.01792,0.0358 -0.0029,0.0116 0.0038,0.0245 0,0.0358 -0.0084,0.0254 -0.02209,0.0487 -0.03583,0.0717 -0.0043,0.007 -0.01587,0.01 -0.01792,0.0179 -0.0043,0.0174 0.0035,0.0362 0,0.0537 -0.0026,0.0131 -0.01572,0.0227 -0.01792,0.0358 -0.0049,0.0294 0,0.0597 0,0.0896 0,0.0299 0,0.0597 0,0.0896 0,0.012 -0.0029,0.0242 0,0.0358 0.0102,0.0408 0.02779,0.0392 0.05375,0.0717 0.01195,0.0179 0.02389,0.0358 0.03583,0.0538 0.006,0 0.01295,-0.003 0.01792,0 0.01405,0.009 0.02178,0.0264 0.03583,0.0358 0.005,0.003 0.01257,-0.003 0.01792,0 0.0076,0.004 0.0097,0.0159 0.01792,0.0179 0.0107,0.003 0.113366,0 0.125415,0 0.05972,0 0.119442,0 0.179164,0 0.006,0 0.01202,10e-4 0.01792,0 0.03004,-0.005 0.05954,-0.0129 0.08958,-0.0179 0.0059,-10e-4 0.01225,0.002 0.01792,0 0.03051,-0.0102 0.05972,-0.0239 0.08958,-0.0358 0.02986,-0.012 0.06082,-0.0215 0.08958,-0.0358 0.0076,-0.004 0.01089,-0.0132 0.01792,-0.0179 0.01111,-0.007 0.02472,-0.0105 0.03583,-0.0179 0.007,-0.005 0.01285,-0.0112 0.01792,-0.0179 0.04719,-0.0629 0.03583,-0.0528 0.03583,-0.12542 0,-0.0239 0,-0.0478 0,-0.0717 0,-0.012 0.0023,-0.0241 0,-0.0358 -0.0037,-0.0185 -0.01334,-0.0354 -0.01792,-0.0538 -0.0015,-0.006 0.0027,-0.0125 0,-0.0179 -0.0096,-0.0192 -0.0262,-0.0345 -0.03583,-0.0537 -0.0084,-0.0169 -0.0095,-0.0368 -0.01792,-0.0537 -0.0038,-0.008 -0.01132,-0.0127 -0.01792,-0.0179 -0.02332,-0.0187 -0.05055,-0.0326 -0.07167,-0.0537 -0.0094,-0.009 -0.0085,-0.0264 -0.01792,-0.0358 -0.0094,-0.009 -0.02515,-0.01 -0.03583,-0.0179 -0.01351,-0.0101 -0.02073,-0.0283 -0.03583,-0.0358 -0.01068,-0.005 -0.02515,0.005 -0.03583,0 -0.0053,-0.003 0.0053,-0.0152 0,-0.0179 -0.01068,-0.005 -0.02389,0 -0.03583,0 -0.02389,0 -0.04824,0.005 -0.07167,0 -0.03704,-0.007 -0.07118,-0.0255 -0.107499,-0.0358 -0.01303,-0.004 -0.09797,0 -0.107498,0"
       id="path1472-1-5"
       inkscape:connector-curvature="0" />
    <path
       style="fill:none;stroke:#e91818;stroke-width:0.26458332px;stroke-linecap:butt;stroke-linejoin:miter;stroke-opacity:1"
       d="m 7.0492336,285.84148 c 0.1756066,-0.0658 0.2170242,-0.25043 0.334087,-0.3675 0.4112678,-0.41126 0.024768,-0.0102 0.233861,-0.16704 0.069581,-0.0522 0.1291979,-0.11716 0.200452,-0.16704 0.0408,-0.0286 0.090099,-0.0426 0.1336347,-0.0668 0.3741957,-0.20789 0.00621,-0.0104 0.2672696,-0.16704 0.021352,-0.0128 0.046098,-0.0196 0.066817,-0.0334 0.04633,-0.0309 0.090155,-0.0654 0.1336347,-0.10023 0.012298,-0.01 0.019322,-0.0264 0.033409,-0.0334 0.031498,-0.0157 0.067529,-0.0203 0.1002261,-0.0334 0.083748,-0.0335 0.1426643,-0.0774 0.2338609,-0.10023 0.010803,-0.003 0.022273,0 0.033409,0 0.055681,-0.0223 0.1134044,-0.04 0.1670434,-0.0668 0.014086,-0.007 0.019322,-0.0264 0.033409,-0.0334 0.031498,-0.0158 0.070029,-0.0153 0.1002263,-0.0334 0.027009,-0.0162 0.040609,-0.0493 0.066817,-0.0668 0.00927,-0.006 0.023447,0.005 0.033409,0 0.014086,-0.007 0.020304,-0.0247 0.033409,-0.0334 0.1213557,-0.0809 0.023625,0.01 0.100226,-0.0668 0.011136,-0.0111 0.022273,-0.0223 0.033409,-0.0334 0.011136,-0.0111 0.019323,-0.0264 0.033409,-0.0334 0.00996,-0.005 0.025535,0.008 0.033409,0 0.00787,-0.008 0.00787,-0.0255 0,-0.0334 -0.015748,-0.0157 -0.045688,0.007 -0.066817,0 -0.023625,-0.008 -0.043194,-0.0255 -0.066817,-0.0334 -0.020968,-0.007 -0.1067396,0 -0.1336347,0 -0.1113624,0 -0.2227247,0 -0.334087,0 -0.011136,0 -0.022273,0 -0.033409,0 -0.011136,0 -0.023447,-0.005 -0.033409,0 -0.014086,0.007 -0.019323,0.0264 -0.033409,0.0334 -0.00996,0.005 -0.025535,-0.008 -0.033409,0 -0.00787,0.008 -0.00787,0.0255 0,0.0334 0.00787,0.008 0.022273,0 0.033409,0 0.033409,0 0.066817,0 0.100226,0 0.08909,0 0.1781796,0 0.2672696,0 0.033409,0 0.066817,0 0.100226,0 0.011136,0 0.022844,-0.004 0.033409,0 0.023625,0.008 0.043194,0.0255 0.066817,0.0334 0.02113,0.007 0.044545,0 0.066817,0 0.012552,0 0.1662097,-8.4e-4 0.1670436,0 0.031567,0.0316 -0.038774,0.0535 -0.066818,0.10023 -0.018119,0.0302 -0.017661,0.0687 -0.033409,0.10022 -0.00704,0.0141 -0.022273,0.0223 -0.033409,0.0334 -0.011136,0.0557 -0.024074,0.11104 -0.033409,0.16705 -0.00418,0.025 0.00835,0.0835 0,0.10022 -0.00498,0.01 -0.028428,-0.01 -0.033409,0 -0.01992,0.0398 0.01992,0.0938 0,0.13364 -0.00498,0.01 -0.025535,-0.008 -0.033409,0 -0.038389,0.0384 -0.033409,0.0591 -0.033409,0.10022"
       id="path1526"
       inkscape:connector-curvature="0" />
    <path
       style="fill:none;stroke:#e91818;stroke-width:0.26458332px;stroke-linecap:butt;stroke-linejoin:miter;stroke-opacity:1"
       d="m 8.41899,289.28258 c 0.6681739,0 1.3363477,0 2.004521,0 0.08909,0 0.17818,0 0.26727,0 0.02227,0 0.06682,-0.0223 0.06682,0 0,0.0223 -0.08909,0 -0.06682,0 0.06045,0 0.18349,0.017 0.233861,-0.0334 0.01575,-0.0157 -0.04829,0.0124 -0.06682,0 -0.02621,-0.0175 -0.03981,-0.0506 -0.06682,-0.0668 -0.112295,-0.0674 -0.0769,7.9e-4 -0.167043,-0.0668 -0.08533,-0.064 -0.08981,-0.13363 -0.233861,-0.13363 -0.01114,0 -0.02227,0 -0.03341,0 -0.01114,0 -0.02345,0.005 -0.03341,0 -0.01409,-0.007 -0.01932,-0.0264 -0.03341,-0.0334 -0.01,-0.005 -0.04128,-0.008 -0.03341,0 0.03842,0.0384 0.127903,0.0407 0.167043,0.0668 0.0093,0.006 -0.0093,0.0272 0,0.0334 0.0293,0.0195 0.06873,0.0177 0.100226,0.0334 0.01409,0.007 0.02227,0.0223 0.03341,0.0334 0.02227,0.0223 0.04061,0.0494 0.06682,0.0668 0.0093,0.006 0.02345,-0.005 0.03341,0 0.04009,0.02 0.06014,0.0802 0.100226,0.10023 0.01,0.005 0.02553,-0.008 0.03341,0 0.0079,0.008 0.0079,0.0255 0,0.0334 -0.0079,0.008 -0.02345,-0.005 -0.03341,0 -0.01409,0.007 -0.0199,0.0253 -0.03341,0.0334 -0.04271,0.0256 -0.0922,0.0392 -0.133635,0.0668 -0.01707,0.0114 -0.18907,0.18338 -0.200452,0.20045 -0.0062,0.009 0.0079,0.0255 0,0.0334 -0.03341,0.0223 -0.06682,0.0445 -0.100226,0.0668 -0.01114,0 -0.02345,-0.005 -0.03341,0 -0.01409,0.007 -0.02227,0.0223 -0.03341,0.0334"
       id="path1528"
       inkscape:connector-curvature="0" />
    <path
       style="fill:none;stroke:#e91818;stroke-width:0.26458332px;stroke-linecap:butt;stroke-linejoin:miter;stroke-opacity:1"
       d="m 6.9155989,291.62118 c 0.066817,0.0223 0.1400575,0.0306 0.2004523,0.0668 0.054019,0.0324 0.082688,0.0966 0.1336347,0.13364 0.6771553,0.49247 -0.0235,-0.0677 0.3340867,0.20045 0.1015783,0.0762 0.198287,0.15877 0.3006783,0.23386 0.129516,0.095 0.2693284,0.17517 0.4009044,0.26727 0.045616,0.0319 0.091358,0.064 0.1336347,0.10022 0.035873,0.0308 0.06152,0.0731 0.100226,0.10023 0.073553,0.0515 0.1535565,0.0935 0.233861,0.13364 0.112636,0.0563 0.1179949,0.008 0.2338607,0.10022 0.019444,0.0156 0.011136,0.0557 0.033409,0.0668 0.029882,0.0149 0.068532,-0.0106 0.1002263,0 0.1575612,0.0525 0.054485,0.0475 0.1336347,0.10022 0.1687743,0.11252 7.673e-4,2.6e-4 0.100226,0.0334 0.022273,0.0111 0.044545,0.0223 0.066817,0.0334 0,0.0111 -0.00787,0.0255 0,0.0334 0.00787,0.008 0.033409,0.0111 0.033409,0 0,-0.0158 -0.020809,-0.024 -0.033409,-0.0334 -0.032122,-0.0241 -0.075143,-0.0355 -0.100226,-0.0668 -0.022,-0.0275 -0.017658,-0.0687 -0.033409,-0.10022 -0.1205389,-0.24108 -0.016491,0.059 -0.1336347,-0.23386 -0.00414,-0.0103 0.00787,-0.0255 0,-0.0334 -0.017608,-0.0176 -0.04921,-0.0158 -0.066817,-0.0334 -0.00787,-0.008 0.00787,-0.0255 0,-0.0334 -0.00787,-0.008 -0.022273,0 -0.033409,0 -0.011136,-0.0223 -0.025535,-0.0432 -0.033409,-0.0668 -0.00352,-0.0106 0.00787,-0.0255 0,-0.0334 -0.017608,-0.0176 -0.049209,-0.0158 -0.066817,-0.0334 -0.00787,-0.008 0.0245,-0.007 0.033409,0 0.037797,0.0283 0.066817,0.0668 0.1002262,0.10022 0.011136,0.0111 0.024672,0.0203 0.033409,0.0334 0.053414,0.0801 0.062967,0.18033 0.100226,0.26727 0.019619,0.0458 0.041194,0.0909 0.066817,0.13364 -0.00333,0.0662 0.049209,0.0158 0.066817,0.0334 0.00334,0.003 0.00334,0.0969 0,0.10023 -0.00787,0.008 -0.022273,0 -0.033409,0 -0.022273,0 -0.044545,0 -0.066817,0 -0.1448774,0 -0.2537082,0.003 -0.4009043,-0.0334 -0.024157,-0.006 -0.042255,-0.0293 -0.066817,-0.0334 -0.043939,-0.007 -0.08909,0 -0.1336347,0 -0.077954,0 -0.1559073,0 -0.2338609,0"
       id="path1530"
       inkscape:connector-curvature="0" />
  </g>
</svg>
