<?xml version="1.0" encoding="UTF-8" standalone="no"?>
<!-- Created with Inkscape (http://www.inkscape.org/) -->

<svg
   xmlns:dc="http://purl.org/dc/elements/1.1/"
   xmlns:cc="http://creativecommons.org/ns#"
   xmlns:rdf="http://www.w3.org/1999/02/22-rdf-syntax-ns#"
   xmlns:svg="http://www.w3.org/2000/svg"
   xmlns="http://www.w3.org/2000/svg"
   xmlns:sodipodi="http://sodipodi.sourceforge.net/DTD/sodipodi-0.dtd"
   xmlns:inkscape="http://www.inkscape.org/namespaces/inkscape"
   width="64"
   height="64"
   viewBox="0 0 16.933333 16.933334"
   version="1.1"
   id="svg8"
   inkscape:version="0.92.4 (5da689c313, 2019-01-14)"
   sodipodi:docname="icon.svg">
  <defs
     id="defs2" />
  <sodipodi:namedview
     id="base"
     pagecolor="#ffffff"
     bordercolor="#666666"
     borderopacity="1.0"
     inkscape:pageopacity="0.0"
     inkscape:pageshadow="2"
     inkscape:zoom="3.959798"
     inkscape:cx="95.067696"
     inkscape:cy="59.286766"
     inkscape:document-units="mm"
     inkscape:current-layer="layer1"
     showgrid="false"
     inkscape:window-width="1920"
     inkscape:window-height="1017"
     inkscape:window-x="-8"
     inkscape:window-y="-8"
     inkscape:window-maximized="1"
     units="px" />
  <metadata
     id="metadata5">
    <rdf:RDF>
      <cc:Work
         rdf:about="">
        <dc:format>image/svg+xml</dc:format>
        <dc:type
           rdf:resource="http://purl.org/dc/dcmitype/StillImage" />
        <dc:title></dc:title>
      </cc:Work>
    </rdf:RDF>
  </metadata>
  <g
     inkscape:label="Layer 1"
     inkscape:groupmode="layer"
     id="layer1"
     transform="translate(0,-280.06665)">
    <flowRoot
       xml:space="preserve"
       id="flowRoot4522"
       style="font-style:normal;font-weight:normal;font-size:40px;line-height:1.25;font-family:sans-serif;letter-spacing:0px;word-spacing:0px;fill:#000000;fill-opacity:1;stroke:none"
       transform="scale(0.26458333)"><flowRegion
         id="flowRegion4524"><rect
           id="rect4526"
           width="148.57143"
           height="134.28572"
           x="231.42857"
           y="433.94824" /></flowRegion><flowPara
         id="flowPara4528"></flowPara></flowRoot>    <path
       style="fill:none;stroke:#000000;stroke-width:0.5;stroke-linecap:butt;stroke-linejoin:miter;stroke-opacity:1;stroke-miterlimit:4;stroke-dasharray:none"
       d="m 2.0713388,286.50965 c 0.5568115,0 1.113623,0 1.6704346,0 0.066817,0 0.1339091,-0.006 0.2004521,0 0.1788289,0.0163 0.35571,0.0506 0.534539,0.0668 0.066543,0.006 0.1343065,-0.009 0.2004523,0 0.090909,0.013 0.1781797,0.0446 0.2672694,0.0668 0.1559073,0.0223 0.3110132,0.0512 0.4677217,0.0668 0.066486,0.007 0.1336346,0 0.200452,0 0.2004523,0 0.4009043,0 0.6013566,0 0.1336347,0 0.2672694,0 0.4009044,0 0.1336346,0 0.2672693,0 0.400904,0 0.022273,0 0.045688,0.007 0.066817,0 0.047247,-0.0157 0.08451,-0.0586 0.1336349,-0.0668 0.1318165,-0.022 0.2672694,0 0.4009044,0 0.3118143,0 0.6236287,0 0.9354431,0 0.1781799,0 0.3563596,0 0.5345392,0 0.048929,0 0.3345352,-0.0133 0.4009041,0 0.3475974,0.0695 0.066818,0.0445 0.334087,0.13363 0.02113,0.007 0.046896,-0.01 0.066817,0 0.028173,0.0141 0.038645,0.0527 0.066817,0.0668 0.1865754,0.0933 -0.1094788,-0.27961 0.2004524,0.13364 0.02988,0.0398 0.03694,0.0938 0.06682,0.13363 0.0378,0.0504 0.101224,0.0796 0.133635,0.13364 0.03624,0.0604 0.02775,0.14184 0.06682,0.20045 0.01235,0.0185 0.04455,0 0.06682,0 0.02227,0.0445 0.05107,0.0864 0.06682,0.13363 0.007,0.0211 -0.0044,0.045 0,0.0668 0.01801,0.09 0.05172,0.17669 0.06682,0.26727 0.0073,0.0439 0,0.0891 0,0.13363 0,0.11137 -0.0123,0.22341 0,0.33409 0.01014,0.0913 0.05172,0.17669 0.06682,0.26727 0.0073,0.0439 0,0.0891 0,0.13364 0,0.0742 -0.01178,0.53067 0,0.60135 0.0082,0.0491 0.05705,0.0848 0.06682,0.13364 0.0131,0.0655 0,0.13363 0,0.20045 0,0.20045 0,0.4009 0,0.60135 0,0.11137 0,0.22273 0,0.33409 0,0.0446 -0.0073,0.0897 0,0.13364 0.0151,0.0906 0.05172,0.17668 0.06682,0.26727 0.0073,0.0439 0,0.0891 0,0.13363 0,0.13364 0,0.26727 0,0.40091 0,0.33408 0,0.66817 0,1.00226 0,0.17818 0,0.35636 0,0.53453 0,0.0891 0,0.17818 0,0.26727 0,0.0446 0.0073,0.0897 0,0.13364 -0.0151,0.0906 -0.05383,0.17636 -0.06682,0.26727 -0.0094,0.0661 0.0131,0.13493 0,0.20045 -0.01413,0.0707 -0.182052,0.30955 -0.200452,0.33409 -0.0189,0.0252 -0.04792,0.0416 -0.06682,0.0668 -0.09636,0.12848 -0.166938,0.27549 -0.26727,0.4009 -0.04454,0.0445 -0.08909,0.0891 -0.133634,0.13363 -0.04455,0.0223 -0.098419,0.0316 -0.1336354,0.0668 -0.04093,0.0409 -0.056883,0.17487 -0.1336347,0.20045 -0.042259,0.0141 -0.09042,-0.0108 -0.1336347,0 -0.3440586,0.086 0.1221065,0.0685 -0.334087,0.13364 -0.088194,0.0126 -0.1793917,-0.0146 -0.2672694,0 -0.049125,0.008 -0.085748,0.0531 -0.1336349,0.0668 -0.7813519,0.22324 -0.06222,0.009 -0.4677217,0.0668 -0.1124262,0.0161 -0.2208077,0.0587 -0.3340867,0.0668 -0.1999427,0.0143 -0.4009043,0 -0.6013566,0 -0.2672694,0 -0.5345391,0 -0.8018085,0 -0.3340869,0 -0.6681739,0 -1.0022607,0 -0.054316,0 -0.5465257,0.0137 -0.6013563,0 -0.068329,-0.0171 -0.1321234,-0.0497 -0.2004523,-0.0668 -0.061809,-0.0155 -0.3495199,0 -0.4009044,0 -0.289542,0 -0.579084,0 -0.8686257,0 -0.055952,0 -0.2832746,0.0127 -0.334087,0 -0.048316,-0.0121 -0.08909,-0.0445 -0.1336347,-0.0668 -0.044545,-0.0223 -0.092196,-0.0392 -0.1336349,-0.0668 -0.026207,-0.0175 -0.040609,-0.0494 -0.066817,-0.0668 -0.1233551,-0.0822 -0.277549,-0.11821 -0.4009042,-0.20045 -0.1161032,-0.0774 -0.1856562,-0.23615 -0.2672696,-0.33409 -0.060494,-0.0726 -0.1518353,-0.11942 -0.2004521,-0.20045 -0.022918,-0.0382 0.014086,-0.0914 0,-0.13363 -0.1171421,-0.35143 -0.1206346,-0.17446 -0.2672695,-0.46773 -0.00996,-0.0199 0.00704,-0.0457 0,-0.0668 -0.015749,-0.0473 -0.051068,-0.0864 -0.066817,-0.13364 -0.00704,-0.0211 0.00827,-0.0461 0,-0.0668 -0.036993,-0.0925 -0.096642,-0.17478 -0.1336348,-0.26727 -0.00827,-0.0207 0,-0.0445 0,-0.0668 -0.044545,-0.11137 -0.079996,-0.22681 -0.1336347,-0.33409 -0.014086,-0.0282 -0.055119,-0.0376 -0.066817,-0.0668 -0.034105,-0.0853 -0.044545,-0.17818 -0.066817,-0.26727 -0.022272,-0.0891 -0.048808,-0.17722 -0.066817,-0.26727 -0.00437,-0.0218 0.00704,-0.0457 0,-0.0668 -0.037929,-0.11379 -0.095706,-0.2203 -0.1336347,-0.33409 -0.00704,-0.0211 0,-0.0446 0,-0.0668 0,-0.0891 0.012599,-0.17907 0,-0.26727 -0.00996,-0.0697 -0.055239,-0.13098 -0.066817,-0.20045 -0.012792,-0.0768 0,-0.48004 0,-0.53454 0,-0.245 0,-0.48999 0,-0.73499 0,-0.245 0,-0.48999 0,-0.73499 0,-0.13364 0,-0.26727 0,-0.40091 0,-0.0445 -0.010804,-0.0904 0,-0.13363 0.017082,-0.0683 0.053005,-0.13139 0.066817,-0.20045 0.024356,-0.12179 -0.03868,-0.28487 0,-0.40091 0.00704,-0.0211 0.056857,0.0199 0.066817,0 0.00523,-0.0104 0,-0.3154 0,-0.33408 0,-0.0223 -0.015749,-0.0511 0,-0.0668 0.015749,-0.0158 0.059774,0.0211 0.066817,0 0,-0.47392 -0.047247,-0.0391 0.066817,-0.26727 0.020998,-0.042 -0.020998,-0.22527 0,-0.26727 0.014086,-0.0282 0.056857,-0.0369 0.066817,-0.0668 0.014086,-0.0423 -0.010804,-0.0904 0,-0.13363 0.010835,-0.0433 0.172065,-0.35833 0.2004521,-0.40091 0.017472,-0.0262 0.052731,-0.0386 0.066817,-0.0668 0.00996,-0.0199 -0.015749,-0.0511 0,-0.0668 0.015749,-0.0157 0.046138,0.008 0.066817,0 0.092481,-0.037 0.1781797,-0.0891 0.2672695,-0.13364 z"
       id="path4566"
       inkscape:connector-curvature="0" />
    <path
       style="fill:none;stroke:#000000;stroke-width:0.5;stroke-linecap:butt;stroke-linejoin:miter;stroke-opacity:1;stroke-miterlimit:4;stroke-dasharray:none"
       d="m 7.550364,286.64329 c 0,0.73499 0,1.46998 0,2.20497 0,0.0529 -0.00978,0.55245 0,0.60136 0.00618,0.0309 0.059178,0.0363 0.066818,0.0668 0.016206,0.0648 0,0.13363 0,0.20045 0,0.0891 0,0.17818 0,0.26727 0,0.245 0,0.48999 0,0.73499 0,0.86863 0,1.73725 0,2.60588 0,0.44545 0,0.8909 0,1.33634 0,0.13364 0,0.26727 0,0.40091 0,0.0301 -0.010168,0.18012 0,0.20045 0.082566,0.16513 0.066817,-0.0231 0.066817,0.13364"
       id="path4568"
       inkscape:connector-curvature="0" />
    <path
       style="fill:none;stroke:#000000;stroke-width:0.5;stroke-linecap:butt;stroke-linejoin:miter;stroke-opacity:1;stroke-miterlimit:4;stroke-dasharray:none"
       d="m 4.9444862,286.64325 c -0.2227247,0.13365 -0.4845111,0.21727 -0.6681737,0.40094 -0.062994,0.063 0,0.17818 0,0.26727 0,0.40091 0,0.80181 0,1.20272 0,0.52916 0,0.40627 0,0.93544 0,0.0891 -0.00635,0.17841 0,0.26727 0.015946,0.22327 0.050869,0.44491 0.066817,0.66817 0.00635,0.0889 -0.0074,0.17849 0,0.26727 0.014912,0.17895 0.04895,0.35587 0.066817,0.53454 0.00443,0.0443 0,0.0891 0,0.13364 0,0.20045 0,0.4009 0,0.60135 0,0.0223 -0.00366,0.0448 0,0.0668 0.022273,0.11136 0.044545,0.22272 0.066817,0.33409 0.022273,0.0223 0.056857,0.0369 0.066817,0.0668 0.014086,0.0423 0,0.0891 0,0.13364 0,0.15591 0,0.31181 0,0.46772 0,0.0223 -0.00704,0.0457 0,0.0668 0.015748,0.0472 0.051069,0.0864 0.066817,0.13363 0.010792,0.0324 0,0.43756 0,0.46772 0,0.40091 0,0.80181 0,1.20272 0,0.30417 0.031498,0.004 -0.066817,0.20045 -0.00505,0.0101 0,0.42289 0,0.20045"
       id="path4570"
       inkscape:connector-curvature="0" />
    <path
       style="fill:none;stroke:#000000;stroke-width:0.5;stroke-linecap:butt;stroke-linejoin:miter;stroke-opacity:1;stroke-miterlimit:4;stroke-dasharray:none"
       d="m 1.1358955,289.44962 c 0.3055912,0.0326 0.5724122,0.20379 0.8686259,0.26727 0.1755804,0.0376 0.3578692,0.0347 0.5345391,0.0668 0.069296,0.0126 0.1302278,0.0614 0.2004522,0.0668 0.3098335,0.0555 0.6244212,-0.0222 0.9354434,0 0.2232665,0.0159 0.4448339,0.0519 0.6681737,0.0668 0.1376831,0.009 0.6019625,-0.0222 0.7349911,0 0.03107,0.005 0.035748,0.0616 0.066818,0.0668 0.1318164,0.022 0.2672694,0 0.400904,0 0.3118147,0 0.623629,0 0.9354434,0 0.334087,0 0.668174,0 1.0022607,0 0.1113623,0 0.2227247,0 0.334087,0 0.08909,0 0.1788676,-0.011 0.2672696,0 0.091123,0.0114 0.1763607,0.0538 0.2672694,0.0668 0.1102432,0.0157 0.22424,-0.0183 0.334087,0 0.090582,0.0151 0.1772211,0.0488 0.2672694,0.0668 0.021839,0.004 0.044545,0 0.066817,0 0.066818,0 0.133635,0 0.2004523,0 0.2449971,0 0.4899941,0 0.7349911,0 0.1781792,0 0.3563592,0 0.5345392,0 0.06682,0 0.133635,0 0.200452,0 0.02227,0 0.06682,-0.0223 0.06682,0 0,0.0223 -0.04454,0 -0.06682,0"
       id="path4572"
       inkscape:connector-curvature="0" />
    <path
       style="fill:none;stroke:#000000;stroke-width:0.5;stroke-linecap:butt;stroke-linejoin:miter;stroke-opacity:1;stroke-miterlimit:4;stroke-dasharray:none"
       d="m 1.6704502,293.32497 c 0.155902,-0.13362 0.2840518,-0.30903 0.467706,-0.40085 0.062998,-0.0315 0.13037,0.0598 0.2004521,0.0668 0.1551335,0.0155 0.3118145,0 0.4677218,0 0.445449,0 0.8908984,0 1.3363474,0 0.2449973,0 0.4899943,0 0.7349913,0 0.08909,0 0.1788676,0.011 0.2672697,0 0.091122,-0.0114 0.1766871,-0.0517 0.2672694,-0.0668 0.043939,-0.007 0.08909,0 0.1336346,0 0.1113624,0 0.2227247,0 0.334087,0 0.2227247,0 0.4454494,0 0.6681737,0 0.8240811,0 1.6481621,0 2.4722431,0 0.423177,0 0.8463537,0 1.2695307,0 0.133634,0 0.267269,0 0.400904,0 0.02227,0 0.06682,-0.0223 0.06682,0 0,0.0223 -0.04454,0 -0.06682,0"
       id="path4574"
       inkscape:connector-curvature="0" />
    <path
       style="fill:none;stroke:#000000;stroke-width:0.5;stroke-linecap:butt;stroke-linejoin:miter;stroke-opacity:1;stroke-miterlimit:4;stroke-dasharray:none"
       d="m 2.0713534,286.50971 c -0.1336397,-2e-5 -0.2691004,0.0219 -0.4009189,-6e-5 -0.021969,-0.004 -0.015749,-0.0511 0,-0.0668 0.015749,-0.0157 0.051068,0.0157 0.066817,0 0.056784,-0.0568 0.085452,-0.13621 0.1336348,-0.20046 0.018899,-0.0252 0.049345,-0.0406 0.066817,-0.0668 0.027626,-0.0414 0.031602,-0.0984 0.066817,-0.13364 0.015749,-0.0157 0.045688,0.007 0.066817,0 0.047247,-0.0157 0.090929,-0.0412 0.1336348,-0.0668 0.06886,-0.0413 0.1286256,-0.0977 0.2004521,-0.13364 0.019921,-0.01 0.048286,0.0124 0.066817,0 0.052416,-0.0349 0.081219,-0.0987 0.1336348,-0.13363 0.018532,-0.0124 0.046896,0.01 0.066817,0 0.028173,-0.0141 0.044545,-0.0446 0.066818,-0.0668 0.044545,0 0.09042,0.0108 0.1336347,0 0.048316,-0.0121 0.08909,-0.0446 0.1336347,-0.0668 0.08909,-0.0445 0.1781797,-0.0891 0.2672697,-0.13363 0.044545,-0.0223 0.085319,-0.0547 0.1336346,-0.0668 0.043215,-0.0108 0.09042,0.0108 0.1336347,0 0.3226576,-0.0807 -0.00331,-0.0317 0.2004523,-0.13364 0.062996,-0.0315 0.1313881,-0.053 0.2004521,-0.0668 0.5101661,-0.10204 -0.3926105,0.17541 0.334087,-0.0668 0.066817,-0.0223 0.1321234,-0.0497 0.200452,-0.0668 0.021609,-0.005 0.046896,0.01 0.066817,0 0.071827,-0.0359 0.1286256,-0.0977 0.2004523,-0.13363 0.01992,-0.01 0.045688,0.007 0.066817,0 0.2672694,-0.0891 -0.01351,-0.0641 0.334087,-0.13364 0.04368,-0.009 0.091376,0.0141 0.1336347,0 0.029882,-0.01 0.044545,-0.0445 0.066817,-0.0668 0.066817,-0.0223 0.1321234,-0.0497 0.200452,-0.0668 0.158382,-0.0396 -0.029697,0.11878 0.2672697,0 0.05849,-0.0234 0.08909,-0.0891 0.1336347,-0.13364 0.066817,-0.0223 0.1321234,-0.0497 0.2004523,-0.0668 0.021609,-0.005 0.04521,0.005 0.066817,0 0.068329,-0.0171 0.1321234,-0.0497 0.2004521,-0.0668 0.021609,-0.005 0.045688,0.007 0.066817,0 0.047247,-0.0158 0.084799,-0.0571 0.133635,-0.0668 0.06552,-0.0131 0.1370634,0.0211 0.200452,0 0.02113,-0.007 -0.018531,-0.0545 0,-0.0668 0.058603,-0.0391 0.1350579,-0.0407 0.200452,-0.0668 0.046241,-0.0185 0.08909,-0.0445 0.133635,-0.0668 0.08909,-0.0445 0.1818584,-0.0824 0.2672694,-0.13364 0.027009,-0.0162 0.038645,-0.0527 0.066817,-0.0668 0.01992,-0.01 0.04521,0.005 0.066817,0 0.068329,-0.0171 0.1345049,-0.0421 0.2004523,-0.0668 0.1123039,-0.0421 0.2187609,-0.10069 0.3340869,-0.13364 0.042831,-0.0122 0.091376,0.0141 0.1336347,0 0.029882,-0.01 0.044545,-0.0445 0.066817,-0.0668 0.044545,-0.0223 0.084799,-0.0571 0.1336347,-0.0668 0.06552,-0.0131 0.1356299,0.0162 0.2004523,0 0.030558,-0.008 0.038645,-0.0527 0.066817,-0.0668 0.01992,-0.01 0.045688,0.007 0.066817,0 0.4839861,-0.16133 -0.105345,0.0193 0.200452,-0.13363 0.01992,-0.01 0.046896,0.01 0.066817,0 0.028173,-0.0141 0.038645,-0.0527 0.066818,-0.0668 0.125992,-0.063 0.2714303,-0.0781 0.4009041,-0.13363 0.091552,-0.0392 0.1781797,-0.0891 0.2672697,-0.13364 0.044545,-0.0223 0.086388,-0.0511 0.1336347,-0.0668 0.02113,-0.007 0.051068,0.0158 0.066817,0 0.015748,-0.0157 0,-0.0445 0,-0.0668 0.022273,-0.0223 0.04061,-0.0494 0.066817,-0.0668 -0.0076,-0.12658 0.155907,-0.0446 0.200452,-0.0668 0.02817,-0.0141 0.04455,-0.0445 0.06682,-0.0668"
       id="path4576"
       inkscape:connector-curvature="0" />
    <path
       style="fill:none;stroke:#000000;stroke-width:0.5;stroke-linecap:butt;stroke-linejoin:miter;stroke-opacity:1;stroke-miterlimit:4;stroke-dasharray:none"
       d="m 10.08944,294.92854 c -0.02228,0.1114 -0.1176171,0.23257 -0.06683,0.33419 0.03148,0.063 0.137456,-0.0353 0.200452,-0.0668 0.02817,-0.0141 0.04061,-0.0493 0.06682,-0.0668 0.108058,-0.072 0.221328,-0.13602 0.334087,-0.20046 0.515421,-0.29452 -0.601744,0.40115 0.467721,-0.26727 0.0681,-0.0426 0.136209,-0.0854 0.200452,-0.13363 0.01389,-0.0104 0.128063,-0.13178 0.133635,-0.13363 0.04226,-0.0141 0.09228,0.0165 0.133635,0 0.06682,-0.0446 0.133635,-0.0891 0.200452,-0.13364 0,-0.0223 -0.01575,-0.0511 0,-0.0668 0.08063,-0.0806 0.228635,-0.14772 0.334087,-0.20045 0.04454,-0.0223 0.09474,-0.0357 0.133635,-0.0668 0.07379,-0.059 0.124857,-0.14375 0.200452,-0.20045 0.01782,-0.0134 0.04828,0.0123 0.06682,0 0.05242,-0.0349 0.08444,-0.0943 0.133635,-0.13363 0.414121,-0.3313 0.02181,0.008 0.334087,-0.20046 0.02621,-0.0175 0.03981,-0.0506 0.06682,-0.0668 0.128117,-0.0769 0.276589,-0.11758 0.400904,-0.20046 0.02621,-0.0175 0.04061,-0.0493 0.06682,-0.0668 0.08288,-0.0553 0.184393,-0.0784 0.267269,-0.13364 0.05242,-0.0349 0.07729,-0.10546 0.133635,-0.13363 0.01992,-0.01 0.05107,0.0158 0.06682,0 0.01575,-0.0157 -0.01853,-0.0545 0,-0.0668 0.07828,-0.0522 0.257252,-0.0568 0.334087,-0.13363 0.01575,-0.0157 -0.01,-0.0469 0,-0.0668 0.04009,-0.0802 0.160361,-0.12027 0.200452,-0.20045 0.01,-0.0199 0,-0.0446 0,-0.0668"
       id="path4578"
       inkscape:connector-curvature="0" />
    <path
       style="fill:none;stroke:#000000;stroke-width:0.5;stroke-linecap:butt;stroke-linejoin:miter;stroke-opacity:1;stroke-miterlimit:4;stroke-dasharray:none"
       d="m 9.9557844,282.90192 c 0.1113586,-0.22337 0.011835,-0.10878 0.3340926,-0.20086 0.06772,-0.0193 0.130978,-0.0552 0.200452,-0.0668 0.09936,-0.0166 0.287754,0 0.400904,0 0.02227,0 0.04498,0.004 0.06682,0 0.09005,-0.018 0.176688,-0.0517 0.26727,-0.0668 0.04394,-0.007 0.08909,0 0.133635,0 0.111362,0 0.222724,0 0.334087,0 0.334087,0 0.668173,0 1.00226,0 0.133635,0 0.26727,0 0.400905,0 0.02227,0 0.06682,-0.0223 0.06682,0 0,0.0223 -0.06682,-0.0223 -0.06682,0 0,0.0826 0.0937,0.0668 0.133634,0.0668"
       id="path4580"
       inkscape:connector-curvature="0" />
    <path
       style="fill:none;stroke:#000000;stroke-width:0.5;stroke-linecap:butt;stroke-linejoin:miter;stroke-opacity:1;stroke-miterlimit:4;stroke-dasharray:none"
       d="m 13.229844,282.63426 c 0.178179,-2e-5 0.356358,-10e-6 0.534536,-10e-6 0.04455,0 0.09138,-0.0141 0.133635,0 0.208559,0.0695 -0.02227,0.0445 0.06682,0.13363 0.03522,0.0352 0.106009,0.0254 0.133634,0.0668 0.02471,0.0371 -0.01992,0.0938 0,0.13363 0.01,0.0199 0.05107,-0.0157 0.06682,0 0.05678,0.0568 0.09232,0.13159 0.133635,0.20046 0.137807,0.22967 0.01366,0.14803 0.06682,0.33408 0.145565,0.50948 0.133635,0.17007 0.133635,0.53454 0,0.44545 0,0.8909 0,1.33635 0,0.11136 0,0.22272 0,0.33409 0,0.0891 0,0.17818 0,0.26727 0,0.0223 -0.0054,0.0452 0,0.0668 0.01708,0.0683 0.053,0.13139 0.06682,0.20045 0.0087,0.0437 0,0.0891 0,0.13364 0,0.11136 0,0.22272 0,0.33409 0,0.0445 -0.0073,0.0897 0,0.13363 0.0151,0.0906 0.05172,0.17669 0.06682,0.26727 0.0073,0.0439 0,0.0891 0,0.13364 0,0.11136 0,0.22272 0,0.33408 0,0.33409 0,0.66818 0,1.00226 0,0.0668 0,0.13364 0,0.20046 0,0.0223 -0.0044,0.045 0,0.0668 0.01801,0.0901 0.05383,0.17636 0.06682,0.26727 0.0094,0.0661 -0.0131,0.13493 0,0.20045 0.0098,0.0488 0.05863,0.0845 0.06682,0.13364 0.01831,0.10985 0,0.22272 0,0.33409 0,0.0891 0,0.17818 0,0.26727 0,0.0445 -0.0073,0.0897 0,0.13363 0.0151,0.0906 0.05383,0.17636 0.06682,0.26727 0.0095,0.0661 -0.01621,0.13563 0,0.20045 0.0076,0.0306 0.05918,0.0363 0.06682,0.0668 0.02161,0.0864 0,0.17818 0,0.26727 0,0.245 0,0.48999 0,0.73499 0,0.11136 0,0.22272 0,0.33409 0,0.0668 0.0131,0.13493 0,0.20045 -0.0098,0.0488 -0.05107,0.0864 -0.06682,0.13363 -0.007,0.0211 0.01575,0.0511 0,0.0668 -0.01575,0.0158 -0.05686,-0.0199 -0.06682,0 -0.01992,0.0398 0.01992,0.0938 0,0.13364 -0.01,0.0199 -0.04454,0 -0.06682,0 -0.02227,0 -0.05535,0.0191 -0.06682,0 -0.0617,-0.1028 -0.08908,-0.22263 -0.133619,-0.33394"
       id="path4582"
       inkscape:connector-curvature="0" />
    <path
       style="fill:none;stroke:#000000;stroke-width:0.5;stroke-linecap:butt;stroke-linejoin:miter;stroke-opacity:1;stroke-miterlimit:4;stroke-dasharray:none"
       d="m 10.490336,287.44504 c -0.06682,-0.28952 -0.179286,-0.57219 -0.200459,-0.86857 -0.0035,-0.0497 0.09379,-0.0369 0.133634,-0.0668 0.0504,-0.0378 0.08324,-0.0958 0.133635,-0.13363 0.03984,-0.0299 0.08909,-0.0445 0.133635,-0.0668 0.06682,-0.0445 0.137745,-0.0835 0.200452,-0.13363 0.04919,-0.0394 0.08324,-0.0958 0.133635,-0.13364 0.03984,-0.0299 0.0922,-0.0392 0.133635,-0.0668 0.111383,-0.0743 0.305215,-0.21448 0.400904,-0.33409 0.05017,-0.0627 0.08545,-0.13621 0.133635,-0.20045 0.0189,-0.0252 0.04792,-0.0416 0.06682,-0.0668 0.04818,-0.0642 0.07685,-0.14367 0.133635,-0.20045 0.03522,-0.0352 0.0922,-0.0392 0.133635,-0.0668 0.09192,-0.0613 0.06872,-0.10308 0.133634,-0.20045 0.01747,-0.0262 0.04455,-0.0446 0.06682,-0.0668 0.04454,-0.0446 0.08909,-0.0891 0.133634,-0.13363 0.133635,-0.13364 0.26727,-0.26727 0.400905,-0.40091 0.04455,-0.0445 0.08122,-0.0987 0.133634,-0.13363 0.01853,-0.0124 0.04829,0.0124 0.06682,0 0.07862,-0.0524 0.133635,-0.13364 0.200452,-0.20046 0.07645,-0.0765 0.0791,-0.0932 0.200452,-0.13363 0.02113,-0.007 0.05686,0.0199 0.06682,0 0.01992,-0.0398 -0.02471,-0.0966 0,-0.13364 0.130386,-0.19557 0.09419,-0.0137 0.200453,-0.0668 0.02817,-0.0141 0.04454,-0.0446 0.06682,-0.0668 0.04454,-0.0445 0.09869,-0.0812 0.133635,-0.13364 0.01235,-0.0185 -0.01,-0.0469 0,-0.0668 0.139039,-0.27808 -0.0046,0.0714 0.133635,-0.0668 0.01575,-0.0157 -0.01575,-0.0511 0,-0.0668 0.03522,-0.0352 0.09842,-0.0316 0.133634,-0.0668 0.01575,-0.0158 -0.01992,-0.0569 0,-0.0668 0.03984,-0.0199 0.172856,0.0211 0.133635,0 -0.324607,-0.17479 -0.668172,-0.31181 -1.002258,-0.46771"
       id="path4584"
       inkscape:connector-curvature="0" />
    <path
       style="fill:none;stroke:#000000;stroke-width:0.5;stroke-linecap:butt;stroke-linejoin:miter;stroke-opacity:1;stroke-miterlimit:4;stroke-dasharray:none"
       d="m 4.9444862,286.64325 c 0.7196164,-0.4796 -0.57355,0.39063 0.534539,-0.40087 0.040526,-0.0289 0.093793,-0.0369 0.1336347,-0.0668 0.1484831,-0.11136 0.1670436,-0.22273 0.334087,-0.33409 0.058603,-0.0391 0.137456,-0.0353 0.2004523,-0.0668 0.028173,-0.0141 0.038645,-0.0527 0.066817,-0.0668 0.062996,-0.0315 0.1374561,-0.0353 0.2004521,-0.0668 0.028173,-0.0141 0.039808,-0.0506 0.066817,-0.0668 0.1281165,-0.0769 0.2672696,-0.13363 0.4009043,-0.20045 0.1336347,-0.0668 0.2621823,-0.14496 0.4009044,-0.20045 0.065394,-0.0262 0.137456,-0.0353 0.200452,-0.0668 0.028173,-0.0141 0.044545,-0.0446 0.066817,-0.0668 0.066818,-0.0445 0.1286258,-0.0977 0.2004523,-0.13363 0.062996,-0.0315 0.137456,-0.0353 0.200452,-0.0668 0.028173,-0.0141 0.038645,-0.0527 0.066817,-0.0668 0.062996,-0.0315 0.1374564,-0.0353 0.2004523,-0.0668 0.028173,-0.0141 0.038645,-0.0527 0.066817,-0.0668 0.062996,-0.0315 0.1400574,-0.0306 0.200452,-0.0668 0.054019,-0.0324 0.083238,-0.0958 0.133635,-0.13363 0.039842,-0.0299 0.090929,-0.0412 0.1336347,-0.0668 0.06886,-0.0413 0.1286256,-0.0977 0.200452,-0.13364 0.01992,-0.01 0.044545,0 0.066817,0 0.044545,-0.0223 0.092197,-0.0392 0.133635,-0.0668 0.1127157,-0.0752 0.10566,-0.16005 0.2672694,-0.20046 0.043215,-0.0108 0.09042,0.0108 0.1336349,0 0.048316,-0.0121 0.086387,-0.0511 0.1336347,-0.0668 0.02113,-0.007 0.046896,0.01 0.066817,0 0.028173,-0.0141 0.040609,-0.0494 0.066817,-0.0668 0.041438,-0.0276 0.08909,-0.0445 0.1336347,-0.0668 0.044545,-0.0223 0.086387,-0.0511 0.133635,-0.0668 0.02113,-0.007 0.0469,0.01 0.06682,0 0.05634,-0.0282 0.07252,-0.11835 0.133635,-0.13363 0.06482,-0.0162 0.135629,0.0162 0.200452,0 0.03056,-0.008 0.04061,-0.0494 0.06682,-0.0668 0.04144,-0.0276 0.0922,-0.0392 0.133635,-0.0668 0.02621,-0.0175 0.03865,-0.0527 0.06682,-0.0668 0.164568,-0.0823 -0.06032,0.19395 0.200452,-0.0668 0.01575,-0.0157 -0.01575,-0.0511 0,-0.0668 0.01575,-0.0157 0.04614,0.008 0.06682,0 0.09248,-0.037 0.17818,-0.0891 0.267269,-0.13363 0.04454,-0.0223 0.0922,-0.0392 0.133635,-0.0668 0.06082,-0.0405 0.14123,-0.17084 0.200452,-0.20045 0.01992,-0.01 0.05107,0.0158 0.06682,0 0.01575,-0.0158 -0.02227,-0.0668 0,-0.0668 0.02227,0 0,0.0446 0,0.0668"
       id="path4586"
       inkscape:connector-curvature="0" />
    <path
       style="fill:none;stroke:#000000;stroke-width:0.5;stroke-linecap:butt;stroke-linejoin:miter;stroke-opacity:1;stroke-miterlimit:4;stroke-dasharray:none"
       d="m 10.690781,290.11769 c 0.402474,-0.0914 0.358465,-0.23943 0.734991,-0.4008 0.04094,-0.0175 0.09379,0.0199 0.133635,0 0.132244,-0.0661 0.172849,-0.23967 0.267269,-0.33409 0.03522,-0.0352 0.09842,-0.0316 0.133635,-0.0668 0.01575,-0.0157 -0.01992,-0.0568 0,-0.0668 0.03984,-0.0199 0.08909,0 0.133635,0 0.02227,0 0.04828,0.0124 0.06682,0 0.100226,-0.0668 0.116931,-0.13364 0.200452,-0.20046 0.08909,-0.0668 0.17818,-0.13363 0.26727,-0.20045 0.02227,0 0.04828,0.0124 0.06682,0 0.07862,-0.0524 0.121829,-0.14803 0.200452,-0.20045 0.04144,-0.0276 0.08909,-0.0445 0.133635,-0.0668 0.08909,-0.0445 0.174788,-0.0966 0.26727,-0.13363 0.02068,-0.008 0.0469,0.01 0.06682,0 0.311634,-0.15582 0.105358,-0.11243 0.400904,-0.33409 0.01782,-0.0134 0.0529,0.0174 0.06682,0 0.08113,-0.10141 0.128413,-0.22603 0.200452,-0.33409 0.01747,-0.0262 0.04454,-0.0445 0.06682,-0.0668 0.04455,-0.0446 0.08324,-0.0958 0.133635,-0.13364 0.03984,-0.0299 0.09842,-0.0316 0.133635,-0.0668 0.01575,-0.0157 -0.01575,-0.0511 0,-0.0668 0.03522,-0.0352 0.08639,-0.0511 0.133635,-0.0668 0.02113,-0.007 0.04455,0 0.06682,0 0.04455,0 0.08909,0 0.133635,0 0.02227,0 0.06682,-0.0223 0.06682,0 0,0.0223 -0.04454,0 -0.06682,0"
       id="path4588"
       inkscape:connector-curvature="0" />
    <path
       style="fill:none;stroke:#000000;stroke-width:0.5;stroke-linecap:butt;stroke-linejoin:miter;stroke-opacity:1;stroke-miterlimit:4;stroke-dasharray:none"
       d="m 10.690781,292.92412 c 0.102171,-0.0409 0.394889,-0.16554 0.534539,-0.20045 0.02161,-0.005 0.0469,0.01 0.06682,0 0.568611,-0.2843 0.154697,-0.0837 0.467722,-0.33409 -0.106317,-0.28275 0.21037,-0.0957 0.26727,-0.13363 0.05242,-0.0349 0.08324,-0.0958 0.133634,-0.13364 0.03984,-0.0299 0.0922,-0.0392 0.133635,-0.0668 0.02621,-0.0175 0.04061,-0.0494 0.06682,-0.0668 0.04144,-0.0276 0.0922,-0.0392 0.133635,-0.0668 0.02621,-0.0175 0.04061,-0.0493 0.06682,-0.0668 0.337548,-0.22503 0.0016,-5.2e-4 0.200452,-0.0668 0.04725,-0.0158 0.08909,-0.0446 0.133634,-0.0668 0.04454,-0.0223 0.09842,-0.0316 0.133635,-0.0668 0.01575,-0.0157 -0.01575,-0.0511 0,-0.0668 0.04605,-0.0461 0.327413,-0.15146 0.400904,-0.20046 0.152899,-0.10193 -0.04178,-0.0529 0.200453,-0.13363 0.02113,-0.007 0.04569,0.007 0.06682,0 0.04725,-0.0158 0.08909,-0.0446 0.133635,-0.0668 0.04454,-0.0223 0.0922,-0.0392 0.133635,-0.0668 0.152898,-0.10193 -0.04178,-0.0529 0.200452,-0.13363 0.08712,-0.029 0.182006,-0.0327 0.267269,-0.0668 0.05849,-0.0234 0.07729,-0.10546 0.133635,-0.13363 0.01992,-0.01 0.0469,0.01 0.06682,0 0.02817,-0.0141 0.03865,-0.0527 0.06682,-0.0668 0.01992,-0.01 0.0469,0.01 0.06682,0 0.02817,-0.0141 0.03865,-0.0527 0.06682,-0.0668 0.01992,-0.01 0.05107,0.0157 0.06682,0 0.01575,-0.0158 -0.01575,-0.0511 0,-0.0668 4.76e-4,-4.7e-4 0.200452,-0.0825 0.200452,-0.13363 0,-0.0223 -0.06682,0.0223 -0.06682,0 0,-0.0223 0.04454,0 0.06682,0"
       id="path4590"
       inkscape:connector-curvature="0" />
    <path
       style="fill:none;stroke:#000000;stroke-width:0.5;stroke-linecap:butt;stroke-linejoin:miter;stroke-opacity:1;stroke-miterlimit:4;stroke-dasharray:none"
       d="m 7.550364,286.64329 c 0.017701,-0.007 0.3773807,-0.14023 0.4677216,-0.20045 0.077097,-0.0514 0.1233554,-0.14906 0.2004523,-0.20046 0.018531,-0.0124 0.046138,0.008 0.066817,0 0.092481,-0.037 0.1747882,-0.0966 0.2672694,-0.13363 0.02068,-0.008 0.044545,0 0.066818,0 0.066817,-0.0223 0.137456,-0.0353 0.200452,-0.0668 0.028173,-0.0141 0.038645,-0.0527 0.066817,-0.0668 0.01992,-0.01 0.044978,0.004 0.066817,0 0.090048,-0.018 0.1820061,-0.0327 0.2672696,-0.0668 0.029245,-0.0117 0.040609,-0.0494 0.066817,-0.0668 0.3730069,-0.24867 -0.1057376,0.11504 0.2672696,-0.13363 0.026207,-0.0175 0.037572,-0.0551 0.066817,-0.0668 0.085263,-0.0341 0.1851326,-0.0258 0.2672694,-0.0668 0.2672701,-0.13363 0.033409,-0.10023 0.2004531,-0.20045 0.08541,-0.0512 0.184392,-0.0784 0.267269,-0.13364 0.05242,-0.0349 0.07729,-0.10546 0.133635,-0.13363 0.03984,-0.0199 0.09379,0.0199 0.133635,0 0.106846,-0.0534 0.167089,-0.20048 0.267269,-0.26727 0.04144,-0.0276 0.09842,-0.0316 0.133635,-0.0668 0.01575,-0.0158 -0.01575,-0.0511 0,-0.0668 0.03522,-0.0352 0.09842,-0.0316 0.133635,-0.0668 0.03522,-0.0352 0.03919,-0.0922 0.06682,-0.13364 0.01747,-0.0262 0.04935,-0.0406 0.06682,-0.0668 0.02763,-0.0414 0.0316,-0.0984 0.06682,-0.13364 0.01575,-0.0158 0.0469,0.01 0.06682,0 0.278078,-0.13904 -0.07143,0.005 0.06682,-0.13363 0.01575,-0.0157 0.05107,0.0157 0.06682,0 0.138247,-0.13825 -0.21126,0.005 0.06682,-0.13364 0.09216,-0.0461 0.05977,0.0809 0.133635,-0.0668 0.01,-0.0199 -0.01235,-0.0483 0,-0.0668 0.05242,-0.0786 0.133635,-0.13364 0.200452,-0.20046 0.06682,-0.0668 0.133635,-0.13363 0.200452,-0.20045 0.02227,-0.0223 0.03865,-0.0527 0.06682,-0.0668 0.01992,-0.01 0.05107,0.0157 0.06682,0 0.01575,-0.0157 0,-0.0445 0,-0.0668 0.04455,-0.0223 0.0922,-0.0392 0.133635,-0.0668 0.02621,-0.0175 0.04455,-0.0445 0.06682,-0.0668 0.02227,-0.0223 0.05273,-0.0386 0.06682,-0.0668 0.01,-0.0199 -0.01,-0.0469 0,-0.0668 0.06151,-0.12301 0.138946,-0.0106 0.200452,-0.13364 0.01,-0.0199 -0.01575,-0.0511 0,-0.0668 0.01575,-0.0158 0.05107,0.0157 0.06682,0 0.18814,-0.004 0.01702,-0.15065 0.06682,-0.20046 0.01575,-0.0157 0.0469,0.01 0.06682,0 0.02817,-0.0141 0.03865,-0.0527 0.06682,-0.0668 0.03984,-0.0199 0.102137,0.0315 0.133635,0 0.01575,-0.0158 -0.02227,-0.0668 0,-0.0668 0.0315,1e-5 0.04455,0.0446 0.06682,0.0668"
       id="path4592"
       inkscape:connector-curvature="0" />
    <path
       style="fill:none;stroke:#000000;stroke-width:0.5;stroke-linecap:butt;stroke-linejoin:miter;stroke-opacity:1;stroke-miterlimit:4;stroke-dasharray:none"
       d="m 5.3453879,284.70574 c -0.066817,0.0445 -0.1559563,0.2003 -0.2004494,0.13348 -0.044493,-0.0668 0.1201743,-0.13348 0.2004494,-0.13348 0.1408477,0 0.261144,0.11603 0.4009069,0.13348 0.2873113,0.0359 0.5790841,0 0.8686261,0 0.489994,0 0.979988,0 1.4699823,0 0.1559071,0 0.3118144,0 0.4677215,0 0.061472,0 0.1403167,-0.012 0.2004523,0 0.090048,0.018 0.1766871,0.0517 0.2672693,0.0668 0.043939,0.007 0.09042,-0.0108 0.133635,0 0.048316,0.0121 0.086388,0.0511 0.1336347,0.0668 0.063389,0.0211 0.1349322,-0.0131 0.200452,0 0.069064,0.0138 0.1313884,0.053 0.2004523,0.0668 0.04368,0.009 0.091376,-0.0141 0.1336347,0 0.029882,0.01 0.038645,0.0527 0.066817,0.0668 0.042698,0.0213 0.213489,-0.0179 0.26727,0 0.04725,0.0157 0.08639,0.0511 0.133635,0.0668 0.04596,0.0153 0.161028,-0.0197 0.200452,0 0.02817,0.0141 0.04455,0.0445 0.06682,0.0668 0.04455,0 0.09138,-0.0141 0.133635,0 0.02988,0.01 0.03694,0.0569 0.06682,0.0668 0.06339,0.0211 0.133635,0 0.200452,0 0.17818,0 0.35636,0 0.534539,0 0.01621,0 0.198304,-0.002 0.200453,0 0.01575,0.0158 -0.01575,0.0511 0,0.0668 0.0315,0.0315 0.102137,-0.0315 0.133634,0 0.01575,0.0157 -0.01,0.0469 0,0.0668 0.02817,0.0563 0.105463,0.0773 0.133635,0.13363 0.01,0.0199 -0.01,0.0469 0,0.0668 0.01409,0.0282 0.05686,0.0369 0.06682,0.0668 0.02004,0.0601 -0.02004,0.14031 0,0.20045 0.01575,0.0472 0.05474,0.0853 0.06682,0.13363 0.0108,0.0432 -0.01992,0.0938 0,0.13364 0.01,0.0199 0.04454,0 0.06682,0 0,0.0668 -0.02113,0.13706 0,0.20045 0.007,0.0211 0.0469,-0.01 0.06682,0 0.02817,0.0141 0.05686,0.0369 0.06682,0.0668 0.01409,0.0423 0,0.0891 0,0.13363 0,0.0223 -0.01,0.0469 0,0.0668 0.01409,0.0282 0.05273,0.0386 0.06682,0.0668 0.01918,0.0384 -0.01422,0.27721 0,0.33408 0.01208,0.0483 0.05107,0.0864 0.06682,0.13364 0.02367,0.071 -0.02367,0.19627 0,0.26727 0.01575,0.0472 0.05474,0.0853 0.06682,0.13363 0.0108,0.0432 0,0.0891 0,0.13364 0,0.0668 0,0.13363 0,0.20045 0,0.0223 -0.01,0.0469 0,0.0668 0.01409,0.0282 0.05686,0.0369 0.06682,0.0668 1.01e-4,3e-4 -6.4e-5,0.20039 0,0.20046 0.01575,0.0157 0.05107,-0.0158 0.06682,0 6.4e-5,6e-5 -1.01e-4,0.20015 0,0.20045 0.01,0.0299 0.04455,0.0445 0.06682,0.0668 0.02227,0.0445 0.05107,0.0864 0.06682,0.13363 0.01532,0.046 -0.01971,0.16103 0,0.20045 0.01409,0.0282 0.05686,0.0369 0.06682,0.0668 0.01015,0.0304 0,0.42247 0,0.46772 0,0.16061 -0.007,-0.0282 0.06682,0.26727 0.0054,0.0216 0,0.0445 0,0.0668 0,0.0652 -0.01095,0.47976 0,0.53454 0.0098,0.0488 0.05107,0.0864 0.06682,0.13363 0.0129,0.0387 0,0.20937 0,0.26727 0,0.20045 0,0.40091 0,0.60136 0,0.62553 0,1.44714 0,1.87088"
       id="path4594"
       inkscape:connector-curvature="0" />
    <path
       style="opacity:1;fill:#ff6600;fill-opacity:1;stroke:#0d0000;stroke-width:0.47723743;stroke-miterlimit:4;stroke-dasharray:none;stroke-dashoffset:0;stroke-opacity:1"
       d="M 9.07846,35.637306 C 8.3839801,35.509073 7.2662457,35.225314 6.5946058,35.006733 L 5.3734422,34.609312 5.5315633,33.058421 C 5.729279,31.119176 6.6366097,27.189062 7.0985447,26.271022 7.554308,25.365247 7.9668616,25.287445 11.85638,25.37376 c 2.436097,0.05406 3.276481,0.154287 3.257741,0.388527 -0.01389,0.17362 -0.0423,2.531695 -0.06313,5.240167 l -0.03788,4.924493 -2.335978,-0.02824 C 11.392341,35.883168 9.7729399,35.76554 9.07846,35.637306 Z"
       id="path4596"
       inkscape:connector-curvature="0"
       transform="matrix(0.26458333,0,0,0.26458333,0,280.06665)" />
    <path
       style="opacity:1;fill:#ff6600;fill-opacity:1;stroke:#0d0000;stroke-width:0.47723743;stroke-miterlimit:4;stroke-dasharray:none;stroke-dashoffset:0;stroke-opacity:1"
       d="m 29.912856,42.968561 v -4.57514 l 0.568211,0.167821 c 0.312516,0.0923 2.457808,0.235407 4.767314,0.318012 l 4.199104,0.15019 0.154984,1.289805 c 0.08524,0.709394 0.155972,2.625102 0.15718,4.257129 l 0.0022,2.967323 H 34.83735 29.912856 Z"
       id="path4598"
       inkscape:connector-curvature="0"
       transform="matrix(0.26458333,0,0,0.26458333,0,280.06665)" />
    <path
       style="opacity:1;fill:#ff6600;fill-opacity:1;stroke:#0d0000;stroke-width:0.47723743;stroke-miterlimit:4;stroke-dasharray:none;stroke-dashoffset:0;stroke-opacity:1"
       d="m 48.853217,30.727979 c 0,-0.196279 -0.113643,-0.356871 -0.252539,-0.356871 -0.138896,0 -0.252538,-0.34215 -0.252538,-0.760333 0,-1.125485 -0.747458,-5.567348 -1.023712,-6.083532 -0.131438,-0.245595 -0.238978,-0.681292 -0.238978,-0.968215 0,-0.286923 -0.08597,-0.521678 -0.191051,-0.521678 -0.105078,0 -0.335462,-0.462712 -0.511965,-1.028248 -0.309351,-0.991199 -0.292026,-1.064723 0.480836,-2.04054 0.440963,-0.556761 1.608895,-1.686349 2.595404,-2.510195 0.98651,-0.823846 2.248223,-1.885486 2.803807,-2.359199 0.86697,-0.739214 1.034484,-0.801445 1.181807,-0.439034 0.09441,0.232246 0.18272,2.183718 0.196246,4.336605 0.01353,2.152888 0.127995,4.983555 0.254377,6.290371 l 0.229785,2.37603 -1.057376,1.058225 c -0.581557,0.582024 -1.422968,1.446809 -1.869801,1.921745 -0.953745,1.013729 -2.344302,1.657235 -2.344302,1.084869 z"
       id="path4600"
       inkscape:connector-curvature="0"
       transform="matrix(0.26458333,0,0,0.26458333,0,280.06665)" />
    <path
       style="opacity:1;fill:#ff6600;fill-opacity:1;stroke:#0d0000;stroke-width:0.47723743;stroke-miterlimit:4;stroke-dasharray:none;stroke-dashoffset:0;stroke-opacity:1"
       d="m 26.882399,16.481247 c 0.486136,-0.266293 1.679378,-0.77998 2.65165,-1.141526 0.972272,-0.361547 1.965099,-0.763939 2.206282,-0.894206 0.241183,-0.130266 0.626685,-0.236848 0.856671,-0.236848 0.229985,0 1.48355,-0.511389 2.7857,-1.136421 1.302149,-0.625032 2.47358,-1.136422 2.60318,-1.136422 0.1296,0 0.326514,-0.144445 0.437588,-0.32099 0.312861,-0.497272 1.51768,-0.941797 2.549812,-0.940767 0.838686,8.35e-4 0.615545,0.157117 -2.163461,1.515228 -1.704228,0.832863 -3.251482,1.514296 -3.438343,1.514296 -0.18686,0 -0.62869,0.227284 -0.981846,0.505076 -0.353155,0.277792 -0.711665,0.505077 -0.796689,0.505077 -0.08503,0 -0.63531,0.311738 -1.222858,0.692751 -2.029119,1.315845 -2.7582,1.563043 -4.603803,1.560938 l -1.767767,-0.002 0.883884,-0.484169 z"
       id="path4602"
       inkscape:connector-curvature="0"
       transform="matrix(0.26458333,0,0,0.26458333,0,280.06665)" />
    <path
       style="opacity:1;fill:#ff6600;fill-opacity:1;stroke:#0d0000;stroke-width:0.47723743;stroke-miterlimit:4;stroke-dasharray:none;stroke-dashoffset:0;stroke-opacity:1"
       d="m 36.731386,24.057655 c -0.208344,-0.134642 -1.06066,-0.254236 -1.894036,-0.265763 -1.304365,-0.01804 -1.427369,-0.05809 -0.883884,-0.287743 2.078606,-0.878345 4.798225,-2.271129 4.798225,-2.457291 0,-0.384961 0.617034,-0.472881 2.157685,-0.307444 l 1.504118,0.161514 -0.883883,0.553809 c -1.638547,1.026653 -3.155408,2.159632 -3.358679,2.508676 -0.234386,0.402472 -0.895611,0.44576 -1.439546,0.09424 z"
       id="path4604"
       inkscape:connector-curvature="0"
       transform="matrix(0.26458333,0,0,0.26458333,0,280.06665)" />
    <path
       style="opacity:1;fill:#ff6600;fill-opacity:1;stroke:#0d0000;stroke-width:0.47723743;stroke-miterlimit:4;stroke-dasharray:none;stroke-dashoffset:0;stroke-opacity:1"
       d="m 41.032566,54.197627 c 0.0044,-0.117812 0.168164,-0.425612 0.363882,-0.684 0.195717,-0.258389 0.433174,-1.356226 0.527681,-2.439638 l 0.171832,-1.969841 1.067734,-0.407771 c 0.587254,-0.224274 1.33195,-0.689017 1.654882,-1.032762 0.322931,-0.343744 0.688563,-0.62499 0.812515,-0.62499 0.123951,0 0.618625,-0.299952 1.099274,-0.666561 0.480649,-0.366609 0.91912,-0.621349 0.97438,-0.566089 0.05526,0.05526 0.127661,0.938764 0.160892,1.963343 l 0.06042,1.86287 -0.988514,0.751716 c -0.543684,0.413443 -1.528315,1.089703 -2.188071,1.502799 -0.659756,0.413096 -1.199556,0.841724 -1.199556,0.952507 0,0.110782 -0.198874,0.263236 -0.441942,0.338785 -0.243068,0.07555 -0.811279,0.38407 -1.262691,0.685599 -0.451412,0.30153 -0.817135,0.451845 -0.812718,0.334033 z"
       id="path4606"
       inkscape:connector-curvature="0"
       transform="matrix(0.26458333,0,0,0.26458333,0,280.06665)" />
    <path
       style="opacity:1;fill:#ccff00;fill-opacity:1;stroke:#0d0000;stroke-width:0.47723743;stroke-miterlimit:4;stroke-dasharray:none;stroke-dashoffset:0;stroke-opacity:1"
       d="M 12.487725,23.310634 8.8259219,23.173771 11.030438,22.100484 c 1.212484,-0.590308 2.415197,-1.073287 2.672695,-1.073287 0.257499,0 0.537477,-0.0693 0.622174,-0.153995 0.223685,-0.223684 4.182032,-1.599212 5.313956,-1.846603 0.545704,-0.119267 1.416345,-0.109211 2.005507,0.02316 0.572633,0.128662 1.672843,0.163617 2.44491,0.07768 l 1.403759,-0.156254 -1.010153,0.594422 c -0.555584,0.326932 -1.4079,0.79485 -1.894036,1.039818 -0.486136,0.244967 -1.560099,1.00829 -2.386585,1.696274 -1.402701,1.167635 -1.587563,1.247381 -2.777919,1.198337 -0.70137,-0.0289 -2.92303,-0.114129 -4.937021,-0.189404 z"
       id="path4608"
       inkscape:connector-curvature="0"
       transform="matrix(0.26458333,0,0,0.26458333,0,280.06665)" />
    <path
       style="opacity:1;fill:#ccff00;fill-opacity:1;stroke:#0d0000;stroke-width:0.47723743;stroke-miterlimit:4;stroke-dasharray:none;stroke-dashoffset:0;stroke-opacity:1"
       d="m 42.033173,44.702647 c -8.32e-4,-1.145891 -0.06749,-2.992576 -0.148131,-4.103744 l -0.146618,-2.020305 0.902204,-0.568211 c 0.496212,-0.312516 1.056001,-0.568211 1.243976,-0.568211 0.187974,0 0.703714,-0.397748 1.146087,-0.883883 0.442374,-0.486136 0.958109,-0.883884 1.146077,-0.883884 0.187969,0 0.489193,-0.177644 0.669387,-0.394765 0.55306,-0.666396 0.703125,0.03128 0.875545,4.070541 l 0.1611,3.774099 -1.471439,0.883884 c -0.809292,0.486135 -1.784191,0.972364 -2.166442,1.080507 -0.382252,0.108143 -0.695003,0.307017 -0.695003,0.441942 0,0.321946 -0.938894,1.25547 -1.262691,1.25547 -0.147829,0 -0.253166,-0.863848 -0.254052,-2.08344 z"
       id="path4610"
       inkscape:connector-curvature="0"
       transform="matrix(0.26458333,0,0,0.26458333,0,280.06665)" />
    <path
       style="opacity:1;fill:#ccff00;fill-opacity:1;stroke:#0d0000;stroke-width:0.47723743;stroke-miterlimit:4;stroke-dasharray:none;stroke-dashoffset:0;stroke-opacity:1"
       d="m 18.927447,57.223138 c -0.481212,-0.09601 -0.501498,-0.271725 -0.429355,-3.71902 l 0.07572,-3.618253 1.539687,-0.160929 c 0.846828,-0.08851 2.886723,-0.160929 4.533099,-0.160929 h 2.993413 v 3.914341 3.914341 l -4.103745,-0.03439 c -2.257059,-0.01891 -4.331029,-0.07974 -4.608821,-0.13516 z"
       id="path4612"
       inkscape:connector-curvature="0"
       transform="matrix(0.26458333,0,0,0.26458333,0,280.06665)" />
    <path
       style="opacity:1;fill:#ccff00;fill-opacity:1;stroke:#0d0000;stroke-width:0.47723743;stroke-miterlimit:4;stroke-dasharray:none;stroke-dashoffset:0;stroke-opacity:1"
       d="m 42.832987,18.054462 c 1.802704,-2.136084 3.549418,-3.949793 5.598026,-5.812739 1.436895,-1.306671 1.487125,-1.328939 2.31911,-1.028089 0.713135,0.257872 0.810677,0.381742 0.604286,0.767388 -0.135366,0.252933 -0.370519,0.459878 -0.522563,0.459878 -0.305928,0 -1.534486,1.100952 -4.720295,4.230014 -1.832253,1.799616 -2.240288,2.08344 -2.995224,2.08344 h -0.874 z"
       id="path4614"
       inkscape:connector-curvature="0"
       transform="matrix(0.26458333,0,0,0.26458333,0,280.06665)" />
    <path
       style="opacity:1;fill:#ccff00;fill-opacity:1;stroke:#0d0000;stroke-width:0.47723743;stroke-miterlimit:4;stroke-dasharray:none;stroke-dashoffset:0;stroke-opacity:1"
       d="M 6.0540571,46.344145 C 5.6273379,44.710745 5.1659974,36.9371 5.4957796,36.9371 c 0.077294,0 0.4349054,0.111919 0.7946911,0.248709 1.2430249,0.472598 4.0589713,0.858915 6.3655633,0.873288 1.273187,0.0079 2.377774,0.07729 2.454638,0.154129 0.07687,0.07684 0.257585,1.895112 0.401601,4.04061 0.144015,2.145498 0.332562,4.282243 0.418993,4.748321 l 0.157146,0.847415 -4.305387,-0.08909 c -2.367963,-0.049 -4.3903007,-0.0042 -4.4940838,0.0996 -0.4798598,0.47986 -0.8237908,0.05765 -1.2348841,-1.515937 z"
       id="path4616"
       inkscape:connector-curvature="0"
       transform="matrix(0.26458333,0,0,0.26458333,0,280.06665)" />
  </g>
</svg>
