<?xml version="1.0" encoding="UTF-8" standalone="no"?>
<!-- Created with Inkscape (http://www.inkscape.org/) -->

<svg
   xmlns:dc="http://purl.org/dc/elements/1.1/"
   xmlns:cc="http://creativecommons.org/ns#"
   xmlns:rdf="http://www.w3.org/1999/02/22-rdf-syntax-ns#"
   xmlns:svg="http://www.w3.org/2000/svg"
   xmlns="http://www.w3.org/2000/svg"
   xmlns:sodipodi="http://sodipodi.sourceforge.net/DTD/sodipodi-0.dtd"
   xmlns:inkscape="http://www.inkscape.org/namespaces/inkscape"
   width="64"
   height="64"
   viewBox="0 0 16.933333 16.933334"
   version="1.1"
   id="svg8"
   inkscape:version="0.92.4 (5da689c313, 2019-01-14)"
   sodipodi:docname="Initiate.svg">
  <defs
     id="defs2" />
  <sodipodi:namedview
     id="base"
     pagecolor="#ffffff"
     bordercolor="#666666"
     borderopacity="1.0"
     inkscape:pageopacity="0.0"
     inkscape:pageshadow="2"
     inkscape:zoom="11.2"
     inkscape:cx="45.266272"
     inkscape:cy="28.078064"
     inkscape:document-units="mm"
     inkscape:current-layer="layer1"
     showgrid="false"
     units="px"
     inkscape:window-width="1920"
     inkscape:window-height="1017"
     inkscape:window-x="-8"
     inkscape:window-y="-8"
     inkscape:window-maximized="1" />
  <metadata
     id="metadata5">
    <rdf:RDF>
      <cc:Work
         rdf:about="">
        <dc:format>image/svg+xml</dc:format>
        <dc:type
           rdf:resource="http://purl.org/dc/dcmitype/StillImage" />
        <dc:title></dc:title>
      </cc:Work>
    </rdf:RDF>
  </metadata>
  <g
     inkscape:label="Layer 1"
     inkscape:groupmode="layer"
     id="layer1"
     transform="translate(0,-280.06665)">
    <path
       style="fill:none;stroke:#000000;stroke-width:0.75;stroke-linecap:butt;stroke-linejoin:miter;stroke-opacity:1;stroke-miterlimit:4;stroke-dasharray:none"
       d="m 6.3074777,281.14861 c 0.031498,-0.008 0.062139,-0.0209 0.094494,-0.0236 0.062778,-0.005 0.1259919,0 0.1889879,0 0.078745,0 0.15749,0 0.236235,0 0.2598587,0 0.5200418,-0.013 0.779576,0 0.5005549,0.025 0.6629038,0.0908 1.1339285,0.14174 0.1255067,0.0136 0.2518812,0.0176 0.3779764,0.0236 0.094387,0.004 0.1889879,0 0.2834819,0 0.023625,0 0.047329,-0.002 0.07087,0 0.071061,0.006 0.1415151,0.0181 0.2126118,0.0236 0.031405,0.002 0.063066,-0.002 0.094494,0 0.7077028,0.0472 -0.256118,2.1e-4 0.5905878,0.0473 0.03145,0.002 0.063,0 0.09449,0 0.07087,0 0.141741,0 0.212611,0 0.165365,0 0.330729,0 0.496094,0 0.220486,0 0.440972,0 0.661458,0 0.118118,0 0.236235,0 0.354353,0 0.03937,0 0.07875,0 0.118118,0 0.01575,0 0.03197,0.004 0.04725,0 0.01708,-0.004 0.03054,-0.0181 0.04725,-0.0236 0.0075,-0.002 0.01575,0 0.02362,0 0.07087,0 0.141741,0 0.212612,0 0.125992,0 0.251984,0 0.377976,0 0.05512,0 0.110243,0 0.165365,0 0.02362,0 0.0477,0.005 0.07087,0 0.01727,-0.003 0.03054,-0.018 0.04725,-0.0236 0.01562,-0.005 0.118534,0 0.141741,0 0.141741,0 0.283482,0 0.425223,0 0.04725,0 0.09449,0 0.141742,0 0.02362,0 0.04739,0.003 0.07087,0 0.04761,-0.005 0.09408,-0.0189 0.141741,-0.0236 0.03134,-0.003 0.063,0 0.09449,0 0.118118,0 0.236235,0 0.354353,0 0.02362,0 0.04743,0.003 0.07087,0 0.03984,-0.005 0.08369,-0.0443 0.118118,-0.0236 0.02701,0.0162 0,0.063 0,0.0945 0,0.15521 0.0026,0.008 -0.02362,0.28348 -0.05435,0.57065 -0.0084,0.0537 -0.02363,0.44885 -0.0058,0.14971 -0.01894,0.29909 -0.02362,0.44884 -0.0049,0.15742 0,0.31498 0,0.47247 0,0.17324 0,0.34648 0,0.51972 0,0.0394 -0.0028,0.0788 0,0.11812 0.01295,0.18133 0.03554,0.36192 0.04725,0.54334 0.0041,0.0629 -0.0047,0.12616 0,0.18899 0.01111,0.15003 0.04135,0.29852 0.04725,0.44884 0.0099,0.2518 -0.0059,0.50404 0,0.75596 0.002,0.087 0.02195,0.17289 0.02362,0.25986 0.0062,0.32279 0,0.6457 0,0.96856 0,0.12599 -0.0031,0.25202 0,0.37798 0.0036,0.14945 0.04012,0.96632 0.04725,1.13392 0.008,0.18899 0.01313,0.37811 0.02362,0.56697 0.05,0.90004 0.01253,-0.81008 0.04725,1.13393 0,1.14705 -0.0092,-0.14495 0.02362,0.87407 0.0036,0.11018 0,0.22048 0,0.33073 0,0.0472 -0.0033,0.0946 0,0.14174 0.01251,0.18136 0.03554,0.36192 0.04725,0.54334 0.0041,0.0629 -0.0026,0.12604 0,0.18899 0.0053,0.12612 0.01837,0.25184 0.02362,0.37797 0.0026,0.0629 0,0.12599 0,0.18899 0,0.12599 0,0.25198 0,0.37798 0,0.0472 -0.0029,0.0946 0,0.14174 0.03736,0.59773 1.2e-4,0.0244 0.04725,0.33073 0.01084,0.0705 0.0119,0.14227 0.02362,0.21261 0.0041,0.0246 0.0201,0.0462 0.02362,0.0709 0.0123,0.0861 0.01538,0.17327 0.02363,0.25986 0.0075,0.0788 0.01755,0.15733 0.02362,0.23623 0.0018,0.0236 0,0.0473 0,0.0709 0,0.0551 0,0.11025 0,0.16537 0,0.19686 0,0.39372 0,0.59059 0,0.17323 0,0.34647 0,0.51971 0,0.0158 0,0.0315 0,0.0473 0,0.0236 0.0131,0.0512 0,0.0709 -0.0087,0.0131 -0.0315,0 -0.04725,0 -0.01575,0 -0.0315,0 -0.04725,0 -0.07874,0 -0.157491,0 -0.236236,0 -0.496093,0 -0.992187,0 -1.488281,0 -0.354353,0 -0.708705,0 -1.063058,0 -0.228361,0 -0.456783,-0.005 -0.685082,0 -0.616933,0.0143 -0.105109,0.0147 -0.496093,0.0472 -0.178883,0.0659 -0.36259,0.01 -0.543341,0.0236 -0.15749,0.0158 -0.31498,0.0315 -0.47247,0.0473 -0.0315,0 -0.06305,-0.002 -0.09449,0 -0.102493,0.006 -0.2044812,0.0205 -0.3071049,0.0236 -0.2125141,0.006 -0.4252232,0 -0.637835,0 -0.1259919,0 -0.252114,-0.006 -0.377976,0 -0.047849,0.002 -0.093964,0.0202 -0.141741,0.0236 -0.062836,0.004 -0.1261147,-0.004 -0.1889882,0 -0.063363,0.004 -0.1255995,0.0201 -0.1889882,0.0236 -0.078623,0.004 -0.15749,0 -0.236235,0 -0.4435528,0 0.084828,0.003 -0.7323289,-0.0236 -0.6611434,-0.0213 0.6610829,0.0565 -0.6614583,-0.0236 -0.1024829,-0.006 -0.2050626,-0.0123 -0.3071056,-0.0236 -0.039907,-0.004 -0.078035,-0.0213 -0.1181176,-0.0236 -0.1100527,-0.006 -0.220486,0 -0.3307292,0 -0.07087,0 -0.141741,0 -0.2126115,0 -0.023625,0 -0.047364,0.002 -0.070871,0 -0.1662144,-0.0166 -0.3300722,-0.0524 -0.4960937,-0.0709 -0.031306,-0.003 -0.063029,10e-4 -0.094494,0 -0.1418132,-0.006 -0.283754,-0.0118 -0.4252233,-0.0236 -0.047733,-0.004 -0.093916,-0.021 -0.1417409,-0.0236 -0.094349,-0.005 -0.1889882,0 -0.2834823,0 -0.062996,0 -0.1262097,0.005 -0.1889882,0 -0.032355,-0.003 -0.062996,-0.0158 -0.094494,-0.0236 -0.094494,0 -0.189172,0.006 -0.2834819,0 -0.032404,-0.002 -0.06209,-0.0216 -0.094494,-0.0236 -0.09431,-0.006 -0.1892462,0.007 -0.2834823,0 -0.7535437,-0.10047 0.020571,-0.0131 -0.6614582,-0.0473 -0.115537,-0.006 -0.2972798,-0.0548 -0.4015997,-0.0709 -0.023349,-0.004 -0.047247,0 -0.07087,0 -0.023624,0 -0.047247,0 -0.070871,0 -0.032696,0 -0.120885,-0.005 -0.141741,0 -0.010804,0.003 -0.01282,0.0209 -0.023624,0.0236 -0.022918,0.006 -0.048156,-0.006 -0.070871,0 -0.033861,0.01 -0.061797,0.0342 -0.094494,0.0472 -0.00731,0.003 -0.016153,-0.002 -0.023624,0 -0.016705,0.006 -0.030543,0.0181 -0.047247,0.0236 -0.00747,0.002 -0.018055,-0.006 -0.023624,0 -0.00557,0.006 -0.00249,0.0311 0,0.0236 0.010267,-0.0308 0.011566,-0.0643 0.023624,-0.0945 0.019618,-0.0491 0.055692,-0.0912 0.070871,-0.14174 0.00905,-0.0302 -0.0058,-0.0635 0,-0.0945 0.01795,-0.0957 0.053943,-0.18756 0.070871,-0.28348 0.00684,-0.0388 -0.00291,-0.0788 0,-0.11812 0.1495853,-1.64543 0.0164,-0.006 0.047247,-0.68508 0.013286,-0.29238 0.038478,-0.45795 0.047243,-0.75595 0.00394,-0.13381 0,-0.26774 0,-0.4016 0,-0.59059 0,-1.18118 0,-1.77177 0,-0.16536 0,-0.33073 0,-0.49609 0,-0.13387 -0.00461,-0.26781 0,-0.4016 0.00327,-0.0948 0.020114,-0.18873 0.023624,-0.28348 0.00437,-0.11804 -0.00437,-0.23632 0,-0.35435 0.013505,-0.36464 0.018871,-0.17455 0.047247,-0.44885 0.0179,-0.17303 0.029347,-0.34669 0.047247,-0.51972 0.00573,-0.0554 0.021884,-0.10971 0.023624,-0.16536 0.00615,-0.19677 0,-0.39373 0,-0.59059 0,-0.29923 0,-0.59846 0,-0.89769 0,-0.22049 0,-0.44098 0,-0.66146 0,-0.0787 0,-0.15749 0,-0.23624 0,-0.0787 0.00328,-0.15756 0,-0.23623 -0.0046,-0.11043 -0.017493,-0.22038 -0.023624,-0.33073 -0.00928,-0.16705 0.016241,-0.0325 0,-0.25986 -0.00397,-0.0555 -0.018582,-0.10991 -0.023624,-0.16537 -0.00285,-0.0314 0,-0.063 0,-0.0945 0,-0.0787 0,-0.15749 0,-0.23623 0,-0.0551 0,-0.11025 0,-0.16537 0,-0.0236 0.00463,-0.0477 0,-0.0709 -0.00345,-0.0173 -0.018786,-0.0303 -0.023624,-0.0472 -0.011031,-0.0386 -0.012593,-0.0795 -0.023623,-0.11811 -0.012874,-0.0451 -0.05222,-0.0609 -0.023624,-0.11812 0.00787,-0.0157 0.031498,-0.0157 0.047247,-0.0236 0.090062,-0.045 0.1236227,-0.0588 0.2126116,-0.11811 0.1272165,-0.0848 0.2507597,-0.17505 0.3779762,-0.25986 0.3779761,-0.25199 -0.3464781,0.28348 0.4724702,-0.28348 0.039922,-0.0276 0.5202335,-0.42987 0.5433409,-0.44885 0.1254421,-0.10304 0.2542852,-0.20197 0.3779761,-0.30711 0.03394,-0.0288 0.05787,-0.0691 0.094494,-0.0945 0.066657,-0.0462 0.1463775,-0.0714 0.2126114,-0.11812 0.4056312,-0.28633 0.00138,-0.0622 0.3307292,-0.25986 0.030197,-0.0181 0.062996,-0.0315 0.094494,-0.0472 0.07087,-0.0394 0.1435653,-0.0756 0.2126117,-0.11812 0.033532,-0.0206 0.059929,-0.052 0.094494,-0.0709 0.052648,-0.0287 0.1142902,-0.0394 0.1653646,-0.0709 0.052379,-0.0322 0.087749,-0.0887 0.141741,-0.11812 0.035249,-0.0192 0.082204,-0.006 0.1181174,-0.0236 0.1889882,-0.0945 0.1574903,-0.1155 0.2834823,-0.18899 0.070029,-0.0408 0.141438,-0.0793 0.2126115,-0.11812 0.015457,-0.008 0.032596,-0.0139 0.047247,-0.0236 0.118699,-0.0791 0.075342,-0.0731 0.2126115,-0.14174 0.00704,-0.004 0.015748,0 0.023625,0 0.023625,-0.0158 0.048157,-0.0302 0.07087,-0.0473 0.019783,-0.0148 0.051539,-0.0612 0.07087,-0.0709 0.032585,-0.0163 0.02113,0.0286 0.047247,-0.0236 0.00704,-0.0141 -0.00704,-0.0332 0,-0.0472 0.054058,-0.10812 -0.00979,0.10024 0.047247,-0.0709 0.00498,-0.0149 0,-0.0315 0,-0.0473 0,-0.0926 0.00678,-0.0573 -0.047247,-0.16536 z"
       id="path903"
       inkscape:connector-curvature="0" />
    <path
       style="fill:none;stroke:#000000;stroke-width:0.75;stroke-linecap:butt;stroke-linejoin:miter;stroke-opacity:1;stroke-miterlimit:4;stroke-dasharray:none"
       d="m 6.3074777,281.14861 c 0.023625,0.0472 0.054166,0.0916 0.07087,0.14174 0.00747,0.0224 -0.00156,0.0473 0,0.0709 0.00631,0.0946 0.01864,0.18879 0.023625,0.28348 0.0029,0.055 0,0.11024 0,0.16537 0,0.12599 0,0.25198 0,0.37797 0,0.0709 -0.00588,0.14199 0,0.21261 0.00206,0.0248 0.020103,0.0462 0.023625,0.0709 0.00446,0.0312 0,0.063 0,0.0945 0,0.063 -0.00483,0.12618 0,0.18899 0.00487,0.0633 0.017875,0.12576 0.023625,0.18898 0.00214,0.0235 0,0.0473 0,0.0709 0,0.0473 0,0.0945 0,0.14175 0,0.0945 0,0.18898 0,0.28348 0,0.27561 0,0.55121 0,0.82682 0,0.0315 -0.00446,0.0633 0,0.0945 0.00459,0.0322 0.017256,0.0627 0.023625,0.0945 0.00153,0.008 0,0.0158 0,0.0236 0,0.0394 0,0.0788 0,0.11812 0,0.063 0,0.12599 0,0.18899 0,0.0315 0,0.063 0,0.0945 0,0.008 0.00557,0.0181 0,0.0236 -1.257e-4,1.2e-4 -0.070081,-2e-4 -0.07087,0 -0.017082,0.004 -0.030543,0.0181 -0.047247,0.0236 -0.00747,0.002 -0.015902,-0.002 -0.023625,0 -0.031837,0.006 -0.062353,0.019 -0.094494,0.0236 -0.023386,0.003 -0.047247,0 -0.070871,0 -0.031498,0 -0.062996,0 -0.094494,0 -0.2441096,0 -0.4882192,0 -0.7323291,0 -0.6142111,0 -1.2284225,0 -1.8426337,0 -0.1968627,0 -0.3937254,0 -0.5905878,0 -0.08662,0 -0.1732391,0 -0.2598587,0 -0.023623,0 -0.047706,0.005 -0.07087,0 -0.017266,-0.003 -0.030165,-0.0194 -0.047247,-0.0236 -0.015279,-0.004 -0.031498,0 -0.047247,0 -0.039373,0 -0.078745,0 -0.1181176,0 -0.00787,0 -0.015902,0.002 -0.023624,0 -0.031498,-0.008 -0.062996,-0.0157 -0.094494,-0.0236 0,-0.008 0.00704,-0.0201 0,-0.0236 -0.019338,-0.01 -0.09311,0.008 -0.1181176,0 -0.016704,-0.006 -0.030165,-0.0194 -0.047247,-0.0236 -0.022918,-0.006 -0.047247,0 -0.070871,0"
       id="path905"
       inkscape:connector-curvature="0" />
    <path
       style="fill:none;stroke:#000000;stroke-width:0.75;stroke-linecap:butt;stroke-linejoin:miter;stroke-opacity:1;stroke-miterlimit:4;stroke-dasharray:none"
       d="m 7.9847468,283.69995 c 0.2204863,0.0157 0.4406731,0.0365 0.6614583,0.0472 0.1022472,0.005 0.2047373,0 0.3071059,0 0.2756074,0 0.5512152,0 0.8268229,0 0.3464781,0 0.6929561,0 1.0394341,0 0.283483,0 0.566965,0 0.850447,0 0.0315,0 0.06331,0.004 0.09449,0 0.0493,-0.007 0.09342,-0.0352 0.141741,-0.0472 0.0076,-0.002 0.01605,0.002 0.02362,0 0.04789,-0.0137 0.09343,-0.0352 0.141741,-0.0473 0.01528,-0.004 0.0315,0 0.04725,0 0.09449,0 0.189717,0.0117 0.283482,0 0.03494,-0.004 0.0618,-0.0342 0.09449,-0.0472 0.0073,-0.003 0.01575,0 0.02362,0 0.01575,0 0.0315,0 0.04725,0"
       id="path907"
       inkscape:connector-curvature="0" />
    <path
       style="fill:none;stroke:#000000;stroke-width:0.75;stroke-linecap:butt;stroke-linejoin:miter;stroke-opacity:1;stroke-miterlimit:4;stroke-dasharray:none"
       d="m 4.063244,286.58201 c 0.4246468,0.0238 0.8509434,-0.0206 1.2756695,0 0.2919714,0.0141 0.5827435,0.0469 0.8740701,0.0709 0.3780068,0.0311 0.7553428,0.0715 1.1339285,0.0945 0.5271447,0.0321 1.0552527,0.0457 1.5827753,0.0709 0.1339461,0.006 0.2677332,0.0158 0.4015996,0.0236 0.2204863,0.008 0.4410012,0.015 0.6614584,0.0236 0.1811456,0.007 0.3621186,0.0188 0.5433406,0.0236 0.118077,0.003 0.236235,0 0.354353,0 0.165364,0 0.330729,0 0.496094,0 0.125992,0 0.252304,0.009 0.377976,0 0.01756,-0.001 0.03032,-0.0188 0.04725,-0.0236 0.09349,-0.0267 0.09368,-0.0236 0.165364,-0.0236 0.06832,0 0.121422,0.003 0.188989,-0.0236 0.01034,-0.004 0.01366,-0.0186 0.02362,-0.0236 0.01394,-0.007 0.05462,0.005 0.07087,0 0.0167,-0.006 0.0326,-0.0138 0.04725,-0.0236 0.0093,-0.006 0.01306,-0.0201 0.02362,-0.0236 0.05512,-0.0184 0.04725,0.0249 0.04725,-0.0236"
       id="path909"
       inkscape:connector-curvature="0" />
    <path
       style="fill:none;stroke:#000000;stroke-width:0.75;stroke-linecap:butt;stroke-linejoin:miter;stroke-opacity:1;stroke-miterlimit:4;stroke-dasharray:none"
       d="m 3.047433,290.22004 c 0.055121,0 0.1107971,0.008 0.1653645,0 0.056751,-0.008 0.1102432,-0.0315 0.1653646,-0.0472 0.1574901,-0.0236 0.3143528,-0.0519 0.4724702,-0.0709 0.4878289,-0.0585 0.5490821,-0.0464 0.8976936,-0.0945 0.5703277,-0.0787 0.3225607,-0.0709 0.6614584,-0.0709 0.1259919,0 0.2525014,-0.0114 0.377976,0 0.088952,0.008 0.7030802,0.0937 0.921317,0.14174 0.3078158,0.0677 0.6132248,0.14616 0.921317,0.21262 0.093644,0.0202 0.1894578,0.0289 0.283482,0.0472 0.2288807,0.0447 0.455164,0.10277 0.6850819,0.14174 0.469949,0.0797 0.9472446,0.11063 1.4174108,0.18899 0.09608,0.016 0.186747,0.0595 0.283482,0.0709 0.17223,0.0203 0.346402,0.0177 0.519717,0.0236 0.05509,0.002 0.110243,0 0.165365,0 0.125992,0 0.251984,0 0.377976,0 0.133867,0 0.267733,0 0.4016,0 0.03937,0 0.07992,0.01 0.118117,0 0.0076,-0.002 0.0056,-0.0181 0,-0.0236 -0.0056,-0.006 -0.01575,0 -0.02362,0 -0.0315,0 -0.063,0 -0.09449,0"
       id="path911"
       inkscape:connector-curvature="0" />
    <path
       style="fill:none;stroke:#000000;stroke-width:0.75;stroke-linecap:butt;stroke-linejoin:miter;stroke-opacity:1;stroke-miterlimit:4;stroke-dasharray:none"
       d="m 3.4726562,293.76356 c 0.031498,0.008 0.06206,0.0222 0.094494,0.0236 0.084133,0.004 0.5448604,-0.002 0.6850819,0 0.3858773,0.006 0.7719851,0.007 1.1575521,0.0236 0.7012733,0.0305 1.4010494,0.0918 2.1024924,0.11812 0.5587526,0.021 1.1182643,0.0111 1.6772694,0.0236 0.4962194,0.0111 0.992082,0.0353 1.488281,0.0473 0.157445,0.004 0.31498,0 0.47247,0 0.259859,0 0.519718,0 0.779576,0 0.08662,0 0.17324,0 0.259859,0 0.063,0 0.125992,0 0.188988,0 0.02363,0 0.04725,0 0.07087,0 0.0079,0 0.01658,-0.004 0.02362,0 0.01,0.005 0.01575,0.0158 0.02362,0.0236"
       id="path913"
       inkscape:connector-curvature="0" />
  </g>
</svg>
