<?xml version="1.0" encoding="UTF-8" standalone="no"?>
<!-- Created with Inkscape (http://www.inkscape.org/) -->

<svg
   xmlns:dc="http://purl.org/dc/elements/1.1/"
   xmlns:cc="http://creativecommons.org/ns#"
   xmlns:rdf="http://www.w3.org/1999/02/22-rdf-syntax-ns#"
   xmlns:svg="http://www.w3.org/2000/svg"
   xmlns="http://www.w3.org/2000/svg"
   xmlns:sodipodi="http://sodipodi.sourceforge.net/DTD/sodipodi-0.dtd"
   xmlns:inkscape="http://www.inkscape.org/namespaces/inkscape"
   width="64"
   height="64"
   viewBox="0 0 16.933333 16.933334"
   version="1.1"
   id="svg8"
   inkscape:version="0.92.4 (5da689c313, 2019-01-14)"
   sodipodi:docname="Refine.svg">
  <defs
     id="defs2" />
  <sodipodi:namedview
     id="base"
     pagecolor="#ffffff"
     bordercolor="#666666"
     borderopacity="1.0"
     inkscape:pageopacity="0.0"
     inkscape:pageshadow="2"
     inkscape:zoom="5.6"
     inkscape:cx="30.264919"
     inkscape:cy="35.765422"
     inkscape:document-units="mm"
     inkscape:current-layer="layer1"
     showgrid="false"
     units="px"
     inkscape:window-width="1920"
     inkscape:window-height="1017"
     inkscape:window-x="-8"
     inkscape:window-y="-8"
     inkscape:window-maximized="1" />
  <metadata
     id="metadata5">
    <rdf:RDF>
      <cc:Work
         rdf:about="">
        <dc:format>image/svg+xml</dc:format>
        <dc:type
           rdf:resource="http://purl.org/dc/dcmitype/StillImage" />
        <dc:title></dc:title>
      </cc:Work>
    </rdf:RDF>
  </metadata>
  <g
     inkscape:label="Layer 1"
     inkscape:groupmode="layer"
     id="layer1"
     transform="translate(0,-280.06665)">
    <path
       style="fill:none;stroke:#000000;stroke-width:0.26458332px;stroke-linecap:butt;stroke-linejoin:miter;stroke-opacity:1"
       d="m 6.18936,292.03905 c 0.047247,-0.0787 0.1006726,-0.1541 0.141741,-0.23624 0.00789,-0.0158 0,-0.37181 0,-0.37798 0,-0.40947 0,-0.81894 0,-1.22842 0,-0.1108 0.011136,0.0223 -0.047247,-0.0945 -0.00704,-0.0141 0.00498,-0.0323 0,-0.0473 -0.011136,-0.0334 -0.036111,-0.0611 -0.047247,-0.0945 -0.00996,-0.0299 0.022273,-0.0722 0,-0.0945 -0.011136,-0.0111 -0.031498,0 -0.047247,0 0.1102431,-0.0157 0.2204862,-0.0315 0.3307293,-0.0472 0.031498,-0.0315 0.051663,-0.0823 0.094494,-0.0945 0.075715,-0.0216 0.1574901,0 0.2362352,0 0.110243,0 0.2204861,0 0.3307291,0 0.3149802,0 0.6299603,0 0.9449405,0 0.1732391,0 0.3464782,0 0.5197173,0 0.047247,0 0.094494,0 0.141741,0 0.031498,0 0.1221475,-0.0151 0.094494,0 -0.1979604,0.10796 -0.4094743,0.18895 -0.6142114,0.28342"
       id="path1400"
       inkscape:connector-curvature="0" />
    <path
       style="fill:none;stroke:#000000;stroke-width:0.26458332px;stroke-linecap:butt;stroke-linejoin:miter;stroke-opacity:1"
       d="m 8.2682288,290.00733 c 0.2047372,3e-5 0.4118599,-0.0311 0.6142117,9e-5 0.031131,0.005 -0.00391,0.0632 0,0.0945 0.052425,0.4194 0.047247,0.15321 0.047247,0.37797 0,0.31498 0,0.62996 0,0.94494 0,0.0144 -0.00951,0.33995 0,0.37798 0.00854,0.0342 0.036111,0.0611 0.047247,0.0945 0.00991,0.0297 0,0.19365 0,0.23624"
       id="path1402"
       inkscape:connector-curvature="0" />
    <path
       style="fill:none;stroke:#000000;stroke-width:0.26458332px;stroke-linecap:butt;stroke-linejoin:miter;stroke-opacity:1"
       d="m 8.2682288,290.00733 c 0.2677332,-0.0945 0.532461,-0.19792 0.8031996,-0.28339 0.030037,-0.009 0.062996,0 0.094494,0 0.1102431,0 0.2204863,0 0.3307291,0 0.3149801,0 0.6299605,0 0.9449405,0 0.09449,0 0.188988,0 0.283482,0 0.02128,0 0.127362,0.007 0.141741,0 0.0249,-0.0125 0.06959,-0.082 0.09449,-0.0945 0.0378,-0.0189 0.103944,0.0189 0.141742,0 0.01992,-0.01 0.02612,-0.0402 0.04725,-0.0473 0.04482,-0.0149 0.0945,0 0.141741,0 1e-6,0.37806 1e-6,0.22052 1e-6,0.47253 0,0.47247 0,0.94494 0,1.41741 0,0.14174 0,0.28348 0,0.42522 0,0.063 0,0.126 0,0.18899 0,0.0157 0.01575,0.0472 0,0.0472 -0.01575,0 0,-0.0315 0,-0.0472"
       id="path1404"
       inkscape:connector-curvature="0" />
    <path
       style="fill:none;stroke:#000000;stroke-width:0.26458332px;stroke-linecap:butt;stroke-linejoin:miter;stroke-opacity:1"
       d="m 11.292038,289.58214 c 0.14688,-0.0583 0.27344,-0.0472 0.425224,-0.0472 0.236235,0 0.47247,0 0.708705,0 0.07874,0 0.15749,0 0.236235,0 0.01575,0 0.03414,-0.009 0.04725,0 0.17515,0.11677 0.0087,0.0945 0.188988,0.0945 0.110243,0 0.220486,0 0.33073,0 0.04725,0 0.09449,0 0.14174,0 0.01575,0 0.04725,-0.0158 0.04725,0 0,0.0157 -0.0315,0 -0.04725,0 0.0315,0.11025 0.07201,0.21831 0.09449,0.33074 0.0093,0.0463 0,0.0945 0,0.14174 0,0.15749 0,0.31498 0,0.47247 0,0.25198 0,0.50397 0,0.75595 0,0.0945 0,0.18899 0,0.28348 0,0.0315 -0.0052,0.0634 0,0.0945 0.01068,0.0641 0.03657,0.12493 0.04725,0.18898 0.0052,0.0311 0,0.063 0,0.0945 0,0.063 0,0.12599 0,0.18899 0,0.0158 0,0.0315 0,0.0472 0,0.0158 -0.01462,0.0414 0,0.0473 0.07456,0.0299 0.15749,0.0316 0.236235,0.0474"
       id="path1406"
       inkscape:connector-curvature="0" />
    <path
       style="fill:none;stroke:#000000;stroke-width:0.26458332px;stroke-linecap:butt;stroke-linejoin:miter;stroke-opacity:1"
       d="m 8.2682288,290.00733 c 0.1889882,-0.15746 0.413285,-0.2803 0.5669645,-0.47238 0.049196,-0.0615 0,-0.15749 0,-0.23623 0,-0.0473 0,-0.0945 0,-0.14174 0,-0.45672 0,-0.91345 0,-1.37017 0,-0.0787 0,-0.15749 0,-0.23623 0,-0.0158 0.00498,-0.0323 0,-0.0473 -0.011136,-0.0334 -0.036111,-0.0611 -0.047247,-0.0945 -0.00996,-0.0299 0,-0.063 0,-0.0945 0,-0.0315 0,-0.063 0,-0.0945 0,-0.0158 -0.015748,-0.0473 0,-0.0473 0.015748,0 -0.013356,0.0389 0,0.0473 0.2451677,0.15322 0.5039675,0.28345 0.7559513,0.42518"
       id="path1408"
       inkscape:connector-curvature="0" />
    <path
       style="fill:none;stroke:#000000;stroke-width:0.26458332px;stroke-linecap:butt;stroke-linejoin:miter;stroke-opacity:1"
       d="m 9.5438975,287.64496 c -0.3149799,-0.15745 -0.6198743,-0.33695 -0.9449393,-0.47236 -0.07269,-0.0303 -0.15749,0 -0.2362351,0 -0.2047372,0 -0.4094741,0 -0.6142114,0 -0.220486,0 -0.440972,0 -0.6614583,0 -0.049133,0 -0.2463168,-0.009 -0.283482,0 -0.034165,0.009 -0.061085,0.0361 -0.094494,0.0473 -0.026048,0.009 -0.1788869,-0.0101 -0.1889881,0 -0.011136,0.0111 0.011136,0.0361 0,0.0473 -0.011136,0.0111 -0.033161,-0.007 -0.047247,0 -0.01992,0.01 -0.031498,0.0315 -0.047247,0.0472 -0.015748,0.0157 -0.031498,0.0315 -0.047247,0.0472 -1e-7,0.50397 -1e-7,1.00793 -1e-7,1.5119 0,0.14174 0,0.28348 0,0.42522 0,0.0929 -0.028536,0.25494 0.047247,0.33073 0.011136,0.0111 0.036111,-0.0111 0.047247,0 0.00472,0.005 0.00472,0.13701 0,0.14174 -0.011136,0.0111 -0.033161,-0.007 -0.047247,0 -0.019921,0.01 -0.06717,0.0373 -0.047247,0.0473 0.042264,0.0211 0.094494,-2e-5 0.1417411,-3e-5"
       id="path1410"
       inkscape:connector-curvature="0" />
    <path
       style="fill:none;stroke:#000000;stroke-width:0.26458332px;stroke-linecap:butt;stroke-linejoin:miter;stroke-opacity:1"
       d="m 9.5438975,287.64496 c -0.094494,-0.15745 -0.2253983,-0.29815 -0.2834809,-0.47236 -0.015753,-0.0472 0.092616,0.0391 0.1417409,0.0473 0.046604,0.008 0.094494,0 0.1417413,0 0.2362351,0 0.4724702,0 0.7087052,0 0.125992,0 0.251984,0 0.377976,0 0.04725,0 0.09591,-0.0115 0.141741,0 0.02161,0.005 0.02564,0.0418 0.04725,0.0473 0.06111,0.0153 0.125992,0 0.188988,0 0.07874,0 0.15749,0 0.236236,0 0.0315,0 0.06299,0 0.09449,0 0.01575,0 0.04725,-0.0158 0.04725,0 0,0.0157 -0.04159,-0.0147 -0.04725,0 -0.07689,0.19997 -0.125983,0.40956 -0.188974,0.61434"
       id="path1412"
       inkscape:connector-curvature="0" />
    <path
       style="fill:none;stroke:#000000;stroke-width:0.26458332px;stroke-linecap:butt;stroke-linejoin:miter;stroke-opacity:1"
       d="m 11.150312,287.88144 c 0.09449,-0.11029 0.162658,-0.25026 0.283468,-0.33086 0.0393,-0.0262 0,0.0945 0,0.14174 0,0.12599 0,0.25198 0,0.37798 0,0.40947 0,0.81894 0,1.22842 0,0.063 0,0.12599 0,0.18899 0,0.0157 0,0.0315 0,0.0472 0,0.0158 0.01575,0.0473 0,0.0473 -0.01575,0 0,-0.0315 0,-0.0473 -0.04725,0.0157 -0.0945,0.0315 -0.141742,0.0472"
       id="path1414"
       inkscape:connector-curvature="0" />
    <path
       style="fill:none;stroke:#000000;stroke-width:0.26458332px;stroke-linecap:butt;stroke-linejoin:miter;stroke-opacity:1"
       d="m 11.150312,287.88144 c 0.157485,-0.23628 0.304559,-0.47984 0.472456,-0.70884 0.0093,-0.0127 0.0315,0 0.04725,0 0.0315,0 0.063,0 0.09449,0 0.063,0 0.125992,0 0.188988,0 0.173239,0 0.346478,0 0.519717,0 0.04124,0 0.264846,-0.006 0.283482,0 0.05387,0.018 0.08787,0.0765 0.141741,0.0945 0.04482,0.0149 0.09541,-0.009 0.141741,0 0.03453,0.007 0.06109,0.0361 0.09449,0.0472 0.03803,0.0127 0.158797,-0.0151 0.188989,0 0.01992,0.01 0.02872,0.0349 0.04725,0.0472 0.0293,0.0195 0.063,0.0315 0.09449,0.0473 -0.02946,0.20625 -0.06769,0.36255 -0.04724,0.567 0.008,0.0799 0.03926,0.15633 0.04725,0.23624 0.0078,0.0784 0,0.15749 0,0.23623 0,0.11025 0,0.22049 0,0.33073 0,0.15749 0,0.31498 0,0.47247 0,0.063 0.01235,0.12722 0,0.18899 -0.0069,0.0345 -0.03871,0.0603 -0.04725,0.0945 -0.0076,0.0306 0,0.063 0,0.0945 0,0.0157 0.01575,0.0472 0,0.0472 -0.02227,0 -0.0315,-0.0315 -0.04725,-0.0473"
       id="path1416"
       inkscape:connector-curvature="0" />
    <path
       style="fill:none;stroke:#000000;stroke-width:0.26458332px;stroke-linecap:butt;stroke-linejoin:miter;stroke-opacity:1"
       d="m 6.3783482,287.3616 c -0.031498,-0.17324 -0.076061,-0.34461 -0.094494,-0.51973 -0.01319,-0.1253 0,-0.25198 0,-0.37797 0,-0.126 0,-0.25199 0,-0.37798 0,-0.48822 0,-0.97644 0,-1.46466 0.094494,-0.0473 0.1845614,-0.10464 0.2834821,-0.14174 0.029493,-0.0111 0.062996,0 0.094494,0 0.078745,0 0.15749,0 0.2362351,0 0.2992311,0 0.5984623,0 0.8976934,0 0.1102431,0 0.2204861,0 0.3307292,0 0.040944,0 0.1616191,-0.009 0.1889881,0 0.033409,0.0111 0.061085,0.0361 0.094494,0.0473 0.029882,0.01 0.064612,-0.01 0.094494,0 0.033409,0.0111 0.062996,0.0315 0.094494,0.0473 4e-7,0.83466 2e-7,1.66933 2e-7,2.50399"
       id="path1418"
       inkscape:connector-curvature="0" />
    <path
       style="fill:none;stroke:#000000;stroke-width:0.26458332px;stroke-linecap:butt;stroke-linejoin:miter;stroke-opacity:1"
       d="m 8.598958,284.57412 c 0.095489,0.0318 0.1401154,0.0632 0.2362353,0.0471 0.064051,-0.0107 0.1249368,-0.0366 0.1889882,-0.0472 0.03107,-0.005 0.062996,0 0.094494,0 0.1259919,0 0.2519841,0 0.377976,0 0.3307292,0 0.6614585,0 0.9921875,0 0.141741,0 0.283482,0 0.425223,0 0.03804,0 0.159334,0.01 0.188989,0 0.16287,-0.0543 0.035,-0.0473 0.141741,-0.0473 0,0.39365 0,0.22059 0,0.51977 0,0.0472 -0.0093,0.0954 0,0.14174 0.0069,0.0345 0.04336,0.0595 0.04725,0.0945 0.01217,0.10957 0,0.22049 0,0.33073 0,0.063 0,0.12599 0,0.18899 0,0.37797 0,0.75595 0,1.13393"
       id="path1420"
       inkscape:connector-curvature="0" />
    <path
       style="fill:none;stroke:#000000;stroke-width:0.26458332px;stroke-linecap:butt;stroke-linejoin:miter;stroke-opacity:1"
       d="m 11.244792,284.52672 c 0.063,-0.0315 0.120664,-0.0774 0.188988,-0.0944 0.180524,-0.0451 0.300096,0.0514 0.47247,0.0945 0.03056,0.008 0.063,0 0.09449,0 0.07875,0 0.15749,0 0.236235,0 0.01575,0 0.03197,-0.004 0.04725,0 0.04832,0.0121 0.09224,0.0417 0.141741,0.0473 0.09392,0.0104 0.188988,0 0.283482,0 0.063,0 0.125992,0 0.188988,0 0.267734,0 0.535467,0 0.8032,0 -0.162463,0.59558 -0.14174,0.34008 -0.14174,0.75585 0,0.0945 -0.0169,0.19051 0,0.28348 0.01517,0.0834 0.07392,0.15396 0.09449,0.23624 0.01146,0.0458 0,0.0945 0,0.14174 0,0.17324 0,0.34647 0,0.51971 0,0.0472 0,0.0945 0,0.14175 0,0.063 -0.0089,0.12662 0,0.18898 0.007,0.0493 0.03357,0.0939 0.04725,0.14174 0.05107,0.17874 0.04725,0.13025 0.04725,0.23624 0,0.0654 3.6e-4,0.18893 0,0.18899 -0.09321,0.0155 -0.188992,-3e-5 -0.283488,-4e-5"
       id="path1422"
       inkscape:connector-curvature="0" />
    <path
       style="fill:none;stroke:#000000;stroke-width:0.26458332px;stroke-linecap:butt;stroke-linejoin:miter;stroke-opacity:1"
       d="m 13.748884,292.32265 c 0.174922,-0.0258 -0.0437,-0.1708 0,-0.23636 0.02471,-0.0371 0.063,-0.063 0.09449,-0.0945 0.04725,-0.0473 0.100001,-0.0896 0.141741,-0.14174 0.022,-0.0275 0.02235,-0.0696 0.04725,-0.0945 0.01114,-0.0111 0.03316,0.007 0.04725,0 0.01992,-0.01 0.02943,-0.0339 0.04725,-0.0472 0.04543,-0.0341 0.09631,-0.0604 0.141741,-0.0945 0.07033,-0.0527 0.115869,-0.14024 0.188988,-0.18899 0.0131,-0.009 0.03316,0.007 0.04725,0 0.196631,-0.0983 -0.05051,0.003 0.04725,-0.0945 0.01114,-0.0111 0.03611,0.0111 0.04725,0 0.01114,-0.0111 -0.01114,-0.0361 0,-0.0472 0.05755,-0.0575 0.10556,-0.0221 0.141741,-0.0945 0.01409,-0.0282 -0.02227,-0.0722 0,-0.0945 0.0249,-0.0249 0.06959,-0.0224 0.09449,-0.0473 0.184393,-0.18439 -0.01094,-0.0254 0.04725,-0.14174 0.09832,-0.19663 -0.0033,0.0505 0.09449,-0.0473 0.01114,-0.0111 -0.01114,-0.0361 0,-0.0473 0.01114,-0.0111 0.03611,0.0111 0.04725,0 0.01114,-0.0111 -0.007,-0.0332 0,-0.0472 0.01,-0.0199 0.0315,-0.0315 0.04725,-0.0472 -2e-5,-0.33073 -1.4e-5,-0.66145 -1.4e-5,-0.99218 0,-0.054 0.01077,-0.25656 0,-0.28348 -0.02616,-0.0654 -0.07222,-0.12217 -0.09449,-0.18899 -0.0092,-0.0276 0,-0.24293 0,-0.28348 0,-0.0157 0.01114,-0.0361 0,-0.0472 -0.01114,-0.0111 -0.03611,0.0111 -0.04725,0 -0.01114,-0.0111 0,-0.0315 0,-0.0472 0,-0.0157 0,-0.0315 0,-0.0472 0,-0.12599 0,-0.25199 0,-0.37798"
       id="path1426"
       inkscape:connector-curvature="0" />
    <path
       style="fill:none;stroke:#000000;stroke-width:0.26458332px;stroke-linecap:butt;stroke-linejoin:miter;stroke-opacity:1"
       d="m 13.37091,289.62944 c 0.904271,-0.38753 0.143212,-0.0129 0.377974,-0.18898 0.04543,-0.0341 0.0974,-0.059 0.141741,-0.0945 0.03478,-0.0278 0.05886,-0.0678 0.09449,-0.0945 0.02817,-0.0211 0.06959,-0.0223 0.09449,-0.0472 0.0249,-0.0249 0.02612,-0.0663 0.04725,-0.0945 0.02673,-0.0356 0.063,-0.063 0.09449,-0.0945 0.01575,-0.0158 0.02733,-0.0373 0.04725,-0.0473 0.01409,-0.007 0.03611,0.0111 0.04725,0 0.0249,-0.0249 0.02235,-0.0696 0.04725,-0.0945 0.0249,-0.0249 0.06519,-0.0277 0.09449,-0.0472 0.03706,-0.0247 0.05465,-0.0746 0.09449,-0.0945 0.01409,-0.007 0.03611,0.0111 0.04725,0 0.01114,-0.0111 -0.01114,-0.0361 0,-0.0472 0.01114,-0.0111 0.03414,0.009 0.04725,0 0.03706,-0.0247 0.05886,-0.0678 0.09449,-0.0945 0.02817,-0.0211 0.06519,-0.0277 0.09449,-0.0472 0.01853,-0.0124 0.03729,-0.0273 0.04725,-0.0473 0.007,-0.0141 -0.01409,-0.0402 0,-0.0473 0.02817,-0.0141 0.063,-9e-5 0.09449,0 0.01575,5e-5 -0.0315,9e-5 -0.04725,1.4e-4 0.05478,-0.20729 0.04726,-0.4056 0.04726,-0.61434 0,-0.33073 0,-0.66146 0,-0.99219 0,-0.11024 0,-0.22048 0,-0.33073 0,-0.0157 0,-0.0315 0,-0.0472 0,-0.0158 -0.01575,-0.0473 0,-0.0473 0.01575,0 0,0.0315 0,0.0473"
       id="path1428"
       inkscape:connector-curvature="0" />
    <path
       style="fill:none;stroke:#000000;stroke-width:0.26458332px;stroke-linecap:butt;stroke-linejoin:miter;stroke-opacity:1"
       d="m 13.465398,287.4088 c 0.474867,-0.26377 0.290317,-0.14626 0.566968,-0.33069 0.04725,-0.0315 0.0974,-0.059 0.141741,-0.0945 0.06957,-0.0557 0.114861,-0.13957 0.188988,-0.18898 0.0586,-0.0391 0.132643,-0.0522 0.188988,-0.0945 0.0126,-0.009 0,-0.0315 0,-0.0473 0.01575,-0.0157 0.02872,-0.0349 0.04725,-0.0472 0.04316,-0.0288 0.114659,-0.0403 0.141741,-0.0945 0.007,-0.0141 -0.01409,-0.0402 0,-0.0472 0.02817,-0.0141 0.06461,0.01 0.09449,0 0.147473,-0.0492 -0.01575,-0.0315 0.04725,-0.0945 0.04666,-0.0466 0.06999,0.0455 0.09449,0.0945 0.0315,-0.0945 0.07034,-0.18687 0.0945,-0.28352 0.0076,-0.0306 0,-0.063 0,-0.0945 0,-0.063 0,-0.12599 0,-0.18899 0,-0.0472 0,-0.0945 0,-0.14174 0,-0.0473 0.0067,-0.095 0,-0.14174 -0.0092,-0.0643 -0.03451,-0.12531 -0.04725,-0.18899 -0.0031,-0.0154 0,-0.0315 0,-0.0472 0,-0.0473 0,-0.0945 0,-0.14175 0,-0.20473 0,-0.40947 0,-0.61421 0,-0.0347 0.0082,-0.26701 0,-0.28348 -0.01,-0.0199 -0.03729,-0.0273 -0.04725,-0.0473 -0.0062,-0.0124 0,-0.16428 0,-0.18898 0,-0.14175 0,-0.28349 0,-0.42523 -0.260828,0.0435 -0.250398,0.002 -0.425221,0.14176 -0.03478,0.0278 -0.063,0.063 -0.09449,0.0945 -0.01575,0.0158 -0.02612,0.0402 -0.04725,0.0472 -0.02988,0.01 -0.06748,-0.0162 -0.09449,0 -0.0573,0.0344 -0.08829,0.10166 -0.141741,0.14175 -0.0782,0.0587 -0.02383,-0.0941 -0.09449,0.0472 -0.007,0.0141 0.01114,0.0361 0,0.0472 -0.003,0.003 -0.180187,0.0886 -0.188988,0.0945 -0.01853,0.0124 -0.0315,0.0315 -0.04725,0.0473 -0.01575,0.0157 -0.03729,0.0273 -0.04725,0.0472 -0.007,0.0141 0.01114,0.0361 0,0.0472 -0.01114,0.0111 -0.03316,-0.007 -0.04725,0 -0.01992,0.01 -0.0315,0.0315 -0.04725,0.0472 -0.01575,0.0158 -0.04725,0.025 -0.04725,0.0473 0,0.0223 0.0315,0.0316 0.04725,0.0473"
       id="path1430"
       inkscape:connector-curvature="0" />
    <path
       style="fill:none;stroke:#000000;stroke-width:0.26458332px;stroke-linecap:butt;stroke-linejoin:miter;stroke-opacity:1"
       d="m 14.930061,288.44841 c 0.261406,-0.0202 0.213311,-0.13042 0.425221,-0.23637 0.01409,-0.007 0.03611,0.0111 0.04725,0 0.0249,-0.0249 0.02235,-0.0696 0.04725,-0.0945 0.08002,-0.08 0.15622,-0.0145 0.236235,-0.0945 0.01114,-0.0111 -0.01114,-0.0361 0,-0.0473 0.01114,-0.0111 0.0315,0 0.04725,0 0.01575,-0.0315 0.02235,-0.0696 0.04725,-0.0945 0.01114,-0.0111 0.03611,0.0111 0.04725,0 0.01114,-0.0111 -0.01114,-0.0361 0,-0.0472 0.01114,-0.0111 0.03611,0.0111 0.04725,0 0.01114,-0.0111 -0.01409,-0.0402 0,-0.0473 0.02817,-0.0141 0.07222,0.0223 0.09449,0 0.02227,-0.0223 -0.01409,-0.0663 0,-0.0945 0.007,-0.0141 0.03316,0.007 0.04725,0 0.01992,-0.01 0.03489,-0.0287 0.04725,-0.0473 0.01953,-0.0293 0.02235,-0.0696 0.04725,-0.0945 0.01114,-0.0111 0.03316,0.007 0.04725,0 0.01992,-0.01 0.0315,-0.0315 0.04725,-0.0473 0.01575,-0.0158 0.03729,-0.0273 0.04725,-0.0473 0.007,-0.0141 -0.01575,-0.0472 0,-0.0472 0.01575,0 -0.01409,0.0543 0,0.0472 0.03984,-0.0199 0.06978,-0.0574 0.09449,-0.0945 0.01747,-0.0262 -0.03102,-0.089 0,-0.0945 0.265474,-0.0469 0.535461,-0.0631 0.803192,-0.0946"
       id="path1432"
       inkscape:connector-curvature="0" />
    <path
       style="fill:none;stroke:#000000;stroke-width:0.26458332px;stroke-linecap:butt;stroke-linejoin:miter;stroke-opacity:1"
       d="m 17.150662,287.17253 c -0.220484,0.0945 -0.446898,0.17625 -0.661451,0.28355 -0.01409,0.007 0,0.0315 0,0.0473 0,0.0157 -0.007,0.0332 0,0.0473 0.01,0.0199 0.04184,0.0256 0.04725,0.0472 0.01528,0.0611 0,0.12599 0,0.18898 0,0.46256 0,1.1043 0,1.41741 0.02795,0.27886 -0.228067,0.18077 -0.330732,0.28344 -0.01114,0.0111 0.0087,0.0341 0,0.0472 -7.85e-4,0.001 -0.168699,0.17885 -0.188988,0.18899 -0.01409,0.007 -0.03414,-0.009 -0.04725,0 -0.05559,0.0371 -0.08615,0.10468 -0.141741,0.14174 -0.0293,0.0195 -0.06519,0.0277 -0.09449,0.0473 -0.04301,0.0287 -0.09986,0.1208 -0.141741,0.14174 -0.01409,0.007 -0.03316,-0.007 -0.04725,0 -0.196631,0.0983 0.05051,-0.003 -0.04725,0.0945 -0.04015,0.0402 -0.09095,0.0691 -0.141741,0.0945 -0.01409,0.007 -0.03611,-0.0111 -0.04725,0 -0.01114,0.0111 0.007,0.0332 0,0.0473 -0.01992,0.0398 -0.07457,0.0546 -0.09449,0.0945 -0.007,0.0141 0.007,0.0332 0,0.0473 -0.01,0.0199 -0.0315,0.063 -0.04725,0.0472 -0.01575,-0.0157 0.05552,-0.0679 0.04725,-0.0472 -0.03923,0.0981 -0.09449,0.18898 -0.141727,0.28347"
       id="path1434"
       inkscape:connector-curvature="0" />
    <path
       style="fill:none;stroke:#000000;stroke-width:0.26458332px;stroke-linecap:butt;stroke-linejoin:miter;stroke-opacity:1"
       d="m 14.977304,286.46393 c 0.06925,-0.009 -0.07142,-0.34614 0.04725,-0.42526 0.02621,-0.0175 0.063,0 0.09449,0 0.01575,-0.0315 0.02525,-0.067 0.04725,-0.0945 0.287159,-0.35895 0.04327,-0.0932 0.188987,-0.14174 0.03341,-0.0111 0.06959,-0.0224 0.09449,-0.0472 0.01114,-0.0111 -0.01114,-0.0361 0,-0.0473 0.01114,-0.0111 0.0315,0 0.04725,0 0.01575,-0.0315 0.02235,-0.0696 0.04725,-0.0945 0.01114,-0.0111 0.03316,0.007 0.04725,0 0.0503,-0.0251 0.0442,-0.0693 0.09449,-0.0945 0.01409,-0.007 0.03316,0.007 0.04725,0 0.01992,-0.01 0.02733,-0.0373 0.04725,-0.0473 0.01409,-0.007 0.03316,0.007 0.04725,0 0.01992,-0.01 0.02733,-0.0373 0.04725,-0.0472 0.01409,-0.007 0.03611,0.0111 0.04725,0 0.01114,-0.0111 -0.01114,-0.0361 0,-0.0472 0.02227,-0.0223 0.06632,0.0141 0.09449,0 0.01992,-0.01 0.02733,-0.0373 0.04725,-0.0473 0.01409,-0.007 0.03316,0.007 0.04725,0 0.03984,-0.0199 0.05465,-0.0746 0.09449,-0.0945 0.139039,-0.0695 -0.06221,0.10946 0.09449,-0.0472 0.01575,-0.0157 0.0315,-0.0315 0.04725,-0.0472 0.01575,-0.0158 0.02733,-0.0373 0.04725,-0.0473 0.01409,-0.007 0.03611,0.0111 0.04725,0 0.01114,-0.0111 0.01575,-0.0472 0,-0.0472 -0.02227,0 -0.0315,0.0315 -0.04725,0.0472 0.04724,0.11024 0.107266,0.21585 0.141727,0.33073 0.01357,0.0453 0,0.0945 0,0.14174 0,0.0788 0,0.15749 0,0.23624 0,0.0315 -0.0062,0.0636 0,0.0945 0.01273,0.0637 0.03451,0.12532 0.04725,0.18899 0.0093,0.0463 0,0.0945 0,0.14174 0,0.063 0,0.12599 0,0.18899 0,0.18899 0,0.37798 0,0.56696 0,0.11025 0,0.22049 0,0.33073 0,0.0315 -0.03056,0.10214 0,0.0945 0.198625,-0.0497 0.377971,-0.15754 0.566957,-0.23631"
       id="path1436"
       inkscape:connector-curvature="0" />
    <path
       style="fill:none;stroke:#000000;stroke-width:0.26458332px;stroke-linecap:butt;stroke-linejoin:miter;stroke-opacity:1"
       d="m 14.977304,283.6763 c 0.177982,0.007 0.172297,-0.20933 0.283484,-0.28346 0.0293,-0.0195 0.063,-0.0315 0.09449,-0.0472 0.0315,-0.0157 0.06959,-0.0223 0.09449,-0.0472 0.01114,-0.0111 -0.01114,-0.0361 0,-0.0473 0.0249,-0.0249 0.06519,-0.0277 0.09449,-0.0473 0.01853,-0.0123 0.02733,-0.0373 0.04725,-0.0472 0.01409,-0.007 0.03414,0.009 0.04725,0 0.03706,-0.0247 0.05743,-0.0698 0.09449,-0.0945 0.0131,-0.009 0.03316,0.007 0.04725,0 0.01992,-0.01 0.02733,-0.0373 0.04725,-0.0473 0.01409,-0.007 0.03316,0.007 0.04725,0 0.05079,-0.0254 0.09095,-0.0691 0.141741,-0.0945 0.116367,-0.0582 -0.04265,0.13715 0.141741,-0.0473 0.01114,-0.0111 -0.01114,-0.0361 0,-0.0472 0.0249,-0.0249 0.063,-0.0315 0.09449,-0.0472 0.0315,-0.0315 0.063,-0.063 0.09449,-0.0945 0.0315,0.14174 0.06602,0.28284 0.0945,0.42522 0.0031,0.0154 0,0.0315 0,0.0473 0,0.11024 0,0.22048 0,0.33072 0,0.15749 0,0.31498 0,0.47247 0,0.0456 -0.01109,0.29747 0,0.33073 0.02682,0.0805 0.0712,0.15469 0.09449,0.23624 0.0087,0.0303 0,0.063 0,0.0945 0,0.0315 0,0.063 0,0.0945 0,0.14174 0,0.28348 0,0.42522 0,0.0472 0,0.0945 0,0.14174 0,0.0158 0.01575,0.0473 0,0.0473 -0.01575,0 0.0081,-0.0337 0,-0.0473 -0.04051,-0.0675 -0.09448,-0.12599 -0.141727,-0.18899"
       id="path1438"
       inkscape:connector-curvature="0" />
    <path
       style="fill:none;stroke:#000000;stroke-width:0.26458332px;stroke-linecap:butt;stroke-linejoin:miter;stroke-opacity:1"
       d="m 6.18936,292.03905 c 0.094494,-0.0157 0.1884243,-0.0354 0.2834823,-0.0472 0.031255,-0.004 0.062996,0 0.094494,0 0.078745,0 0.1574901,0 0.2362351,0 0.1102429,0 0.220486,0 0.3307292,0 0.299231,0 0.5984623,0 0.8976934,0 1.1496775,0 2.299355,0 3.449033,0 0.47247,0 0.94494,0 1.41741,0 0.09449,0 0.188989,0 0.283483,0 0.0315,0 0.063,0 0.09449,0 0.01575,0 0.04725,-0.0158 0.04725,0 0,0.0157 -0.0315,0 -0.04725,0 0.157491,0.11028 0.314981,0.22057 0.472471,0.33085"
       id="path1440"
       inkscape:connector-curvature="0" />
    <path
       style="fill:none;stroke:#000000;stroke-width:0.26458332px;stroke-linecap:butt;stroke-linejoin:miter;stroke-opacity:1"
       d="m 16.914437,294.02339 c -0.267733,0 -0.535466,0 -0.803199,0 -0.063,0 -0.125988,0 -0.188988,0 -0.04725,0 -0.09541,-0.009 -0.141741,0 -0.06367,0.0128 -0.125318,0.0346 -0.188988,0.0473 -0.04633,0.009 -0.09449,0 -0.141741,0 -0.110243,0 -0.220486,0 -0.33073,0 -0.01575,0 -0.03181,-0.003 -0.04725,0 -0.06367,0.0127 -0.124708,0.0382 -0.188988,0.0472 -0.04677,0.007 -0.09449,0 -0.141741,0 -0.063,0 -0.125988,0 -0.188988,0 -0.15749,0 -0.31498,0 -0.47247,0 -0.409474,0 -0.818948,0 -1.228423,0 -1.228422,0 -2.456845,0 -3.6852674,0 -0.7717012,0 -1.5434027,0 -2.3151042,0 -0.2677332,0 -0.5354661,0 -0.8031993,0 -0.062996,0 -0.1259922,0 -0.1889882,0 -0.031498,0 -0.063425,0.005 -0.094494,0 -0.064051,-0.0106 -0.1247059,-0.0382 -0.1889879,-0.0472 -0.046772,-0.007 -0.095619,0.0102 -0.1417413,0 -0.097234,-0.0216 -0.185035,-0.0794 -0.283482,-0.0945 -0.1089612,-0.0168 -0.2210332,0.011 -0.3307292,0 -0.049555,-0.005 -0.09362,-0.0344 -0.1417412,-0.0472 -0.1882267,-0.0502 -0.3759428,-0.10354 -0.5669643,-0.14174 -0.046329,-0.009 -0.094494,0 -0.1417409,0 -0.1574901,0 -0.315444,0.0121 -0.4724702,0 -0.099312,-0.008 -0.1843713,-0.0845 -0.2834823,-0.0945 -0.1096959,-0.011 -0.2213374,0.0137 -0.3307291,0 -0.022101,-0.003 -0.031499,-0.0316 -0.047247,-0.0473 -0.2047372,-0.0315 -0.4094743,-0.063 -0.6142114,-0.0945 0.00643,-0.0112 0.2128003,-0.39001 0.2834822,-0.47247 0.057979,-0.0676 0.1319541,-0.12055 0.1889881,-0.18899 0.134139,-0.16096 -0.062367,-0.0359 0.141741,-0.18899 0.028173,-0.0211 0.069593,-0.0223 0.094494,-0.0472 0.011136,-0.0111 -0.00704,-0.0332 0,-0.0472 0.00996,-0.0199 0.033883,-0.0294 0.047247,-0.0473 0.03407,-0.0454 0.054342,-0.10159 0.094494,-0.14174 0.011136,-0.0111 0.036111,0.0111 0.047247,0 0.1171309,-0.11713 0.067175,-0.12438 0.141741,-0.23623 0.012355,-0.0185 0.033884,-0.0294 0.047247,-0.0473 0.03407,-0.0454 0.060424,-0.0963 0.094494,-0.14174 0.013364,-0.0178 0.031498,-0.0315 0.047247,-0.0473 0.074899,-0.0749 0.1684365,-0.15487 0.2362352,-0.23623 0.050411,-0.0605 0.092549,-0.1275 0.141741,-0.18899 0.027827,-0.0348 0.074573,-0.0547 0.094494,-0.0945 0.00704,-0.0141 0,-0.0315 0,-0.0472 0.015749,-0.0315 0.027713,-0.0652 0.047247,-0.0945 0.040594,-0.0609 0.1427669,-0.12736 0.1889881,-0.18898 0.03407,-0.0454 0.060424,-0.0963 0.094494,-0.14175 0.03968,-0.0529 0.1004096,-0.0901 0.1417411,-0.14174 0.049192,-0.0615 0.09255,-0.1275 0.1417411,-0.18898 0.013913,-0.0174 0.040204,-0.0261 0.047247,-0.0473 0.00996,-0.0299 -0.018899,-0.0693 0,-0.0945 0.03407,-0.0454 0.0974,-0.059 0.1417411,-0.0945 0.034784,-0.0278 0.062996,-0.063 0.094494,-0.0945 0.031498,-0.0315 0.067767,-0.0589 0.094494,-0.0945 0.1716227,-0.22883 -0.050017,0.003 0.094494,-0.14174 0.015749,-0.0157 0.031498,-0.0315 0.047247,-0.0472 0,-0.0158 -0.00874,-0.0341 0,-0.0472 0.035218,-0.0528 0.1375628,-0.13757 0.188988,-0.18899 0.015749,-0.0157 0.037287,-0.0273 0.047247,-0.0472 0.00704,-0.0141 -0.011136,-0.0361 0,-0.0473 0.011136,-0.0111 0.033161,0.007 0.047247,0 0.1966308,-0.0983 -0.050509,0.003 0.047247,-0.0945 0.011136,-0.0111 0.036111,0.0111 0.047247,0 0.011136,-0.0111 -0.011136,-0.0361 0,-0.0473 0.011136,-0.0111 0.036111,0.0111 0.047247,0 0.024901,-0.0249 0.022346,-0.0696 0.047247,-0.0945 0.011136,-0.0111 0.036111,0.0111 0.047247,0 0.011136,-0.0111 -0.011136,-0.0361 0,-0.0472 0.011136,-0.0111 0.036111,0.0111 0.047247,0 0.024901,-0.0249 0.022346,-0.0696 0.047247,-0.0945 0.011136,-0.0111 0.036111,0.0111 0.047247,0 0.011136,-0.0111 -0.011136,-0.0361 0,-0.0473 0.024901,-0.0249 0.061085,-0.0361 0.094494,-0.0472 0.014941,-0.005 0.036111,0.0111 0.047247,0 0.011136,-0.0111 -0.00704,-0.0332 0,-0.0472 0.00996,-0.0199 0.037286,-0.0273 0.047247,-0.0472 0.00704,-0.0141 -0.011136,-0.0361 0,-0.0473 0.024901,-0.0249 0.069593,-0.0223 0.094494,-0.0472 0.022273,-0.0223 -0.022272,-0.0722 0,-0.0945 0.011136,-0.0111 0.036111,0.0111 0.047247,0 0.011136,-0.0111 -0.011136,-0.0361 0,-0.0472 0.011136,-0.0111 0.031498,0 0.047247,0 0,-0.0157 -0.00704,-0.0332 0,-0.0472 0.00996,-0.0199 0.031498,-0.0315 0.047247,-0.0473 0.015749,-0.0157 0.031498,-0.063 0.047247,-0.0473 0.015749,0.0158 -0.031498,0.0315 -0.047247,0.0473"
       id="path1442"
       inkscape:connector-curvature="0" />
    <path
       style="fill:none;stroke:#000000;stroke-width:0.26458332px;stroke-linecap:butt;stroke-linejoin:miter;stroke-opacity:1"
       d="m 8.598958,284.57412 c 0.1259922,-0.11028 0.2519844,-0.22056 0.3779763,-0.33083 0.031498,-0.0158 0.067756,-0.0243 0.094494,-0.0473 0.644911,-0.55278 0.015269,-0.0942 0.3307291,-0.28348 0.1259922,-0.0787 0.2519842,-0.15749 0.3779764,-0.23624 0.015748,-0.0315 0.017947,-0.075 0.047247,-0.0945 0.070567,-0.0471 0.1629772,-0.0518 0.2362352,-0.0945 0.117023,-0.0683 0.2123,-0.17044 0.330729,-0.23623 0.02753,-0.0153 0.06554,0.0124 0.09449,0 0.08441,-0.0362 0.156503,-0.0962 0.236235,-0.14174 0.09173,-0.0524 0.191755,-0.0893 0.283482,-0.14174 0.0493,-0.0282 0.09244,-0.0663 0.141741,-0.0945 0.06115,-0.0349 0.127837,-0.0595 0.188989,-0.0945 0.09677,0.01 0.126495,-0.10008 0.188988,-0.14174 0.141741,-0.0945 0.09449,0 0.283482,-0.14174 0.0126,-0.009 -0.01409,-0.0402 0,-0.0473 0.02817,-0.0141 0.06525,0.0117 0.09449,0 0.0011,-4.3e-4 0.167538,-0.0988 0.188988,-0.14174 0.007,-0.0141 -0.01114,-0.0361 0,-0.0472 0.01114,-0.0111 0.03611,0.0111 0.04725,0 0.01114,-0.0111 -0.01114,-0.0361 0,-0.0473 0.01114,-0.0111 0.03231,0.005 0.04725,0 0.03341,-0.0111 0.06519,-0.0277 0.09449,-0.0472 0.04077,-0.0272 0.104837,-0.10484 0.141741,-0.14174 0.01575,-0.0157 0.0315,-0.0315 0.04725,-0.0472 0.01575,-0.0158 0.03729,-0.0273 0.04725,-0.0473 0.007,-0.0141 -0.007,-0.0332 0,-0.0472 0.01,-0.0199 0.03729,-0.0273 0.04725,-0.0473 0.007,-0.0141 -0.01114,-0.0361 0,-0.0472 0.01114,-0.0111 0.04725,-0.0158 0.04725,0 0,0.0157 -0.0315,0 -0.04725,0 0.110242,0.0473 0.21694,0.10384 0.330727,0.14178 0.02988,0.01 0.063,0 0.09449,0 0.125992,0 0.251984,0 0.377976,0 0.267733,0 0.535466,0 0.803199,0 0.363884,0 0.01431,-0.009 0.519717,0.0473 0.397372,0.0442 -0.613795,-0.16056 0.425224,0.0472 0.04884,0.01 0.09224,0.0417 0.141741,0.0472 0.09392,0.0104 0.188988,0 0.283482,0 0.04725,0 0.09541,-0.009 0.141741,0 0.06906,0.0138 0.122171,0.0722 0.188988,0.0945 0.0464,0.0155 0.251423,-0.016 0.283482,0 0.01409,0.007 -0.0054,0.0324 0,0.0472 0.05796,0.15942 0.125985,0.31499 0.188978,0.47248"
       id="path1446"
       inkscape:connector-curvature="0" />
    <path
       style="fill:none;stroke:#000000;stroke-width:0.26458332px;stroke-linecap:butt;stroke-linejoin:miter;stroke-opacity:1"
       d="m 11.244792,284.52672 c 0.07874,-0.0945 0.145224,-0.20071 0.236235,-0.28343 0.08404,-0.0764 0.190444,-0.12386 0.283482,-0.18899 0.06451,-0.0452 0.121924,-0.10047 0.188988,-0.14174 0.138093,-0.085 0.282876,-0.15859 0.425223,-0.23624 0.03092,-0.0169 0.06584,-0.0268 0.09449,-0.0472 0.08206,-0.0586 0.15967,-0.12337 0.236235,-0.18899 0.05073,-0.0435 0.08957,-0.1 0.141741,-0.14174 0.06149,-0.0492 0.128495,-0.0913 0.188988,-0.14174 0.03422,-0.0285 0.05971,-0.0667 0.09449,-0.0945 0.04434,-0.0355 0.09632,-0.0604 0.141741,-0.0945 0.03564,-0.0267 0.05465,-0.0746 0.09449,-0.0945 0.01409,-0.007 0.03316,0.007 0.04725,0 0.01992,-0.01 0.0315,-0.0315 0.04725,-0.0472 0.04725,-0.0472 0.09449,-0.0945 0.141741,-0.14174 0.01575,-0.0158 0.0315,-0.0315 0.04725,-0.0473 0.01575,-0.0157 0.02733,-0.0373 0.04725,-0.0473 0.04454,-0.0223 0.101899,-0.0174 0.141741,-0.0472 0.02817,-0.0211 0.01795,-0.075 0.04725,-0.0945 0.02621,-0.0175 0.06748,0.0162 0.09449,0 0.0573,-0.0344 0.08957,-0.1 0.141741,-0.14174 0.0275,-0.022 0.06959,-0.0223 0.09449,-0.0472 0.01114,-0.0111 -0.01114,-0.0361 0,-0.0473 0.04015,-0.0401 0.101589,-0.0543 0.141741,-0.0945 0.01114,-0.0111 -0.01114,-0.0361 0,-0.0472 0.01114,-0.0111 0.03611,0.0111 0.04725,0 0.063,-0.063 -0.07874,-0.0472 0.04725,-0.0472"
       id="path1448"
       inkscape:connector-curvature="0" />
    <path
       style="fill:none;stroke:#000000;stroke-width:0.26458332px;stroke-linecap:butt;stroke-linejoin:miter;stroke-opacity:1"
       d="m 6.2838541,284.62126 c 0.015748,-0.12599 0.022347,-0.25347 0.047247,-0.37797 0.026162,-0.13082 0.1916951,-0.23895 0.2834822,-0.33073 0.1248453,-0.12485 0.3200385,-0.34901 0.4724702,-0.42523 0.028173,-0.0141 0.066321,0.0141 0.094494,0 0.039842,-0.0199 0.05971,-0.0667 0.094494,-0.0945 0.088681,-0.0709 0.192628,-0.12085 0.2834822,-0.18899 0.017817,-0.0134 0.028149,-0.0358 0.047247,-0.0472 0.060395,-0.0362 0.1285934,-0.0583 0.1889882,-0.0945 0.019098,-0.0115 0.027326,-0.0373 0.047247,-0.0473 0.044545,-0.0223 0.101899,-0.0174 0.141741,-0.0472 0.028173,-0.0211 0.022347,-0.0696 0.047247,-0.0945 0.011136,-0.0111 0.032306,0.005 0.047247,0 0.033409,-0.0111 0.066321,-0.0261 0.094494,-0.0472 0.053454,-0.0401 0.086146,-0.10468 0.141741,-0.14174 0.029301,-0.0195 0.065193,-0.0277 0.094494,-0.0473 0.018531,-0.0124 0.031498,-0.0315 0.047247,-0.0473 0.031498,-0.0157 0.065193,-0.0277 0.094494,-0.0472 0.018531,-0.0124 0.028715,-0.0349 0.047247,-0.0472 0.023794,-0.1041 0.097196,-0.025 0.141741,-0.0473 0.01992,-0.01 0.028715,-0.0349 0.047247,-0.0473 0.029301,-0.0195 0.069593,-0.0223 0.094494,-0.0472 0.011136,-0.0111 -0.011136,-0.0361 0,-0.0473 0.011136,-0.0111 0.033161,0.007 0.047247,0 0.050789,-0.0254 0.096314,-0.0604 0.141741,-0.0945 0.017817,-0.0134 0.027326,-0.0373 0.047247,-0.0472 0.014086,-0.007 0.036111,0.0111 0.047247,0 0.011136,-0.0111 0,-0.0315 0,-0.0473 0.031498,-0.0157 0.061085,-0.0361 0.094494,-0.0472 0.087275,-0.0291 0.0224,0.0721 0.1417409,-0.0472 0.011136,-0.0111 -0.011136,-0.0361 0,-0.0472 0.011136,-0.0111 0.034143,0.009 0.047247,0 0.052827,-0.0352 0.1375627,-0.13756 0.1889879,-0.18899 0.015748,-0.0158 0.027326,-0.0373 0.047247,-0.0473 0.014086,-0.007 0.036111,0.0111 0.047247,0 0.011136,-0.0111 -0.00704,-0.0332 0,-0.0472 0.031498,-0.063 0.1762839,-0.11177 0.2362351,-0.14174 0.6614592,-1.1e-4 1.3229172,-6e-5 1.9843762,-6e-5 0.110243,0 0.220486,0 0.330729,0 0.01575,0 0.0315,0 0.04725,0 0.01575,0 0.03611,-0.0111 0.04725,0 0.07131,0.0713 0.125994,0.15746 0.188991,0.23619"
       id="path1450"
       inkscape:connector-curvature="0" />
    <path
       style="fill:none;stroke:#000000;stroke-width:0.26458332px;stroke-linecap:butt;stroke-linejoin:miter;stroke-opacity:1"
       d="m 8.4572167,282.5896 c -0.062996,0.063 -0.1673823,0.10259 -0.1889876,0.18903 -0.011456,0.0458 0.094494,0 0.141741,0 0.1417412,0 0.2834822,0 0.4252232,0 0.2992313,0 0.5984624,0 0.8976934,0 0.6772073,0 1.3544143,0 2.0316223,0 0.173239,0 0.346478,0 0.519717,0 0.04725,0 0.09449,0 0.141741,0 0.063,0 0.127873,-0.0153 0.188988,0 0.06833,0.0171 0.122171,0.0722 0.188988,0.0945 0.02988,0.01 0.063,0 0.09449,0 0.063,0 0.125993,0 0.188989,0 0.01575,0 0.03316,-0.007 0.04725,0 0.221852,0.11093 0.05944,0.071 0.236235,0.14174 0.02459,0.1105 0.133711,0.0288 0.188989,0.0473 0.06682,0.0223 0.123594,0.0683 0.188988,0.0945 0.02459,0.11049 0.13371,0.0288 0.188988,0.0472 0.03341,0.0111 0.06109,0.0361 0.09449,0.0473 0.01494,0.005 0.03316,-0.007 0.04725,0 0.01992,0.01 0.02612,0.0402 0.04725,0.0473 0.02988,0.01 0.063,0 0.09449,0 0.01575,0 0.03316,-0.007 0.04725,0 0.01992,0.01 0.02733,0.0373 0.04725,0.0472 0.01409,0.007 0.0315,0 0.04725,0 0.01575,0 0.0315,0 0.04725,0 0.01123,0 0.178399,-0.005 0.188988,0 0.01992,0.01 0.02733,0.0373 0.04725,0.0472 0.01409,0.007 0.0315,0 0.04725,0 0.01575,0 0.0315,0 0.04725,0 0.01257,0 0.13784,-0.008 0.141741,0 0.04454,0.0891 0.063,0.18897 0.09449,0.28346"
       id="path1452"
       inkscape:connector-curvature="0" />
    <path
       style="fill:none;stroke:#000000;stroke-width:0.26458332px;stroke-linecap:butt;stroke-linejoin:miter;stroke-opacity:1"
       d="m 11.292042,286.93638 c -0.01575,0 -0.04725,0.0157 -0.04725,-10e-6 4e-6,-0.0158 0.04021,-0.0141 0.04725,10e-6 0.04454,0.0891 0.06713,0.1877 0.09449,0.28347 0.0043,0.0151 0.005,0.0622 0,0.0473 -0.03626,-0.10877 -0.06299,-0.22048 -0.09449,-0.33072"
       id="path1454"
       inkscape:connector-curvature="0" />
    <path
       style="opacity:1;fill:#00ff00;fill-opacity:1;stroke:none;stroke-width:0.33745784;stroke-miterlimit:4;stroke-dasharray:none;stroke-dashoffset:0;stroke-opacity:1"
       d=""
       id="path1456"
       inkscape:connector-curvature="0"
       transform="matrix(0.26458333,0,0,0.26458333,0,280.06665)" />
    <path
       style="fill:none;stroke:#000000;stroke-width:0.26458332px;stroke-linecap:butt;stroke-linejoin:miter;stroke-opacity:1"
       d="m 17.150665,287.17254 c -0.07874,0.14176 -0.169135,0.27765 -0.236231,0.42529 -0.0045,0.01 0,0.22072 0,0.23623 0,0.12599 0,0.25198 0,0.37798 0,0.0472 -0.01494,0.0969 0,0.14174 0.007,0.0211 0.0402,0.0261 0.04725,0.0472 0.01494,0.0448 0,0.0945 0,0.14175 0,0.0787 0,0.15749 0,0.23623 0,0.0945 0,0.18899 0,0.28348 0,0.0473 0.01494,0.0969 0,0.14174 -0.007,0.0211 -0.04184,0.0256 -0.04725,0.0472 -0.01146,0.0458 0,0.0945 0,0.14174 0,0.0472 0,0.0945 0,0.14174 0,0.126 0,0.25199 0,0.37798 0,0.0787 0.0098,0.1581 0,0.23623 -0.0062,0.0494 -0.03748,0.0929 -0.04725,0.14175 -0.01235,0.0618 0.01367,0.12749 0,0.18898 -0.02487,0.11193 -0.07201,0.21831 -0.09449,0.33073 -0.0093,0.0463 0,0.0945 0,0.14174 0,0.126 0,0.25199 0,0.37798 0,0.17324 0,0.34648 0,0.51972 0,0.0787 -0.01295,0.15856 0,0.23623 0.0082,0.0491 0.03517,0.0934 0.04725,0.14174 0.01093,0.0437 0,0.24715 0,0.28349 0,0.12599 0,0.25198 0,0.37797 0,0.0787 0,0.15749 0,0.23624 0,0.0158 -0.0038,0.032 0,0.0472 0.01208,0.0483 0.03748,0.0929 0.04725,0.14175 0.01235,0.0618 0,0.12599 0,0.18898 0,0.0945 0,0.18899 0,0.28349 0,0.031 -0.0089,0.11509 0,0.14174 0.01114,0.0334 0.0315,0.063 0.04725,0.0945"
       id="path1462"
       inkscape:connector-curvature="0" />
    <path
       style="opacity:1;fill:#ac9393;fill-opacity:1;stroke:none;stroke-width:0.33745784;stroke-miterlimit:4;stroke-dasharray:none;stroke-dashoffset:0;stroke-opacity:1"
       d="m 20.264919,52.178941 c -0.540178,-0.137863 -1.230449,-0.254065 -1.533935,-0.258225 -0.303486,-0.0042 -1.165228,-0.164458 -1.914983,-0.356211 -0.749754,-0.191756 -1.907969,-0.346925 -2.573811,-0.34482 -0.665842,0.0021 -1.411243,-0.07145 -1.656446,-0.163452 -0.245204,-0.092 -0.970717,-0.222603 -1.612252,-0.290225 -0.641535,-0.06762 -1.2611739,-0.181503 -1.376975,-0.253073 -0.2809263,-0.173621 0.097066,-0.737 1.613381,-2.404662 0.655287,-0.720693 1.413864,-1.637906 1.685726,-2.03825 0.271862,-0.400344 0.956349,-1.221059 1.521081,-1.823811 0.564732,-0.602753 1.026786,-1.179734 1.026786,-1.282181 0,-0.102447 0.502232,-0.776236 1.116071,-1.49731 0.613839,-0.721073 1.558036,-1.85381 2.098214,-2.517193 0.540179,-0.663383 1.690491,-1.929236 2.55625,-2.813007 0.865759,-0.88377 1.687571,-1.768848 1.82625,-1.96684 0.138679,-0.197991 0.284848,-0.324654 0.32482,-0.281472 0.143925,0.15548 0.216986,2.489226 0.07793,2.489226 -0.07831,0 -0.142391,0.154018 -0.142391,0.342262 0,0.188244 -0.09367,0.373487 -0.208165,0.41165 -0.158504,0.05284 -0.158504,0.211842 0,0.666528 0.264217,0.757932 0.281907,6.322393 0.02165,6.808696 -0.138025,0.257902 -0.120344,0.442991 0.06801,0.711899 0.250612,0.357799 0.396236,0.363173 9.471613,0.34951 7.961988,-0.01199 9.273495,0.02308 9.631322,0.257541 0.36433,0.238718 0.455837,0.239946 0.759548,0.0102 0.273789,-0.207109 1.02958,-0.261824 3.648886,-0.264159 1.816964,-0.0016 3.383928,0.05609 3.482143,0.128249 0.09821,0.07216 0.267305,0.291303 0.375755,0.486992 0.272991,0.492579 1.204068,0.7368 1.790439,0.469633 0.383713,-0.174833 0.448518,-0.303368 0.381877,-0.757424 -0.07269,-0.495258 0.0392,-0.646923 1.185834,-1.607375 0.696352,-0.583286 1.416191,-1.198759 1.599641,-1.367718 0.537755,-0.495278 1.681052,-2.054496 2.211321,-3.015782 0.269966,-0.489399 0.900845,-1.245355 1.401956,-1.679902 1.942257,-1.684264 2.976409,-2.48651 3.205289,-2.48651 0.131093,0 0.363443,-0.178594 0.516334,-0.396876 0.228257,-0.325884 0.277982,-1.012648 0.277982,-3.839286 0,-1.893325 0.06027,-3.442418 0.133929,-3.442429 0.231985,-3.4e-5 0.09662,9.438506 -0.15494,10.803591 -0.265066,1.438373 -0.308101,5.389345 -0.108308,9.943777 l 0.138535,3.158062 -1.92425,0.102548 c -1.058339,0.0564 -10.482287,0.137634 -20.942109,0.180518 -15.927824,0.0653 -19.177436,0.03725 -20,-0.172685 z"
       id="path1464"
       inkscape:connector-curvature="0"
       transform="matrix(0.26458333,0,0,0.26458333,0,280.06665)" />
    <path
       style="opacity:1;fill:#d4aa00;fill-opacity:1;stroke:none;stroke-width:0.33745784;stroke-miterlimit:4;stroke-dasharray:none;stroke-dashoffset:0;stroke-opacity:1"
       d="m 34.331708,41.064935 c -0.04583,-1.841518 -0.115768,-3.46875 -0.155416,-3.616071 -0.06201,-0.230404 0.426585,-0.274646 3.49432,-0.316407 2.015942,-0.02744 3.642341,-0.124484 3.741072,-0.223215 0.09606,-0.09606 0.279128,-0.174664 0.406807,-0.174664 0.183278,0 0.232143,0.80815 0.232143,3.839286 v 3.839285 h -3.817799 -3.817798 z"
       id="path1466"
       inkscape:connector-curvature="0"
       transform="matrix(0.26458333,0,0,0.26458333,0,280.06665)" />
    <path
       style="opacity:1;fill:#d4aa00;fill-opacity:1;stroke:none;stroke-width:0.33745784;stroke-miterlimit:4;stroke-dasharray:none;stroke-dashoffset:0;stroke-opacity:1"
       d="m 57.229205,27.302103 c 0,-3.647401 0.214657,-4.678043 1.066016,-5.118297 0.271338,-0.140315 0.684897,-0.423259 0.91902,-0.628765 0.234123,-0.205506 0.916265,-0.643745 1.515871,-0.973865 l 1.090193,-0.600217 0.11424,1.725024 c 0.06283,0.948763 0.114657,2.41525 0.115165,3.25886 8.81e-4,1.463209 -0.01963,1.543203 -0.445505,1.737243 -0.245536,0.111874 -0.446429,0.302183 -0.446429,0.422909 0,0.262454 -2.50434,2.638992 -2.784823,2.642707 -0.107546,0.0014 -0.340983,0.163305 -0.518748,0.359733 -0.177765,0.196429 -0.391113,0.357143 -0.474105,0.357143 -0.08299,0 -0.150895,-1.432114 -0.150895,-3.182475 z"
       id="path1468"
       inkscape:connector-curvature="0"
       transform="matrix(0.26458333,0,0,0.26458333,0,280.06665)" />
    <path
       style="opacity:1;fill:#d4aa00;fill-opacity:1;stroke:none;stroke-width:0.33745784;stroke-miterlimit:4;stroke-dasharray:none;stroke-dashoffset:0;stroke-opacity:1"
       d="m 57.586348,36.633553 c 0,-0.743064 -0.07117,-1.486368 -0.158163,-1.651786 -0.08699,-0.165418 -0.212903,-0.86326 -0.279809,-1.55076 l -0.121646,-1.25 1.275004,-0.803572 c 0.701252,-0.441964 1.731184,-1.26524 2.288737,-1.829502 0.557554,-0.564262 1.074002,-1.026315 1.147663,-1.026785 0.07366,-4.71e-4 0.133928,1.397533 0.133928,3.106676 v 3.107531 l -0.535714,0.186751 c -0.294643,0.102713 -0.535714,0.264369 -0.535714,0.359236 0,0.09487 -0.542411,0.596978 -1.205358,1.115803 -0.662946,0.518825 -1.349112,1.088244 -1.524813,1.265376 -0.175701,0.177131 -0.356505,0.322057 -0.401786,0.322057 -0.04528,0 -0.08233,-0.607961 -0.08233,-1.351025 z"
       id="path1470"
       inkscape:connector-curvature="0"
       transform="matrix(0.26458333,0,0,0.26458333,0,280.06665)" />
    <path
       style="opacity:1;fill:#aa4400;fill-opacity:1;stroke:none;stroke-width:0.33745784;stroke-miterlimit:4;stroke-dasharray:none;stroke-dashoffset:0;stroke-opacity:1"
       d="m 24.848253,35.722673 c -0.06548,-0.06548 -0.119048,-1.868769 -0.119048,-4.007318 0,-2.91452 0.0559,-3.92445 0.223214,-4.032738 0.122768,-0.07946 1.880482,-0.170263 3.90603,-0.201791 l 3.682816,-0.05732 0.105007,0.41838 c 0.144393,0.575308 0.173777,7.587598 0.03275,7.815783 -0.126476,0.204643 -7.628854,0.266925 -7.83077,0.06501 z"
       id="path1472"
       inkscape:connector-curvature="0"
       transform="matrix(0.26458333,0,0,0.26458333,0,280.06665)" />
    <path
       style="opacity:1;fill:#aa4400;fill-opacity:1;stroke:none;stroke-width:0.33745784;stroke-miterlimit:4;stroke-dasharray:none;stroke-dashoffset:0;stroke-opacity:1"
       d="m 51.618275,44.393492 c -0.05201,-0.234724 -0.116629,-2.133569 -0.143601,-4.219654 l -0.04904,-3.792884 0.474013,-0.165095 c 0.260707,-0.0908 1.019061,-0.699518 1.68523,-1.3527 0.66617,-0.653183 1.433121,-1.345615 1.704337,-1.538737 l 0.493119,-0.351132 0.106432,0.675287 c 0.05854,0.371408 0.155195,0.87618 0.214794,1.121715 0.0596,0.245536 0.140624,1.504654 0.180055,2.798041 l 0.07169,2.351613 -0.797924,1.049201 c -0.438858,0.57706 -1.186427,1.390551 -1.661265,1.807756 -0.474838,0.417205 -1.160328,1.047636 -1.523311,1.400958 -0.657346,0.639849 -0.660346,0.640706 -0.754532,0.215631 z"
       id="path1474"
       inkscape:connector-curvature="0"
       transform="matrix(0.26458333,0,0,0.26458333,0,280.06665)" />
    <path
       style="opacity:1;fill:#aa4400;fill-opacity:1;stroke:none;stroke-width:0.33745784;stroke-miterlimit:4;stroke-dasharray:none;stroke-dashoffset:0;stroke-opacity:1"
       d="m 24.550634,41.198864 c 0,-1.954378 -0.0678,-3.214286 -0.172967,-3.214286 -0.321264,0 -0.0027,-0.444817 0.47962,-0.669643 0.316579,-0.147577 1.392568,-0.223214 3.175376,-0.223214 2.777304,0 3.125113,0.08243 3.125113,0.740668 0,0.250596 0.184741,0.322732 0.9375,0.366071 l 0.9375,0.05398 0.04886,3.080357 0.04886,3.080357 h -4.289931 -4.289931 z"
       id="path1476"
       inkscape:connector-curvature="0"
       transform="matrix(0.26458333,0,0,0.26458333,0,280.06665)" />
    <path
       style="opacity:1;fill:#aa4400;fill-opacity:1;stroke:none;stroke-width:0.33745784;stroke-miterlimit:4;stroke-dasharray:none;stroke-dashoffset:0;stroke-opacity:1"
       d="m 50.532776,26.912089 c -1.358893,-0.496174 -3.0862,-0.736833 -4.994336,-0.695841 -1.13145,0.02431 -2.087044,0.01025 -2.123543,-0.03124 -0.0365,-0.04149 -0.110895,-2.112491 -0.165323,-4.602231 l -0.09896,-4.526799 0.655367,0.105938 c 1.886513,0.304947 3.527202,0.447228 5.256984,0.455889 l 1.923045,0.0096 -0.13733,0.491072 c -0.223255,0.798319 0.08773,7.460089 0.39064,8.368231 0.146358,0.438784 -0.161751,0.624271 -0.706543,0.425351 z"
       id="path1478"
       inkscape:connector-curvature="0"
       transform="matrix(0.26458333,0,0,0.26458333,0,280.06665)" />
    <path
       style="opacity:1;fill:#aa4400;fill-opacity:1;stroke:none;stroke-width:0.33745784;stroke-miterlimit:4;stroke-dasharray:none;stroke-dashoffset:0;stroke-opacity:1"
       d="m 37.966569,16.418464 -3.816208,-0.04826 0.691208,-0.533269 c 1.603442,-1.23706 3.883275,-2.758224 4.703936,-3.138587 0.34093,-0.158015 1.24216,-0.6404 2.002735,-1.071965 l 1.382862,-0.784665 2.28298,0.0027 c 1.369523,0.0016 2.541625,0.09281 2.929404,0.227926 l 0.646424,0.225236 -0.982141,0.85226 c -0.540178,0.468744 -1.366524,1.047042 -1.836325,1.285108 -1.223846,0.62017 -3.178416,2.019305 -3.494191,2.501238 -0.148211,0.226199 -0.365099,0.438106 -0.481975,0.470907 -0.116876,0.0328 -1.929795,0.03792 -4.028709,0.01138 z"
       id="path1480"
       inkscape:connector-curvature="0"
       transform="matrix(0.26458333,0,0,0.26458333,0,280.06665)" />
    <path
       style="opacity:1;fill:#aa4400;fill-opacity:1;stroke:none;stroke-width:0.33745784;stroke-miterlimit:4;stroke-dasharray:none;stroke-dashoffset:0;stroke-opacity:1"
       d="m 33.300634,9.5277173 c 0,-0.099091 1.941188,-1.3644 2.095467,-1.3658707 0.07517,-7.143e-4 0.609752,-0.442681 1.187957,-0.9821429 l 1.051282,-0.98084 h 4.417924 c 3.549216,0 4.458344,0.048701 4.623479,0.2476773 0.162976,0.1963746 0.08428,0.3429778 -0.379921,0.7077649 -0.322011,0.2530482 -0.7447,0.6036469 -0.93931,0.7791084 -0.194609,0.1754614 -0.49005,0.399378 -0.656536,0.4975923 -0.166485,0.098214 -0.680327,0.3995536 -1.14187,0.6696428 l -0.83917,0.4910715 h -4.709651 c -2.590308,0 -4.709651,-0.028802 -4.709651,-0.064004 z"
       id="path1482"
       inkscape:connector-curvature="0"
       transform="matrix(0.26458333,0,0,0.26458333,0,280.06665)" />
    <path
       style="opacity:1;fill:#aa4400;fill-opacity:1;stroke:none;stroke-width:0.33745784;stroke-miterlimit:4;stroke-dasharray:none;stroke-dashoffset:0;stroke-opacity:1"
       d="m 43.300634,40.385629 v -4.027521 l 2.366071,0.0838 c 1.301339,0.04609 2.848214,0.150882 3.4375,0.232878 l 1.071429,0.149083 0.08928,3.794867 0.08929,3.794868 -3.526786,-2.25e-4 -3.526785,-2.25e-4 z"
       id="path1484"
       inkscape:connector-curvature="0"
       transform="matrix(0.26458333,0,0,0.26458333,0,280.06665)" />
    <path
       style="opacity:1;fill:#00aad4;fill-opacity:1;stroke:none;stroke-width:0.33745784;stroke-miterlimit:4;stroke-dasharray:none;stroke-dashoffset:0;stroke-opacity:1"
       d="M 56.594361,12.218366 C 56.413253,12.117012 55.497627,11.894007 54.559639,11.722799 53.62165,11.55159 52.512374,11.255867 52.094581,11.065636 51.389757,10.744712 51.357551,10.70052 51.648153,10.453047 51.82041,10.306354 52.276601,9.9972137 52.66191,9.7660678 53.047219,9.5349219 53.730255,8.9946145 54.179767,8.5653847 l 0.817295,-0.7804177 1.071429,0.1061436 c 1.32822,0.1315831 3.207657,0.3916633 3.959086,0.5478657 0.398653,0.08287 0.62969,0.2709124 0.78066,0.6353859 0.280601,0.6774308 0.134353,0.8448762 -1.541015,1.7643718 -0.728052,0.399578 -1.324239,0.784696 -1.32486,0.855818 -6.25e-4,0.07112 -0.230085,0.259538 -0.509921,0.418703 -0.3762,0.213975 -0.594603,0.241367 -0.83808,0.105111 z"
       id="path1486"
       inkscape:connector-curvature="0"
       transform="matrix(0.26458333,0,0,0.26458333,0,280.06665)" />
    <path
       style="opacity:1;fill:#00aad4;fill-opacity:1;stroke:none;stroke-width:0.33745784;stroke-miterlimit:4;stroke-dasharray:none;stroke-dashoffset:0;stroke-opacity:1"
       d="m 51.514919,33.286151 c 0,-0.921403 -0.05221,-2.410838 -0.116025,-3.309854 l -0.116026,-1.634576 h 0.473169 c 0.294161,0 0.473168,-0.0979 0.473168,-0.25877 0,-0.142323 0.301339,-0.481135 0.669643,-0.752916 0.368303,-0.27178 0.966738,-0.737923 1.329854,-1.035873 0.363116,-0.29795 0.905527,-0.728642 1.205357,-0.957094 L 55.979205,24.9217 v 3.104452 c 0,2.219502 -0.06363,3.181958 -0.223214,3.376348 -0.122768,0.149543 -0.625,0.560295 -1.116072,0.912782 -0.491071,0.352486 -1.243658,1.011026 -1.672416,1.46342 -0.428758,0.452395 -0.93099,0.903579 -1.116072,1.002632 -0.31852,0.170466 -0.336512,0.09052 -0.336512,-1.495183 z"
       id="path1488"
       inkscape:connector-curvature="0"
       transform="matrix(0.26458333,0,0,0.26458333,0,280.06665)" />
    <path
       style="opacity:1;fill:#00aad4;fill-opacity:1;stroke:none;stroke-width:0.33745784;stroke-miterlimit:4;stroke-dasharray:none;stroke-dashoffset:0;stroke-opacity:1"
       d="m 33.613134,26.599181 -0.491072,-0.304466 v -4.222033 -4.222033 l 0.558036,-0.111607 c 0.306919,-0.06138 2.26466,-0.111607 4.350534,-0.111607 h 3.792499 l 0.121557,1.655984 c 0.06686,0.910791 0.110349,2.834584 0.09665,4.275096 -0.0137,1.440512 0.02215,2.695248 0.07966,2.788302 0.131408,0.212623 -0.86035,0.370241 -1.185318,0.18838 -0.132457,-0.07413 -1.522833,-0.145323 -3.089724,-0.158214 -3.54378,-0.02915 -3.29532,-0.04938 -3.29532,0.268309 0,0.348654 -0.326703,0.332584 -0.9375,-0.04611 z"
       id="path1490"
       inkscape:connector-curvature="0"
       transform="matrix(0.26458333,0,0,0.26458333,0,280.06665)" />
    <path
       style="opacity:1;fill:#00aad4;fill-opacity:1;stroke:none;stroke-width:0.33745784;stroke-miterlimit:4;stroke-dasharray:none;stroke-dashoffset:0;stroke-opacity:1"
       d="m 48.211348,35.306007 c -0.196429,-0.08441 -1.261161,-0.159118 -2.366072,-0.166021 l -2.008928,-0.01255 v -3.638849 c 0,-2.936551 0.04926,-3.679728 0.255212,-3.850656 0.319219,-0.264928 3.680995,-0.154481 5.101931,0.167618 l 0.982143,0.222633 0.05768,3.728198 0.05768,3.728199 -0.861253,-0.01255 c -0.47369,-0.0069 -1.021968,-0.08161 -1.218396,-0.16602 z"
       id="path1492"
       inkscape:connector-curvature="0"
       transform="matrix(0.26458333,0,0,0.26458333,0,280.06665)" />
    <path
       style="opacity:1;fill:#00aad4;fill-opacity:1;stroke:none;stroke-width:0.33745784;stroke-miterlimit:4;stroke-dasharray:none;stroke-dashoffset:0;stroke-opacity:1"
       d="m 34.014641,32.136364 c 1.53e-4,-2.087054 0.04313,-3.794643 0.0955,-3.794643 0.05237,0 0.474248,0.191859 0.9375,0.426354 l 0.842278,0.426353 0.319635,-0.424761 c 0.249483,-0.331535 0.277498,-0.503495 0.127646,-0.783496 -0.186546,-0.348566 -0.139399,-0.358736 1.663099,-0.358736 1.020298,0 2.341952,0.05089 2.937008,0.113083 l 1.08192,0.113083 -0.234318,0.778579 c -0.230098,0.76456 -0.225796,0.782659 0.238918,1.005165 l 0.473235,0.226586 0.04917,2.698168 0.04917,2.698167 -0.763457,0.232925 c -0.452331,0.138004 -2.200812,0.274675 -4.290521,0.335371 l -3.527064,0.102445 z"
       id="path1494"
       inkscape:connector-curvature="0"
       transform="matrix(0.26458333,0,0,0.26458333,0,280.06665)" />
    <path
       style="opacity:1;fill:#00aad4;fill-opacity:1;stroke:none;stroke-width:0.33745784;stroke-miterlimit:4;stroke-dasharray:none;stroke-dashoffset:0;stroke-opacity:1"
       d="m 52.326733,25.807575 c -0.05121,-0.226756 -0.131516,-1.296211 -0.178448,-2.376568 -0.04693,-1.080358 -0.134359,-2.533692 -0.194282,-3.229633 -0.07959,-0.924406 -0.02833,-1.542687 0.190276,-2.29465 0.335838,-1.155242 0.590005,-1.441098 2.312416,-2.600717 0.21882,-0.147322 0.613232,-0.419368 0.87647,-0.604547 0.263238,-0.185179 0.515465,-0.299838 0.560505,-0.254798 0.04504,0.04504 0.161424,1.763514 0.258632,3.818832 0.227741,4.815215 0.252174,4.735545 -2.023472,6.597843 -1.780185,1.456833 -1.696256,1.412857 -1.802097,0.944238 z"
       id="path1496"
       inkscape:connector-curvature="0"
       transform="matrix(0.26458333,0,0,0.26458333,0,280.06665)" />
    <path
       style="opacity:1;fill:#d40000;fill-opacity:1;stroke:none;stroke-width:0.33745784;stroke-miterlimit:4;stroke-dasharray:none;stroke-dashoffset:0;stroke-opacity:1"
       d="m 24.470288,26.416137 c -0.05402,-0.05402 -0.09823,-2.085164 -0.09823,-4.513644 0,-3.861554 0.03543,-4.429015 0.282462,-4.52381 0.36824,-0.141307 6.566837,-0.141307 6.935076,0 0.246886,0.09474 0.282462,0.65701 0.282462,4.464286 v 4.355895 l -2.991071,0.0043 c -1.64509,0.0023 -3.288388,0.07333 -3.651775,0.157749 -0.363386,0.08442 -0.704904,0.109288 -0.758928,0.05526 z"
       id="path1498"
       inkscape:connector-curvature="0"
       transform="matrix(0.26458333,0,0,0.26458333,0,280.06665)" />
    <path
       style="opacity:1;fill:#d40000;fill-opacity:1;stroke:none;stroke-width:0.33745784;stroke-miterlimit:4;stroke-dasharray:none;stroke-dashoffset:0;stroke-opacity:1"
       d="m 31.604205,16.163432 c -0.392857,-0.0864 -2.140721,-0.133867 -3.884141,-0.105475 -2.202952,0.03588 -3.169791,-0.0078 -3.169643,-0.143288 3.19e-4,-0.292122 2.249121,-2.394377 2.561287,-2.394377 0.148807,0 0.376744,-0.105724 0.506527,-0.234943 0.244807,-0.243742 1.51272,-1.102318 2.883462,-1.952557 l 0.791698,-0.491071 4.619691,0.0094 4.61969,0.0094 -1.108832,0.570976 c -2.062707,1.06216 -2.909025,1.558576 -2.909025,1.706318 0,0.08095 -0.395647,0.362522 -0.879216,0.625713 -0.483569,0.263191 -0.905444,0.537123 -0.9375,0.608737 -0.05395,0.120532 -1.497994,1.322807 -2.111855,1.758282 -0.175102,0.124218 -0.515205,0.135618 -0.982143,0.03292 z"
       id="path1500"
       inkscape:connector-curvature="0"
       transform="matrix(0.26458333,0,0,0.26458333,0,280.06665)" />
    <path
       style="opacity:1;fill:#d40000;fill-opacity:1;stroke:none;stroke-width:0.33745784;stroke-miterlimit:4;stroke-dasharray:none;stroke-dashoffset:0;stroke-opacity:1"
       d="m 45.800634,16.254502 c -0.441965,-0.0333 -0.99176,-0.102998 -1.221768,-0.154895 -0.400429,-0.09035 -0.389048,-0.115302 0.267857,-0.58736 0.377329,-0.271151 1.168196,-0.76491 1.757482,-1.097241 0.589286,-0.332332 1.59375,-1.062162 2.232143,-1.621845 1.041818,-0.91337 1.224735,-1.008332 1.785714,-0.927058 0.34375,0.0498 0.745536,0.191508 0.892857,0.314904 0.147322,0.123395 0.508929,0.26899 0.803572,0.323544 0.294643,0.05455 0.9375,0.192165 1.428571,0.305803 0.491072,0.113638 1.079742,0.242563 1.308157,0.286499 0.361092,0.06946 0.256205,0.186315 -0.803571,0.895277 -0.670379,0.448466 -1.339407,0.92547 -1.486729,1.060008 -0.147321,0.134539 -0.559715,0.487769 -0.916431,0.784956 l -0.648574,0.540341 -2.297855,-0.0312 c -1.26382,-0.01716 -2.659461,-0.05844 -3.101425,-0.09173 z"
       id="path1502"
       inkscape:connector-curvature="0"
       transform="matrix(0.26458333,0,0,0.26458333,0,280.06665)" />
    <path
       style="opacity:1;fill:#d40000;fill-opacity:1;stroke:none;stroke-width:0.33745784;stroke-miterlimit:4;stroke-dasharray:none;stroke-dashoffset:0;stroke-opacity:1"
       d="m 57.513595,20.62581 c -0.04577,-0.224999 -0.125534,-1.753945 -0.177247,-3.397658 -0.08985,-2.855852 -0.07671,-3.014639 0.295759,-3.575612 0.404892,-0.609801 1.818579,-1.62507 3.115151,-2.237213 l 0.750196,-0.354186 0.0843,2.613504 c 0.04637,1.437428 0.138828,3.041589 0.20547,3.564802 0.106066,0.832753 0.07169,1.003956 -0.275818,1.373868 -0.218342,0.232414 -0.688569,0.559577 -1.044951,0.727031 -0.356382,0.167454 -1.049753,0.558247 -1.540824,0.86843 -0.491072,0.310182 -0.990948,0.622953 -1.110837,0.695045 -0.140456,0.08446 -0.247577,-0.01441 -0.301202,-0.278011 z"
       id="path1504"
       inkscape:connector-curvature="0"
       transform="matrix(0.26458333,0,0,0.26458333,0,280.06665)" />
    <path
       style="opacity:1;fill:#d40000;fill-opacity:1;stroke:none;stroke-width:0.33745784;stroke-miterlimit:4;stroke-dasharray:none;stroke-dashoffset:0;stroke-opacity:1"
       d="M 48.925634,9.9178759 C 48.434562,9.8288637 47.419883,9.7110044 46.67079,9.6559666 L 45.308804,9.5558977 46.581505,8.4384464 c 1.085705,-0.9532665 1.333442,-1.094939 1.686111,-0.9642313 0.227375,0.084271 1.452822,0.1532201 2.723214,0.1532201 1.270392,0 2.309804,0.06556 2.309804,0.1456891 0,0.080129 -0.306291,0.3178341 -0.680647,0.5282337 -0.374355,0.2103995 -1.049632,0.7073393 -1.500616,1.1043109 -0.450983,0.3969714 -0.928174,0.7110291 -1.060425,0.6979071 -0.13225,-0.01312 -0.642241,-0.09669 -1.133312,-0.1857001 z"
       id="path1506"
       inkscape:connector-curvature="0"
       transform="matrix(0.26458333,0,0,0.26458333,0,280.06665)" />
  </g>
</svg>
