<?xml version="1.0" encoding="UTF-8" standalone="no"?>
<!-- Created with Inkscape (http://www.inkscape.org/) -->

<svg
   xmlns:dc="http://purl.org/dc/elements/1.1/"
   xmlns:cc="http://creativecommons.org/ns#"
   xmlns:rdf="http://www.w3.org/1999/02/22-rdf-syntax-ns#"
   xmlns:svg="http://www.w3.org/2000/svg"
   xmlns="http://www.w3.org/2000/svg"
   xmlns:sodipodi="http://sodipodi.sourceforge.net/DTD/sodipodi-0.dtd"
   xmlns:inkscape="http://www.inkscape.org/namespaces/inkscape"
   width="64"
   height="64"
   viewBox="0 0 16.933333 16.933334"
   version="1.1"
   id="svg8"
   inkscape:version="0.92.4 (5da689c313, 2019-01-14)"
   sodipodi:docname="Results.svg">
  <defs
     id="defs2" />
  <sodipodi:namedview
     id="base"
     pagecolor="#ffffff"
     bordercolor="#666666"
     borderopacity="1.0"
     inkscape:pageopacity="0.0"
     inkscape:pageshadow="2"
     inkscape:zoom="5.6"
     inkscape:cx="50.487597"
     inkscape:cy="44.091807"
     inkscape:document-units="mm"
     inkscape:current-layer="layer1"
     showgrid="false"
     inkscape:window-width="1920"
     inkscape:window-height="1017"
     inkscape:window-x="-8"
     inkscape:window-y="-8"
     inkscape:window-maximized="1"
     units="px" />
  <metadata
     id="metadata5">
    <rdf:RDF>
      <cc:Work
         rdf:about="">
        <dc:format>image/svg+xml</dc:format>
        <dc:type
           rdf:resource="http://purl.org/dc/dcmitype/StillImage" />
        <dc:title></dc:title>
      </cc:Work>
    </rdf:RDF>
  </metadata>
  <g
     inkscape:label="Layer 1"
     inkscape:groupmode="layer"
     id="layer1"
     transform="translate(0,-280.06665)">
    <flowRoot
       xml:space="preserve"
       id="flowRoot4522"
       style="font-style:normal;font-weight:normal;font-size:40px;line-height:1.25;font-family:sans-serif;letter-spacing:0px;word-spacing:0px;fill:#000000;fill-opacity:1;stroke:none"
       transform="scale(0.26458333)"><flowRegion
         id="flowRegion4524"><rect
           id="rect4526"
           width="148.57143"
           height="134.28572"
           x="231.42857"
           y="433.94824" /></flowRegion><flowPara
         id="flowPara4528" /></flowRoot>    <path
       style="fill:none;stroke:#000000;stroke-width:0.5;stroke-linecap:butt;stroke-linejoin:miter;stroke-opacity:1;stroke-miterlimit:4;stroke-dasharray:none"
       d="m 2.4095982,281.21948 c -0.024756,0.21971 0.013753,0.4414 0,0.66146 -0.010851,0.17361 -0.039348,0.34594 -0.047247,0.51971 -0.00787,0.17306 0,0.34648 0,0.51972 0,0.18899 0,0.37798 0,0.56696 0,0.51972 0,1.03944 0,1.55916 0,0.6772 0,1.35441 0,2.03162 0,0.12599 0,0.25198 0,0.37797 0,0.15749 -0.011221,0.31539 0,0.47247 0.00463,0.0648 0.042928,0.1242 0.047247,0.18899 0.011524,0.17286 0,0.34648 0,0.51972 0,0.28348 0,0.56696 0,0.85045 0,0.86619 0,1.73239 0,2.59858 0,0.70871 0,1.41741 0,2.12612 0,0.23623 0,0.47247 0,0.7087 0,0.0426 -0.00991,0.2065 0,0.23624 0.011136,0.0334 0.038706,0.0603 0.047247,0.0945 0.00764,0.0306 0,0.063 0,0.0945 0,0.0315 0,0.063 0,0.0945"
       id="path1107"
       inkscape:connector-curvature="0" />
    <path
       style="fill:none;stroke:#000000;stroke-width:0.5;stroke-linecap:butt;stroke-linejoin:miter;stroke-opacity:1;stroke-miterlimit:4;stroke-dasharray:none"
       d="m 0.8031994,293.64544 c 0.3937252,0 0.7874504,0 1.1811756,0 0.1732391,0 0.3467449,-0.01 0.5197172,0 0.1111909,0.006 0.2198241,0.0372 0.3307293,0.0473 0.062737,0.006 0.1259919,0 0.1889879,0 0.2204863,0 0.4409723,0 0.6614583,0 0.062996,0 0.126057,-0.003 0.1889882,0 0.2836264,0.0129 0.5666957,0.0375 0.8504465,0.0472 0.1731361,0.006 0.3468155,-0.0108 0.519717,0 0.080148,0.005 0.156422,0.0384 0.2362354,0.0473 0.246353,0.14199 0.5043484,0.0263 0.7559521,0.0472 0.1421209,0.0118 0.2831957,0.0343 0.4252233,0.0473 0.031369,0.003 0.062996,0 0.094494,0 0.094494,0 0.1889882,0 0.2834823,0 0.1889879,0 0.3779761,0 0.5669642,0 0.2204861,0 0.4409721,0 0.6614584,0 0.078745,0 0.1578133,0.007 0.236235,0 0.095404,-0.009 0.188078,-0.0386 0.2834823,-0.0473 0.078421,-0.007 0.1582814,0.0111 0.2362351,0 0.034862,-0.005 0.062996,-0.0315 0.094494,-0.0472 0.1102428,-0.0158 0.2199192,-0.0362 0.3307289,-0.0473 0.047013,-0.005 0.094494,0 0.1417412,0 0.1259919,0 0.2523043,0.009 0.3779761,0 0.095554,-0.007 0.1882703,-0.0367 0.2834823,-0.0472 0.04696,-0.005 0.09463,0.004 0.141741,0 0.157809,-0.0121 0.314741,-0.0341 0.47247,-0.0473 0.03139,-0.003 0.06319,0.003 0.09449,0 0.110682,-0.0123 0.221163,-0.0273 0.330729,-0.0472 0.06389,-0.0116 0.124451,-0.0401 0.188989,-0.0473 0.07826,-0.009 0.15749,0 0.236235,0 0.330729,0 0.661458,0 0.992187,0 0.598463,0 1.196925,0 1.795387,0 0.188988,0 0.377976,0 0.566964,0 0.0778,0 0.159502,-0.011 0.236236,0 0.09483,0.0136 0.188424,0.0354 0.283482,0.0473 0.08243,0.0103 0.197206,0 0.283482,0"
       id="path1109"
       inkscape:connector-curvature="0" />
    <path
       style="fill:none;stroke:#000000;stroke-width:0.5;stroke-linecap:butt;stroke-linejoin:miter;stroke-opacity:1;stroke-miterlimit:4;stroke-dasharray:none"
       d="m 2.4568452,287.55058 c 0.1397037,0.0449 0.2840643,-0.0128 0.4252232,0 0.1420275,0.0129 0.2831957,0.0343 0.4252232,0.0472 0.031369,0.003 0.063189,-0.003 0.094494,0 0.110681,0.0123 0.2196949,0.0387 0.3307292,0.0472 0.845454,0.065 -0.0761,-0.0642 0.4252232,0.0473 0.8789136,0.19531 0.00212,2.6e-4 0.3779761,0.0473 0.095058,0.0119 0.1886474,0.0337 0.2834822,0.0472 0.062363,0.009 0.125992,0 0.1889879,0 0.094494,0 0.1889882,0 0.2834823,0 0.056441,0 0.2973541,0.0111 0.3307292,0 0.014941,-0.005 -0.011136,-0.0361 0,-0.0472 0.011136,-0.0111 0.031498,0 0.047247,0 0.015748,0 0.040204,-0.0141 0.047247,0 0.014087,0.0282 -0.00314,0.0632 0,0.0945 0.032216,0.32216 0.077821,0.51698 0.094494,0.85045 0.00786,0.15729 0,0.31498 0,0.47247 0,0.36321 -0.029447,0.72892 -0.094494,1.08668 -0.011615,0.0639 -0.031498,0.12599 -0.047247,0.18899 -0.047247,0.18898 -0.1035368,0.37594 -0.141741,0.56696 -0.00927,0.0463 0.00777,0.0951 0,0.14174 -0.031498,0.14174 -0.062996,0.28348 -0.094494,0.42523 0,0.0472 0.00586,0.0949 0,0.14174 -0.00996,0.0797 -0.039976,0.15626 -0.047247,0.23623 -0.00855,0.0941 0.013364,0.18994 0,0.28348 -0.00315,0.0221 -0.044097,0.0252 -0.047247,0.0473 -0.017817,0.12473 0,0.25198 0,0.37798 0,0.14174 0,0.28348 0,0.42522 0,0.0788 -0.011136,0.15828 0,0.23624 0.00498,0.0349 0.038706,0.0603 0.047247,0.0945 0.00963,0.0385 -0.010562,0.26763 0,0.28348 0.024709,0.0371 0.062996,0.063 0.094494,0.0945"
       id="path1123"
       inkscape:connector-curvature="0" />
    <path
       style="fill:none;stroke:#000000;stroke-width:0.5;stroke-linecap:butt;stroke-linejoin:miter;stroke-opacity:1;stroke-miterlimit:4;stroke-dasharray:none"
       d="m 5.7168898,287.88131 c -0.025717,-0.39729 0.058689,-0.78732 0.094494,-1.18118 0.00285,-0.0314 0,-0.063 0,-0.0945 0.015748,-0.11025 0.034949,-0.22005 0.047247,-0.33073 0.00348,-0.0313 -0.00518,-0.0634 0,-0.0945 0.010676,-0.0641 0.039193,-0.12455 0.047247,-0.18898 0.00781,-0.0625 0,-0.126 0,-0.18899 0,-0.20474 0,-0.40948 0,-0.61421 0,-0.8032 0,-1.6064 0,-2.4096 0,-0.11024 0,-0.22049 0,-0.33073 0,-0.0315 -0.022273,-0.0722 0,-0.0945 0.022273,-0.0223 0.062996,0 0.094494,0 0.078745,0 0.1574901,0 0.2362351,0 0.5197173,0 1.0394347,0 1.559152,0 0.220486,0 0.440972,0 0.6614583,0 0.078745,0 0.1574901,0 0.2362351,0 0.031498,0 0.063936,-0.008 0.094494,0 0.034164,0.009 0.061085,0.0361 0.094494,0.0472 0.029655,0.01 0.1509527,0 0.1889882,0 0.015748,0 0.042267,-0.0149 0.047247,0 0.014941,0.0448 0,0.0945 0,0.14174 0,0.11025 0,0.22049 0,0.33073 0,0.18899 0,0.37798 0,0.56697 0,0.56696 0,1.13393 0,1.70089 0,0.97644 0,1.95288 0,2.92932 0,0.31498 0,0.62996 0,0.94494 0,0.15749 0,0.31498 0,0.47247 0,0.0472 0.00522,0.0948 0,0.14174 -0.010578,0.0952 -0.031498,0.18899 -0.047247,0.28348 -0.015748,0.14174 -0.034336,0.2832 -0.047247,0.42522 -0.00285,0.0314 0,0.063 0,0.0945 0,0.11024 0,0.22048 0,0.33073 0,0.0472 0.00586,0.0949 0,0.14174 -0.019921,0.15937 -0.076758,0.31284 -0.094494,0.47247 -0.00696,0.0626 0,0.12599 0,0.18899 0,0.17323 0,0.34647 0,0.51971 0,0.39373 0,0.78745 0,1.18118 0,0.0787 0,0.15749 0,0.23623 0,0.063 -0.034939,0.13657 0,0.18899 0.039068,0.0586 0.1259919,0.063 0.1889879,0.0945"
       id="path1125"
       inkscape:connector-curvature="0" />
    <path
       style="fill:none;stroke:#000000;stroke-width:0.5;stroke-linecap:butt;stroke-linejoin:miter;stroke-opacity:1;stroke-miterlimit:4;stroke-dasharray:none"
       d="m 9.0241815,284.38503 c 0.094494,0 0.1900867,-0.0144 0.283482,0 0.1133213,0.0174 0.2188048,0.0696 0.3307291,0.0945 0.030748,0.007 0.063189,-0.003 0.094494,0 0.1106813,0.0123 0.2200479,0.035 0.3307294,0.0473 0.297656,0.0331 -0.2480471,-0.0827 0.330729,0 0.03486,0.005 0.05996,0.0403 0.09449,0.0473 0.04633,0.009 0.09449,0 0.141741,0 0.063,0 0.125992,0 0.188988,0 0.283482,0 0.566965,0 0.850447,0 0.188988,0 0.377976,0 0.566964,0 0.01,0 0.14107,-0.003 0.141741,0 0.01544,0.0772 0,0.15749 0,0.23623 0,0.26458 0,0.38743 0,0.51972 0,0.18899 0,0.37797 0,0.56696 0,0.0473 0.0039,0.0947 0,0.14174 -0.01184,0.14212 -0.03306,0.28332 -0.04725,0.42523 -0.0094,0.094 0,0.18898 0,0.28348 0,0.12599 0,0.25198 0,0.37798 0,1.24417 0,2.48834 0,3.73251 0,0.42522 0,0.85045 0,1.27567 0,0.15749 0,0.31498 0,0.47247 0,0.063 0.0089,0.12663 0,0.18899 -0.05721,0.40045 -0.04725,-0.0528 -0.04725,0.23623 0,0.0945 0,0.18899 0,0.28349 0,0.0157 0,0.0315 0,0.0472 0,0.0157 0.007,0.0332 0,0.0472 -0.05838,0.11677 -0.04725,-0.0163 -0.04725,0.0945"
       id="path1133"
       inkscape:connector-curvature="0" />
    <path
       style="fill:none;stroke:#000000;stroke-width:0.5;stroke-linecap:butt;stroke-linejoin:miter;stroke-opacity:1;stroke-miterlimit:4;stroke-dasharray:none"
       d="m 12.37872,287.92855 c 0.425223,0 0.850447,0 1.27567,0 0.440972,0 0.881944,0 1.322916,0 0.07874,0 0.15749,0 0.236235,0 0.01575,0 0.0402,-0.0141 0.04725,0 0.01409,0.0282 0,0.063 0,0.0945 0,0.0787 0,0.15749 0,0.23623 0,0.29923 0,0.59847 0,0.8977 0,0.0945 0,0.18899 0,0.28348 0,0.0473 -0.0078,0.0951 0,0.14174 0.0082,0.0491 0.03517,0.0934 0.04725,0.14174 0.0038,0.0153 0,0.0315 0,0.0472 0,0.0473 0,0.0945 0,0.14174 0,0.12599 0,0.25198 0,0.37798 0,0.42522 0,0.85044 0,1.27567 0,0.45672 0,0.91344 0,1.37016 0,0.12599 0,0.25198 0,0.37798 0,0.0472 0,0.0945 0,0.14174 0,0.0157 0.01575,0.0472 0,0.0472 -0.01575,0 -0.01553,-0.0498 0,-0.0472 0.192153,0.032 0.377973,0.0945 0.56696,0.14178"
       id="path1135"
       inkscape:connector-curvature="0" />
    <path
       style="opacity:1;fill:#ff6600;fill-opacity:1;stroke:none;stroke-width:0.33745784;stroke-miterlimit:4;stroke-dasharray:none;stroke-dashoffset:0;stroke-opacity:1"
       d="m 14.028811,50.563695 c -2.03001,-0.05606 -3.735096,-0.146302 -3.78908,-0.200534 -0.05398,-0.05423 -0.120745,-4.815418 -0.148357,-10.580412 l -0.05021,-10.481806 0.382713,5.3e-5 c 0.84553,1.19e-4 5.371987,0.540294 5.955394,0.7107 0.343102,0.100216 1.444371,0.182211 2.447266,0.182211 h 1.823444 l 0.08987,0.580357 c 0.357532,2.308844 0.180706,6.571298 -0.343302,8.27542 -0.253664,0.824939 -0.363012,1.408254 -0.803487,4.286175 -0.353686,2.310863 -0.385238,2.689887 -0.414814,4.983048 l -0.02994,2.321429 -0.714285,0.01264 c -0.392858,0.0069 -2.375204,-0.03322 -4.405215,-0.08928 z"
       id="path1137"
       inkscape:connector-curvature="0"
       transform="matrix(0.26458333,0,0,0.26458333,0,280.06665)" />
    <path
       style="opacity:1;fill:#ffcc00;fill-opacity:1;stroke:none;stroke-width:0.33745784;stroke-miterlimit:4;stroke-dasharray:none;stroke-dashoffset:0;stroke-opacity:1"
       d="m 23.313678,51.137128 -1.906062,-0.06217 -0.127526,-1.190823 c -0.248569,-2.321102 0.251757,-6.871397 1.163658,-10.583084 0.507081,-2.063957 0.662714,-5.649393 0.370571,-8.537118 -0.20432,-2.019636 -0.193949,-2.538705 0.09523,-4.766453 0.250781,-1.931912 0.339289,-4.072388 0.389498,-9.419643 l 0.06497,-6.919643 4.856429,0.00273 c 2.671036,0.0015 4.959338,0.068036 5.085116,0.1478495 0.183631,0.1165247 0.214043,2.7810315 0.154363,13.5240505 -0.06977,12.559668 -0.230897,17.933099 -0.553378,18.454883 -0.07576,0.122576 -0.128105,2.164562 -0.11633,4.537746 0.01251,2.521709 -0.05052,4.426195 -0.151679,4.582736 -0.144066,0.222944 -0.780534,0.269807 -3.795947,0.279484 -1.992572,0.0064 -4.480587,-0.01636 -5.528921,-0.05055 z"
       id="path1139"
       inkscape:connector-curvature="0"
       transform="matrix(0.26458333,0,0,0.26458333,0,280.06665)" />
    <path
       style="opacity:1;fill:#ccff00;fill-opacity:1;stroke:none;stroke-width:0.33745784;stroke-miterlimit:4;stroke-dasharray:none;stroke-dashoffset:0;stroke-opacity:1"
       d="m 34.845463,46.309978 c 0.05213,-2.430803 0.181322,-5.343749 0.287089,-6.473214 0.105766,-1.129464 0.233202,-6.619283 0.283191,-12.199598 l 0.09089,-10.146026 0.481554,0.101926 c 1.227698,0.259855 4.14019,0.452068 6.892702,0.45489 l 3.018292,0.0031 -0.117829,3.080357 c -0.0648,1.694197 -0.11405,8.159024 -0.109431,14.366284 0.0046,6.207261 -0.04572,12.002839 -0.111869,12.879062 l -0.120266,1.593136 -1.717165,0.101006 c -0.944442,0.05555 -2.842166,0.224116 -4.217166,0.37458 -1.375,0.150466 -3.007325,0.275953 -3.627389,0.278861 l -1.127389,0.0053 z"
       id="path1141"
       inkscape:connector-curvature="0"
       transform="matrix(0.26458333,0,0,0.26458333,0,280.06665)" />
    <path
       style="opacity:1;fill:#00ccff;fill-opacity:1;stroke:none;stroke-width:0.33745784;stroke-miterlimit:4;stroke-dasharray:none;stroke-dashoffset:0;stroke-opacity:1"
       d="m 47.514743,49.077836 c 0.06193,-0.515625 0.113305,-4.854911 0.114159,-9.642857 l 0.0016,-8.705358 h 4.560992 4.560993 l 0.01862,2.544643 c 0.01024,1.399554 0.05138,5.73884 0.09141,9.642857 l 0.07278,7.098215 h -4.766556 -4.766557 z"
       id="path1143"
       inkscape:connector-curvature="0"
       transform="matrix(0.26458333,0,0,0.26458333,0,280.06665)" />
  </g>
</svg>
